<?xml version="1.0" encoding="utf-8"?>
<!-- Generator: Adobe Illustrator 27.5.0, SVG Export Plug-In . SVG Version: 6.00 Build 0)  -->
<svg version="1.1" xmlns="http://www.w3.org/2000/svg" xmlns:xlink="http://www.w3.org/1999/xlink" x="0px" y="0px"
	 viewBox="0 0 500 500" style="enable-background:new 0 0 500 500;" xml:space="preserve">
<g id="Background">
	<rect style="fill:transparent;" width="500" height="500"/>
</g>
<g xmlns="http://www.w3.org/2000/svg" id="Objects">
	<!-- <text transform="matrix(1 0 0 1 110.2588 51)" style="fill:#889BB7; font-family:'Montserrat-SemiBold'; font-size:18px;">CARDBOARD BOX COLLECTION</text> -->
	<g>
		<polygon style="fill:transparent;" points="143.519,237.079 196.143,268.32 302.113,207.028 249.489,179.09   "/>
		<g>
			<g>
				<polygon style="fill:#E69632;" points="288.339,120.544 198.165,172.7 198.165,256.572 288.339,205.626     "/>
				<polygon style="fill:#FDAC52;" points="155.476,147.024 198.165,172.7 198.165,256.572 155.476,230.572     "/>
				<polygon style="fill:#D77D14;" points="155.476,147.024 198.165,172.7 288.339,120.544 245.649,97.68     "/>
				<polygon style="fill:#E69632;" points="155.476,147.024 245.649,97.68 245.649,145.234 198.165,173.167     "/>
			</g>
			<g>
				<polygon style="fill:#FDAC52;" points="237.099,71.855 147.063,122.181 155.467,147.022 245.501,97.73     "/>
				<polygon style="fill:#E69632;" points="245.501,97.73 262.667,74.913 308.185,96.445 288.339,120.544     "/>
				<polygon style="fill:#FDAC52;" points="303.349,99.077 213.175,151.233 198.165,172.7 288.339,120.544     "/>
				<polygon style="fill:#BF7D47;" points="155.467,147.022 131.003,138.003 181.641,169.211 198.165,172.7     "/>
			</g>
			<g>
				<polygon style="fill:#f4511f;" points="160.198,160.95 192.438,180.061 192.438,212.582 160.198,193.266     "/>
				<polygon style="fill:#F4420B;" points="164.297,167.862 188.342,182.031 188.342,205.67 164.297,191.016     "/>
			</g>
			<polygon style="fill:#A56632;" points="162.117,214.794 189.309,231.529 189.309,236.31 162.117,219.607    "/>
			<polygon style="fill:#A56632;" points="162.117,203.255 189.309,219.99 189.309,224.77 162.117,208.068    "/>
			<g>
				<path style="fill:#A56632;" d="M203.89,180.58v14.778l13.639-7.753v-15.086L203.89,180.58z M216.349,186.97l-11.279,6.413      v-12.221l11.279-6.668V186.97z"/>
				<polygon style="fill:#A56632;" points="214.156,178.036 207.185,182.156 207.185,189.712 214.156,185.749     "/>
			</g>
			<polygon style="fill:#A56632;" points="288.339,132.46 264.156,146.968 264.156,161.664 288.339,147.46    "/>
			<polygon style="fill:#B27440;" points="288.339,163.023 198.165,215.646 198.165,223.706 288.339,171.386    "/>
			<polygon style="fill:#A56632;" points="205.518,227.617 205.518,244.8 221.373,235.785 221.373,218.244    "/>
			<polygon style="fill:#A56632;" points="225.825,167.615 219.807,171.276 219.807,186.766 225.825,183.463    "/>
		</g>
	</g>
	<g>
		<polygon style="fill:transparent;" points="234.127,287.243 295.852,324.442 357.581,287.965 295.855,253.984   "/>
		<g>
			<g>
				<polygon style="fill:#E69632;" points="345.949,225.369 294.983,255.486 294.983,310.709 345.949,281.734     "/>
				<polygon style="fill:#FDAC52;" points="244.022,224.772 294.983,255.486 294.983,310.709 244.022,281.734     "/>
				<polygon style="fill:#D77D14;" points="244.022,224.772 294.983,255.486 345.949,225.369 294.986,197.314     "/>
				<polygon style="fill:#E69632;" points="244.022,224.772 294.986,197.314 294.983,255.486     "/>
			</g>
			<g>
				<polygon style="fill:#f4511f;" points="252.799,239.573 286.209,259.706 286.209,295.909 252.799,276.915     "/>
				<polygon style="fill:#F4420B;" points="255.597,244.292 283.411,261.052 283.411,291.19 255.597,275.379     "/>
			</g>
			<g>
				<path style="fill:#A56632;" d="M301.935,285.338v16.245l14.99-8.523v-16.582L301.935,285.338z M315.628,292.362l-12.397,7.049      v-13.434l12.397-7.327V292.362z"/>
				<polygon style="fill:#A56632;" points="313.284,282.578 305.577,287.133 305.577,295.484 313.284,291.103     "/>
				<polygon style="fill:#A56632;" points="345.949,259.449 319.22,275.487 319.22,291.731 345.949,276.031     "/>
			</g>
			<polygon style="fill:#ED984A;" points="262.05,235.598 274.734,243.25 274.734,274.95 262.05,267.738    "/>
			<g>
				<polygon style="fill:#FDAC52;" points="285.7,168.712 234.733,197.314 244.022,224.772 294.988,197.314     "/>
				<polygon style="fill:#E69632;" points="294.986,197.314 313.961,172.091 367.887,198.73 345.949,225.369     "/>
				<polygon style="fill:#FDAC52;" points="362.54,201.639 311.576,231.757 294.983,255.486 345.949,225.369     "/>
				<polygon style="fill:#BF7D47;" points="244.022,224.772 216.981,214.802 276.719,251.629 294.983,255.486     "/>
			</g>
		</g>
	</g>
	<g>
		<polygon style="fill:transparent;" points="22.779,335.845 75.404,367.085 181.375,305.793 128.751,277.855   "/>
		<g>
			<g>
				<polygon style="fill:#E69632;" points="164.913,220.673 74.74,272.83 74.74,356.702 164.913,305.755     "/>
				<polygon style="fill:#FDAC52;" points="32.051,247.155 74.74,272.83 74.74,356.702 32.051,330.701     "/>
				<polygon style="fill:#E69632;" points="32.051,247.155 74.74,272.83 164.913,220.673 122.225,197.81     "/>
			</g>
			<g>
				<polygon style="fill:#f4511f;" points="36.773,261.08 69.014,280.19 69.014,321.68 36.773,302.364     "/>
				<polygon style="fill:#F4420B;" points="40.872,267.991 64.916,282.161 64.916,314.767 40.872,300.114     "/>
			</g>
			<polygon style="fill:#A56632;" points="38.692,314.924 65.884,331.659 65.884,336.44 38.692,319.737    "/>
			<g>
				<path style="fill:#A56632;" d="M125.095,309.141v14.694l13.562-7.71v-15L125.095,309.141z M137.483,315.496l-11.216,6.377      v-12.154l11.216-6.629V315.496z"/>
				<polygon style="fill:#A56632;" points="135.361,306.642 128.39,310.764 128.39,318.318 135.361,314.355     "/>
				<polygon style="fill:#A56632;" points="164.913,285.721 140.732,300.228 140.732,314.924 164.913,300.72     "/>
			</g>
			<polygon style="fill:#B27440;" points="164.913,263.152 74.74,315.775 74.74,323.835 164.913,271.516    "/>
			<g>
				<polygon style="fill:#A56632;" points="82.093,279.571 82.093,296.754 97.949,287.74 97.949,270.198     "/>
				<polygon style="fill:#A56632;" points="106.393,265.489 100.374,269.15 100.374,286.333 106.393,283.028     "/>
			</g>
			<g>
				<polygon style="fill:#AC642E;" points="130.215,240.695 116.526,248.667 116.526,333.285 130.215,325.544     "/>
				<polygon style="fill:#AC642E;" points="130.215,240.738 116.526,248.667 74.457,223.881 87.64,216.701     "/>
			</g>
			<g>
				<polygon style="fill:#ED984A;" points="46.228,255.676 59.645,263.77 59.645,282.211 46.228,274.25     "/>
				<polygon style="fill:#ED984A;" points="46.228,255.719 59.65,263.805 148.838,212.167 135.762,204.967     "/>
			</g>
			<polygon style="fill:#AC642E;" points="44.476,320.791 57.894,328.885 57.894,346.554 44.476,338.592    "/>
		</g>
	</g>
	<g>
		<polygon style="fill:transparent;" points="137.081,343.304 199.727,381.057 262.375,344.036 199.728,309.55   "/>
		<g>
			<g>
				<polygon style="fill:#E69632;" points="254.358,280.608 200.445,312.467 200.445,370.887 254.358,340.234     "/>
				<polygon style="fill:#FDAC52;" points="146.534,279.977 200.445,312.467 200.445,370.887 146.534,338.055     "/>
				<polygon style="fill:#E69632;" points="146.534,279.977 200.445,312.467 254.358,280.608 200.447,250.93     "/>
			</g>
			<g>
				<polygon style="fill:#f4511f;" points="152.259,299.932 194.719,325.52 194.719,347.51 152.259,321.715     "/>
				<polygon style="fill:#F4420B;" points="156.357,306.844 190.622,327.49 190.622,340.596 156.357,319.466     "/>
			</g>
			<polygon style="fill:#A56632;" points="156.357,329.862 183.549,346.598 183.549,351.378 156.357,334.676    "/>
			<g>
				<polygon style="fill:#AC642E;" points="235.325,291.802 221.907,299.896 221.907,319.196 235.325,311.57     "/>
				<polygon style="fill:#AC642E;" points="235.325,291.845 221.903,299.932 168.475,268.156 181.722,261.019     "/>
			</g>
			<g>
				<path style="fill:#A56632;" d="M207.798,344.049v17.184l15.856-9.016v-17.541L207.798,344.049z M221.907,351.278l-12.362,7.027      v-13.397l12.362-7.306V351.278z"/>
				<polygon style="fill:#A56632;" points="219.335,341.91 212.117,346.176 212.117,353.998 219.335,349.895     "/>
				<polygon style="fill:#A56632;" points="232.098,329.966 226.08,333.628 226.08,350.81 232.098,347.506     "/>
			</g>
			<g>
				<polygon style="fill:#ED984A;" points="165.603,291.429 179.022,299.522 179.022,318.823 165.603,311.197     "/>
				<polygon style="fill:#ED984A;" points="165.603,291.473 179.026,299.559 231.953,268.216 218.878,261.019     "/>
			</g>
		</g>
	</g>
	<g>
		<polygon style="fill:transparent;" points="174.102,422.276 240.995,461.942 346.954,400.438 280.615,363.991   "/>
		<g>
			<g>
				<polygon style="fill:#E69632;" points="328.652,346.407 238.478,398.565 238.478,449.512 328.652,398.565     "/>
				<polygon style="fill:#FDAC52;" points="184.567,366.073 238.478,398.565 238.478,449.512 184.567,416.696     "/>
				<g>
					<polygon style="fill:#f4511f;" points="190.292,380.335 232.753,405.924 232.753,436.631 190.292,410.836      "/>
					<polygon style="fill:#F4420B;" points="194.391,387.247 228.655,407.894 228.655,429.718 194.391,408.586      "/>
				</g>
				<polygon style="fill:#E69632;" points="184.567,366.073 238.478,398.565 328.652,346.407 274.741,316.728     "/>
			</g>
			<g>
				<polygon style="fill:#A56632;" points="245.831,405.305 245.831,422.487 261.686,413.474 261.686,395.933     "/>
				<g>
					<path style="fill:#A56632;" d="M308.348,387.774v17.184l15.854-9.016v-17.541L308.348,387.774z M322.456,395.004l-12.362,7.027       v-13.398l12.362-7.306V395.004z"/>
					<polygon style="fill:#A56632;" points="319.883,385.636 312.666,389.902 312.666,397.724 319.883,393.62      "/>
				</g>
				<polygon style="fill:#A56632;" points="270.132,391.223 264.112,394.884 264.112,412.065 270.132,408.763     "/>
			</g>
			<g>
				<polygon style="fill:#AC642E;" points="293.954,366.429 280.266,374.399 280.266,425.944 293.954,418.203     "/>
				<polygon style="fill:#AC642E;" points="293.954,366.472 280.266,374.399 227.102,342.782 240.285,335.603     "/>
			</g>
			<g>
				<polygon style="fill:#ED984A;" points="203.638,377.523 217.056,385.618 217.056,436.631 203.638,428.67     "/>
				<polygon style="fill:#ED984A;" points="203.638,377.567 217.06,385.653 306.248,334.016 293.172,326.817     "/>
			</g>
		</g>
	</g>
	<g>
		<polygon style="fill:transparent;" points="308.31,331.708 375.204,371.373 481.163,309.868 414.822,273.422   "/>
		<g>
			<g>
				<polygon style="fill:#E69632;" points="463.375,255.392 373.2,307.548 373.2,358.497 463.375,307.548     "/>
				<polygon style="fill:#FDAC52;" points="319.289,275.058 373.2,307.548 373.2,358.497 319.289,325.682     "/>
				<polygon style="fill:#D77D14;" points="319.289,275.058 373.2,307.548 463.375,255.392 409.463,225.714     "/>
				<polygon style="fill:#E69632;" points="319.38,275.052 409.414,225.76 409.414,286.791 373.2,307.548     "/>
			</g>
			<g>
				<polygon style="fill:#FDAC52;" points="401.013,199.883 310.977,250.209 319.38,275.052 409.414,225.76     "/>
				<polygon style="fill:#E69632;" points="409.414,225.76 426.581,202.941 483.221,231.293 463.375,255.392     "/>
				<polygon style="fill:#FDAC52;" points="478.384,233.926 388.212,286.082 373.2,307.548 463.375,255.392     "/>
				<polygon style="fill:#BF7D47;" points="319.38,275.052 294.917,266.032 356.676,304.059 373.2,307.548     "/>
			</g>
			<g>
				<polygon style="fill:#f4511f;" points="329.113,292.186 362.266,312.151 362.266,341.969 329.113,322.194     "/>
				<polygon style="fill:#F4420B;" points="333.212,299.098 358.168,314.122 358.168,334.359 333.212,319.944     "/>
			</g>
			<polygon style="fill:#B27440;" points="420.772,280.071 411.615,285.367 411.615,336.793 420.772,331.619    "/>
			<g>
				<polygon style="fill:#A56632;" points="434.452,301.433 434.452,318.614 450.307,309.6 450.307,292.06     "/>
				<g>
					<path style="fill:#A56632;" d="M380.554,314.29v17.184l15.855-9.016v-17.541L380.554,314.29z M394.662,321.52l-12.361,7.027       v-13.397l12.361-7.306V321.52z"/>
					<polygon style="fill:#A56632;" points="392.089,312.151 384.873,316.417 384.873,324.239 392.089,320.136      "/>
				</g>
				<polygon style="fill:#A56632;" points="458.751,287.349 452.732,291.011 452.732,308.192 458.751,304.89     "/>
			</g>
		</g>
	</g>
</g>
</svg>
