<?xml version="1.0" encoding="utf-8"?>
<!-- Generator: Adobe Illustrator 27.5.0, SVG Export Plug-In . SVG Version: 6.00 Build 0)  -->
<svg version="1.1" xmlns="http://www.w3.org/2000/svg" xmlns:xlink="http://www.w3.org/1999/xlink" x="0px" y="0px"
	 viewBox="0 0 500 500" style="enable-background:new 0 0 500 500;" xml:space="preserve">
<g id="BACKGROUND">
	<rect style="fill:transparent;" width="500" height="500"/>
</g>
<g id="OBJECTS">
	<g>
		<ellipse style="fill:#ffffff;" cx="98.863" cy="174.934" rx="56.058" ry="5.192"/>
		<g>
			<rect x="53.083" y="109.659" style="fill:#E69632;" width="91.561" height="65.275"/>
			<polygon style="fill:#FFAE55;" points="128.325,98.508 69.402,98.508 53.083,109.659 144.644,109.659 			"/>
		</g>
	</g>
	<g>
		<ellipse style="fill:#ffffff;" cx="250" cy="174.934" rx="56.059" ry="5.192"/>
		<g>
			<polygon style="fill:#C47212;" points="230.955,103.212 296.266,107.195 296.266,174.486 230.955,170.504 			"/>
			<polygon style="fill:#D77D14;" points="230.955,103.212 204.489,107.195 204.489,174.486 230.955,170.504 			"/>
			<polygon style="fill:#E69632;" points="269.8,178.469 204.489,174.486 204.489,107.195 269.8,111.177 			"/>
			<polygon style="fill:#D77D14;" points="269.8,178.469 296.266,174.486 296.266,107.195 269.8,111.177 			"/>
			<polygon style="opacity:0.15;" points="269.8,111.177 204.489,107.195 204.489,117.118 269.8,121.1 296.266,117.118 
				296.266,107.195 			"/>
			<g>
				<polygon style="fill:#D77D14;" points="230.096,95.174 201.986,99.404 201.986,114.173 230.096,109.943 				"/>
				<g>
					<polygon style="fill:#C47212;" points="230.096,95.174 297.873,99.404 297.873,114.173 230.096,109.943 					"/>
					<polygon style="fill:#E69632;" points="269.762,118.403 201.986,114.173 201.986,99.404 269.762,103.633 					"/>
					<polygon style="fill:#D77D14;" points="269.762,118.403 297.873,114.173 297.873,99.404 269.762,103.633 					"/>
					<polygon style="fill:#FFAE55;" points="201.986,99.404 230.096,95.174 297.873,99.404 269.762,103.633 					"/>
				</g>
			</g>
		</g>
	</g>
	<g>
		<ellipse style="fill:#ffffff;" cx="230.955" cy="436.533" rx="55.576" ry="17.891"/>
		<g>
			<polygon style="fill:#B36810;" points="229.024,379.461 283.332,396.802 283.332,432.696 229.024,415.356 			"/>
			<polygon style="fill:#C47212;" points="229.024,379.461 283.332,396.802 308.086,352.528 253.779,335.188 			"/>
			<polygon style="fill:#E69632;" points="246.203,336.725 300.511,354.065 308.086,352.528 253.779,335.188 			"/>
			<polygon style="fill:#C47212;" points="229.024,379.461 179.043,396.802 179.043,432.696 229.024,415.356 			"/>
			<polygon style="fill:#FFAE55;" points="229.024,379.461 179.043,396.802 186.715,396.802 236.697,379.461 			"/>
			<polygon style="fill:#E69632;" points="233.35,449.918 179.043,432.578 179.043,396.683 233.35,414.023 			"/>
			<polygon style="fill:#D77D14;" points="233.35,449.918 283.332,432.578 283.332,396.683 233.35,414.023 			"/>
			<polygon style="fill:#FFAE55;" points="229.009,408.839 278.991,391.499 283.332,396.683 233.35,414.023 			"/>
		</g>
	</g>
	<g>
		<ellipse style="fill:#ffffff;" cx="98.863" cy="305.445" rx="56.058" ry="5.192"/>
		<g>
			<polygon style="fill:#C47212;" points="81.964,226.987 144.964,231.987 144.964,305.445 81.964,300.445 			"/>
			<polygon style="fill:#D77D14;" points="81.964,226.987 144.964,231.987 156.877,219 93.877,214 			"/>
			<polygon style="fill:#D77D14;" points="81.964,226.987 48.735,231.987 48.735,305.445 81.964,300.445 			"/>
			<polygon style="fill:#E69632;" points="81.964,226.987 48.735,231.987 35.315,222.993 68.544,217.993 			"/>
			<polygon style="fill:#E69632;" points="111.735,310.445 48.735,305.445 48.735,231.987 111.735,236.987 			"/>
			<polygon style="fill:#FFAE55;" points="96.849,250 33.849,245 48.735,231.987 111.735,236.987 			"/>
			<polygon style="fill:#D77D14;" points="111.735,310.445 144.964,305.445 144.964,231.987 111.735,236.987 			"/>
			<polygon style="fill:#E69632;" points="130.648,240.993 163.877,235.993 144.964,231.987 111.735,236.987 			"/>
		</g>
	</g>
	<g>
		<ellipse style="fill:#ffffff;" cx="396.93" cy="172.851" rx="72.679" ry="7.275"/>
		<g>
			<polygon style="fill:#C47212;" points="359.067,139.486 436.517,144.486 436.517,173.945 359.067,168.945 			"/>
			<polygon style="fill:#D77D14;" points="359.067,139.486 327.681,144.486 327.681,173.945 359.067,168.945 			"/>
			<polygon style="fill:#E69632;" points="405.132,178.945 327.681,173.945 327.681,144.486 405.132,149.486 			"/>
			<polygon style="fill:#D77D14;" points="405.132,178.945 436.517,173.945 436.517,144.486 405.132,149.486 			"/>
			<polygon style="opacity:0.15;" points="430.207,145.491 405.132,149.486 380.229,147.878 430.087,174.568 431.004,174.823 
				436.517,173.945 436.517,148.869 			"/>
			<g>
				<polygon style="fill:#D77D14;" points="397.743,123.112 365.134,114.059 358.22,131.097 390.829,140.15 				"/>
				<g>
					<polygon style="fill:#C47212;" points="397.743,123.112 469.609,161.584 462.695,178.621 390.829,140.15 					"/>
					<polygon style="fill:#E69632;" points="430.087,169.568 358.22,131.097 365.134,114.059 437.001,152.531 					"/>
					<polygon style="fill:#D77D14;" points="430.087,169.568 462.695,178.621 469.609,161.584 437.001,152.531 					"/>
					<polygon style="fill:#FFAE55;" points="365.134,114.059 397.743,123.112 469.609,161.584 437.001,152.531 					"/>
				</g>
			</g>
		</g>
	</g>
	<g>
		<ellipse style="fill:#ffffff;" cx="250" cy="310.445" rx="56.059" ry="5.192"/>
		<g>
			<rect x="208.565" y="251.987" style="fill:#E69632;" width="82" height="58.459"/>
			<rect x="208.565" y="251.987" style="opacity:0.09;" width="82" height="6.333"/>
			<rect x="212.99" y="219.98" style="fill:#C47212;" width="73.151" height="32.007"/>
			<polygon style="fill:#C47212;" points="286.141,235.983 293.43,224.873 298.844,235.983 290.565,251.987 			"/>
			<polygon style="fill:#C47212;" points="212.99,235.983 205.7,224.873 200.286,235.983 208.565,251.987 			"/>
			<polygon style="fill:#D77D14;" points="295.565,231.487 203.565,231.487 208.565,251.987 290.565,251.987 			"/>
		</g>
	</g>
	<g>
		<ellipse style="fill:#ffffff;" cx="408.132" cy="310.445" rx="56.058" ry="5.192"/>
		<g>
			<polygon style="fill:#C47212;" points="399.987,230.987 456.987,235.987 456.987,311.446 399.987,306.446 			"/>
			<polygon style="fill:#D77D14;" points="399.987,230.987 366.758,235.987 366.758,311.446 399.987,306.446 			"/>
			<polygon style="fill:#E69632;" points="417.758,316.446 366.758,311.446 366.758,235.987 417.758,240.987 			"/>
			<polygon style="fill:#D77D14;" points="417.758,316.446 456.987,311.446 456.987,235.987 417.758,240.987 			"/>
			<polygon style="opacity:0.15;" points="366.758,264.101 396.884,246.606 404.303,239.668 370.281,236.333 367.506,237.98 
				366.758,238.711 			"/>
			<g>
				<polygon style="fill:#D77D14;" points="365.506,234.98 339.966,259.912 347.879,270.903 373.42,245.972 				"/>
				<g>
					<polygon style="fill:#C47212;" points="365.506,234.98 417.38,204.178 425.293,215.169 373.42,245.972 					"/>
					<polygon style="fill:#E69632;" points="394.884,243.606 347.879,270.903 339.966,259.912 386.971,232.615 					"/>
					<polygon style="fill:#D77D14;" points="394.884,243.606 425.293,215.169 417.38,204.178 386.971,232.615 					"/>
					<polygon style="fill:#FFAE55;" points="339.966,259.912 365.506,234.98 417.38,204.178 386.971,232.615 					"/>
				</g>
			</g>
		</g>
	</g>
	<g>
		<ellipse style="fill:#ffffff;" cx="100.346" cy="436.533" rx="55.576" ry="17.891"/>
		<g>
			<polygon style="fill:#B36810;" points="97.29,349.909 145.763,365.386 145.763,436.444 97.29,420.967 			"/>
			<polygon style="fill:#C47212;" points="97.29,349.909 52.679,365.386 52.679,436.444 97.29,420.967 			"/>
			<polygon style="fill:#E69632;" points="101.152,451.816 52.679,436.339 52.679,365.281 101.152,380.758 			"/>
			<polygon style="opacity:0.15;" points="52.679,375.17 52.679,395.779 95.267,409.377 101.152,390.647 101.152,380.758 
				54.702,368.73 			"/>
			<polygon style="fill:#D77D14;" points="101.152,451.816 145.763,436.339 145.763,365.281 101.152,380.758 			"/>
			<polygon style="opacity:0.15;" points="101.152,380.758 101.152,390.268 106.571,407.807 145.763,394.21 145.763,374.791 
				143.109,366.202 			"/>
			<polygon style="fill:#E69632;" points="108.345,404.555 152.956,389.078 145.763,365.281 101.152,380.758 			"/>
			<polygon style="fill:#FFAE55;" points="93.244,405.928 44.771,390.451 52.679,365.281 101.152,380.758 			"/>
		</g>
	</g>
	<g>
		<ellipse style="fill:#ffffff;" cx="395.829" cy="432.696" rx="55.576" ry="17.891"/>
		<g>
			<polygon style="fill:#B36810;" points="396.853,352.91 440.939,366.986 440.939,420.858 396.853,406.782 			"/>
			<polygon style="fill:#C47212;" points="396.853,352.91 356.28,366.986 356.28,420.858 396.853,406.782 			"/>
			<polygon style="fill:#E69632;" points="400.365,434.839 356.28,420.762 356.28,366.89 400.365,380.966 			"/>
			<polygon style="fill:#FFAA50;" points="400.365,434.839 356.28,420.762 332.481,436.296 376.566,450.372 			"/>
			<polygon style="fill:#D77D14;" points="400.365,434.839 440.939,420.762 440.939,366.89 400.365,380.966 			"/>
			<polygon style="fill:#FFAE55;" points="356.28,366.89 396.853,352.91 440.939,366.89 400.365,380.966 			"/>
			<polygon style="opacity:0.15;fill:#FFFFFF;" points="372.43,372.051 413.004,358.07 421.45,360.663 380.876,374.739 			"/>
			<polygon style="fill:#E69632;" points="440.939,420.755 400.365,434.832 421.899,448.812 462.473,434.736 			"/>
			<polygon style="fill:#D77D14;" points="356.28,420.762 338.532,416.142 356.28,408.749 			"/>
			<polygon style="fill:#B36810;" points="440.939,420.858 457.902,420.858 440.939,414.756 			"/>
		</g>
	</g>
	
</g>

</svg>
