<?xml version="1.0" encoding="utf-8"?>
<!-- Generator: Adobe Illustrator 27.5.0, SVG Export Plug-In . SVG Version: 6.00 Build 0)  -->
<svg version="1.1" xmlns="http://www.w3.org/2000/svg" xmlns:xlink="http://www.w3.org/1999/xlink" x="0px" y="0px"
	 viewBox="0 0 750 500" style="enable-background:new 0 0 750 500;" xml:space="preserve">
<g id="BACKGROUND">
	<rect style="fill:transparent;" width="750" height="500"/>
</g>
<g id="OBJECTS">
	<g>
		<path style="opacity:0.7;fill:transparent;" d="M25.715,247.453l84.215,48.622l118.258-68.276l-84.215-48.622L25.715,247.453z
			 M218.049,224.632l-0.715,0.413l-20.241-11.686l0.715-0.413L218.049,224.632z M169.699,196.717l-0.715,0.413l-20.241-11.686
			l0.715-0.413L169.699,196.717z"/>
		<g>
			<polygon style="fill:#D77D14;" points="39.707,179.741 39.707,239.358 154.438,173.118 154.438,113.501 			"/>
		</g>
		<polygon style="fill:#D77D14;" points="40.338,179.387 154.963,113.208 156.778,112.16 156.778,14.916 154.963,15.964 
			40.338,82.143 38.52,83.192 38.52,180.436 		"/>
		<path style="fill:#B36810;" d="M38.52,240.053l84.215,48.622l118.258-68.276l-84.215-48.622L38.52,240.053z M117.886,282.454
			l-0.715,0.413L96.93,271.181l0.715-0.413L117.886,282.454z M69.536,254.539l-0.715,0.413L48.58,243.266l0.715-0.413
			L69.536,254.539z M230.854,217.232l-0.715,0.413l-20.241-11.686l0.715-0.413L230.854,217.232z M182.504,189.317l-0.715,0.413
			l-20.241-11.686l0.715-0.413L182.504,189.317z"/>
		<g>
			<g>
				<polygon style="fill:#E69632;" points="122.736,288.675 122.736,229.058 38.52,180.436 38.52,240.053 				"/>
			</g>
		</g>
		<g>
			<polygon style="fill:#B36810;" points="240.994,220.384 240.994,160.768 156.778,112.146 156.778,171.762 			"/>
		</g>
		<g>
			<polygon style="fill:#E69632;" points="238.654,221.74 238.654,162.123 154.438,113.501 154.438,173.118 			"/>
		</g>
		<g>
			<polygon style="fill:#D77D14;" points="125.064,227.705 125.064,287.322 239.795,221.082 239.795,161.465 			"/>
		</g>
		<polygon style="fill:#FFAE55;" points="38.52,180.422 40.848,179.079 125.064,227.701 122.736,229.044 		"/>
		<polygon style="fill:#FFAE55;" points="154.438,113.489 156.766,112.146 240.982,160.768 238.654,162.111 		"/>
		<g>
			<g>
				<path style="fill:#E69632;" d="M90.256,113.08L38.52,83.21l0.804,4.843v33.454l33.967,19.611
					c8.992,5.192,16.282,1.517,16.282-8.209v-15.845L90.256,113.08z"/>
			</g>
		</g>
		<g>
			<g>
				<path style="fill:#E69632;" d="M208.514,44.785l-51.736-29.87l0.804,4.843v33.454l33.967,19.611
					c8.992,5.192,16.282,1.517,16.282-8.208V48.77L208.514,44.785z"/>
			</g>
		</g>
		<g>
			<g>
				<polygon style="fill:#FFAE55;" points="208.656,44.571 157.026,14.763 38.52,83.182 90.15,112.99 				"/>
			</g>
		</g>
	</g>
	<g>
		<path style="opacity:0.7;fill:transparent;" d="M25.715,436.616l84.215,48.622l118.258-68.276l-84.215-48.622L25.715,436.616z
			 M218.049,413.794l-0.715,0.413l-20.241-11.686l0.715-0.413L218.049,413.794z M169.699,385.88l-0.715,0.413l-20.241-11.686
			l0.715-0.413L169.699,385.88z"/>
		<g>
			<polygon style="fill:#D77D14;" points="39.707,368.904 39.707,428.521 154.438,362.281 154.438,302.664 			"/>
		</g>
		<path style="fill:#B36810;" d="M38.52,429.216l84.215,48.622l118.258-68.276l-84.215-48.622L38.52,429.216z M117.886,471.617
			l-0.715,0.413L96.93,460.343l0.715-0.413L117.886,471.617z M69.536,443.702l-0.715,0.413L48.58,432.428l0.715-0.413
			L69.536,443.702z M230.854,406.395l-0.715,0.413l-20.241-11.686l0.715-0.413L230.854,406.395z M182.504,378.48l-0.715,0.413
			l-20.241-11.686l0.715-0.413L182.504,378.48z"/>
		<g>
			<g>
				<polygon style="fill:#E69632;" points="122.736,477.837 122.736,418.221 38.52,369.599 38.52,429.215 				"/>
			</g>
		</g>
		<g>
			<polygon style="fill:#B36810;" points="240.995,349.931 240.995,409.546 239.795,408.856 238.651,408.19 189.376,379.746 
				189.368,379.739 156.778,360.923 156.778,301.307 			"/>
		</g>
		<g>
			<polygon style="fill:#E69632;" points="238.654,410.903 238.654,351.286 154.438,302.664 154.438,362.281 			"/>
		</g>
		<g>
			<polygon style="fill:#D77D14;" points="239.795,350.629 239.795,410.244 238.651,410.903 125.065,476.484 125.065,416.869 
				187.024,381.095 187.032,381.095 189.368,379.739 238.651,351.295 238.651,351.287 			"/>
		</g>
		<polygon style="fill:#FFAE55;" points="38.52,369.585 40.848,368.241 125.064,416.863 122.736,418.207 		"/>
		<polygon style="fill:#FFAE55;" points="154.438,302.652 156.766,301.308 240.982,349.93 238.654,351.274 		"/>
		<path style="fill:#FFAE55;" d="M117.886,411.986l-0.715,0.413L96.93,400.712l0.715-0.413L117.886,411.986z M69.536,384.071
			l-0.715,0.413L48.58,372.797l0.715-0.413L69.536,384.071z M182.504,318.849l-0.715,0.413l-20.241-11.686l0.715-0.413
			L182.504,318.849z M210.615,335.074l-0.008,0.008l-0.016,0.008l-0.69,0.4l20.235,11.69l0.698-0.4l0.016-0.008l0.008-0.008
			L210.615,335.074z"/>
		<polygon style="fill:#FFAE55;" points="240.995,349.931 122.736,418.21 38.519,369.586 156.778,301.307 		"/>
		<g>
			<g>
				<polygon style="fill:#D77D14;" points="240.995,349.939 240.995,409.546 239.795,408.856 239.795,410.244 238.651,410.903 
					125.065,476.484 125.065,416.869 187.032,381.095 189.376,379.746 238.651,351.295 239.795,350.637 				"/>
			</g>
		</g>
	</g>
	<g>
		<g style="opacity:0.7;">
			<polygon style="fill:transparent;" points="337.161,333.118 337.161,171.66 334.928,171.66 333.868,166.323 333.868,125.552 
				267.636,125.552 267.636,166.323 266.737,171.66 264.503,171.66 264.503,333.118 266.737,333.118 267.636,338.451 
				267.636,379.223 333.868,379.223 333.868,338.451 334.928,333.118 			"/>
			<path style="fill:transparent;" d="M718.547,163.667v-19.311c0-11.852-10.259-21.461-22.914-21.461h-47.801v40.772l-1.073,5.057
				l-0.97-4.884l-2.419-21.774c-0.318-2.863-2.737-5.028-5.618-5.028H537.27c-2.88,0-5.3,2.166-5.618,5.028l-2.419,21.774
				l-0.899,5.336h0v2.483h-2.232l-1.06-5.336v-40.772H458.81v40.772l-0.899,5.336h-2.233v-2.483h-0.001V96.52v-3.274v-0.001V20.588
				h-10.994v-1.959h-28.486v1.959H376.64v-1.959h-28.485v1.959h-10.994v72.657v0.001v3.274v72.658h0.001v166.421h118.516v-2.481
				h2.234l0.899,5.333v40.772h66.232v-40.772l1.06-5.333h2.233v2.481h0l0.899,5.336l2.419,21.774
				c0.318,2.862,2.738,5.028,5.618,5.028h100.483c2.88,0,5.3-2.166,5.618-5.028l2.419-21.774l0.968-4.875l1.071,5.05v40.772h47.801
				c12.655,0,22.913-9.608,22.913-21.461V341.11l0.96-5.336h0.004V169.003L718.547,163.667z M376.641,332.436h-28.486v-1.007h28.486
				V332.436z M376.641,173.458h-28.486v-1.007h28.486V173.458z M444.683,332.436h-28.486v-1.007h28.486V332.436z M444.683,173.458
				h-28.486v-1.007h28.486V173.458z M646.815,169.003h0.034v0.173L646.815,169.003z M646.815,335.774l0.035-0.176v0.176H646.815z"/>
			<polygon style="fill:transparent;" points="337.161,408.258 337.161,411.532 337.161,411.533 337.161,484.19 348.154,484.19 
				348.154,486.149 376.64,486.149 376.64,484.19 416.197,484.19 416.197,486.149 444.682,486.149 444.682,484.19 455.676,484.19 
				455.676,411.533 455.676,411.532 455.676,408.258 455.676,335.6 337.161,335.6 			"/>
		</g>
		<g>
			<g>
				<g>
					<rect x="269.28" y="166.882" style="fill:#FFAA50;" width="72.658" height="161.458"/>
				</g>
				<g>
					<polygon style="fill:#FFAA50;" points="271.515,328.338 339.706,328.338 338.646,333.674 338.646,374.446 272.414,374.446 
						272.414,333.674 					"/>
				</g>
				<g>
					<polygon style="fill:#FFAA50;" points="271.515,166.882 339.706,166.882 338.646,161.546 338.646,120.774 272.414,120.774 
						272.414,161.546 					"/>
				</g>
			</g>
			<g>
				<path style="fill:#FFAA50;" d="M724.281,330.997h-72.807l1.132,5.336v40.772h47.801c12.655,0,22.914-9.608,22.914-21.461
					v-19.311L724.281,330.997z"/>
			</g>
			<g>
				<g>
					<path style="fill:#FFAA50;" d="M724.285,164.226h-72.807l1.132-5.336v-40.772h47.801c12.655,0,22.913,9.608,22.913,21.461
						v19.311L724.285,164.226z"/>
				</g>
			</g>
			<g>
				<g>
					<rect x="651.627" y="164.226" style="fill:#FFAA50;" width="72.658" height="166.771"/>
				</g>
			</g>
			<g>
				<g>
					<rect x="460.454" y="166.882" style="fill:#FFAA50;" width="72.658" height="161.458"/>
				</g>
				<g>
					<polygon style="fill:#FFAA50;" points="462.688,328.338 530.879,328.338 529.819,333.674 529.819,374.446 463.587,374.446 
						463.587,333.674 					"/>
				</g>
				<g>
					<path style="fill:#FFAA50;" d="M533.111,330.821h118.516l-1.06,5.336l-2.419,21.774c-0.318,2.862-2.737,5.028-5.618,5.028
						H542.047c-2.88,0-5.3-2.166-5.618-5.028l-2.419-21.774L533.111,330.821z"/>
				</g>
				<g>
					<path style="fill:#FFAA50;" d="M533.111,164.399h118.516l-1.06-5.336l-2.419-21.774c-0.318-2.863-2.737-5.028-5.618-5.028
						H542.047c-2.88,0-5.3,2.166-5.618,5.028l-2.419,21.774L533.111,164.399z"/>
				</g>
				<g>
					<polygon style="fill:#FFAA50;" points="462.688,166.882 530.879,166.882 529.819,161.546 529.819,120.774 463.587,120.774 
						463.587,161.546 					"/>
				</g>
			</g>
			<path style="fill:#FFAA50;" d="M341.939,330.821h118.516V164.399H341.939V330.821z M449.461,326.652v1.007h-28.485v-1.007
				H449.461z M381.418,326.652v1.007h-28.485v-1.007H381.418z M449.461,167.674v1.007h-28.485v-1.007H449.461z M381.418,167.674
				v1.007h-28.485v-1.007H381.418z"/>
			<polygon style="fill:#FFAA50;" points="533.111,166.956 533.111,328.266 533.111,330.821 651.627,330.821 651.627,328.266 
				651.627,166.956 651.627,164.399 533.111,164.399 			"/>
			<polygon style="fill:#FFAA50;" points="341.938,406.755 460.454,406.755 460.454,479.413 449.46,479.413 449.46,481.372 
				420.974,481.372 420.974,479.413 381.417,479.413 381.417,481.372 352.932,481.372 352.932,479.413 341.938,479.413 			"/>
			<g>
				
					<rect x="399.558" y="345.86" transform="matrix(6.123234e-17 -1 1 6.123234e-17 -3.9223 806.3139)" style="fill:#FFAA50;" width="3.276" height="118.515"/>
			</g>
			<g>
				
					<rect x="364.867" y="307.894" transform="matrix(6.123234e-17 -1 1 6.123234e-17 34.0444 768.3472)" style="fill:#FFAA50;" width="72.658" height="118.515"/>
				<g>
					
						<rect x="364.867" y="68.813" transform="matrix(-1.836970e-16 1 -1 -1.836970e-16 529.2671 -273.1246)" style="fill:#FFAA50;" width="72.658" height="118.515"/>
				</g>
			</g>
			<polygon style="fill:#FFAA50;" points="341.938,88.468 460.454,88.468 460.454,15.81 449.46,15.81 449.46,13.851 420.974,13.851 
				420.974,15.81 381.417,15.81 381.417,13.851 352.932,13.851 352.932,15.81 341.938,15.81 			"/>
			
				<rect x="399.558" y="30.847" transform="matrix(-1.836970e-16 1 -1 -1.836970e-16 491.3004 -311.0913)" style="fill:#FFAA50;" width="3.276" height="118.515"/>
		</g>
		<g style="opacity:0.5;">
			<polygon style="fill:#D77D14;" points="724.284,164.23 724.284,165.59 722.924,164.23 			"/>
			<polygon style="fill:#D77D14;" points="724.284,168.29 724.284,170.99 717.524,164.23 720.224,164.23 			"/>
			<polygon style="fill:#D77D14;" points="724.284,173.69 724.284,176.39 712.124,164.23 714.824,164.23 			"/>
			<polygon style="fill:#D77D14;" points="724.284,179.1 724.284,181.81 706.704,164.23 709.414,164.23 			"/>
			<polygon style="fill:#D77D14;" points="724.284,184.51 724.284,187.21 701.304,164.23 704.004,164.23 			"/>
			<polygon style="fill:#D77D14;" points="724.284,189.91 724.284,192.61 695.904,164.23 698.604,164.23 			"/>
			<polygon style="fill:#D77D14;" points="724.284,195.32 724.284,198.03 690.484,164.23 693.194,164.23 			"/>
			<polygon style="fill:#D77D14;" points="724.284,200.73 724.284,203.43 685.084,164.23 687.784,164.23 			"/>
			<polygon style="fill:#D77D14;" points="724.284,206.13 724.284,208.83 679.684,164.23 682.384,164.23 			"/>
			<polygon style="fill:#D77D14;" points="724.284,211.54 724.284,214.25 674.264,164.23 676.974,164.23 			"/>
			<polygon style="fill:#D77D14;" points="724.284,216.95 724.284,219.65 668.864,164.23 671.564,164.23 			"/>
			<polygon style="fill:#D77D14;" points="724.284,222.35 724.284,225.05 663.464,164.23 666.164,164.23 			"/>
			<polygon style="fill:#D77D14;" points="724.284,227.76 724.284,230.47 658.044,164.23 660.754,164.23 			"/>
			<polygon style="fill:#D77D14;" points="724.284,233.17 724.284,235.87 652.644,164.23 655.344,164.23 			"/>
			<polygon style="fill:#D77D14;" points="724.284,238.57 724.284,241.27 651.624,168.61 651.624,165.91 			"/>
			<polygon style="fill:#D77D14;" points="724.284,243.98 724.284,246.69 651.624,174.03 651.624,171.32 			"/>
			<polygon style="fill:#D77D14;" points="724.284,249.39 724.284,252.09 651.624,179.43 651.624,176.73 			"/>
			<polygon style="fill:#D77D14;" points="724.284,254.79 724.284,257.49 651.624,184.83 651.624,182.13 			"/>
			<polygon style="fill:#D77D14;" points="724.284,260.2 724.284,262.91 651.624,190.25 651.624,187.54 			"/>
			<polygon style="fill:#D77D14;" points="724.284,265.61 724.284,268.31 651.624,195.65 651.624,192.95 			"/>
			<polygon style="fill:#D77D14;" points="724.284,271.01 724.284,273.71 651.624,201.05 651.624,198.35 			"/>
			<polygon style="fill:#D77D14;" points="724.284,276.42 724.284,279.13 651.624,206.47 651.624,203.76 			"/>
			<polygon style="fill:#D77D14;" points="724.284,281.83 724.284,284.53 651.624,211.87 651.624,209.17 			"/>
			<polygon style="fill:#D77D14;" points="724.284,287.23 724.284,289.93 651.624,217.27 651.624,214.57 			"/>
			<polygon style="fill:#D77D14;" points="724.284,292.64 724.284,295.35 651.624,222.69 651.624,219.98 			"/>
			<polygon style="fill:#D77D14;" points="724.284,298.05 724.284,300.75 651.624,228.09 651.624,225.39 			"/>
			<polygon style="fill:#D77D14;" points="724.284,303.45 724.284,306.15 651.624,233.49 651.624,230.79 			"/>
			<polygon style="fill:#D77D14;" points="724.284,308.86 724.284,311.57 651.624,238.91 651.624,236.2 			"/>
			<polygon style="fill:#D77D14;" points="724.284,314.27 724.284,316.97 651.624,244.31 651.624,241.61 			"/>
			<polygon style="fill:#D77D14;" points="724.284,319.67 724.284,322.37 651.624,249.71 651.624,247.01 			"/>
			<polygon style="fill:#D77D14;" points="724.284,325.08 724.284,327.79 651.624,255.13 651.624,252.42 			"/>
			<polygon style="fill:#D77D14;" points="724.284,330.49 724.284,331 722.094,331 651.624,260.53 651.624,257.83 			"/>
			<polygon style="fill:#D77D14;" points="719.394,331 716.694,331 651.624,265.93 651.624,263.23 			"/>
			<polygon style="fill:#D77D14;" points="713.984,331 711.274,331 651.624,271.35 651.624,268.64 			"/>
			<polygon style="fill:#D77D14;" points="708.574,331 705.874,331 651.624,276.75 651.624,274.05 			"/>
			<polygon style="fill:#D77D14;" points="703.174,331 700.474,331 651.624,282.15 651.624,279.45 			"/>
			<polygon style="fill:#D77D14;" points="460.454,93.69 460.454,96.4 455.794,91.74 458.504,91.74 			"/>
			<polygon style="fill:#D77D14;" points="530.934,166.88 533.114,166.88 533.114,169.06 			"/>
			<polygon style="fill:#D77D14;" points="697.764,331 695.054,331 651.624,287.57 651.624,284.86 			"/>
			<g>
				<polygon style="fill:#D77D14;" points="460.454,99.1 460.454,101.8 450.394,91.74 453.094,91.74 				"/>
				<polygon style="fill:#D77D14;" points="528.234,166.88 533.114,171.76 533.114,174.46 525.534,166.88 				"/>
				<polygon style="fill:#D77D14;" points="692.354,331 689.654,331 651.624,292.97 651.624,290.27 				"/>
			</g>
			<g>
				<polygon style="fill:#D77D14;" points="460.454,104.5 460.454,107.2 444.994,91.74 447.694,91.74 				"/>
				<polygon style="fill:#D77D14;" points="522.834,166.88 533.114,177.16 533.114,179.86 520.134,166.88 				"/>
				<polygon style="fill:#D77D14;" points="686.954,331 684.254,331 651.624,298.37 651.624,295.67 				"/>
			</g>
			<g>
				<polygon style="fill:#D77D14;" points="460.454,109.91 460.454,112.62 439.574,91.74 442.284,91.74 				"/>
				<polygon style="fill:#D77D14;" points="517.424,166.88 533.114,182.57 533.114,185.28 514.714,166.88 				"/>
				<polygon style="fill:#D77D14;" points="681.544,331 678.834,331 651.624,303.79 651.624,301.08 				"/>
			</g>
			<g>
				<polygon style="fill:#D77D14;" points="460.454,115.32 460.454,118.02 434.174,91.74 436.874,91.74 				"/>
				<polygon style="fill:#D77D14;" points="512.014,166.88 533.114,187.98 533.114,190.68 509.314,166.88 				"/>
				<polygon style="fill:#D77D14;" points="676.134,331 673.434,331 651.624,309.19 651.624,306.49 				"/>
			</g>
			<g>
				<polygon style="fill:#D77D14;" points="460.454,120.72 460.454,123.42 428.774,91.74 431.474,91.74 				"/>
				<polygon style="fill:#D77D14;" points="506.614,166.88 533.114,193.38 533.114,196.08 503.914,166.88 				"/>
				<polygon style="fill:#D77D14;" points="670.734,331 668.034,331 651.624,314.59 651.624,311.89 				"/>
			</g>
			<g>
				<polygon style="fill:#D77D14;" points="460.454,126.13 460.454,128.83 423.364,91.74 426.064,91.74 				"/>
				<polygon style="fill:#D77D14;" points="501.204,166.88 533.114,198.79 533.114,201.49 498.504,166.88 				"/>
				<polygon style="fill:#D77D14;" points="665.324,331 662.614,331 651.624,320.01 651.624,317.3 				"/>
			</g>
			<g>
				<polygon style="fill:#D77D14;" points="460.454,131.54 460.454,134.24 417.954,91.74 420.654,91.74 				"/>
				<polygon style="fill:#D77D14;" points="495.794,166.88 533.114,204.2 533.114,206.9 493.094,166.88 				"/>
				<polygon style="fill:#D77D14;" points="659.914,331 657.214,331 651.624,325.41 651.624,322.71 				"/>
			</g>
			<g>
				<polygon style="fill:#D77D14;" points="460.454,136.94 460.454,139.64 412.554,91.74 415.254,91.74 				"/>
				<polygon style="fill:#D77D14;" points="490.394,166.88 533.114,209.6 533.114,212.3 487.694,166.88 				"/>
				<polygon style="fill:#D77D14;" points="654.514,331 651.814,331 651.624,330.81 651.624,328.11 				"/>
			</g>
			<g>
				<polygon style="fill:#D77D14;" points="460.454,142.35 460.454,145.05 407.144,91.74 409.844,91.74 				"/>
				<polygon style="fill:#D77D14;" points="533.114,215.01 533.114,217.72 482.284,166.88 484.984,166.88 				"/>
			</g>
			<g>
				<polygon style="fill:#D77D14;" points="460.454,147.76 460.454,150.46 401.734,91.74 404.434,91.74 				"/>
				<polygon style="fill:#D77D14;" points="533.114,220.42 533.114,223.12 476.874,166.88 479.574,166.88 				"/>
			</g>
			<g>
				<polygon style="fill:#D77D14;" points="399.034,91.74 460.454,153.16 460.454,155.86 396.334,91.74 				"/>
				<polygon style="fill:#D77D14;" points="533.114,225.82 533.114,228.52 471.474,166.88 474.174,166.88 				"/>
			</g>
			<g>
				<polygon style="fill:#D77D14;" points="393.624,91.74 460.454,158.57 460.454,161.27 390.924,91.74 				"/>
				<polygon style="fill:#D77D14;" points="533.114,231.23 533.114,233.94 466.064,166.88 468.764,166.88 				"/>
			</g>
			<g>
				<polygon style="fill:#D77D14;" points="388.214,91.74 460.454,163.98 460.454,164.4 458.174,164.4 385.514,91.74 				"/>
				<polygon style="fill:#D77D14;" points="533.114,236.64 533.114,239.34 460.654,166.88 463.354,166.88 				"/>
			</g>
			<g>
				<polygon style="fill:#D77D14;" points="382.814,91.74 455.474,164.4 452.774,164.4 380.114,91.74 				"/>
				<polygon style="fill:#D77D14;" points="533.114,242.04 533.114,244.74 460.454,172.08 460.454,169.38 				"/>
			</g>
			<g>
				<polygon style="fill:#D77D14;" points="377.404,91.74 450.064,164.4 447.364,164.4 374.704,91.74 				"/>
				<polygon style="fill:#D77D14;" points="533.114,247.44 533.114,250.15 460.454,177.49 460.454,174.79 				"/>
			</g>
			<g>
				<polygon style="fill:#D77D14;" points="371.994,91.74 444.654,164.4 441.954,164.4 369.294,91.74 				"/>
				<polygon style="fill:#D77D14;" points="533.114,252.86 533.114,255.56 460.454,182.9 460.454,180.2 				"/>
			</g>
			<g>
				<polygon style="fill:#D77D14;" points="366.594,91.74 439.254,164.4 436.554,164.4 363.894,91.74 				"/>
				<polygon style="fill:#D77D14;" points="533.114,258.26 533.114,260.96 460.454,188.3 460.454,185.6 				"/>
			</g>
			<g>
				<polygon style="fill:#D77D14;" points="361.184,91.74 433.844,164.4 431.144,164.4 358.484,91.74 				"/>
				<polygon style="fill:#D77D14;" points="533.114,263.66 533.114,266.37 460.454,193.71 460.454,191.01 				"/>
			</g>
			<g>
				<polygon style="fill:#D77D14;" points="355.774,91.74 428.434,164.4 425.734,164.4 353.074,91.74 				"/>
				<polygon style="fill:#D77D14;" points="533.114,269.08 533.114,271.78 460.454,199.12 460.454,196.42 				"/>
			</g>
			<g>
				<polygon style="fill:#D77D14;" points="350.374,91.74 423.034,164.4 420.334,164.4 347.674,91.74 				"/>
				<polygon style="fill:#D77D14;" points="533.114,274.48 533.114,277.18 460.454,204.52 460.454,201.82 				"/>
			</g>
			<g>
				<polygon style="fill:#D77D14;" points="344.964,91.74 417.624,164.4 414.924,164.4 342.264,91.74 				"/>
				<polygon style="fill:#D77D14;" points="533.114,279.88 533.114,282.59 460.454,209.93 460.454,207.23 				"/>
			</g>
			<g>
				<polygon style="fill:#D77D14;" points="341.934,94.12 412.214,164.4 409.514,164.4 341.934,96.82 				"/>
				<polygon style="fill:#D77D14;" points="533.114,285.3 533.114,288 460.454,215.34 460.454,212.64 				"/>
			</g>
			<g>
				<polygon style="fill:#D77D14;" points="341.934,99.52 406.814,164.4 404.114,164.4 341.934,102.22 				"/>
				<polygon style="fill:#D77D14;" points="533.114,290.7 533.114,293.4 460.454,220.74 460.454,218.04 				"/>
			</g>
			<g>
				<polygon style="fill:#D77D14;" points="341.934,104.92 401.414,164.4 398.704,164.4 341.934,107.63 				"/>
				<polygon style="fill:#D77D14;" points="533.114,296.1 533.114,298.81 460.454,226.15 460.454,223.44 				"/>
			</g>
			<g>
				<polygon style="fill:#D77D14;" points="341.934,110.34 395.994,164.4 393.294,164.4 341.934,113.04 				"/>
				<polygon style="fill:#D77D14;" points="533.114,301.52 533.114,304.22 460.454,231.56 460.454,228.86 				"/>
			</g>
			<g>
				<polygon style="fill:#D77D14;" points="341.934,115.74 390.594,164.4 387.894,164.4 341.934,118.44 				"/>
				<polygon style="fill:#D77D14;" points="533.114,306.92 533.114,309.62 460.454,236.96 460.454,234.26 				"/>
			</g>
			<g>
				<polygon style="fill:#D77D14;" points="341.934,121.14 385.194,164.4 382.484,164.4 341.934,123.85 				"/>
				<polygon style="fill:#D77D14;" points="533.114,312.32 533.114,315.03 460.454,242.37 460.454,239.66 				"/>
			</g>
			<g>
				<polygon style="fill:#D77D14;" points="341.934,126.56 379.774,164.4 377.074,164.4 341.934,129.26 				"/>
				<polygon style="fill:#D77D14;" points="533.114,317.74 533.114,320.44 460.454,247.78 460.454,245.08 				"/>
			</g>
			<g>
				<polygon style="fill:#D77D14;" points="341.934,131.96 374.374,164.4 371.674,164.4 341.934,134.66 				"/>
				<polygon style="fill:#D77D14;" points="533.114,323.14 533.114,325.84 460.454,253.18 460.454,250.48 				"/>
			</g>
			<g>
				<polygon style="fill:#D77D14;" points="341.934,137.36 368.974,164.4 366.264,164.4 341.934,140.07 				"/>
				<polygon style="fill:#D77D14;" points="532.914,328.34 530.204,328.34 460.454,258.59 460.454,255.88 				"/>
			</g>
			<g>
				<polygon style="fill:#D77D14;" points="341.934,142.78 363.554,164.4 360.854,164.4 341.934,145.48 				"/>
				<polygon style="fill:#D77D14;" points="527.494,328.34 524.794,328.34 460.454,264 460.454,261.3 				"/>
			</g>
			<g>
				<polygon style="fill:#D77D14;" points="341.934,148.18 358.154,164.4 355.454,164.4 341.934,150.88 				"/>
				<polygon style="fill:#D77D14;" points="522.094,328.34 519.394,328.34 460.454,269.4 460.454,266.7 				"/>
			</g>
			<g>
				<polygon style="fill:#D77D14;" points="341.934,153.58 352.754,164.4 350.044,164.4 341.934,156.29 				"/>
				<polygon style="fill:#D77D14;" points="516.694,328.34 513.984,328.34 460.454,274.81 460.454,272.1 				"/>
			</g>
			<g>
				<polygon style="fill:#D77D14;" points="341.934,159 347.334,164.4 344.634,164.4 341.934,161.7 				"/>
				<polygon style="fill:#D77D14;" points="511.274,328.34 508.574,328.34 460.454,280.22 460.454,277.52 				"/>
			</g>
			<g>
				<polygon style="fill:#D77D14;" points="341.714,166.88 341.934,166.88 341.934,167.1 				"/>
				<polygon style="fill:#D77D14;" points="505.874,328.34 503.174,328.34 460.454,285.62 460.454,282.92 				"/>
			</g>
			<g>
				<polygon style="fill:#D77D14;" points="339.014,166.88 341.934,169.8 341.934,172.51 336.304,166.88 				"/>
				<polygon style="fill:#D77D14;" points="500.474,328.34 497.764,328.34 460.454,291.03 460.454,288.32 				"/>
			</g>
			<g>
				<polygon style="fill:#D77D14;" points="333.594,166.88 341.934,175.22 341.934,177.92 330.894,166.88 				"/>
				<polygon style="fill:#D77D14;" points="495.054,328.34 492.354,328.34 460.454,296.44 460.454,293.74 				"/>
			</g>
			<g>
				<polygon style="fill:#D77D14;" points="328.194,166.88 341.934,180.62 341.934,183.32 325.494,166.88 				"/>
				<polygon style="fill:#D77D14;" points="489.654,328.34 486.954,328.34 460.454,301.84 460.454,299.14 				"/>
			</g>
			<g>
				<polygon style="fill:#D77D14;" points="322.794,166.88 341.934,186.02 341.934,188.73 320.084,166.88 				"/>
				<polygon style="fill:#D77D14;" points="484.254,328.34 481.544,328.34 460.454,307.25 460.454,304.54 				"/>
			</g>
			<g>
				<polygon style="fill:#D77D14;" points="317.374,166.88 341.934,191.44 341.934,194.14 314.674,166.88 				"/>
				<polygon style="fill:#D77D14;" points="478.834,328.34 476.134,328.34 460.454,312.66 460.454,309.96 				"/>
			</g>
			<g>
				<polygon style="fill:#D77D14;" points="311.974,166.88 341.934,196.84 341.934,199.54 309.274,166.88 				"/>
				<polygon style="fill:#D77D14;" points="473.434,328.34 470.734,328.34 460.454,318.06 460.454,315.36 				"/>
			</g>
			<g>
				<polygon style="fill:#D77D14;" points="306.574,166.88 341.934,202.24 341.934,204.95 303.864,166.88 				"/>
				<polygon style="fill:#D77D14;" points="468.034,328.34 465.324,328.34 460.454,323.47 460.454,320.76 				"/>
			</g>
			<g>
				<polygon style="fill:#D77D14;" points="341.934,207.66 341.934,210.36 298.454,166.88 301.154,166.88 				"/>
				<polygon style="fill:#D77D14;" points="462.614,328.34 460.454,328.34 460.454,326.18 				"/>
			</g>
			<g>
				<polygon style="fill:#D77D14;" points="295.754,166.88 341.934,213.06 341.934,215.76 293.054,166.88 				"/>
				<polygon style="fill:#D77D14;" points="460.454,331.58 460.454,334.28 456.994,330.82 459.694,330.82 				"/>
			</g>
			<g>
				<polygon style="fill:#D77D14;" points="290.354,166.88 341.934,218.46 341.934,221.17 287.644,166.88 				"/>
				<polygon style="fill:#D77D14;" points="460.454,336.98 460.454,339.69 451.584,330.82 454.294,330.82 				"/>
			</g>
			<g>
				<polygon style="fill:#D77D14;" points="284.934,166.88 341.934,223.88 341.934,226.58 282.234,166.88 				"/>
				<polygon style="fill:#D77D14;" points="460.454,342.4 460.454,345.1 446.174,330.82 448.874,330.82 				"/>
			</g>
			<g>
				<polygon style="fill:#D77D14;" points="279.534,166.88 341.934,229.28 341.934,231.98 276.834,166.88 				"/>
				<polygon style="fill:#D77D14;" points="460.454,347.8 460.454,350.5 440.774,330.82 443.474,330.82 				"/>
			</g>
			<g>
				<polygon style="fill:#D77D14;" points="274.134,166.88 341.934,234.68 341.934,237.39 271.424,166.88 				"/>
				<polygon style="fill:#D77D14;" points="460.454,353.2 460.454,355.91 435.364,330.82 438.074,330.82 				"/>
			</g>
			<g>
				<polygon style="fill:#D77D14;" points="269.284,167.45 341.934,240.1 341.934,242.8 269.284,170.15 				"/>
				<polygon style="fill:#D77D14;" points="460.454,358.62 460.454,361.32 429.954,330.82 432.654,330.82 				"/>
			</g>
			<g>
				<polygon style="fill:#D77D14;" points="269.284,172.85 341.934,245.5 341.934,248.2 269.284,175.55 				"/>
				<polygon style="fill:#D77D14;" points="460.454,364.02 460.454,366.72 424.554,330.82 427.254,330.82 				"/>
			</g>
			<g>
				<polygon style="fill:#D77D14;" points="269.284,178.25 341.934,250.9 341.934,253.61 269.284,180.96 				"/>
				<polygon style="fill:#D77D14;" points="460.454,369.42 460.454,372.13 419.144,330.82 421.854,330.82 				"/>
			</g>
			<g>
				<polygon style="fill:#D77D14;" points="269.284,183.67 341.934,256.32 341.934,259.02 269.284,186.37 				"/>
				<polygon style="fill:#D77D14;" points="460.454,374.84 460.454,377.54 413.734,330.82 416.434,330.82 				"/>
			</g>
			<g>
				<polygon style="fill:#D77D14;" points="269.284,189.07 341.934,261.72 341.934,264.42 269.284,191.77 				"/>
				<polygon style="fill:#D77D14;" points="460.454,380.24 460.454,382.94 408.334,330.82 411.034,330.82 				"/>
			</g>
			<g>
				<polygon style="fill:#D77D14;" points="269.284,194.47 341.934,267.12 341.934,269.83 269.284,197.18 				"/>
				<polygon style="fill:#D77D14;" points="460.454,385.64 460.454,388.35 402.924,330.82 405.634,330.82 				"/>
			</g>
			<g>
				<polygon style="fill:#D77D14;" points="269.284,199.89 341.934,272.54 341.934,275.24 269.284,202.59 				"/>
				<polygon style="fill:#D77D14;" points="460.454,391.06 460.454,393.76 397.514,330.82 400.214,330.82 				"/>
			</g>
			<g>
				<polygon style="fill:#D77D14;" points="269.284,205.29 341.934,277.94 341.934,280.64 269.284,207.99 				"/>
				<polygon style="fill:#D77D14;" points="460.454,396.46 460.454,399.16 392.114,330.82 394.814,330.82 				"/>
			</g>
			<g>
				<polygon style="fill:#D77D14;" points="269.284,210.69 341.934,283.34 341.934,286.05 269.284,213.4 				"/>
				<polygon style="fill:#D77D14;" points="460.454,401.86 460.454,403.48 459.364,403.48 386.704,330.82 389.414,330.82 				"/>
			</g>
			<g>
				<polygon style="fill:#D77D14;" points="269.284,216.11 341.934,288.76 341.934,291.46 269.284,218.81 				"/>
				<polygon style="fill:#D77D14;" points="456.654,403.48 453.954,403.48 381.294,330.82 383.994,330.82 				"/>
			</g>
			<g>
				<polygon style="fill:#D77D14;" points="269.284,221.51 341.934,294.16 341.934,296.86 269.284,224.21 				"/>
				<polygon style="fill:#D77D14;" points="451.254,403.48 448.554,403.48 375.894,330.82 378.594,330.82 				"/>
			</g>
			<g>
				<polygon style="fill:#D77D14;" points="269.284,226.91 341.934,299.56 341.934,302.27 269.284,229.62 				"/>
				<polygon style="fill:#D77D14;" points="445.854,403.48 443.144,403.48 370.484,330.82 373.194,330.82 				"/>
			</g>
			<g>
				<polygon style="fill:#D77D14;" points="269.284,232.33 341.934,304.98 341.934,307.68 269.284,235.03 				"/>
				<polygon style="fill:#D77D14;" points="440.434,403.48 437.734,403.48 365.074,330.82 367.774,330.82 				"/>
			</g>
			<g>
				<polygon style="fill:#D77D14;" points="269.284,237.73 341.934,310.38 341.934,313.08 269.284,240.43 				"/>
				<polygon style="fill:#D77D14;" points="435.034,403.48 432.334,403.48 359.674,330.82 362.374,330.82 				"/>
			</g>
			<g>
				<polygon style="fill:#D77D14;" points="269.284,243.13 341.934,315.78 341.934,318.49 269.284,245.84 				"/>
				<polygon style="fill:#D77D14;" points="429.634,403.48 426.924,403.48 354.264,330.82 356.974,330.82 				"/>
			</g>
			<g>
				<polygon style="fill:#D77D14;" points="269.284,248.55 341.934,321.2 341.934,323.9 269.284,251.25 				"/>
				<polygon style="fill:#D77D14;" points="424.214,403.48 421.514,403.48 348.854,330.82 351.554,330.82 				"/>
			</g>
			<g>
				<polygon style="fill:#D77D14;" points="269.284,253.95 341.934,326.6 341.934,328.34 340.974,328.34 269.284,256.65 				"/>
				<polygon style="fill:#D77D14;" points="418.814,403.48 416.114,403.48 343.454,330.82 346.154,330.82 				"/>
			</g>
			<g>
				<polygon style="fill:#D77D14;" points="269.284,259.35 338.274,328.34 335.564,328.34 269.284,262.06 				"/>
				<polygon style="fill:#D77D14;" points="413.414,403.48 410.704,403.48 341.934,334.71 341.934,332 				"/>
			</g>
			<g>
				<polygon style="fill:#D77D14;" points="269.284,264.77 332.854,328.34 330.154,328.34 269.284,267.47 				"/>
				<polygon style="fill:#D77D14;" points="407.994,403.48 405.294,403.48 341.934,340.12 341.934,337.42 				"/>
			</g>
			<g>
				<polygon style="fill:#D77D14;" points="269.284,270.17 327.454,328.34 324.754,328.34 269.284,272.87 				"/>
				<polygon style="fill:#D77D14;" points="402.594,403.48 399.894,403.48 341.934,345.52 341.934,342.82 				"/>
			</g>
			<g>
				<polygon style="fill:#D77D14;" points="269.284,275.57 322.054,328.34 319.344,328.34 269.284,278.28 				"/>
				<polygon style="fill:#D77D14;" points="397.194,403.48 394.484,403.48 341.934,350.93 341.934,348.22 				"/>
			</g>
			<g>
				<polygon style="fill:#D77D14;" points="269.284,280.99 316.634,328.34 313.934,328.34 269.284,283.69 				"/>
				<polygon style="fill:#D77D14;" points="391.774,403.48 389.074,403.48 341.934,356.34 341.934,353.64 				"/>
			</g>
			<g>
				<polygon style="fill:#D77D14;" points="269.284,286.39 311.234,328.34 308.534,328.34 269.284,289.09 				"/>
				<polygon style="fill:#D77D14;" points="386.374,403.48 383.674,403.48 341.934,361.74 341.934,359.04 				"/>
			</g>
			<g>
				<polygon style="fill:#D77D14;" points="269.284,291.79 305.834,328.34 303.124,328.34 269.284,294.5 				"/>
				<polygon style="fill:#D77D14;" points="380.974,403.48 378.264,403.48 341.934,367.15 341.934,364.44 				"/>
			</g>
			<g>
				<polygon style="fill:#D77D14;" points="269.284,297.2 300.424,328.34 297.714,328.34 269.284,299.91 				"/>
				<polygon style="fill:#D77D14;" points="375.554,403.48 372.854,403.48 341.934,372.56 341.934,369.85 				"/>
			</g>
			<g>
				<polygon style="fill:#D77D14;" points="269.284,302.61 295.014,328.34 292.314,328.34 269.284,305.31 				"/>
				<polygon style="fill:#D77D14;" points="370.154,403.48 367.454,403.48 341.934,377.96 341.934,375.26 				"/>
			</g>
			<g>
				<polygon style="fill:#D77D14;" points="269.284,308.01 289.614,328.34 286.904,328.34 269.284,310.72 				"/>
				<polygon style="fill:#D77D14;" points="364.754,403.48 362.044,403.48 341.934,383.37 341.934,380.66 				"/>
			</g>
			<g>
				<polygon style="fill:#D77D14;" points="269.284,313.42 284.204,328.34 281.494,328.34 269.284,316.13 				"/>
				<polygon style="fill:#D77D14;" points="359.334,403.48 356.634,403.48 341.934,388.78 341.934,386.07 				"/>
			</g>
			<g>
				<polygon style="fill:#D77D14;" points="269.284,318.83 278.794,328.34 276.094,328.34 269.284,321.53 				"/>
				<polygon style="fill:#D77D14;" points="353.934,403.48 351.234,403.48 341.934,394.18 341.934,391.48 				"/>
			</g>
			<g>
				<polygon style="fill:#D77D14;" points="269.284,324.23 273.394,328.34 270.684,328.34 269.284,326.94 				"/>
				<polygon style="fill:#D77D14;" points="348.534,403.48 345.824,403.48 341.934,399.59 341.934,396.88 				"/>
			</g>
			<g>
				<polygon style="fill:#D77D14;" points="343.114,403.48 341.934,403.48 341.934,402.29 				"/>
			</g>
		</g>
		<g>
			<g>
				<path style="fill:#11B7EA;" d="M721.853,164.9h-4c-0.276,0-0.5-0.224-0.5-0.5c0-0.276,0.224-0.5,0.5-0.5h4
					c0.276,0,0.5,0.224,0.5,0.5C722.353,164.677,722.13,164.9,721.853,164.9z M713.853,164.9h-4c-0.276,0-0.5-0.224-0.5-0.5
					c0-0.276,0.224-0.5,0.5-0.5h4c0.276,0,0.5,0.224,0.5,0.5C714.353,164.677,714.13,164.9,713.853,164.9z M705.853,164.9h-4
					c-0.276,0-0.5-0.224-0.5-0.5c0-0.276,0.224-0.5,0.5-0.5h4c0.276,0,0.5,0.224,0.5,0.5
					C706.353,164.677,706.13,164.9,705.853,164.9z M697.853,164.9h-4c-0.276,0-0.5-0.224-0.5-0.5c0-0.276,0.224-0.5,0.5-0.5h4
					c0.276,0,0.5,0.224,0.5,0.5C698.353,164.677,698.13,164.9,697.853,164.9z M689.853,164.9h-4c-0.276,0-0.5-0.224-0.5-0.5
					c0-0.276,0.224-0.5,0.5-0.5h4c0.276,0,0.5,0.224,0.5,0.5C690.353,164.677,690.13,164.9,689.853,164.9z M681.853,164.9h-4
					c-0.276,0-0.5-0.224-0.5-0.5c0-0.276,0.224-0.5,0.5-0.5h4c0.276,0,0.5,0.224,0.5,0.5
					C682.353,164.677,682.13,164.9,681.853,164.9z M673.853,164.9h-4c-0.276,0-0.5-0.224-0.5-0.5c0-0.276,0.224-0.5,0.5-0.5h4
					c0.276,0,0.5,0.224,0.5,0.5C674.353,164.677,674.13,164.9,673.853,164.9z M665.853,164.9h-4c-0.276,0-0.5-0.224-0.5-0.5
					c0-0.276,0.224-0.5,0.5-0.5h4c0.276,0,0.5,0.224,0.5,0.5C666.353,164.677,666.13,164.9,665.853,164.9z M657.853,164.9h-4
					c-0.276,0-0.5-0.224-0.5-0.5c0-0.276,0.224-0.5,0.5-0.5h4c0.276,0,0.5,0.224,0.5,0.5
					C658.353,164.677,658.13,164.9,657.853,164.9z M649.853,164.9h-4c-0.276,0-0.5-0.224-0.5-0.5c0-0.276,0.224-0.5,0.5-0.5h4
					c0.276,0,0.5,0.224,0.5,0.5C650.353,164.677,650.13,164.9,649.853,164.9z M641.853,164.9h-4c-0.276,0-0.5-0.224-0.5-0.5
					c0-0.276,0.224-0.5,0.5-0.5h4c0.276,0,0.5,0.224,0.5,0.5C642.353,164.677,642.13,164.9,641.853,164.9z M633.853,164.9h-4
					c-0.276,0-0.5-0.224-0.5-0.5c0-0.276,0.224-0.5,0.5-0.5h4c0.276,0,0.5,0.224,0.5,0.5
					C634.353,164.677,634.13,164.9,633.853,164.9z M625.853,164.9h-4c-0.276,0-0.5-0.224-0.5-0.5c0-0.276,0.224-0.5,0.5-0.5h4
					c0.276,0,0.5,0.224,0.5,0.5C626.353,164.677,626.13,164.9,625.853,164.9z M617.853,164.9h-4c-0.276,0-0.5-0.224-0.5-0.5
					c0-0.276,0.224-0.5,0.5-0.5h4c0.276,0,0.5,0.224,0.5,0.5C618.353,164.677,618.13,164.9,617.853,164.9z M609.853,164.9h-4
					c-0.276,0-0.5-0.224-0.5-0.5c0-0.276,0.224-0.5,0.5-0.5h4c0.276,0,0.5,0.224,0.5,0.5
					C610.353,164.677,610.13,164.9,609.853,164.9z M601.853,164.9h-4c-0.276,0-0.5-0.224-0.5-0.5c0-0.276,0.224-0.5,0.5-0.5h4
					c0.276,0,0.5,0.224,0.5,0.5C602.353,164.677,602.13,164.9,601.853,164.9z M593.853,164.9h-4c-0.276,0-0.5-0.224-0.5-0.5
					c0-0.276,0.224-0.5,0.5-0.5h4c0.276,0,0.5,0.224,0.5,0.5C594.353,164.677,594.13,164.9,593.853,164.9z M585.853,164.9h-4
					c-0.276,0-0.5-0.224-0.5-0.5c0-0.276,0.224-0.5,0.5-0.5h4c0.276,0,0.5,0.224,0.5,0.5
					C586.353,164.677,586.13,164.9,585.853,164.9z M577.853,164.9h-4c-0.276,0-0.5-0.224-0.5-0.5c0-0.276,0.224-0.5,0.5-0.5h4
					c0.276,0,0.5,0.224,0.5,0.5C578.353,164.677,578.13,164.9,577.853,164.9z M569.853,164.9h-4c-0.276,0-0.5-0.224-0.5-0.5
					c0-0.276,0.224-0.5,0.5-0.5h4c0.276,0,0.5,0.224,0.5,0.5C570.353,164.677,570.13,164.9,569.853,164.9z M561.853,164.9h-4
					c-0.276,0-0.5-0.224-0.5-0.5c0-0.276,0.224-0.5,0.5-0.5h4c0.276,0,0.5,0.224,0.5,0.5
					C562.353,164.677,562.13,164.9,561.853,164.9z M553.853,164.9h-4c-0.276,0-0.5-0.224-0.5-0.5c0-0.276,0.224-0.5,0.5-0.5h4
					c0.276,0,0.5,0.224,0.5,0.5C554.353,164.677,554.13,164.9,553.853,164.9z M545.853,164.9h-4c-0.276,0-0.5-0.224-0.5-0.5
					c0-0.276,0.224-0.5,0.5-0.5h4c0.276,0,0.5,0.224,0.5,0.5C546.353,164.677,546.13,164.9,545.853,164.9z M537.853,164.9h-4
					c-0.276,0-0.5-0.224-0.5-0.5c0-0.276,0.224-0.5,0.5-0.5h4c0.276,0,0.5,0.224,0.5,0.5
					C538.353,164.677,538.13,164.9,537.853,164.9z"/>
			</g>
		</g>
		<g>
			<g>
				<path style="fill:#11B7EA;" d="M721.853,331.321h-4c-0.276,0-0.5-0.224-0.5-0.5s0.224-0.5,0.5-0.5h4c0.276,0,0.5,0.224,0.5,0.5
					S722.13,331.321,721.853,331.321z M713.853,331.321h-4c-0.276,0-0.5-0.224-0.5-0.5s0.224-0.5,0.5-0.5h4
					c0.276,0,0.5,0.224,0.5,0.5S714.13,331.321,713.853,331.321z M705.853,331.321h-4c-0.276,0-0.5-0.224-0.5-0.5s0.224-0.5,0.5-0.5
					h4c0.276,0,0.5,0.224,0.5,0.5S706.13,331.321,705.853,331.321z M697.853,331.321h-4c-0.276,0-0.5-0.224-0.5-0.5
					s0.224-0.5,0.5-0.5h4c0.276,0,0.5,0.224,0.5,0.5S698.13,331.321,697.853,331.321z M689.853,331.321h-4
					c-0.276,0-0.5-0.224-0.5-0.5s0.224-0.5,0.5-0.5h4c0.276,0,0.5,0.224,0.5,0.5S690.13,331.321,689.853,331.321z M681.853,331.321
					h-4c-0.276,0-0.5-0.224-0.5-0.5s0.224-0.5,0.5-0.5h4c0.276,0,0.5,0.224,0.5,0.5S682.13,331.321,681.853,331.321z
					 M673.853,331.321h-4c-0.276,0-0.5-0.224-0.5-0.5s0.224-0.5,0.5-0.5h4c0.276,0,0.5,0.224,0.5,0.5
					S674.13,331.321,673.853,331.321z M665.853,331.321h-4c-0.276,0-0.5-0.224-0.5-0.5s0.224-0.5,0.5-0.5h4
					c0.276,0,0.5,0.224,0.5,0.5S666.13,331.321,665.853,331.321z M657.853,331.321h-4c-0.276,0-0.5-0.224-0.5-0.5s0.224-0.5,0.5-0.5
					h4c0.276,0,0.5,0.224,0.5,0.5S658.13,331.321,657.853,331.321z M649.853,331.321h-4c-0.276,0-0.5-0.224-0.5-0.5
					s0.224-0.5,0.5-0.5h4c0.276,0,0.5,0.224,0.5,0.5S650.13,331.321,649.853,331.321z M641.853,331.321h-4
					c-0.276,0-0.5-0.224-0.5-0.5s0.224-0.5,0.5-0.5h4c0.276,0,0.5,0.224,0.5,0.5S642.13,331.321,641.853,331.321z M633.853,331.321
					h-4c-0.276,0-0.5-0.224-0.5-0.5s0.224-0.5,0.5-0.5h4c0.276,0,0.5,0.224,0.5,0.5S634.13,331.321,633.853,331.321z
					 M625.853,331.321h-4c-0.276,0-0.5-0.224-0.5-0.5s0.224-0.5,0.5-0.5h4c0.276,0,0.5,0.224,0.5,0.5
					S626.13,331.321,625.853,331.321z M617.853,331.321h-4c-0.276,0-0.5-0.224-0.5-0.5s0.224-0.5,0.5-0.5h4
					c0.276,0,0.5,0.224,0.5,0.5S618.13,331.321,617.853,331.321z M609.853,331.321h-4c-0.276,0-0.5-0.224-0.5-0.5s0.224-0.5,0.5-0.5
					h4c0.276,0,0.5,0.224,0.5,0.5S610.13,331.321,609.853,331.321z M601.853,331.321h-4c-0.276,0-0.5-0.224-0.5-0.5
					s0.224-0.5,0.5-0.5h4c0.276,0,0.5,0.224,0.5,0.5S602.13,331.321,601.853,331.321z M593.853,331.321h-4
					c-0.276,0-0.5-0.224-0.5-0.5s0.224-0.5,0.5-0.5h4c0.276,0,0.5,0.224,0.5,0.5S594.13,331.321,593.853,331.321z M585.853,331.321
					h-4c-0.276,0-0.5-0.224-0.5-0.5s0.224-0.5,0.5-0.5h4c0.276,0,0.5,0.224,0.5,0.5S586.13,331.321,585.853,331.321z
					 M577.853,331.321h-4c-0.276,0-0.5-0.224-0.5-0.5s0.224-0.5,0.5-0.5h4c0.276,0,0.5,0.224,0.5,0.5
					S578.13,331.321,577.853,331.321z M569.853,331.321h-4c-0.276,0-0.5-0.224-0.5-0.5s0.224-0.5,0.5-0.5h4
					c0.276,0,0.5,0.224,0.5,0.5S570.13,331.321,569.853,331.321z M561.853,331.321h-4c-0.276,0-0.5-0.224-0.5-0.5s0.224-0.5,0.5-0.5
					h4c0.276,0,0.5,0.224,0.5,0.5S562.13,331.321,561.853,331.321z M553.853,331.321h-4c-0.276,0-0.5-0.224-0.5-0.5
					s0.224-0.5,0.5-0.5h4c0.276,0,0.5,0.224,0.5,0.5S554.13,331.321,553.853,331.321z M545.853,331.321h-4
					c-0.276,0-0.5-0.224-0.5-0.5s0.224-0.5,0.5-0.5h4c0.276,0,0.5,0.224,0.5,0.5S546.13,331.321,545.853,331.321z M537.853,331.321
					h-4c-0.276,0-0.5-0.224-0.5-0.5s0.224-0.5,0.5-0.5h4c0.276,0,0.5,0.224,0.5,0.5S538.13,331.321,537.853,331.321z"/>
			</g>
		</g>
		<g>
			<path style="fill:#11B7EA;" d="M531.007,167.382h-3.423c-0.276,0-0.5-0.224-0.5-0.5c0-0.276,0.224-0.5,0.5-0.5h3.423
				c0.276,0,0.5,0.224,0.5,0.5C531.507,167.158,531.283,167.382,531.007,167.382z M523.584,167.382h-4c-0.276,0-0.5-0.224-0.5-0.5
				c0-0.276,0.224-0.5,0.5-0.5h4c0.276,0,0.5,0.224,0.5,0.5C524.084,167.158,523.86,167.382,523.584,167.382z M515.584,167.382h-4
				c-0.276,0-0.5-0.224-0.5-0.5c0-0.276,0.224-0.5,0.5-0.5h4c0.276,0,0.5,0.224,0.5,0.5
				C516.084,167.158,515.86,167.382,515.584,167.382z M507.584,167.382h-4c-0.276,0-0.5-0.224-0.5-0.5c0-0.276,0.224-0.5,0.5-0.5h4
				c0.276,0,0.5,0.224,0.5,0.5C508.084,167.158,507.86,167.382,507.584,167.382z M499.584,167.382h-4c-0.276,0-0.5-0.224-0.5-0.5
				c0-0.276,0.224-0.5,0.5-0.5h4c0.276,0,0.5,0.224,0.5,0.5C500.084,167.158,499.86,167.382,499.584,167.382z M491.584,167.382h-4
				c-0.276,0-0.5-0.224-0.5-0.5c0-0.276,0.224-0.5,0.5-0.5h4c0.276,0,0.5,0.224,0.5,0.5
				C492.084,167.158,491.86,167.382,491.584,167.382z M483.584,167.382h-4c-0.276,0-0.5-0.224-0.5-0.5c0-0.276,0.224-0.5,0.5-0.5h4
				c0.276,0,0.5,0.224,0.5,0.5C484.084,167.158,483.86,167.382,483.584,167.382z M475.584,167.382h-4c-0.276,0-0.5-0.224-0.5-0.5
				c0-0.276,0.224-0.5,0.5-0.5h4c0.276,0,0.5,0.224,0.5,0.5C476.084,167.158,475.86,167.382,475.584,167.382z M467.584,167.382h-4
				c-0.276,0-0.5-0.224-0.5-0.5c0-0.276,0.224-0.5,0.5-0.5h4c0.276,0,0.5,0.224,0.5,0.5
				C468.084,167.158,467.86,167.382,467.584,167.382z"/>
		</g>
		<g>
			<path style="fill:#11B7EA;" d="M531.007,328.838h-3.423c-0.276,0-0.5-0.224-0.5-0.5s0.224-0.5,0.5-0.5h3.423
				c0.276,0,0.5,0.224,0.5,0.5S531.283,328.838,531.007,328.838z M523.584,328.838h-4c-0.276,0-0.5-0.224-0.5-0.5s0.224-0.5,0.5-0.5
				h4c0.276,0,0.5,0.224,0.5,0.5S523.86,328.838,523.584,328.838z M515.584,328.838h-4c-0.276,0-0.5-0.224-0.5-0.5
				s0.224-0.5,0.5-0.5h4c0.276,0,0.5,0.224,0.5,0.5S515.86,328.838,515.584,328.838z M507.584,328.838h-4
				c-0.276,0-0.5-0.224-0.5-0.5s0.224-0.5,0.5-0.5h4c0.276,0,0.5,0.224,0.5,0.5S507.86,328.838,507.584,328.838z M499.584,328.838
				h-4c-0.276,0-0.5-0.224-0.5-0.5s0.224-0.5,0.5-0.5h4c0.276,0,0.5,0.224,0.5,0.5S499.86,328.838,499.584,328.838z
				 M491.584,328.838h-4c-0.276,0-0.5-0.224-0.5-0.5s0.224-0.5,0.5-0.5h4c0.276,0,0.5,0.224,0.5,0.5S491.86,328.838,491.584,328.838
				z M483.584,328.838h-4c-0.276,0-0.5-0.224-0.5-0.5s0.224-0.5,0.5-0.5h4c0.276,0,0.5,0.224,0.5,0.5
				S483.86,328.838,483.584,328.838z M475.584,328.838h-4c-0.276,0-0.5-0.224-0.5-0.5s0.224-0.5,0.5-0.5h4
				c0.276,0,0.5,0.224,0.5,0.5S475.86,328.838,475.584,328.838z M467.584,328.838h-4c-0.276,0-0.5-0.224-0.5-0.5s0.224-0.5,0.5-0.5
				h4c0.276,0,0.5,0.224,0.5,0.5S467.86,328.838,467.584,328.838z"/>
		</g>
		<g>
			<path style="fill:#11B7EA;" d="M340.027,328.838h-3.422c-0.276,0-0.5-0.224-0.5-0.5s0.224-0.5,0.5-0.5h3.422
				c0.276,0,0.5,0.224,0.5,0.5S340.303,328.838,340.027,328.838z M332.605,328.838h-4c-0.276,0-0.5-0.224-0.5-0.5s0.224-0.5,0.5-0.5
				h4c0.276,0,0.5,0.224,0.5,0.5S332.881,328.838,332.605,328.838z M324.605,328.838h-4c-0.276,0-0.5-0.224-0.5-0.5
				s0.224-0.5,0.5-0.5h4c0.276,0,0.5,0.224,0.5,0.5S324.881,328.838,324.605,328.838z M316.605,328.838h-4
				c-0.276,0-0.5-0.224-0.5-0.5s0.224-0.5,0.5-0.5h4c0.276,0,0.5,0.224,0.5,0.5S316.881,328.838,316.605,328.838z M308.605,328.838
				h-4c-0.276,0-0.5-0.224-0.5-0.5s0.224-0.5,0.5-0.5h4c0.276,0,0.5,0.224,0.5,0.5S308.881,328.838,308.605,328.838z
				 M300.605,328.838h-4c-0.276,0-0.5-0.224-0.5-0.5s0.224-0.5,0.5-0.5h4c0.276,0,0.5,0.224,0.5,0.5
				S300.881,328.838,300.605,328.838z M292.605,328.838h-4c-0.276,0-0.5-0.224-0.5-0.5s0.224-0.5,0.5-0.5h4
				c0.276,0,0.5,0.224,0.5,0.5S292.881,328.838,292.605,328.838z M284.605,328.838h-4c-0.276,0-0.5-0.224-0.5-0.5s0.224-0.5,0.5-0.5
				h4c0.276,0,0.5,0.224,0.5,0.5S284.881,328.838,284.605,328.838z M276.605,328.838h-4c-0.276,0-0.5-0.224-0.5-0.5
				s0.224-0.5,0.5-0.5h4c0.276,0,0.5,0.224,0.5,0.5S276.881,328.838,276.605,328.838z"/>
		</g>
		<g>
			<path style="fill:#11B7EA;" d="M340.027,167.382h-3.422c-0.276,0-0.5-0.224-0.5-0.5c0-0.276,0.224-0.5,0.5-0.5h3.422
				c0.276,0,0.5,0.224,0.5,0.5C340.527,167.158,340.303,167.382,340.027,167.382z M332.605,167.382h-4c-0.276,0-0.5-0.224-0.5-0.5
				c0-0.276,0.224-0.5,0.5-0.5h4c0.276,0,0.5,0.224,0.5,0.5C333.105,167.158,332.881,167.382,332.605,167.382z M324.605,167.382h-4
				c-0.276,0-0.5-0.224-0.5-0.5c0-0.276,0.224-0.5,0.5-0.5h4c0.276,0,0.5,0.224,0.5,0.5
				C325.105,167.158,324.881,167.382,324.605,167.382z M316.605,167.382h-4c-0.276,0-0.5-0.224-0.5-0.5c0-0.276,0.224-0.5,0.5-0.5h4
				c0.276,0,0.5,0.224,0.5,0.5C317.105,167.158,316.881,167.382,316.605,167.382z M308.605,167.382h-4c-0.276,0-0.5-0.224-0.5-0.5
				c0-0.276,0.224-0.5,0.5-0.5h4c0.276,0,0.5,0.224,0.5,0.5C309.105,167.158,308.881,167.382,308.605,167.382z M300.605,167.382h-4
				c-0.276,0-0.5-0.224-0.5-0.5c0-0.276,0.224-0.5,0.5-0.5h4c0.276,0,0.5,0.224,0.5,0.5
				C301.105,167.158,300.881,167.382,300.605,167.382z M292.605,167.382h-4c-0.276,0-0.5-0.224-0.5-0.5c0-0.276,0.224-0.5,0.5-0.5h4
				c0.276,0,0.5,0.224,0.5,0.5C293.105,167.158,292.881,167.382,292.605,167.382z M284.605,167.382h-4c-0.276,0-0.5-0.224-0.5-0.5
				c0-0.276,0.224-0.5,0.5-0.5h4c0.276,0,0.5,0.224,0.5,0.5C285.105,167.158,284.881,167.382,284.605,167.382z M276.605,167.382h-4
				c-0.276,0-0.5-0.224-0.5-0.5c0-0.276,0.224-0.5,0.5-0.5h4c0.276,0,0.5,0.224,0.5,0.5
				C277.105,167.158,276.881,167.382,276.605,167.382z"/>
		</g>
		<g>
			<path style="fill:#11B7EA;" d="M458.954,407.255h-4c-0.276,0-0.5-0.224-0.5-0.5c0-0.276,0.224-0.5,0.5-0.5h4
				c0.276,0,0.5,0.224,0.5,0.5C459.454,407.031,459.23,407.255,458.954,407.255z M450.954,407.255h-4c-0.276,0-0.5-0.224-0.5-0.5
				c0-0.276,0.224-0.5,0.5-0.5h4c0.276,0,0.5,0.224,0.5,0.5C451.454,407.031,451.23,407.255,450.954,407.255z M442.954,407.255h-4
				c-0.276,0-0.5-0.224-0.5-0.5c0-0.276,0.224-0.5,0.5-0.5h4c0.276,0,0.5,0.224,0.5,0.5
				C443.454,407.031,443.23,407.255,442.954,407.255z M434.954,407.255h-4c-0.276,0-0.5-0.224-0.5-0.5c0-0.276,0.224-0.5,0.5-0.5h4
				c0.276,0,0.5,0.224,0.5,0.5C435.454,407.031,435.23,407.255,434.954,407.255z M426.954,407.255h-4c-0.276,0-0.5-0.224-0.5-0.5
				c0-0.276,0.224-0.5,0.5-0.5h4c0.276,0,0.5,0.224,0.5,0.5C427.454,407.031,427.23,407.255,426.954,407.255z M418.954,407.255h-4
				c-0.276,0-0.5-0.224-0.5-0.5c0-0.276,0.224-0.5,0.5-0.5h4c0.276,0,0.5,0.224,0.5,0.5
				C419.454,407.031,419.23,407.255,418.954,407.255z M410.954,407.255h-4c-0.276,0-0.5-0.224-0.5-0.5c0-0.276,0.224-0.5,0.5-0.5h4
				c0.276,0,0.5,0.224,0.5,0.5C411.454,407.031,411.23,407.255,410.954,407.255z M402.954,407.255h-4c-0.276,0-0.5-0.224-0.5-0.5
				c0-0.276,0.224-0.5,0.5-0.5h4c0.276,0,0.5,0.224,0.5,0.5C403.454,407.031,403.23,407.255,402.954,407.255z M394.954,407.255h-4
				c-0.276,0-0.5-0.224-0.5-0.5c0-0.276,0.224-0.5,0.5-0.5h4c0.276,0,0.5,0.224,0.5,0.5
				C395.454,407.031,395.23,407.255,394.954,407.255z M386.954,407.255h-4c-0.276,0-0.5-0.224-0.5-0.5c0-0.276,0.224-0.5,0.5-0.5h4
				c0.276,0,0.5,0.224,0.5,0.5C387.454,407.031,387.23,407.255,386.954,407.255z M378.953,407.255h-4c-0.276,0-0.5-0.224-0.5-0.5
				c0-0.276,0.224-0.5,0.5-0.5h4c0.276,0,0.5,0.224,0.5,0.5C379.453,407.031,379.23,407.255,378.953,407.255z M370.953,407.255h-4
				c-0.276,0-0.5-0.224-0.5-0.5c0-0.276,0.224-0.5,0.5-0.5h4c0.276,0,0.5,0.224,0.5,0.5
				C371.453,407.031,371.23,407.255,370.953,407.255z M362.953,407.255h-4c-0.276,0-0.5-0.224-0.5-0.5c0-0.276,0.224-0.5,0.5-0.5h4
				c0.276,0,0.5,0.224,0.5,0.5C363.453,407.031,363.23,407.255,362.953,407.255z M354.953,407.255h-4c-0.276,0-0.5-0.224-0.5-0.5
				c0-0.276,0.224-0.5,0.5-0.5h4c0.276,0,0.5,0.224,0.5,0.5C355.453,407.031,355.23,407.255,354.953,407.255z M346.953,407.255h-4
				c-0.276,0-0.5-0.224-0.5-0.5c0-0.276,0.224-0.5,0.5-0.5h4c0.276,0,0.5,0.224,0.5,0.5
				C347.453,407.031,347.23,407.255,346.953,407.255z"/>
		</g>
		<g>
			<path style="fill:#11B7EA;" d="M458.954,403.98h-4c-0.276,0-0.5-0.224-0.5-0.5c0-0.276,0.224-0.5,0.5-0.5h4
				c0.276,0,0.5,0.224,0.5,0.5C459.454,403.757,459.23,403.98,458.954,403.98z M450.954,403.98h-4c-0.276,0-0.5-0.224-0.5-0.5
				c0-0.276,0.224-0.5,0.5-0.5h4c0.276,0,0.5,0.224,0.5,0.5C451.454,403.757,451.23,403.98,450.954,403.98z M442.954,403.98h-4
				c-0.276,0-0.5-0.224-0.5-0.5c0-0.276,0.224-0.5,0.5-0.5h4c0.276,0,0.5,0.224,0.5,0.5
				C443.454,403.757,443.23,403.98,442.954,403.98z M434.954,403.98h-4c-0.276,0-0.5-0.224-0.5-0.5c0-0.276,0.224-0.5,0.5-0.5h4
				c0.276,0,0.5,0.224,0.5,0.5C435.454,403.757,435.23,403.98,434.954,403.98z M426.954,403.98h-4c-0.276,0-0.5-0.224-0.5-0.5
				c0-0.276,0.224-0.5,0.5-0.5h4c0.276,0,0.5,0.224,0.5,0.5C427.454,403.757,427.23,403.98,426.954,403.98z M418.954,403.98h-4
				c-0.276,0-0.5-0.224-0.5-0.5c0-0.276,0.224-0.5,0.5-0.5h4c0.276,0,0.5,0.224,0.5,0.5
				C419.454,403.757,419.23,403.98,418.954,403.98z M410.954,403.98h-4c-0.276,0-0.5-0.224-0.5-0.5c0-0.276,0.224-0.5,0.5-0.5h4
				c0.276,0,0.5,0.224,0.5,0.5C411.454,403.757,411.23,403.98,410.954,403.98z M402.954,403.98h-4c-0.276,0-0.5-0.224-0.5-0.5
				c0-0.276,0.224-0.5,0.5-0.5h4c0.276,0,0.5,0.224,0.5,0.5C403.454,403.757,403.23,403.98,402.954,403.98z M394.954,403.98h-4
				c-0.276,0-0.5-0.224-0.5-0.5c0-0.276,0.224-0.5,0.5-0.5h4c0.276,0,0.5,0.224,0.5,0.5
				C395.454,403.757,395.23,403.98,394.954,403.98z M386.954,403.98h-4c-0.276,0-0.5-0.224-0.5-0.5c0-0.276,0.224-0.5,0.5-0.5h4
				c0.276,0,0.5,0.224,0.5,0.5C387.454,403.757,387.23,403.98,386.954,403.98z M378.953,403.98h-4c-0.276,0-0.5-0.224-0.5-0.5
				c0-0.276,0.224-0.5,0.5-0.5h4c0.276,0,0.5,0.224,0.5,0.5C379.453,403.757,379.23,403.98,378.953,403.98z M370.953,403.98h-4
				c-0.276,0-0.5-0.224-0.5-0.5c0-0.276,0.224-0.5,0.5-0.5h4c0.276,0,0.5,0.224,0.5,0.5
				C371.453,403.757,371.23,403.98,370.953,403.98z M362.953,403.98h-4c-0.276,0-0.5-0.224-0.5-0.5c0-0.276,0.224-0.5,0.5-0.5h4
				c0.276,0,0.5,0.224,0.5,0.5C363.453,403.757,363.23,403.98,362.953,403.98z M354.953,403.98h-4c-0.276,0-0.5-0.224-0.5-0.5
				c0-0.276,0.224-0.5,0.5-0.5h4c0.276,0,0.5,0.224,0.5,0.5C355.453,403.757,355.23,403.98,354.953,403.98z M346.953,403.98h-4
				c-0.276,0-0.5-0.224-0.5-0.5c0-0.276,0.224-0.5,0.5-0.5h4c0.276,0,0.5,0.224,0.5,0.5
				C347.453,403.757,347.23,403.98,346.953,403.98z"/>
		</g>
		<g>
			<g>
				<path style="fill:#11B7EA;" d="M458.954,331.321h-4c-0.276,0-0.5-0.224-0.5-0.5s0.224-0.5,0.5-0.5h4c0.276,0,0.5,0.224,0.5,0.5
					S459.23,331.321,458.954,331.321z M450.954,331.321h-4c-0.276,0-0.5-0.224-0.5-0.5s0.224-0.5,0.5-0.5h4
					c0.276,0,0.5,0.224,0.5,0.5S451.23,331.321,450.954,331.321z M442.954,331.321h-4c-0.276,0-0.5-0.224-0.5-0.5s0.224-0.5,0.5-0.5
					h4c0.276,0,0.5,0.224,0.5,0.5S443.23,331.321,442.954,331.321z M434.954,331.321h-4c-0.276,0-0.5-0.224-0.5-0.5
					s0.224-0.5,0.5-0.5h4c0.276,0,0.5,0.224,0.5,0.5S435.23,331.321,434.954,331.321z M426.954,331.321h-4
					c-0.276,0-0.5-0.224-0.5-0.5s0.224-0.5,0.5-0.5h4c0.276,0,0.5,0.224,0.5,0.5S427.23,331.321,426.954,331.321z M418.954,331.321
					h-4c-0.276,0-0.5-0.224-0.5-0.5s0.224-0.5,0.5-0.5h4c0.276,0,0.5,0.224,0.5,0.5S419.23,331.321,418.954,331.321z
					 M410.954,331.321h-4c-0.276,0-0.5-0.224-0.5-0.5s0.224-0.5,0.5-0.5h4c0.276,0,0.5,0.224,0.5,0.5
					S411.23,331.321,410.954,331.321z M402.954,331.321h-4c-0.276,0-0.5-0.224-0.5-0.5s0.224-0.5,0.5-0.5h4
					c0.276,0,0.5,0.224,0.5,0.5S403.23,331.321,402.954,331.321z M394.954,331.321h-4c-0.276,0-0.5-0.224-0.5-0.5s0.224-0.5,0.5-0.5
					h4c0.276,0,0.5,0.224,0.5,0.5S395.23,331.321,394.954,331.321z M386.954,331.321h-4c-0.276,0-0.5-0.224-0.5-0.5
					s0.224-0.5,0.5-0.5h4c0.276,0,0.5,0.224,0.5,0.5S387.23,331.321,386.954,331.321z M378.953,331.321h-4
					c-0.276,0-0.5-0.224-0.5-0.5s0.224-0.5,0.5-0.5h4c0.276,0,0.5,0.224,0.5,0.5S379.23,331.321,378.953,331.321z M370.953,331.321
					h-4c-0.276,0-0.5-0.224-0.5-0.5s0.224-0.5,0.5-0.5h4c0.276,0,0.5,0.224,0.5,0.5S371.23,331.321,370.953,331.321z
					 M362.953,331.321h-4c-0.276,0-0.5-0.224-0.5-0.5s0.224-0.5,0.5-0.5h4c0.276,0,0.5,0.224,0.5,0.5
					S363.23,331.321,362.953,331.321z M354.953,331.321h-4c-0.276,0-0.5-0.224-0.5-0.5s0.224-0.5,0.5-0.5h4
					c0.276,0,0.5,0.224,0.5,0.5S355.23,331.321,354.953,331.321z M346.953,331.321h-4c-0.276,0-0.5-0.224-0.5-0.5s0.224-0.5,0.5-0.5
					h4c0.276,0,0.5,0.224,0.5,0.5S347.23,331.321,346.953,331.321z"/>
			</g>
		</g>
		<g>
			<g>
				<path style="fill:#11B7EA;" d="M458.954,164.899h-4c-0.276,0-0.5-0.224-0.5-0.5c0-0.276,0.224-0.5,0.5-0.5h4
					c0.276,0,0.5,0.224,0.5,0.5C459.454,164.675,459.23,164.899,458.954,164.899z M450.954,164.899h-4c-0.276,0-0.5-0.224-0.5-0.5
					c0-0.276,0.224-0.5,0.5-0.5h4c0.276,0,0.5,0.224,0.5,0.5C451.454,164.675,451.23,164.899,450.954,164.899z M442.954,164.899h-4
					c-0.276,0-0.5-0.224-0.5-0.5c0-0.276,0.224-0.5,0.5-0.5h4c0.276,0,0.5,0.224,0.5,0.5
					C443.454,164.675,443.23,164.899,442.954,164.899z M434.954,164.899h-4c-0.276,0-0.5-0.224-0.5-0.5c0-0.276,0.224-0.5,0.5-0.5h4
					c0.276,0,0.5,0.224,0.5,0.5C435.454,164.675,435.23,164.899,434.954,164.899z M426.954,164.899h-4c-0.276,0-0.5-0.224-0.5-0.5
					c0-0.276,0.224-0.5,0.5-0.5h4c0.276,0,0.5,0.224,0.5,0.5C427.454,164.675,427.23,164.899,426.954,164.899z M418.954,164.899h-4
					c-0.276,0-0.5-0.224-0.5-0.5c0-0.276,0.224-0.5,0.5-0.5h4c0.276,0,0.5,0.224,0.5,0.5
					C419.454,164.675,419.23,164.899,418.954,164.899z M410.954,164.899h-4c-0.276,0-0.5-0.224-0.5-0.5c0-0.276,0.224-0.5,0.5-0.5h4
					c0.276,0,0.5,0.224,0.5,0.5C411.454,164.675,411.23,164.899,410.954,164.899z M402.954,164.899h-4c-0.276,0-0.5-0.224-0.5-0.5
					c0-0.276,0.224-0.5,0.5-0.5h4c0.276,0,0.5,0.224,0.5,0.5C403.454,164.675,403.23,164.899,402.954,164.899z M394.954,164.899h-4
					c-0.276,0-0.5-0.224-0.5-0.5c0-0.276,0.224-0.5,0.5-0.5h4c0.276,0,0.5,0.224,0.5,0.5
					C395.454,164.675,395.23,164.899,394.954,164.899z M386.954,164.899h-4c-0.276,0-0.5-0.224-0.5-0.5c0-0.276,0.224-0.5,0.5-0.5h4
					c0.276,0,0.5,0.224,0.5,0.5C387.454,164.675,387.23,164.899,386.954,164.899z M378.953,164.899h-4c-0.276,0-0.5-0.224-0.5-0.5
					c0-0.276,0.224-0.5,0.5-0.5h4c0.276,0,0.5,0.224,0.5,0.5C379.453,164.675,379.23,164.899,378.953,164.899z M370.953,164.899h-4
					c-0.276,0-0.5-0.224-0.5-0.5c0-0.276,0.224-0.5,0.5-0.5h4c0.276,0,0.5,0.224,0.5,0.5
					C371.453,164.675,371.23,164.899,370.953,164.899z M362.953,164.899h-4c-0.276,0-0.5-0.224-0.5-0.5c0-0.276,0.224-0.5,0.5-0.5h4
					c0.276,0,0.5,0.224,0.5,0.5C363.453,164.675,363.23,164.899,362.953,164.899z M354.953,164.899h-4c-0.276,0-0.5-0.224-0.5-0.5
					c0-0.276,0.224-0.5,0.5-0.5h4c0.276,0,0.5,0.224,0.5,0.5C355.453,164.675,355.23,164.899,354.953,164.899z M346.953,164.899h-4
					c-0.276,0-0.5-0.224-0.5-0.5c0-0.276,0.224-0.5,0.5-0.5h4c0.276,0,0.5,0.224,0.5,0.5
					C347.453,164.675,347.23,164.899,346.953,164.899z"/>
			</g>
		</g>
		<g>
			<g>
				<path style="fill:#11B7EA;" d="M458.954,92.242h-4c-0.276,0-0.5-0.224-0.5-0.5c0-0.276,0.224-0.5,0.5-0.5h4
					c0.276,0,0.5,0.224,0.5,0.5C459.454,92.019,459.23,92.242,458.954,92.242z M450.954,92.242h-4c-0.276,0-0.5-0.224-0.5-0.5
					c0-0.276,0.224-0.5,0.5-0.5h4c0.276,0,0.5,0.224,0.5,0.5C451.454,92.019,451.23,92.242,450.954,92.242z M442.954,92.242h-4
					c-0.276,0-0.5-0.224-0.5-0.5c0-0.276,0.224-0.5,0.5-0.5h4c0.276,0,0.5,0.224,0.5,0.5
					C443.454,92.019,443.23,92.242,442.954,92.242z M434.954,92.242h-4c-0.276,0-0.5-0.224-0.5-0.5c0-0.276,0.224-0.5,0.5-0.5h4
					c0.276,0,0.5,0.224,0.5,0.5C435.454,92.019,435.23,92.242,434.954,92.242z M426.954,92.242h-4c-0.276,0-0.5-0.224-0.5-0.5
					c0-0.276,0.224-0.5,0.5-0.5h4c0.276,0,0.5,0.224,0.5,0.5C427.454,92.019,427.23,92.242,426.954,92.242z M418.954,92.242h-4
					c-0.276,0-0.5-0.224-0.5-0.5c0-0.276,0.224-0.5,0.5-0.5h4c0.276,0,0.5,0.224,0.5,0.5
					C419.454,92.019,419.23,92.242,418.954,92.242z M410.954,92.242h-4c-0.276,0-0.5-0.224-0.5-0.5c0-0.276,0.224-0.5,0.5-0.5h4
					c0.276,0,0.5,0.224,0.5,0.5C411.454,92.019,411.23,92.242,410.954,92.242z M402.954,92.242h-4c-0.276,0-0.5-0.224-0.5-0.5
					c0-0.276,0.224-0.5,0.5-0.5h4c0.276,0,0.5,0.224,0.5,0.5C403.454,92.019,403.23,92.242,402.954,92.242z M394.954,92.242h-4
					c-0.276,0-0.5-0.224-0.5-0.5c0-0.276,0.224-0.5,0.5-0.5h4c0.276,0,0.5,0.224,0.5,0.5
					C395.454,92.019,395.23,92.242,394.954,92.242z M386.954,92.242h-4c-0.276,0-0.5-0.224-0.5-0.5c0-0.276,0.224-0.5,0.5-0.5h4
					c0.276,0,0.5,0.224,0.5,0.5C387.454,92.019,387.23,92.242,386.954,92.242z M378.953,92.242h-4c-0.276,0-0.5-0.224-0.5-0.5
					c0-0.276,0.224-0.5,0.5-0.5h4c0.276,0,0.5,0.224,0.5,0.5C379.453,92.019,379.23,92.242,378.953,92.242z M370.953,92.242h-4
					c-0.276,0-0.5-0.224-0.5-0.5c0-0.276,0.224-0.5,0.5-0.5h4c0.276,0,0.5,0.224,0.5,0.5
					C371.453,92.019,371.23,92.242,370.953,92.242z M362.953,92.242h-4c-0.276,0-0.5-0.224-0.5-0.5c0-0.276,0.224-0.5,0.5-0.5h4
					c0.276,0,0.5,0.224,0.5,0.5C363.453,92.019,363.23,92.242,362.953,92.242z M354.953,92.242h-4c-0.276,0-0.5-0.224-0.5-0.5
					c0-0.276,0.224-0.5,0.5-0.5h4c0.276,0,0.5,0.224,0.5,0.5C355.453,92.019,355.23,92.242,354.953,92.242z M346.953,92.242h-4
					c-0.276,0-0.5-0.224-0.5-0.5c0-0.276,0.224-0.5,0.5-0.5h4c0.276,0,0.5,0.224,0.5,0.5
					C347.453,92.019,347.23,92.242,346.953,92.242z"/>
			</g>
		</g>
		<g>
			<g>
				<path style="fill:#11B7EA;" d="M458.954,88.967h-4c-0.276,0-0.5-0.224-0.5-0.5c0-0.276,0.224-0.5,0.5-0.5h4
					c0.276,0,0.5,0.224,0.5,0.5C459.454,88.743,459.23,88.967,458.954,88.967z M450.954,88.967h-4c-0.276,0-0.5-0.224-0.5-0.5
					c0-0.276,0.224-0.5,0.5-0.5h4c0.276,0,0.5,0.224,0.5,0.5C451.454,88.743,451.23,88.967,450.954,88.967z M442.954,88.967h-4
					c-0.276,0-0.5-0.224-0.5-0.5c0-0.276,0.224-0.5,0.5-0.5h4c0.276,0,0.5,0.224,0.5,0.5
					C443.454,88.743,443.23,88.967,442.954,88.967z M434.954,88.967h-4c-0.276,0-0.5-0.224-0.5-0.5c0-0.276,0.224-0.5,0.5-0.5h4
					c0.276,0,0.5,0.224,0.5,0.5C435.454,88.743,435.23,88.967,434.954,88.967z M426.954,88.967h-4c-0.276,0-0.5-0.224-0.5-0.5
					c0-0.276,0.224-0.5,0.5-0.5h4c0.276,0,0.5,0.224,0.5,0.5C427.454,88.743,427.23,88.967,426.954,88.967z M418.954,88.967h-4
					c-0.276,0-0.5-0.224-0.5-0.5c0-0.276,0.224-0.5,0.5-0.5h4c0.276,0,0.5,0.224,0.5,0.5
					C419.454,88.743,419.23,88.967,418.954,88.967z M410.954,88.967h-4c-0.276,0-0.5-0.224-0.5-0.5c0-0.276,0.224-0.5,0.5-0.5h4
					c0.276,0,0.5,0.224,0.5,0.5C411.454,88.743,411.23,88.967,410.954,88.967z M402.954,88.967h-4c-0.276,0-0.5-0.224-0.5-0.5
					c0-0.276,0.224-0.5,0.5-0.5h4c0.276,0,0.5,0.224,0.5,0.5C403.454,88.743,403.23,88.967,402.954,88.967z M394.954,88.967h-4
					c-0.276,0-0.5-0.224-0.5-0.5c0-0.276,0.224-0.5,0.5-0.5h4c0.276,0,0.5,0.224,0.5,0.5
					C395.454,88.743,395.23,88.967,394.954,88.967z M386.954,88.967h-4c-0.276,0-0.5-0.224-0.5-0.5c0-0.276,0.224-0.5,0.5-0.5h4
					c0.276,0,0.5,0.224,0.5,0.5C387.454,88.743,387.23,88.967,386.954,88.967z M378.953,88.967h-4c-0.276,0-0.5-0.224-0.5-0.5
					c0-0.276,0.224-0.5,0.5-0.5h4c0.276,0,0.5,0.224,0.5,0.5C379.453,88.743,379.23,88.967,378.953,88.967z M370.953,88.967h-4
					c-0.276,0-0.5-0.224-0.5-0.5c0-0.276,0.224-0.5,0.5-0.5h4c0.276,0,0.5,0.224,0.5,0.5
					C371.453,88.743,371.23,88.967,370.953,88.967z M362.953,88.967h-4c-0.276,0-0.5-0.224-0.5-0.5c0-0.276,0.224-0.5,0.5-0.5h4
					c0.276,0,0.5,0.224,0.5,0.5C363.453,88.743,363.23,88.967,362.953,88.967z M354.953,88.967h-4c-0.276,0-0.5-0.224-0.5-0.5
					c0-0.276,0.224-0.5,0.5-0.5h4c0.276,0,0.5,0.224,0.5,0.5C355.453,88.743,355.23,88.967,354.953,88.967z M346.953,88.967h-4
					c-0.276,0-0.5-0.224-0.5-0.5c0-0.276,0.224-0.5,0.5-0.5h4c0.276,0,0.5,0.224,0.5,0.5
					C347.453,88.743,347.23,88.967,346.953,88.967z"/>
			</g>
		</g>
		<g>
			<path style="fill:#11B7EA;" d="M341.938,325.293c-0.276,0-0.5-0.224-0.5-0.5v-4c0-0.276,0.224-0.5,0.5-0.5
				c0.276,0,0.5,0.224,0.5,0.5v4C342.438,325.069,342.215,325.293,341.938,325.293z M341.938,317.293c-0.276,0-0.5-0.224-0.5-0.5v-4
				c0-0.276,0.224-0.5,0.5-0.5c0.276,0,0.5,0.224,0.5,0.5v4C342.438,317.069,342.215,317.293,341.938,317.293z M341.938,309.293
				c-0.276,0-0.5-0.224-0.5-0.5v-4c0-0.276,0.224-0.5,0.5-0.5c0.276,0,0.5,0.224,0.5,0.5v4
				C342.438,309.069,342.215,309.293,341.938,309.293z M341.938,301.293c-0.276,0-0.5-0.224-0.5-0.5v-4c0-0.276,0.224-0.5,0.5-0.5
				c0.276,0,0.5,0.224,0.5,0.5v4C342.438,301.069,342.215,301.293,341.938,301.293z M341.938,293.293c-0.276,0-0.5-0.224-0.5-0.5v-4
				c0-0.276,0.224-0.5,0.5-0.5c0.276,0,0.5,0.224,0.5,0.5v4C342.438,293.069,342.215,293.293,341.938,293.293z M341.938,285.293
				c-0.276,0-0.5-0.224-0.5-0.5v-4c0-0.276,0.224-0.5,0.5-0.5c0.276,0,0.5,0.224,0.5,0.5v4
				C342.438,285.069,342.215,285.293,341.938,285.293z M341.938,277.293c-0.276,0-0.5-0.224-0.5-0.5v-4c0-0.276,0.224-0.5,0.5-0.5
				c0.276,0,0.5,0.224,0.5,0.5v4C342.438,277.069,342.215,277.293,341.938,277.293z M341.938,269.293c-0.276,0-0.5-0.224-0.5-0.5v-4
				c0-0.276,0.224-0.5,0.5-0.5c0.276,0,0.5,0.224,0.5,0.5v4C342.438,269.069,342.215,269.293,341.938,269.293z M341.938,261.293
				c-0.276,0-0.5-0.224-0.5-0.5v-4c0-0.276,0.224-0.5,0.5-0.5c0.276,0,0.5,0.224,0.5,0.5v4
				C342.438,261.069,342.215,261.293,341.938,261.293z M341.938,253.293c-0.276,0-0.5-0.224-0.5-0.5v-4c0-0.276,0.224-0.5,0.5-0.5
				c0.276,0,0.5,0.224,0.5,0.5v4C342.438,253.069,342.215,253.293,341.938,253.293z M341.938,245.293c-0.276,0-0.5-0.224-0.5-0.5v-4
				c0-0.276,0.224-0.5,0.5-0.5c0.276,0,0.5,0.224,0.5,0.5v4C342.438,245.069,342.215,245.293,341.938,245.293z M341.938,237.293
				c-0.276,0-0.5-0.224-0.5-0.5v-4c0-0.276,0.224-0.5,0.5-0.5c0.276,0,0.5,0.224,0.5,0.5v4
				C342.438,237.069,342.215,237.293,341.938,237.293z M341.938,229.293c-0.276,0-0.5-0.224-0.5-0.5v-4c0-0.276,0.224-0.5,0.5-0.5
				c0.276,0,0.5,0.224,0.5,0.5v4C342.438,229.069,342.215,229.293,341.938,229.293z M341.938,221.293c-0.276,0-0.5-0.224-0.5-0.5v-4
				c0-0.276,0.224-0.5,0.5-0.5c0.276,0,0.5,0.224,0.5,0.5v4C342.438,221.069,342.215,221.293,341.938,221.293z M341.938,213.293
				c-0.276,0-0.5-0.224-0.5-0.5v-4c0-0.276,0.224-0.5,0.5-0.5c0.276,0,0.5,0.224,0.5,0.5v4
				C342.438,213.069,342.215,213.293,341.938,213.293z M341.938,205.293c-0.276,0-0.5-0.224-0.5-0.5v-4c0-0.276,0.224-0.5,0.5-0.5
				c0.276,0,0.5,0.224,0.5,0.5v4C342.438,205.069,342.215,205.293,341.938,205.293z M341.938,197.293c-0.276,0-0.5-0.224-0.5-0.5v-4
				c0-0.276,0.224-0.5,0.5-0.5c0.276,0,0.5,0.224,0.5,0.5v4C342.438,197.069,342.215,197.293,341.938,197.293z M341.938,189.293
				c-0.276,0-0.5-0.224-0.5-0.5v-4c0-0.276,0.224-0.5,0.5-0.5c0.276,0,0.5,0.224,0.5,0.5v4
				C342.438,189.069,342.215,189.293,341.938,189.293z M341.938,181.293c-0.276,0-0.5-0.224-0.5-0.5v-4c0-0.276,0.224-0.5,0.5-0.5
				c0.276,0,0.5,0.224,0.5,0.5v4C342.438,181.069,342.215,181.293,341.938,181.293z M341.938,173.293c-0.276,0-0.5-0.224-0.5-0.5v-4
				c0-0.276,0.224-0.5,0.5-0.5c0.276,0,0.5,0.224,0.5,0.5v4C342.438,173.069,342.215,173.293,341.938,173.293z"/>
		</g>
		<g>
			<path style="fill:#11B7EA;" d="M460.455,325.293c-0.276,0-0.5-0.224-0.5-0.5v-4c0-0.276,0.224-0.5,0.5-0.5s0.5,0.224,0.5,0.5v4
				C460.955,325.069,460.731,325.293,460.455,325.293z M460.455,317.293c-0.276,0-0.5-0.224-0.5-0.5v-4c0-0.276,0.224-0.5,0.5-0.5
				s0.5,0.224,0.5,0.5v4C460.955,317.069,460.731,317.293,460.455,317.293z M460.455,309.293c-0.276,0-0.5-0.224-0.5-0.5v-4
				c0-0.276,0.224-0.5,0.5-0.5s0.5,0.224,0.5,0.5v4C460.955,309.069,460.731,309.293,460.455,309.293z M460.455,301.293
				c-0.276,0-0.5-0.224-0.5-0.5v-4c0-0.276,0.224-0.5,0.5-0.5s0.5,0.224,0.5,0.5v4C460.955,301.069,460.731,301.293,460.455,301.293
				z M460.455,293.293c-0.276,0-0.5-0.224-0.5-0.5v-4c0-0.276,0.224-0.5,0.5-0.5s0.5,0.224,0.5,0.5v4
				C460.955,293.069,460.731,293.293,460.455,293.293z M460.455,285.293c-0.276,0-0.5-0.224-0.5-0.5v-4c0-0.276,0.224-0.5,0.5-0.5
				s0.5,0.224,0.5,0.5v4C460.955,285.069,460.731,285.293,460.455,285.293z M460.455,277.293c-0.276,0-0.5-0.224-0.5-0.5v-4
				c0-0.276,0.224-0.5,0.5-0.5s0.5,0.224,0.5,0.5v4C460.955,277.069,460.731,277.293,460.455,277.293z M460.455,269.293
				c-0.276,0-0.5-0.224-0.5-0.5v-4c0-0.276,0.224-0.5,0.5-0.5s0.5,0.224,0.5,0.5v4C460.955,269.069,460.731,269.293,460.455,269.293
				z M460.455,261.293c-0.276,0-0.5-0.224-0.5-0.5v-4c0-0.276,0.224-0.5,0.5-0.5s0.5,0.224,0.5,0.5v4
				C460.955,261.069,460.731,261.293,460.455,261.293z M460.455,253.293c-0.276,0-0.5-0.224-0.5-0.5v-4c0-0.276,0.224-0.5,0.5-0.5
				s0.5,0.224,0.5,0.5v4C460.955,253.069,460.731,253.293,460.455,253.293z M460.455,245.293c-0.276,0-0.5-0.224-0.5-0.5v-4
				c0-0.276,0.224-0.5,0.5-0.5s0.5,0.224,0.5,0.5v4C460.955,245.069,460.731,245.293,460.455,245.293z M460.455,237.293
				c-0.276,0-0.5-0.224-0.5-0.5v-4c0-0.276,0.224-0.5,0.5-0.5s0.5,0.224,0.5,0.5v4C460.955,237.069,460.731,237.293,460.455,237.293
				z M460.455,229.293c-0.276,0-0.5-0.224-0.5-0.5v-4c0-0.276,0.224-0.5,0.5-0.5s0.5,0.224,0.5,0.5v4
				C460.955,229.069,460.731,229.293,460.455,229.293z M460.455,221.293c-0.276,0-0.5-0.224-0.5-0.5v-4c0-0.276,0.224-0.5,0.5-0.5
				s0.5,0.224,0.5,0.5v4C460.955,221.069,460.731,221.293,460.455,221.293z M460.455,213.293c-0.276,0-0.5-0.224-0.5-0.5v-4
				c0-0.276,0.224-0.5,0.5-0.5s0.5,0.224,0.5,0.5v4C460.955,213.069,460.731,213.293,460.455,213.293z M460.455,205.293
				c-0.276,0-0.5-0.224-0.5-0.5v-4c0-0.276,0.224-0.5,0.5-0.5s0.5,0.224,0.5,0.5v4C460.955,205.069,460.731,205.293,460.455,205.293
				z M460.455,197.293c-0.276,0-0.5-0.224-0.5-0.5v-4c0-0.276,0.224-0.5,0.5-0.5s0.5,0.224,0.5,0.5v4
				C460.955,197.069,460.731,197.293,460.455,197.293z M460.455,189.293c-0.276,0-0.5-0.224-0.5-0.5v-4c0-0.276,0.224-0.5,0.5-0.5
				s0.5,0.224,0.5,0.5v4C460.955,189.069,460.731,189.293,460.455,189.293z M460.455,181.293c-0.276,0-0.5-0.224-0.5-0.5v-4
				c0-0.276,0.224-0.5,0.5-0.5s0.5,0.224,0.5,0.5v4C460.955,181.069,460.731,181.293,460.455,181.293z M460.455,173.293
				c-0.276,0-0.5-0.224-0.5-0.5v-4c0-0.276,0.224-0.5,0.5-0.5s0.5,0.224,0.5,0.5v4C460.955,173.069,460.731,173.293,460.455,173.293
				z"/>
		</g>
		<g>
			<path style="fill:#11B7EA;" d="M533.111,325.293c-0.276,0-0.5-0.224-0.5-0.5v-4c0-0.276,0.224-0.5,0.5-0.5s0.5,0.224,0.5,0.5v4
				C533.611,325.069,533.387,325.293,533.111,325.293z M533.111,317.293c-0.276,0-0.5-0.224-0.5-0.5v-4c0-0.276,0.224-0.5,0.5-0.5
				s0.5,0.224,0.5,0.5v4C533.611,317.069,533.387,317.293,533.111,317.293z M533.111,309.293c-0.276,0-0.5-0.224-0.5-0.5v-4
				c0-0.276,0.224-0.5,0.5-0.5s0.5,0.224,0.5,0.5v4C533.611,309.069,533.387,309.293,533.111,309.293z M533.111,301.293
				c-0.276,0-0.5-0.224-0.5-0.5v-4c0-0.276,0.224-0.5,0.5-0.5s0.5,0.224,0.5,0.5v4C533.611,301.069,533.387,301.293,533.111,301.293
				z M533.111,293.293c-0.276,0-0.5-0.224-0.5-0.5v-4c0-0.276,0.224-0.5,0.5-0.5s0.5,0.224,0.5,0.5v4
				C533.611,293.069,533.387,293.293,533.111,293.293z M533.111,285.293c-0.276,0-0.5-0.224-0.5-0.5v-4c0-0.276,0.224-0.5,0.5-0.5
				s0.5,0.224,0.5,0.5v4C533.611,285.069,533.387,285.293,533.111,285.293z M533.111,277.293c-0.276,0-0.5-0.224-0.5-0.5v-4
				c0-0.276,0.224-0.5,0.5-0.5s0.5,0.224,0.5,0.5v4C533.611,277.069,533.387,277.293,533.111,277.293z M533.111,269.293
				c-0.276,0-0.5-0.224-0.5-0.5v-4c0-0.276,0.224-0.5,0.5-0.5s0.5,0.224,0.5,0.5v4C533.611,269.069,533.387,269.293,533.111,269.293
				z M533.111,261.293c-0.276,0-0.5-0.224-0.5-0.5v-4c0-0.276,0.224-0.5,0.5-0.5s0.5,0.224,0.5,0.5v4
				C533.611,261.069,533.387,261.293,533.111,261.293z M533.111,253.293c-0.276,0-0.5-0.224-0.5-0.5v-4c0-0.276,0.224-0.5,0.5-0.5
				s0.5,0.224,0.5,0.5v4C533.611,253.069,533.387,253.293,533.111,253.293z M533.111,245.293c-0.276,0-0.5-0.224-0.5-0.5v-4
				c0-0.276,0.224-0.5,0.5-0.5s0.5,0.224,0.5,0.5v4C533.611,245.069,533.387,245.293,533.111,245.293z M533.111,237.293
				c-0.276,0-0.5-0.224-0.5-0.5v-4c0-0.276,0.224-0.5,0.5-0.5s0.5,0.224,0.5,0.5v4C533.611,237.069,533.387,237.293,533.111,237.293
				z M533.111,229.293c-0.276,0-0.5-0.224-0.5-0.5v-4c0-0.276,0.224-0.5,0.5-0.5s0.5,0.224,0.5,0.5v4
				C533.611,229.069,533.387,229.293,533.111,229.293z M533.111,221.293c-0.276,0-0.5-0.224-0.5-0.5v-4c0-0.276,0.224-0.5,0.5-0.5
				s0.5,0.224,0.5,0.5v4C533.611,221.069,533.387,221.293,533.111,221.293z M533.111,213.293c-0.276,0-0.5-0.224-0.5-0.5v-4
				c0-0.276,0.224-0.5,0.5-0.5s0.5,0.224,0.5,0.5v4C533.611,213.069,533.387,213.293,533.111,213.293z M533.111,205.293
				c-0.276,0-0.5-0.224-0.5-0.5v-4c0-0.276,0.224-0.5,0.5-0.5s0.5,0.224,0.5,0.5v4C533.611,205.069,533.387,205.293,533.111,205.293
				z M533.111,197.293c-0.276,0-0.5-0.224-0.5-0.5v-4c0-0.276,0.224-0.5,0.5-0.5s0.5,0.224,0.5,0.5v4
				C533.611,197.069,533.387,197.293,533.111,197.293z M533.111,189.293c-0.276,0-0.5-0.224-0.5-0.5v-4c0-0.276,0.224-0.5,0.5-0.5
				s0.5,0.224,0.5,0.5v4C533.611,189.069,533.387,189.293,533.111,189.293z M533.111,181.293c-0.276,0-0.5-0.224-0.5-0.5v-4
				c0-0.276,0.224-0.5,0.5-0.5s0.5,0.224,0.5,0.5v4C533.611,181.069,533.387,181.293,533.111,181.293z M533.111,173.293
				c-0.276,0-0.5-0.224-0.5-0.5v-4c0-0.276,0.224-0.5,0.5-0.5s0.5,0.224,0.5,0.5v4C533.611,173.069,533.387,173.293,533.111,173.293
				z"/>
		</g>
		<g>
			<path style="fill:#11B7EA;" d="M651.627,325.293c-0.276,0-0.5-0.224-0.5-0.5v-4c0-0.276,0.224-0.5,0.5-0.5s0.5,0.224,0.5,0.5v4
				C652.127,325.069,651.903,325.293,651.627,325.293z M651.627,317.293c-0.276,0-0.5-0.224-0.5-0.5v-4c0-0.276,0.224-0.5,0.5-0.5
				s0.5,0.224,0.5,0.5v4C652.127,317.069,651.903,317.293,651.627,317.293z M651.627,309.293c-0.276,0-0.5-0.224-0.5-0.5v-4
				c0-0.276,0.224-0.5,0.5-0.5s0.5,0.224,0.5,0.5v4C652.127,309.069,651.903,309.293,651.627,309.293z M651.627,301.293
				c-0.276,0-0.5-0.224-0.5-0.5v-4c0-0.276,0.224-0.5,0.5-0.5s0.5,0.224,0.5,0.5v4C652.127,301.069,651.903,301.293,651.627,301.293
				z M651.627,293.293c-0.276,0-0.5-0.224-0.5-0.5v-4c0-0.276,0.224-0.5,0.5-0.5s0.5,0.224,0.5,0.5v4
				C652.127,293.069,651.903,293.293,651.627,293.293z M651.627,285.293c-0.276,0-0.5-0.224-0.5-0.5v-4c0-0.276,0.224-0.5,0.5-0.5
				s0.5,0.224,0.5,0.5v4C652.127,285.069,651.903,285.293,651.627,285.293z M651.627,277.293c-0.276,0-0.5-0.224-0.5-0.5v-4
				c0-0.276,0.224-0.5,0.5-0.5s0.5,0.224,0.5,0.5v4C652.127,277.069,651.903,277.293,651.627,277.293z M651.627,269.293
				c-0.276,0-0.5-0.224-0.5-0.5v-4c0-0.276,0.224-0.5,0.5-0.5s0.5,0.224,0.5,0.5v4C652.127,269.069,651.903,269.293,651.627,269.293
				z M651.627,261.293c-0.276,0-0.5-0.224-0.5-0.5v-4c0-0.276,0.224-0.5,0.5-0.5s0.5,0.224,0.5,0.5v4
				C652.127,261.069,651.903,261.293,651.627,261.293z M651.627,253.293c-0.276,0-0.5-0.224-0.5-0.5v-4c0-0.276,0.224-0.5,0.5-0.5
				s0.5,0.224,0.5,0.5v4C652.127,253.069,651.903,253.293,651.627,253.293z M651.627,245.293c-0.276,0-0.5-0.224-0.5-0.5v-4
				c0-0.276,0.224-0.5,0.5-0.5s0.5,0.224,0.5,0.5v4C652.127,245.069,651.903,245.293,651.627,245.293z M651.627,237.293
				c-0.276,0-0.5-0.224-0.5-0.5v-4c0-0.276,0.224-0.5,0.5-0.5s0.5,0.224,0.5,0.5v4C652.127,237.069,651.903,237.293,651.627,237.293
				z M651.627,229.293c-0.276,0-0.5-0.224-0.5-0.5v-4c0-0.276,0.224-0.5,0.5-0.5s0.5,0.224,0.5,0.5v4
				C652.127,229.069,651.903,229.293,651.627,229.293z M651.627,221.293c-0.276,0-0.5-0.224-0.5-0.5v-4c0-0.276,0.224-0.5,0.5-0.5
				s0.5,0.224,0.5,0.5v4C652.127,221.069,651.903,221.293,651.627,221.293z M651.627,213.293c-0.276,0-0.5-0.224-0.5-0.5v-4
				c0-0.276,0.224-0.5,0.5-0.5s0.5,0.224,0.5,0.5v4C652.127,213.069,651.903,213.293,651.627,213.293z M651.627,205.293
				c-0.276,0-0.5-0.224-0.5-0.5v-4c0-0.276,0.224-0.5,0.5-0.5s0.5,0.224,0.5,0.5v4C652.127,205.069,651.903,205.293,651.627,205.293
				z M651.627,197.293c-0.276,0-0.5-0.224-0.5-0.5v-4c0-0.276,0.224-0.5,0.5-0.5s0.5,0.224,0.5,0.5v4
				C652.127,197.069,651.903,197.293,651.627,197.293z M651.627,189.293c-0.276,0-0.5-0.224-0.5-0.5v-4c0-0.276,0.224-0.5,0.5-0.5
				s0.5,0.224,0.5,0.5v4C652.127,189.069,651.903,189.293,651.627,189.293z M651.627,181.293c-0.276,0-0.5-0.224-0.5-0.5v-4
				c0-0.276,0.224-0.5,0.5-0.5s0.5,0.224,0.5,0.5v4C652.127,181.069,651.903,181.293,651.627,181.293z M651.627,173.293
				c-0.276,0-0.5-0.224-0.5-0.5v-4c0-0.276,0.224-0.5,0.5-0.5s0.5,0.224,0.5,0.5v4C652.127,173.069,651.903,173.293,651.627,173.293
				z"/>
		</g>
	</g>
</g>
</svg>
