<?xml version="1.0" encoding="utf-8"?>
<!-- Generator: Adobe Illustrator 27.5.0, SVG Export Plug-In . SVG Version: 6.00 Build 0)  -->
<svg version="1.1" xmlns="http://www.w3.org/2000/svg" xmlns:xlink="http://www.w3.org/1999/xlink" x="0px" y="0px"
	 viewBox="0 0 500 500" style="enable-background:new 0 0 500 500;" xml:space="preserve">
<g id="BACKGROUND">
	<rect style="fill:transparent;" width="500" height="500"/>
</g>
<g id="OBJECTS">
	<g>
		<polygon style="fill:#E69632;" points="45.459,84.97 62.706,202 155.098,202 150.171,84.97 		"/>
		<polygon style="fill:#D77D14;" points="150.171,84.97 229.012,84.97 229.012,197.072 155.098,202 		"/>
		<polygon style="fill:#FFAE55;" points="150.171,84.97 116.909,123.159 19.589,123.159 45.459,84.97 		"/>
		<polygon style="fill:#FFAE55;" points="150.171,84.97 172.345,118.231 260.411,113.303 229.012,84.97 		"/>
		<path style="fill:#5A1907;" d="M204.843,177.455l-15.176,0.473l1.198,15.525l14.998-0.785L204.843,177.455z M192.198,192.157
			l-1.033-12.753l12.307-0.485l0.861,12.488L192.198,192.157z"/>
		<polygon style="fill:#5A1907;" points="198.367,180.36 194.319,185.907 202.415,185.425 		"/>
		<polygon style="fill:#5A1907;" points="197.167,185.158 197.424,190.641 200.551,190.384 200.037,184.901 		"/>
		<polygon style="fill:#5A1907;" points="214.204,180.208 211.565,184.508 216.842,184.134 		"/>
		<polygon style="fill:#5A1907;" points="213.422,183.926 213.59,188.177 215.628,187.978 215.293,183.727 		"/>
		<polygon style="fill:#5A1907;" points="220.363,188.177 223.002,183.877 217.725,184.25 		"/>
		<polygon style="fill:#5A1907;" points="221.145,184.458 220.978,180.208 218.939,180.407 219.274,184.657 		"/>
		<path style="fill:#5A1907;" d="M209.358,176.869l0.58,14.982l15.113-0.599l-0.437-14.796L209.358,176.869z M211.442,190.406
			l-0.592-12.255l12.346-0.279l0.579,11.988L211.442,190.406z"/>
		<polygon style="opacity:0.5;fill:#DB8240;" points="91.424,202 90.116,183.521 110.75,183.521 110.75,202 		"/>
	</g>
	<g>
		<polygon style="fill:#E69632;" points="268.417,90.985 274.185,201.985 367.11,201.985 369.917,90.985 		"/>
		<path style="fill:#5A1907;" d="M295.532,183.344l-15.181-0.253l0.454,15.565l15.018-0.066L295.532,183.344z M282.199,197.424
			l-0.422-12.788l12.316,0.104l0.262,12.516L282.199,197.424z"/>
		<polygon style="fill:#5A1907;" points="288.924,185.935 284.615,191.283 292.725,191.188 		"/>
		<polygon style="fill:#5A1907;" points="287.497,190.67 287.491,196.159 290.627,196.052 290.376,190.551 		"/>
		<polygon style="fill:#5A1907;" points="304.75,186.54 301.909,190.709 307.198,190.589 		"/>
		<polygon style="fill:#5A1907;" points="303.792,190.218 303.756,194.471 305.801,194.37 305.67,190.108 		"/>
		<polygon style="fill:#5A1907;" points="310.522,194.795 313.363,190.626 308.074,190.747 		"/>
		<polygon style="fill:#5A1907;" points="311.48,191.118 311.516,186.864 309.471,186.966 309.602,191.227 		"/>
		<path style="fill:#5A1907;" d="M300.069,182.974l-0.137,14.992l15.125,0.125l0.271-14.8L300.069,182.974z M301.504,196.595
			l-0.006-12.269l12.345,0.312l0.005,12.002L301.504,196.595z"/>
		<polygon style="fill:#D77D14;" points="369.583,90.985 418.583,90.985 413.25,201.985 367.11,201.985 		"/>
		<polygon style="fill:#E69632;" points="381.583,201.986 381.583,136.985 434.583,136.985 436.25,202 		"/>
		<polygon style="fill:#D77D14;" points="434.583,136.985 436.25,202 468.25,200.502 469.917,136.985 		"/>
		<rect x="303.583" y="90.985" style="opacity:0.5;fill:#DB8240;" width="24" height="20"/>
		<polygon style="opacity:0.5;fill:#DB8240;" points="310.083,201.977 308.833,182.354 331.583,180.36 331.583,201.985 		"/>
		<polygon style="opacity:0.5;fill:#5A1907;" points="450,201.299 450,193.985 459,193.152 459,200.826 		"/>
		<polygon style="opacity:0.5;fill:#5A1907;" points="447.438,137 447.958,145 457.802,145 457.583,137 		"/>
		<path style="fill:#5A1907;" d="M397.974,185.932l-11.624-0.194l0.348,11.917l11.499-0.051L397.974,185.932z M387.765,196.712
			l-0.323-9.791l9.43,0.079l0.201,9.582L387.765,196.712z"/>
		<polygon style="fill:#5A1907;" points="392.915,187.916 389.616,192.01 395.825,191.938 		"/>
		<polygon style="fill:#5A1907;" points="391.822,191.541 391.818,195.744 394.218,195.662 394.026,191.45 		"/>
		<polygon style="fill:#5A1907;" points="405.032,188.379 402.857,191.571 406.906,191.479 		"/>
		<polygon style="fill:#5A1907;" points="404.298,191.195 404.271,194.452 405.837,194.374 405.736,191.111 		"/>
		<polygon style="fill:#5A1907;" points="409.451,194.7 411.626,191.508 407.577,191.6 		"/>
		<polygon style="fill:#5A1907;" points="410.185,191.884 410.213,188.627 408.646,188.705 408.747,191.968 		"/>
		<path style="fill:#5A1907;" d="M401.448,185.649l-0.105,11.479l11.58,0.095l0.208-11.331L401.448,185.649z M402.546,196.078
			l-0.004-9.394l9.452,0.239l0.004,9.189L402.546,196.078z"/>
		<polygon style="fill:#FFAE55;" points="434.583,136.985 430.75,123.318 373.583,122.651 381.583,136.985 		"/>
		<polygon style="fill:#FFAE55;" points="434.333,137.326 440.333,123 475.583,123 469.917,136.996 		"/>
	</g>
	<g>
		<polygon style="fill:#FFAE55;" points="46,289 140,250 234,276 148,312 		"/>
		<polygon style="fill:#E69632;" points="46,289 62,387 154,418 148,312 		"/>
		<polygon style="fill:#D77D14;" points="148,312 234,276 232.635,388 154,418 		"/>
		<polygon style="opacity:0.5;fill:#5A1907;" points="110.325,262.312 202.974,289 177.509,299.647 82.425,273.888 		"/>
		<polygon style="opacity:0.5;fill:#5A1907;" points="177.525,299.647 179.674,321.667 204.196,313.583 202.974,289 		"/>
		<polygon style="opacity:0.5;fill:#5A1907;" points="189.45,404.475 188.395,385.333 211,376 212.528,395.671 		"/>
		<polygon style="opacity:0.5;fill:#DB8240;" points="169.335,258.114 195.227,265.275 109.785,303.383 83.949,297.557 		"/>
		<polygon style="opacity:0.5;fill:#DB8240;" points="83.949,297.557 109.785,303.383 110.338,324.967 86.333,321.667 		"/>
		<polygon style="opacity:0.5;fill:#DB8240;" points="89,396 89,374 113,377.667 113,404 		"/>
		<path style="fill:#5A1907;" d="M130.118,387.942l-15.582-3.428l0.272,16.471l15.392,3.747L130.118,387.942z M116.25,400.077
			l-0.263-13.759L128.629,389l0.076,14.124L116.25,400.077z"/>
		<polygon style="fill:#5A1907;" points="122.804,388.948 118.697,393.432 126.282,395.04 		"/>
		<polygon style="fill:#5A1907;" points="121.4,393.42 121.315,398.949 124.249,399.5 124.094,393.904 		"/>
		<polygon style="fill:#5A1907;" points="138.472,392.865 135.518,396.886 140.948,398.035 		"/>
		<polygon style="fill:#5A1907;" points="137.455,396.788 137.38,401.586 139.48,401.968 139.384,397.12 		"/>
		<polygon style="fill:#5A1907;" points="144.322,403.597 147.276,399.576 141.846,398.427 		"/>
		<polygon style="fill:#5A1907;" points="145.339,399.674 145.415,394.876 143.314,394.493 143.411,399.341 		"/>
		<path style="fill:#5A1907;" d="M133.798,388.494l-0.464,16.741l16.792,5.266l0.063-18.201L133.798,388.494z M134.959,404.228
			l0.293-14.118l13.4,3.19l0.246,15.533L134.959,404.228z"/>
	</g>
	<g>
		<path style="fill:#FFAE55;" d="M303.908,271.441l-16.889-0.935c-2.706-0.241-5.129,1.673-5.519,4.362l1.295,21.289h14.934
			L303.908,271.441z"/>
		<path style="fill:#B8773F;" d="M276.72,296.157l26.406-32.587c2.647-3.266,7.629-3.266,10.276,0l26.406,32.587H276.72z"/>
		<path style="fill:#FFAE55;" d="M424.21,268.228c-2.573-4.15-7.108-6.674-11.99-6.674h-91.252c-5.795,0-11.001,3.544-13.126,8.936
			l-10.113,25.666H415.13l25.334-1.712L424.21,268.228z M380.4,285.034h-40.116c-3.274,0-5.839-2.814-5.537-6.074
			c0.265-2.861,2.665-5.048,5.537-5.048H380.4c3.274,0,5.839,2.814,5.537,6.074C385.673,282.846,383.273,285.034,380.4,285.034z"/>
		<polygon style="fill:#E69632;" points="276.72,296.157 274.083,403.685 415.13,406.88 415.13,296.157 		"/>
		<polygon style="fill:#D77D14;" points="415.13,296.157 465.797,292.861 469.917,405.151 415.13,406.88 		"/>
		<path style="fill:#5A1907;" d="M302.587,378.479l-19.531-1.152l-0.261,20.063l19.338,0.731L302.587,378.479z M284.656,395.88
			l0.152-16.486l15.85,0.803l-0.343,16.127L284.656,395.88z"/>
		<polygon style="fill:#5A1907;" points="293.939,381.456 288.101,388.106 298.547,388.426 		"/>
		<polygon style="fill:#5A1907;" points="291.844,387.474 291.538,394.54 295.581,394.573 295.557,387.477 		"/>
		<polygon style="fill:#5A1907;" points="314.281,383.095 310.397,388.308 317.212,388.44 		"/>
		<polygon style="fill:#5A1907;" points="312.847,387.777 312.569,393.251 315.208,393.232 315.27,387.738 		"/>
		<polygon style="fill:#5A1907;" points="321.262,394.036 325.146,388.824 318.331,388.692 		"/>
		<polygon style="fill:#5A1907;" points="322.696,389.354 322.974,383.88 320.335,383.9 320.272,389.393 		"/>
		<path style="fill:#5A1907;" d="M308.449,378.25l-0.992,19.293l19.465,0.983l1.154-19.038L308.449,378.25z M309.554,395.863
			l0.66-15.795l15.876,1.073l-0.646,15.452L309.554,395.863z"/>
		<path style="fill:#B8773F;" d="M465.797,292.861l-33.581-29.228c-4.715-4.104-12.103-1.371-13.012,4.813l-4.075,27.71
			L465.797,292.861z"/>
		<path style="fill:#FFAE55;" d="M427.333,272.676l14.116,21.768l1.863-15.806c0.275-3.262-2.455-5.985-5.716-5.703L427.333,272.676
			z"/>
	</g>
</g>
</svg>
