<?xml version="1.0" encoding="utf-8"?>
<!-- Generator: Adobe Illustrator 27.5.0, SVG Export Plug-In . SVG Version: 6.00 Build 0)  -->
<svg version="1.1" xmlns="http://www.w3.org/2000/svg" xmlns:xlink="http://www.w3.org/1999/xlink" x="0px" y="0px"
	 viewBox="0 0 500 500" style="enable-background:new 0 0 500 500;" xml:space="preserve">
<g id="BACKGROUND">
	<rect style="fill:transparent;" width="500" height="500"/>
</g>
<g id="OBJECTS">
	<g>
		<g>
			<g>
				<linearGradient id="SVGID_1_" gradientUnits="userSpaceOnUse" x1="264.106" y1="190.2085" x2="238.3907" y2="219.2417">
					<stop  offset="0.0099" style="stop-color:#FFF505"/>
					<stop  offset="0.0889" style="stop-color:#FFE90A"/>
					<stop  offset="0.3153" style="stop-color:#FECD15"/>
					<stop  offset="0.5415" style="stop-color:#FDB81D"/>
					<stop  offset="0.7656" style="stop-color:#FDAC21"/>
					<stop  offset="0.9851" style="stop-color:#FDA823"/>
				</linearGradient>
				<circle style="fill:url(#SVGID_1_);" cx="249.999" cy="206.135" r="17.357"/>
				<path style="opacity:0.11;fill:#560000;" d="M266.431,211.747c-2.331,6.835-8.811,11.745-16.431,11.745
					c-9.588,0-17.357-7.769-17.357-17.357c0-9.381,7.439-17.018,16.737-17.341c-5.463,2.166-9.332,7.505-9.332,13.745
					c0,8.174,6.629,14.803,14.795,14.803C259.538,217.343,263.712,215.161,266.431,211.747z"/>
				<path style="opacity:0.56;fill:#FFF171;" d="M260.029,198.678c1.797,3.113,1.183,6.833-1.372,8.308
					c-2.555,1.475-6.084,0.148-7.881-2.966c-1.797-3.113-1.183-6.833,1.372-8.308C254.703,194.237,258.231,195.565,260.029,198.678z
					"/>
			</g>
			<g>
				<g>
					
						<linearGradient id="SVGID_00000011740780045632600900000010797336868559396760_" gradientUnits="userSpaceOnUse" x1="285.5995" y1="166.7375" x2="202.9462" y2="258.2073">
						<stop  offset="0" style="stop-color:#FDDA47"/>
						<stop  offset="0.3878" style="stop-color:#FDA823"/>
						<stop  offset="0.9802" style="stop-color:#FE6B3D"/>
					</linearGradient>
					<path style="fill:url(#SVGID_00000011740780045632600900000010797336868559396760_);" d="M249.999,252.24
						c-25.422,0-46.105-20.683-46.105-46.105c0-25.423,20.683-46.105,46.105-46.105s46.105,20.683,46.105,46.105
						C296.104,231.557,275.422,252.24,249.999,252.24z M249.999,164.162c-23.144,0-41.972,18.829-41.972,41.973
						s18.829,41.972,41.972,41.972s41.972-18.829,41.972-41.972S273.143,164.162,249.999,164.162z"/>
				</g>
				<g>
					<g>
						
							<linearGradient id="SVGID_00000070116786851923068120000014072521834318407336_" gradientUnits="userSpaceOnUse" x1="297.3105" y1="160.4987" x2="203.5728" y2="250.9184">
							<stop  offset="0" style="stop-color:#FDDA47"/>
							<stop  offset="0.3878" style="stop-color:#FDA823"/>
							<stop  offset="0.9802" style="stop-color:#FE6B3D"/>
						</linearGradient>
						<path style="fill:url(#SVGID_00000070116786851923068120000014072521834318407336_);" d="M249.999,144.624
							c-33.921,0-61.51,27.59-61.51,61.511s27.59,61.511,61.51,61.511s61.511-27.59,61.511-61.511S283.92,144.624,249.999,144.624z
							 M249.999,260.207c-29.813,0-54.072-24.259-54.072-54.072c0-29.813,24.259-54.072,54.072-54.072s54.072,24.259,54.072,54.072
							C304.071,235.948,279.813,260.207,249.999,260.207z"/>
					</g>
					<path style="opacity:0.24;fill:#560000;" d="M249.999,148.253c-31.97,0-57.882,25.912-57.882,57.882
						c0,31.97,25.912,57.882,57.882,57.882s57.882-25.912,57.882-57.882C307.882,174.165,281.97,148.253,249.999,148.253z
						 M249.999,260.207c-29.813,0-54.072-24.259-54.072-54.072c0-29.813,24.259-54.072,54.072-54.072s54.072,24.259,54.072,54.072
						C304.071,235.948,279.813,260.207,249.999,260.207z"/>
				</g>
				<g>
					<g>
						
							<linearGradient id="SVGID_00000073711275083471389570000006280683092171246235_" gradientUnits="userSpaceOnUse" x1="285.5971" y1="166.7404" x2="202.95" y2="258.2033">
							<stop  offset="0" style="stop-color:#FDDA47"/>
							<stop  offset="0.3878" style="stop-color:#FDA823"/>
							<stop  offset="0.9802" style="stop-color:#FE6B3D"/>
						</linearGradient>
						<path style="fill:url(#SVGID_00000073711275083471389570000006280683092171246235_);" d="M249.999,172.404
							c-18.597,0-33.731,15.134-33.731,33.731s15.134,33.731,33.731,33.731s33.731-15.134,33.731-33.731
							S268.596,172.404,249.999,172.404z M249.999,232.427c-14.497,0-26.292-11.795-26.292-26.292s11.795-26.292,26.292-26.292
							c14.497,0,26.292,11.795,26.292,26.292S264.497,232.427,249.999,232.427z"/>
					</g>
					<path style="opacity:0.24;fill:#560000;" d="M249.999,176.148c-16.555,0-29.987,13.431-29.987,29.987
						s13.431,29.987,29.987,29.987c16.556,0,29.987-13.431,29.987-29.987S266.555,176.148,249.999,176.148z M249.999,232.427
						c-14.497,0-26.292-11.795-26.292-26.292s11.795-26.292,26.292-26.292c14.497,0,26.292,11.795,26.292,26.292
						S264.497,232.427,249.999,232.427z"/>
				</g>
			</g>
		</g>
		<g>
			<g>
				
					<linearGradient id="SVGID_00000003824316357164364420000011565865473459361697_" gradientUnits="userSpaceOnUse" x1="299.9941" y1="62.4478" x2="109.3668" y2="247.6287">
					<stop  offset="0" style="stop-color:#FDA823"/>
					<stop  offset="0.5099" style="stop-color:#E2593E"/>
					<stop  offset="0.9851" style="stop-color:#FD2957"/>
				</linearGradient>
				<path style="fill:url(#SVGID_00000003824316357164364420000011565865473459361697_);" d="M266.704,130.185
					c-3.166,5.298-8.918,9.042-15.076,9.489c-6.166,0.446-12.522-2.554-15.861-7.745c-3.331-5.199-3.348-12.414,0.207-17.465
					c1.802-2.562,4.356-4.488,6.629-6.654c2.124-2.033,4.108-4.455,4.703-7.306c0.017-0.066,0.05-0.124,0.099-0.165
					c0.116-0.099,0.289-0.099,0.397,0.025c3.744,4.422,4.05,11.464,0.603,16.142c-0.926,1.265-2.083,2.364-2.934,3.686
					c-0.843,1.323-1.364,2.992-0.826,4.472c0.521,1.413,1.951,2.372,3.438,2.562c1.496,0.19,3.017-0.314,4.273-1.149
					c3.554-2.364,4.901-7.117,4.331-11.348c-0.578-4.232-2.728-8.075-4.934-11.729c-2.207-3.653-4.546-7.331-5.563-11.481
					c-1.289-5.248-0.232-10.993,2.736-15.489c0.645-0.984,1.066-1.397,1.331-1.43c0.802-0.124,0.19,3.248,0.281,4.728
					c0.19,2.984,1.108,5.901,2.43,8.571c2.149,4.348,5.29,8.108,8.257,11.943c2.975,3.827,5.852,7.852,7.34,12.464
					C270.456,118.184,269.869,124.879,266.704,130.185z"/>
				
					<linearGradient id="SVGID_00000057842061695015198040000004878568713951712918_" gradientUnits="userSpaceOnUse" x1="280.9028" y1="42.7959" x2="90.2779" y2="227.9744">
					<stop  offset="0" style="stop-color:#FDA823"/>
					<stop  offset="0.5099" style="stop-color:#E2593E"/>
					<stop  offset="0.9851" style="stop-color:#FD2957"/>
				</linearGradient>
				<path style="fill:url(#SVGID_00000057842061695015198040000004878568713951712918_);" d="M226.485,132.003
					c-0.083,5.91-2.934,11.778-7.662,15.291c-0.215,0.165-0.43,0.322-0.645,0.471c-5.116,3.463-12.125,4.05-17.605,1.215
					c-5.488-2.827-9.108-9.067-8.555-15.216c0.273-3.124,1.529-6.075,2.413-9.084c0.827-2.818,1.323-5.91,0.422-8.679
					c-0.075-0.231,0.132-0.455,0.355-0.372c5.455,1.959,9.232,7.902,8.596,13.679c-0.173,1.562-0.628,3.091-0.702,4.662
					c-0.066,1.57,0.322,3.273,1.521,4.281c1.157,0.967,2.876,1.083,4.265,0.504c0.843-0.355,1.562-0.926,2.141-1.628
					c0.388-0.455,0.719-0.967,0.984-1.504c1.893-3.818,0.686-8.612-1.926-11.993c-0.496-0.636-1.025-1.231-1.595-1.794
					c-2.438-2.43-5.505-4.224-8.538-5.893c-3.744-2.066-7.604-4.083-10.563-7.166c-3.736-3.893-5.695-9.398-5.372-14.778
					c0.281-4.752,1.959,0.405,3.042,2.05c1.653,2.488,3.918,4.562,6.389,6.207c4.033,2.694,8.637,4.381,13.125,6.207
					c2.05,0.835,4.1,1.719,6.067,2.736c2.339,1.215,4.563,2.628,6.521,4.397C223.741,119.738,226.575,125.829,226.485,132.003z"/>
				
					<linearGradient id="SVGID_00000081639502116024137550000004218739670304142481_" gradientUnits="userSpaceOnUse" x1="281.3454" y1="43.2451" x2="90.7121" y2="228.4318">
					<stop  offset="0" style="stop-color:#FDA823"/>
					<stop  offset="0.5099" style="stop-color:#E2593E"/>
					<stop  offset="0.9851" style="stop-color:#FD2957"/>
				</linearGradient>
				<path style="fill:url(#SVGID_00000081639502116024137550000004218739670304142481_);" d="M149.091,144.451
					c4.838,0.313,9.665-0.526,14.468-1.186c4.803-0.66,9.727-1.139,14.467-0.119c6.036,1.299,11.538,5.158,14.549,10.548
					c3.01,5.391,3.376,12.25,0.682,17.805c-2.694,5.555-8.471,9.566-14.639,9.857c-6.167,0.291-12.421-3.303-15.02-8.904
					c-1.322-2.848-1.712-6.022-2.451-9.073c-0.692-2.858-1.802-5.78-3.972-7.727c-0.178-0.16-0.11-0.459,0.126-0.502
					c5.701-1.031,11.948,2.229,14.282,7.552c0.631,1.439,1,2.988,1.722,4.383c0.722,1.395,1.913,2.677,3.46,2.95
					c1.482,0.261,3.032-0.497,3.941-1.696c0.909-1.199,1.234-2.768,1.139-4.269c-0.268-4.263-3.714-7.807-7.666-9.428
					c-3.952-1.62-8.349-1.675-12.62-1.592c-4.27,0.083-8.625,0.27-12.727-0.921c-5.186-1.505-9.629-5.298-12.044-10.113
					c-2.133-4.254,1.899-0.629,3.663,0.248C143.128,143.595,146.119,144.258,149.091,144.451z"/>
				
					<linearGradient id="SVGID_00000090252156248146567870000005192559862992021137_" gradientUnits="userSpaceOnUse" x1="301.1575" y1="63.6396" x2="110.5241" y2="248.8264">
					<stop  offset="0" style="stop-color:#FDA823"/>
					<stop  offset="0.5099" style="stop-color:#E2593E"/>
					<stop  offset="0.9851" style="stop-color:#FD2957"/>
				</linearGradient>
				<path style="fill:url(#SVGID_00000090252156248146567870000005192559862992021137_);" d="M131.768,203.169
					c4.346-2.148,8.107-5.288,11.936-8.261c3.829-2.973,7.855-5.85,12.469-7.337c5.877-1.893,12.571-1.302,17.874,1.861
					c5.302,3.163,9.049,8.921,9.493,15.079c0.444,6.158-2.553,12.52-7.749,15.856c-5.196,3.335-12.408,3.35-17.459-0.201
					c-2.568-1.806-4.493-4.359-6.659-6.632c-2.029-2.129-4.45-4.104-7.304-4.706c-0.235-0.049-0.325-0.343-0.142-0.498
					c4.422-3.743,11.462-4.043,16.144-0.601c1.266,0.93,2.36,2.088,3.683,2.935c1.323,0.847,2.995,1.362,4.471,0.825
					c1.414-0.514,2.377-1.946,2.565-3.439c0.188-1.493-0.315-3.014-1.148-4.267c-2.363-3.558-7.12-4.904-11.352-4.332
					c-4.232,0.573-8.068,2.724-11.725,4.931c-3.657,2.207-7.335,4.546-11.482,5.566c-5.243,1.289-10.988,0.227-15.487-2.736
					c-3.974-2.617,1.33-1.494,3.296-1.616C126.176,205.41,129.098,204.488,131.768,203.169z"/>
				
					<linearGradient id="SVGID_00000011026949380020075330000012072641400093424828_" gradientUnits="userSpaceOnUse" x1="332.0034" y1="95.3928" x2="141.3699" y2="280.5797">
					<stop  offset="0" style="stop-color:#FDA823"/>
					<stop  offset="0.5099" style="stop-color:#E2593E"/>
					<stop  offset="0.9851" style="stop-color:#FD2957"/>
				</linearGradient>
				<path style="fill:url(#SVGID_00000011026949380020075330000012072641400093424828_);" d="M146.125,262.682
					c2.69-4.033,4.377-8.633,6.206-13.123c1.83-4.489,3.877-8.993,7.13-12.588c4.143-4.578,10.236-7.414,16.41-7.325
					c6.174,0.088,12.297,3.201,15.76,8.312c3.464,5.111,4.049,12.119,1.217,17.606c-2.832,5.486-9.071,9.105-15.221,8.556
					c-3.127-0.279-6.071-1.529-9.083-2.414c-2.821-0.829-5.906-1.329-8.678-0.423c-0.228,0.075-0.453-0.135-0.372-0.36
					c1.958-5.452,7.905-9.232,13.681-8.593c1.561,0.173,3.088,0.628,4.657,0.701c1.569,0.072,3.275-0.318,4.285-1.521
					c0.967-1.153,1.085-2.874,0.502-4.261c-0.583-1.387-1.78-2.452-3.127-3.121c-3.825-1.9-8.618-0.688-11.998,1.925
					c-3.379,2.612-5.625,6.393-7.688,10.133c-2.063,3.74-4.079,7.604-7.161,10.561c-3.896,3.738-9.403,5.69-14.78,5.374
					c-4.75-0.279,0.405-1.959,2.046-3.048C142.402,267.419,144.472,265.16,146.125,262.682z"/>
				
					<linearGradient id="SVGID_00000078724392496679226180000011055168415130683563_" gradientUnits="userSpaceOnUse" x1="362.6117" y1="126.9009" x2="171.9781" y2="312.088">
					<stop  offset="0" style="stop-color:#FDA823"/>
					<stop  offset="0.5099" style="stop-color:#E2593E"/>
					<stop  offset="0.9851" style="stop-color:#FD2957"/>
				</linearGradient>
				<path style="fill:url(#SVGID_00000078724392496679226180000011055168415130683563_);" d="M188.315,307.044
					c0.313-4.838-0.526-9.665-1.186-14.468s-1.139-9.727-0.119-14.467c1.299-6.036,5.158-11.538,10.548-14.549
					c5.391-3.01,12.25-3.376,17.805-0.682c5.555,2.694,9.566,8.471,9.857,14.639c0.291,6.167-3.303,12.421-8.904,15.02
					c-2.848,1.322-6.022,1.712-9.073,2.451c-2.858,0.692-5.78,1.802-7.727,3.972c-0.16,0.178-0.459,0.11-0.502-0.126
					c-1.031-5.701,2.229-11.948,7.552-14.282c1.439-0.631,2.988-1,4.383-1.722c1.395-0.722,2.677-1.913,2.95-3.46
					c0.261-1.482-0.497-3.032-1.696-3.941s-2.768-1.234-4.269-1.139c-4.263,0.268-7.807,3.714-9.428,7.665
					c-1.62,3.952-1.675,8.349-1.592,12.62c0.083,4.27,0.27,8.625-0.921,12.727c-1.505,5.186-5.298,9.629-10.113,12.044
					c-4.254,2.133-0.629-1.899,0.248-3.663C187.46,313.007,188.122,310.016,188.315,307.044z"/>
				
					<linearGradient id="SVGID_00000090293578815299139240000005216971517800168864_" gradientUnits="userSpaceOnUse" x1="395.0787" y1="160.3233" x2="204.4451" y2="345.5104">
					<stop  offset="0" style="stop-color:#FDA823"/>
					<stop  offset="0.5099" style="stop-color:#E2593E"/>
					<stop  offset="0.9851" style="stop-color:#FD2957"/>
				</linearGradient>
				<path style="fill:url(#SVGID_00000090293578815299139240000005216971517800168864_);" d="M247.033,324.367
					c-2.148-4.346-5.288-8.107-8.261-11.936c-2.973-3.829-5.85-7.855-7.337-12.469c-1.893-5.877-1.302-12.572,1.861-17.874
					c3.163-5.302,8.921-9.049,15.079-9.493c6.158-0.444,12.52,2.553,15.856,7.749c3.335,5.196,3.35,12.408-0.201,17.459
					c-1.806,2.568-4.359,4.493-6.632,6.659c-2.129,2.029-4.104,4.45-4.706,7.304c-0.049,0.235-0.343,0.325-0.498,0.142
					c-3.743-4.422-4.043-11.462-0.601-16.144c0.93-1.266,2.088-2.36,2.935-3.683c0.847-1.323,1.362-2.995,0.825-4.471
					c-0.515-1.414-1.947-2.377-3.439-2.565c-1.493-0.188-3.013,0.315-4.267,1.148c-3.558,2.363-4.904,7.12-4.332,11.353
					c0.573,4.232,2.724,8.068,4.931,11.725c2.207,3.657,4.546,7.335,5.566,11.482c1.29,5.243,0.227,10.988-2.736,15.487
					c-2.617,3.974-1.494-1.33-1.616-3.296C249.274,329.959,248.353,327.037,247.033,324.367z"/>
				
					<linearGradient id="SVGID_00000021119521093392072680000009447681786543539101_" gradientUnits="userSpaceOnUse" x1="414.1675" y1="179.9734" x2="223.5343" y2="365.1602">
					<stop  offset="0" style="stop-color:#FDA823"/>
					<stop  offset="0.5099" style="stop-color:#E2593E"/>
					<stop  offset="0.9851" style="stop-color:#FD2957"/>
				</linearGradient>
				<path style="fill:url(#SVGID_00000021119521093392072680000009447681786543539101_);" d="M306.547,310.01
					c-4.033-2.69-8.633-4.377-13.123-6.206c-4.489-1.83-8.993-3.877-12.588-7.13c-4.578-4.143-7.414-10.236-7.325-16.41
					c0.088-6.173,3.201-12.297,8.312-15.76c5.111-3.464,12.12-4.049,17.606-1.217c5.486,2.832,9.105,9.071,8.556,15.221
					c-0.279,3.127-1.529,6.071-2.414,9.083c-0.829,2.821-1.329,5.906-0.423,8.678c0.075,0.228-0.135,0.453-0.36,0.372
					c-5.452-1.958-9.232-7.905-8.593-13.681c0.173-1.561,0.628-3.088,0.7-4.657c0.072-1.569-0.318-3.275-1.521-4.285
					c-1.152-0.967-2.874-1.085-4.261-0.502c-1.387,0.583-2.452,1.78-3.121,3.127c-1.9,3.825-0.688,8.618,1.925,11.997
					c2.612,3.379,6.393,5.625,10.133,7.689c3.74,2.063,7.604,4.079,10.561,7.161c3.739,3.896,5.69,9.403,5.374,14.78
					c-0.279,4.75-1.959-0.405-3.048-2.046C311.283,313.732,309.024,311.662,306.547,310.01z"/>
				
					<linearGradient id="SVGID_00000154408631793453304660000012917392050051067309_" gradientUnits="userSpaceOnUse" x1="413.7295" y1="179.5228" x2="223.0961" y2="364.7097">
					<stop  offset="0" style="stop-color:#FDA823"/>
					<stop  offset="0.5099" style="stop-color:#E2593E"/>
					<stop  offset="0.9851" style="stop-color:#FD2957"/>
				</linearGradient>
				<path style="fill:url(#SVGID_00000154408631793453304660000012917392050051067309_);" d="M350.908,267.82
					c-4.838-0.313-9.665,0.526-14.468,1.186s-9.727,1.139-14.467,0.119c-6.036-1.299-11.538-5.158-14.549-10.548
					c-3.01-5.391-3.376-12.25-0.682-17.805c2.694-5.555,8.471-9.566,14.639-9.857c6.167-0.291,12.421,3.303,15.02,8.904
					c1.322,2.848,1.712,6.022,2.451,9.073c0.692,2.858,1.802,5.78,3.972,7.727c0.179,0.16,0.11,0.459-0.126,0.502
					c-5.701,1.031-11.948-2.23-14.282-7.552c-0.631-1.439-1-2.988-1.722-4.383c-0.722-1.395-1.913-2.677-3.46-2.95
					c-1.482-0.261-3.032,0.497-3.941,1.696c-0.909,1.199-1.234,2.768-1.139,4.269c0.268,4.263,3.714,7.807,7.666,9.428
					c3.952,1.62,8.349,1.675,12.62,1.592c4.27-0.083,8.625-0.27,12.727,0.921c5.186,1.505,9.629,5.298,12.044,10.113
					c2.133,4.254-1.899,0.629-3.663-0.248C356.871,268.675,353.88,268.012,350.908,267.82z"/>
				
					<linearGradient id="SVGID_00000179644932318590371490000016819442031076911513_" gradientUnits="userSpaceOnUse" x1="393.9177" y1="159.128" x2="203.2843" y2="344.3148">
					<stop  offset="0" style="stop-color:#FDA823"/>
					<stop  offset="0.5099" style="stop-color:#E2593E"/>
					<stop  offset="0.9851" style="stop-color:#FD2957"/>
				</linearGradient>
				<path style="fill:url(#SVGID_00000179644932318590371490000016819442031076911513_);" d="M368.231,209.101
					c-4.346,2.148-8.107,5.288-11.936,8.261s-7.855,5.85-12.469,7.337c-5.877,1.893-12.572,1.302-17.874-1.861
					c-5.302-3.163-9.049-8.92-9.493-15.079c-0.444-6.158,2.553-12.52,7.749-15.856c5.196-3.335,12.408-3.35,17.459,0.201
					c2.568,1.805,4.493,4.359,6.659,6.632c2.029,2.129,4.45,4.105,7.304,4.706c0.235,0.049,0.325,0.343,0.142,0.498
					c-4.422,3.743-11.462,4.043-16.144,0.601c-1.266-0.93-2.36-2.088-3.683-2.935c-1.323-0.847-2.995-1.362-4.471-0.825
					c-1.414,0.515-2.377,1.947-2.565,3.439c-0.188,1.493,0.315,3.014,1.148,4.267c2.363,3.558,7.12,4.905,11.352,4.332
					c4.232-0.573,8.068-2.724,11.725-4.931c3.657-2.207,7.335-4.546,11.482-5.566c5.243-1.29,10.988-0.227,15.487,2.736
					c3.974,2.617-1.33,1.494-3.296,1.616C373.823,206.86,370.901,207.782,368.231,209.101z"/>
				
					<linearGradient id="SVGID_00000031180927737446697430000002278300566856558238_" gradientUnits="userSpaceOnUse" x1="363.0717" y1="127.3749" x2="172.4384" y2="312.5616">
					<stop  offset="0" style="stop-color:#FDA823"/>
					<stop  offset="0.5099" style="stop-color:#E2593E"/>
					<stop  offset="0.9851" style="stop-color:#FD2957"/>
				</linearGradient>
				<path style="fill:url(#SVGID_00000031180927737446697430000002278300566856558238_);" d="M353.874,149.588
					c-2.69,4.033-4.377,8.633-6.206,13.123c-1.83,4.489-3.877,8.994-7.13,12.588c-4.143,4.578-10.236,7.414-16.409,7.325
					c-6.174-0.088-12.297-3.201-15.76-8.312c-3.464-5.111-4.049-12.119-1.217-17.606c2.832-5.486,9.071-9.105,15.221-8.555
					c3.127,0.279,6.071,1.529,9.083,2.414c2.821,0.829,5.906,1.329,8.678,0.424c0.228-0.075,0.453,0.135,0.372,0.36
					c-1.958,5.452-7.905,9.232-13.681,8.593c-1.561-0.173-3.088-0.628-4.657-0.7c-1.569-0.072-3.275,0.318-4.285,1.521
					c-0.967,1.152-1.085,2.874-0.502,4.261c0.583,1.387,1.78,2.452,3.127,3.121c3.825,1.9,8.618,0.688,11.997-1.925
					c3.379-2.612,5.625-6.393,7.689-10.133c2.063-3.74,4.079-7.604,7.161-10.561c3.896-3.738,9.403-5.69,14.78-5.374
					c4.75,0.279-0.405,1.959-2.046,3.048C357.596,144.851,355.527,147.111,353.874,149.588z"/>
				
					<linearGradient id="SVGID_00000065755493548329847570000003134691940410841517_" gradientUnits="userSpaceOnUse" x1="332.4629" y1="95.8665" x2="141.824" y2="281.0587">
					<stop  offset="0" style="stop-color:#FDA823"/>
					<stop  offset="0.5099" style="stop-color:#E2593E"/>
					<stop  offset="0.9851" style="stop-color:#FD2957"/>
				</linearGradient>
				<path style="fill:url(#SVGID_00000065755493548329847570000003134691940410841517_);" d="M311.683,105.224
					c-0.314,4.843,0.529,9.67,1.19,14.472c0.653,4.802,1.132,9.728,0.116,14.464c-1.297,6.034-5.157,11.538-10.546,14.547
					c-3.769,2.108-8.257,2.918-12.514,2.29c-1.835-0.264-3.62-0.794-5.29-1.603c-5.563-2.695-9.571-8.472-9.861-14.638
					c-0.289-6.174,3.306-12.423,8.902-15.026c2.852-1.314,6.025-1.711,9.075-2.447c0.876-0.215,1.752-0.463,2.612-0.769
					c1.942-0.703,3.761-1.694,5.116-3.207c0.157-0.174,0.454-0.107,0.504,0.132c0.893,4.959-1.463,10.34-5.604,13.191
					c-0.612,0.422-1.265,0.793-1.951,1.091c-1.438,0.628-2.992,0.992-4.381,1.719c-1.397,0.719-2.678,1.909-2.951,3.455
					c-0.265,1.488,0.496,3.033,1.694,3.942c1.198,0.909,2.769,1.232,4.265,1.141c1.041-0.066,2.033-0.314,2.967-0.719
					c2.909-1.256,5.24-3.951,6.464-6.943c1.62-3.951,1.678-8.356,1.595-12.621c-0.083-4.273-0.273-8.629,0.918-12.729
					c1.504-5.182,5.298-9.629,10.117-12.043c4.248-2.132,0.628,1.901-0.248,3.662C312.543,99.265,311.874,102.257,311.683,105.224z"
					/>
			</g>
			<path style="opacity:0.24;fill:#560000;" d="M268.563,112.307c1.893,5.877,1.306,12.572-1.86,17.878
				c-3.166,5.298-8.918,9.042-15.076,9.489c-6.166,0.446-12.522-2.554-15.861-7.745c-3.331-5.199-3.348-12.414,0.207-17.465
				c1.802-2.562,4.356-4.488,6.629-6.654c2.124-2.033,4.108-4.455,4.703-7.306c0.017-0.066,0.05-0.124,0.099-0.165
				c1.471,4.703-0.521,7.802-1.38,9.67c-1.198,2.595-10.579,10.009-5.389,19.39c5.191,9.381,21.787,3.562,22.383-10.009
				c0.595-13.572-10.861-17.539-13.572-29.945c-1.165-5.306-0.48-10.48,0.81-14.845c0.802-0.124,0.19,3.248,0.281,4.728
				c0.19,2.984,1.108,5.901,2.43,8.571c2.149,4.348,5.29,8.108,8.257,11.943C264.199,103.67,267.076,107.695,268.563,112.307z"/>
			<path style="opacity:0.24;fill:#560000;" d="M219.162,115.596c4.578,4.143,7.417,10.234,7.328,16.412
				c-0.092,6.171-3.202,12.29-8.312,15.755c-5.117,3.469-12.121,4.049-17.608,1.223c-5.484-2.837-9.106-9.077-8.553-15.228
				c0.279-3.12,1.528-6.065,2.414-9.076c0.823-2.823,1.33-5.912,0.42-8.679c-0.019-0.066-0.019-0.132,0.003-0.193
				c3.626,3.337,3.45,7.017,3.64,9.065c0.26,2.847-4.157,13.958,5.028,19.487c9.186,5.529,20.65-7.809,14.379-19.86
				c-6.27-12.051-18.175-9.759-26.726-19.148c-3.663-4.013-5.655-8.837-6.721-13.261c0.632-0.508,1.789,2.718,2.607,3.954
				c1.656,2.489,3.91,4.557,6.39,6.208c4.035,2.691,8.635,4.377,13.122,6.215C211.064,110.298,215.568,112.345,219.162,115.596z"/>
			<path style="opacity:0.24;fill:#560000;" d="M178.024,143.144c6.036,1.299,11.54,5.155,14.553,10.549
				c3.005,5.391,3.372,12.245,0.679,17.8c-2.696,5.563-8.473,9.567-14.638,9.864c-6.168,0.285-12.425-3.308-15.021-8.911
				c-1.318-2.841-1.709-6.016-2.448-9.067c-0.699-2.856-1.804-5.785-3.976-7.726c-0.049-0.047-0.083-0.105-0.094-0.168
				c4.809,1.077,6.497,4.352,7.685,6.031c1.648,2.335,3.378,14.167,14.098,14.362c10.72,0.195,13.979-17.087,2.523-24.389
				c-11.456-7.301-20.62,0.636-32.719-3.219c-5.178-1.644-9.316-4.825-12.451-8.124c0.294-0.756,2.908,1.46,4.235,2.121
				c2.679,1.327,5.665,1.992,8.638,2.181c4.839,0.313,9.667-0.527,14.472-1.179C168.362,142.605,173.286,142.127,178.024,143.144z"
				/>
			<path style="opacity:0.24;fill:#560000;" d="M156.171,187.571c5.877-1.893,12.572-1.306,17.878,1.86
				c5.298,3.166,9.042,8.918,9.489,15.076c0.446,6.166-2.554,12.522-7.745,15.861c-5.199,3.331-12.414,3.348-17.465-0.207
				c-2.562-1.802-4.488-4.356-6.654-6.629c-2.033-2.124-4.455-4.108-7.307-4.703c-0.066-0.017-0.124-0.05-0.165-0.099
				c4.703-1.472,7.802,0.521,9.67,1.38c2.595,1.198,10.009,10.58,19.39,5.389c9.381-5.191,3.562-21.788-10.009-22.383
				c-13.572-0.595-17.539,10.861-29.945,13.572c-5.306,1.166-10.481,0.48-14.845-0.81c-0.124-0.802,3.248-0.19,4.728-0.281
				c2.984-0.19,5.901-1.108,8.571-2.43c4.348-2.149,8.108-5.29,11.943-8.257C147.534,191.935,151.559,189.059,156.171,187.571z"/>
			<path style="opacity:0.24;fill:#560000;" d="M159.46,236.972c4.143-4.577,10.234-7.417,16.413-7.328
				c6.171,0.093,12.29,3.202,15.755,8.312c3.469,5.117,4.049,12.121,1.224,17.608c-2.837,5.484-9.077,9.106-15.228,8.553
				c-3.12-0.279-6.065-1.528-9.076-2.414c-2.823-0.823-5.912-1.33-8.679-0.42c-0.066,0.019-0.132,0.019-0.193-0.003
				c3.337-3.626,7.017-3.45,9.065-3.64c2.847-0.26,13.958,4.157,19.487-5.028c5.529-9.186-7.809-20.65-19.86-14.379
				c-12.051,6.271-9.759,18.175-19.147,26.726c-4.013,3.663-8.837,5.655-13.261,6.721c-0.508-0.632,2.718-1.789,3.954-2.607
				c2.489-1.657,4.557-3.91,6.208-6.39c2.691-4.035,4.377-8.635,6.215-13.123C154.162,245.07,156.21,240.567,159.46,236.972z"/>
			<path style="opacity:0.24;fill:#560000;" d="M187.009,278.111c1.299-6.036,5.155-11.54,10.549-14.553
				c5.391-3.005,12.245-3.372,17.801-0.679c5.563,2.696,9.567,8.473,9.864,14.638c0.285,6.168-3.308,12.425-8.911,15.022
				c-2.842,1.318-6.016,1.709-9.068,2.448c-2.856,0.699-5.785,1.804-7.726,3.976c-0.047,0.049-0.105,0.083-0.168,0.094
				c1.077-4.809,4.352-6.497,6.031-7.685c2.335-1.648,14.167-3.379,14.362-14.098c0.195-10.72-17.087-13.979-24.389-2.523
				c-7.301,11.456,0.636,20.62-3.219,32.719c-1.644,5.178-4.825,9.316-8.124,12.451c-0.756-0.293,1.459-2.908,2.121-4.235
				c1.327-2.679,1.991-5.665,2.181-8.638c0.313-4.839-0.527-9.667-1.179-14.472C186.469,287.773,185.991,282.849,187.009,278.111z"
				/>
			<path style="opacity:0.24;fill:#560000;" d="M231.436,299.963c-1.893-5.877-1.306-12.572,1.86-17.878
				c3.166-5.298,8.918-9.042,15.076-9.489c6.166-0.446,12.522,2.554,15.861,7.745c3.331,5.199,3.348,12.415-0.207,17.465
				c-1.802,2.562-4.356,4.488-6.629,6.654c-2.124,2.033-4.108,4.455-4.703,7.307c-0.017,0.066-0.05,0.124-0.099,0.165
				c-1.471-4.703,0.521-7.802,1.38-9.671c1.198-2.595,10.579-10.009,5.389-19.39c-5.191-9.381-21.788-3.562-22.383,10.009
				c-0.595,13.572,10.861,17.539,13.572,29.945c1.166,5.306,0.48,10.48-0.81,14.844c-0.802,0.124-0.19-3.248-0.281-4.728
				c-0.19-2.984-1.108-5.901-2.43-8.571c-2.149-4.348-5.29-8.108-8.257-11.943C235.8,308.6,232.923,304.575,231.436,299.963z"/>
			<path style="opacity:0.24;fill:#560000;" d="M280.837,296.674c-4.577-4.143-7.417-10.234-7.328-16.413
				c0.092-6.171,3.202-12.29,8.312-15.755c5.117-3.469,12.121-4.049,17.608-1.223c5.484,2.837,9.106,9.077,8.553,15.228
				c-0.279,3.12-1.528,6.065-2.414,9.077c-0.823,2.823-1.33,5.912-0.42,8.679c0.019,0.065,0.019,0.132-0.003,0.193
				c-3.626-3.337-3.45-7.017-3.64-9.065c-0.26-2.847,4.157-13.958-5.028-19.487c-9.186-5.529-20.65,7.809-14.379,19.86
				c6.27,12.051,18.175,9.759,26.726,19.148c3.662,4.013,5.655,8.837,6.721,13.261c-0.632,0.508-1.789-2.718-2.607-3.954
				c-1.656-2.489-3.91-4.557-6.39-6.208c-4.035-2.691-8.635-4.377-13.122-6.215C288.935,301.973,284.431,299.925,280.837,296.674z"
				/>
			<path style="opacity:0.24;fill:#560000;" d="M321.975,269.126c-6.036-1.299-11.54-5.155-14.553-10.549
				c-3.005-5.391-3.372-12.245-0.679-17.8c2.696-5.563,8.473-9.567,14.638-9.864c6.168-0.285,12.425,3.308,15.022,8.911
				c1.318,2.842,1.709,6.016,2.448,9.068c0.699,2.856,1.804,5.785,3.976,7.726c0.049,0.047,0.083,0.105,0.094,0.168
				c-4.809-1.077-6.497-4.352-7.685-6.03c-1.648-2.336-3.379-14.167-14.098-14.362c-10.72-0.195-13.979,17.087-2.523,24.388
				c11.456,7.301,20.62-0.636,32.719,3.219c5.178,1.644,9.316,4.825,12.451,8.124c-0.293,0.756-2.908-1.46-4.235-2.121
				c-2.679-1.327-5.665-1.991-8.638-2.181c-4.839-0.313-9.667,0.527-14.472,1.179C331.637,269.665,326.713,270.143,321.975,269.126z
				"/>
			<path style="opacity:0.24;fill:#560000;" d="M343.827,224.699c-5.877,1.893-12.572,1.306-17.878-1.86
				c-5.298-3.166-9.042-8.918-9.489-15.076c-0.446-6.166,2.554-12.522,7.745-15.861c5.199-3.331,12.414-3.348,17.465,0.207
				c2.562,1.802,4.488,4.356,6.654,6.629c2.033,2.124,4.455,4.108,7.307,4.703c0.066,0.017,0.124,0.05,0.165,0.099
				c-4.703,1.471-7.802-0.521-9.671-1.38c-2.595-1.199-10.009-10.579-19.39-5.389c-9.381,5.191-3.562,21.788,10.009,22.383
				c13.572,0.595,17.539-10.861,29.945-13.572c5.306-1.166,10.48-0.479,14.844,0.81c0.124,0.802-3.248,0.19-4.728,0.281
				c-2.984,0.19-5.901,1.108-8.571,2.43c-4.348,2.149-8.108,5.29-11.943,8.257C352.465,220.335,348.44,223.211,343.827,224.699z"/>
			<path style="opacity:0.24;fill:#560000;" d="M340.539,175.298c-4.143,4.578-10.234,7.417-16.413,7.328
				c-6.171-0.092-12.29-3.202-15.755-8.312c-3.47-5.117-4.049-12.121-1.224-17.609c2.837-5.484,9.078-9.106,15.228-8.553
				c3.12,0.279,6.065,1.528,9.077,2.414c2.823,0.823,5.912,1.33,8.679,0.42c0.065-0.019,0.132-0.019,0.193,0.003
				c-3.337,3.626-7.018,3.45-9.065,3.64c-2.847,0.26-13.958-4.157-19.487,5.028c-5.529,9.186,7.809,20.65,19.86,14.379
				c12.051-6.27,9.759-18.175,19.148-26.726c4.013-3.663,8.837-5.656,13.261-6.721c0.508,0.632-2.718,1.789-3.954,2.607
				c-2.489,1.656-4.557,3.91-6.208,6.39c-2.691,4.035-4.377,8.635-6.215,13.122C345.837,167.2,343.789,171.703,340.539,175.298z"/>
			<path style="opacity:0.24;fill:#560000;" d="M312.99,134.16c-1.299,6.036-5.155,11.54-10.549,14.553
				c-5.391,3.005-12.245,3.372-17.8,0.679c-5.563-2.696-9.567-8.473-9.864-14.638c-0.285-6.168,3.308-12.425,8.911-15.021
				c2.842-1.318,6.016-1.709,9.068-2.448c2.856-0.699,5.785-1.804,7.726-3.976c0.047-0.049,0.105-0.083,0.168-0.094
				c-1.077,4.809-4.352,6.497-6.031,7.685c-2.336,1.648-14.167,3.379-14.362,14.098c-0.195,10.72,17.087,13.979,24.388,2.523
				c7.301-11.456-0.636-20.62,3.219-32.719c1.644-5.178,4.825-9.316,8.124-12.451c0.756,0.294-1.46,2.908-2.121,4.235
				c-1.327,2.679-1.992,5.665-2.181,8.638c-0.313,4.84,0.527,9.667,1.179,14.472C313.529,124.497,314.008,129.422,312.99,134.16z"/>
		</g>
	</g>
</g>
<g id="TEXTS">
	<g>
		<text transform="matrix(1 0 0 1 116.2814 383.7708)" style="fill:#FDA823; font-family:'Lexend-Bold'; font-size:48.4403px;">SUN LOGO</text>
		
			<text transform="matrix(1 0 0 1 155.8453 418.803)" style="fill:#FDA823; font-family:'Lexend-ExtraLight'; font-size:26.9362px;">TAGLINE HERE</text>
	</g>
</g>
</svg>
