<?xml version="1.0" encoding="utf-8"?>
<!-- Generator: Adobe Illustrator 27.5.0, SVG Export Plug-In . SVG Version: 6.00 Build 0)  -->
<svg version="1.1" xmlns="http://www.w3.org/2000/svg" xmlns:xlink="http://www.w3.org/1999/xlink" x="0px" y="0px"
	 viewBox="0 0 750 500" style="enable-background:new 0 0 750 500;" xml:space="preserve">
<g id="BACKGROUND">
	<rect style="fill:transparent;" width="750" height="500"/>
</g>
<g id="OBJECTS">
	<g>
		<g>
			<g>
				<path style="fill:#49D0D1;" d="M158.832,207.934c-0.193,0.165-0.433,0.299-0.572,0.501c-1.6,2.32-3.191,4.648-4.772,6.981
					c-1.7,2.508-3.416,5.006-5.069,7.545c-0.874,1.343-1.629,2.764-2.44,4.148c-1.04,1.773-2.093,3.54-3.123,5.319
					c-0.493,0.85-0.961,1.715-1.417,2.586c-1.036,1.977-2.056,3.963-3.089,5.942c-0.079,0.151-0.207,0.277-0.382,0.505
					c-0.154-0.419-0.289-0.734-0.386-1.061c-1.414-4.718-2.764-9.454-3.663-14.303c-0.68-3.665-1.078-7.358-0.859-11.093
					c0.217-3.692,1.067-7.246,2.257-10.743c2.087-6.137,5.593-11.387,9.875-16.172c5.085-5.684,11.004-10.375,17.342-14.573
					c3.693-2.446,7.35-4.953,10.796-7.738c2.365-1.912,4.661-3.924,6.637-6.26c0.657-0.777,1.238-1.605,1.594-2.639
					c-0.112,0.083-0.243,0.149-0.334,0.251c-2.981,3.36-6.61,5.881-10.505,8.039c-1.562,0.866-3.201,1.592-4.807,2.377
					c-0.924,0.452-1.842,0.915-2.78,1.335c-0.436,0.195-0.912,0.3-1.394,0.454c-0.444-0.704-0.605-1.402-0.733-2.094
					c-0.336-1.815-1.019-3.511-1.674-5.223c-0.609-1.59-1.301-3.137-2.19-4.587c-0.769-1.254-1.585-2.48-2.394-3.71
					c-1.399-2.127-2.784-4.264-4.222-6.365c-1.394-2.034-2.195-4.299-2.64-6.687c-0.508-2.723-0.287-5.433,0.562-8.067
					c0.645-1.998,1.362-3.974,2.093-5.943c0.291-0.784,0.403-1.544,0.189-2.355c-0.547-2.075-1.082-4.153-1.633-6.227
					c-0.158-0.595-0.354-1.18-0.556-1.846c-1.69,0.562-3.235,1.235-4.693,2.076c-1.55,0.894-2.997,1.955-4.308,3.176
					c-0.781,0.728-1.487,1.538-2.212,2.325c-0.462,0.502-0.947,0.944-1.645,1.09c-0.653,0.137-1.018-0.064-1.204-0.713
					c-0.265-0.925,0.043-1.814,0.428-2.582c0.474-0.944,1.085-1.889,1.854-2.601c1.664-1.54,3.43-2.977,5.226-4.363
					c0.802-0.619,1.773-1.022,2.673-1.512c0.786-0.428,1.581-0.84,2.414-1.282c0.062-0.72-0.259-1.375-0.411-2.058
					c-0.117-0.523-0.277-1.037-0.414-1.556c-0.256-0.968-0.206-1.166,0.553-1.712c1.142-0.821,2.351-1.431,3.825-1.431
					c1.087,0,1.927,0.427,2.533,1.254c0.524,0.715,0.931,1.519,1.366,2.297c0.276,0.492,0.443,0.587,0.959,0.438
					c2.615-0.756,5.238-1.487,7.844-2.274c2.111-0.637,4.081-1.59,5.829-2.947c0.666-0.517,1.291-1.097,1.873-1.709
					c1.811-1.905,3.924-3.235,6.566-3.625c0.129-0.019,0.251-0.084,0.459-0.156c0-0.292,0.014-0.6-0.002-0.906
					c-0.117-2.28-0.157-4.568-0.389-6.836c-0.151-1.474,0.517-2.478,1.429-3.431c1.023-1.07,1.953-2.205,2.696-3.491
					c0.748-1.295,0.708-2.492-0.237-3.585c-0.244-0.283-0.652-0.454-1.016-0.598c-0.495-0.196-1.012-0.389-1.535-0.455
					c-1.627-0.203-2.782,0.937-2.661,2.569c0.023,0.308,0.101,0.62,0.07,0.922c-0.065,0.637-0.452,1.075-0.957,1.137
					c-0.594,0.073-1.096-0.143-1.34-0.682c-0.177-0.39-0.299-0.859-0.269-1.281c0.147-2.028,1.339-3.335,3.087-4.191
					c2.905-1.424,6.037,0.176,7.32,2.384c0.618,1.063,0.568,2.249,0.212,3.391c-0.595,1.909-1.537,3.637-3.034,4.991
					c-0.996,0.9-1.448,1.827-1.245,3.271c0.271,1.929,0.164,3.911,0.224,5.87c0.007,0.217,0.045,0.433,0.07,0.662
					c1.061,0.151,2.072,0.278,3.075,0.446c0.345,0.058,0.707,0.162,1.001,0.343c1.323,0.816,2.739,1.486,3.954,2.473
					c0.97,0.788,1.864,1.697,2.917,2.349c1.36,0.842,2.535,1.997,4.101,2.502c0.169,0.054,0.325,0.15,0.481,0.237
					c2.155,1.208,4.48,2.004,6.804,2.802c0.709,0.243,1.412,0.502,2.217,0.789c0.394-0.937,0.801-1.773,1.096-2.646
					c0.312-0.923,0.856-1.422,1.856-1.42c0.939,0.002,1.879-0.085,2.817-0.06c0.528,0.014,1.077,0.108,1.573,0.287
					c0.799,0.288,1.093,0.841,0.953,1.687c-0.153,0.926-0.359,1.842-0.538,2.764c-0.084,0.431-0.159,0.865-0.238,1.298
					c1.08,0.399,2.067,0.772,3.06,1.127c1.908,0.683,3.574,1.755,5.232,2.917c1.705,1.194,2.806,2.818,3.967,4.45
					c0.676,0.95,0.594,1.951,0.374,2.962c-0.201,0.925-1.075,1.166-1.71,0.458c-0.808-0.9-1.601-1.822-2.577-2.53
					c-1.512-1.097-2.988-2.265-4.725-3.013c-1.39-0.598-2.783-1.189-4.178-1.774c-0.159-0.067-0.345-0.068-0.592-0.113
					c-0.597,1.528-0.841,3.1-0.993,4.707c-0.186,1.967-0.008,3.927,0.009,5.89c0.024,2.686,0.034,5.37-0.237,8.046
					c-0.063,0.622-0.164,1.245-0.305,1.854c-0.524,2.265-0.988,4.549-1.641,6.777c-0.463,1.581-1.218,3.074-1.799,4.623
					c-0.909,2.424-1.811,4.855-2.332,7.398c-0.169,0.826-0.266,1.693-0.216,2.531c0.138,2.322,0.392,4.636,0.557,6.956
					c0.08,1.115,0.032,2.238,0.096,3.354c0.221,3.8,0.439,7.6,0.712,11.396c0.167,2.316,0.4,4.628,0.667,6.935
					c0.257,2.22,0.551,4.439,0.909,6.645c0.423,2.601,0.995,5.179,1.383,7.785c0.31,2.079,0.82,4.111,1.239,6.163
					c0.331,1.62,0.765,3.218,1.163,4.824c0.399,1.607,0.806,3.211,1.219,4.814c0.402,1.558,0.777,3.124,1.238,4.664
					c0.651,2.18,1.376,4.339,2.055,6.511c0.133,0.425,0.165,0.881,0.301,1.304c0.398,1.228,0.819,2.448,1.243,3.667
					c0.69,1.984,1.36,3.975,2.094,5.943c0.656,1.759,1.379,3.492,2.086,5.232c1.011,2.486,2.022,4.971,3.058,7.447
					c0.552,1.321,1.149,2.623,1.738,3.928c0.864,1.913,1.717,3.831,2.615,5.729c0.801,1.695,1.658,3.364,2.487,5.045
					c0.75,1.521,1.471,3.057,2.255,4.561c0.576,1.104,1.232,2.167,1.853,3.248c0.689,1.202,1.38,2.403,2.067,3.606
					c0.31,0.544,0.603,1.097,0.919,1.638c0.789,1.349,1.742,2.597,2.306,4.083c0.232,0.612,0.729,1.122,1.083,1.692
					c0.352,0.567,0.677,1.151,1.009,1.73c0.067,0.116,0.096,0.255,0.169,0.365c0.973,1.446,1.944,2.893,2.931,4.33
					c0.681,0.991,1.524,1.899,2.044,2.966c0.581,1.194,1.468,2.129,2.212,3.182c1.058,1.499,2.169,2.962,3.302,4.405
					c1.072,1.366,2.203,2.686,3.305,4.029c0.936,1.141,1.875,2.28,2.801,3.43c0.924,1.148,1.822,2.311,2.889,3.342
					c0.799,0.771,1.482,1.661,2.221,2.494c0.178,0.201,0.338,0.449,0.563,0.571c1.23,0.664,1.923,1.847,2.816,2.838
					c0.239,0.265,0.456,0.565,0.739,0.773c1.347,0.99,2.332,2.35,3.558,3.452c1.227,1.103,2.231,2.43,3.581,3.412
					c0.711,0.518,1.295,1.212,1.936,1.826c0.065,0.062,0.119,0.145,0.195,0.183c1.717,0.867,2.788,2.5,4.293,3.618
					c0.143,0.106,0.255,0.255,0.4,0.358c1.529,1.085,3.062,2.164,4.594,3.245c0.183,0.129,0.393,0.233,0.544,0.392
					c1.189,1.245,2.75,1.983,4.083,3.024c1.629,1.272,3.466,2.213,5.141,3.41c1.376,0.984,2.822,1.884,4.294,2.721
					c1.862,1.058,3.793,1.993,5.673,3.021c1.097,0.6,2.152,1.275,3.224,1.92c0.191,0.115,0.358,0.308,0.562,0.358
					c1.507,0.371,2.73,1.319,4.097,1.973c0.601,0.287,1.233,0.508,1.837,0.788c1.579,0.731,3.138,1.505,4.728,2.21
					c1.262,0.559,2.517,1.155,3.897,1.401c0.349,0.062,0.745,0.135,1.009,0.342c0.746,0.585,1.651,0.649,2.504,0.887
					c1.074,0.299,2.167,0.539,3.084,1.242c0.205,0.157,0.482,0.242,0.739,0.302c1.085,0.254,2.181,0.466,3.263,0.733
					c0.997,0.246,2.025,0.441,2.958,0.847c0.847,0.368,1.733,0.409,2.593,0.629c0.907,0.232,1.824,0.428,2.736,0.643
					c0.907,0.214,1.814,0.433,2.843,0.679c-1.028,0.501-2.004,0.981-2.984,1.453c-3.305,1.591-6.735,2.862-10.185,4.103
					c-4.179,1.503-8.459,2.584-12.808,3.41c-1.747,0.332-3.536,0.446-5.305,0.665c-0.442,0.055-0.879,0.152-1.322,0.191
					c-1.058,0.093-2.118,0.176-3.178,0.238c-1.111,0.064-2.226,0.164-3.335,0.131c-1.515-0.045-3.027-0.199-4.539-0.308
					c-0.179-0.013-0.356-0.057-0.534-0.057c-3.421-0.004-6.768-0.613-10.1-1.289c-2.134-0.433-4.245-0.986-6.359-1.516
					c-1.728-0.433-3.394-1.065-5.052-1.709c-2.991-1.162-5.963-2.365-8.81-3.866c-1.579-0.832-3.251-1.486-4.84-2.3
					c-1.463-0.75-2.875-1.602-4.304-2.418c-1.122-0.641-2.157-1.452-3.278-2.056c-1.187-0.64-2.165-1.565-3.369-2.155
					c-0.309-0.152-0.53-0.475-0.813-0.692c-0.421-0.322-0.871-0.606-1.291-0.929c-0.946-0.727-1.98-1.323-2.794-2.246
					c-0.576-0.653-1.457-1.031-2.069-1.66c-0.621-0.639-1.147-1.355-2.03-1.661c-0.107-0.168-0.215-0.337-0.322-0.505
					c-0.055,0.055-0.111,0.11-0.166,0.164c0.164,0.112,0.329,0.223,0.493,0.335c0.603,0.819,1.161,1.675,1.818,2.447
					c0.955,1.123,1.964,2.201,2.98,3.269c1.198,1.26,2.405,2.513,3.651,3.725c1.117,1.086,2.26,2.149,3.45,3.153
					c1.672,1.411,3.394,2.761,5.1,4.132c1.218,0.979,2.536,1.837,3.741,2.814c1.747,1.417,3.691,2.504,5.538,3.751
					c2.3,1.552,4.709,2.922,7.169,4.195c2.105,1.089,4.22,2.165,6.379,3.138c2.805,1.264,5.64,2.469,8.497,3.612
					c3.685,1.474,7.406,2.873,11.24,3.912c3.148,0.853,6.336,1.559,9.592,1.913c1.421,0.154,2.825,0.471,4.246,0.62
					c2.572,0.27,5.152,0.469,7.814,0.706c-0.147,0.17-0.275,0.391-0.465,0.527c-1.452,1.049-2.964,1.997-4.573,2.794
					c-0.919,0.455-1.783,1.019-2.685,1.511c-0.902,0.492-1.817,0.957-2.73,1.428c-1.15,0.593-2.345,1.086-3.447,1.791
					c-0.704,0.451-1.552,0.678-2.341,0.992c-2.24,0.89-4.45,1.87-6.733,2.63c-1.944,0.647-3.972,1.04-5.964,1.543
					c-0.304,0.077-0.617,0.117-0.917,0.206c-2.028,0.602-4.109,0.837-6.213,0.945c-0.489,0.025-0.971,0.163-1.459,0.227
					c-0.664,0.088-1.331,0.152-1.995,0.235c-0.437,0.055-0.871,0.127-1.307,0.188c-0.22,0.031-0.44,0.075-0.661,0.077
					c-1.207,0.01-2.414,0.036-3.62,0.006c-1.338-0.033-2.675-0.12-4.012-0.186c-0.134-0.007-0.27-0.048-0.401-0.035
					c-1.898,0.198-3.733-0.308-5.595-0.498c-0.134-0.014-0.267-0.054-0.4-0.049c-1.804,0.072-3.576-0.302-5.313-0.641
					c-2.001-0.391-4.049-0.721-5.931-1.63c-0.792-0.383-1.669-0.586-2.492-0.912c-1.909-0.757-3.816-1.519-5.707-2.318
					c-1.357-0.573-2.699-1.187-4.027-1.824c-2.297-1.101-4.458-2.451-6.668-3.711c-1.516-0.864-2.964-1.813-4.376-2.837
					c-1.585-1.148-3.296-2.126-4.853-3.308c-2.837-2.154-5.678-4.304-8.316-6.711c-1.879-1.715-3.632-3.544-5.394-5.376
					c-2.139-2.224-4.146-4.555-6.109-6.928c-1.424-1.722-2.803-3.484-4.122-5.288c-1.449-1.981-2.803-4.031-4.204-6.047
					c-0.071-0.103-0.188-0.174-0.408-0.371c0.104,0.436,0.139,0.743,0.248,1.021c0.849,2.156,1.671,4.325,2.584,6.454
					c0.757,1.766,1.634,3.48,2.445,5.224c1.47,3.159,3.159,6.195,4.908,9.208c1.212,2.087,2.501,4.12,3.779,6.162
					c0.804,1.283,1.588,2.577,2.543,3.767c1.115,1.39,2.063,2.912,3.163,4.315c1.435,1.829,2.885,3.652,4.441,5.376
					c2.397,2.658,4.865,5.254,7.352,7.828c1.367,1.415,2.837,2.731,4.257,4.095c0.216,0.207,0.414,0.434,0.774,0.815
					c-0.421,0-0.626,0.014-0.828-0.002c-5.537-0.436-11.077-0.85-16.499-2.16c-5.934-1.434-11.697-3.356-17.238-5.941
					c-4.395-2.051-8.617-4.395-12.587-7.182c-3.786-2.658-7.278-5.669-10.588-8.896c-3.632-3.541-7.009-7.305-9.966-11.435
					c-3.034-4.237-5.61-8.738-7.844-13.444c-2.25-4.741-4.183-9.606-5.781-14.602c-1.843-5.764-3.313-11.624-4.293-17.597
					c-0.26-1.586-0.326-3.205-0.444-4.811c-0.167-2.271-0.357-4.543-0.43-6.819c-0.083-2.589-0.05-5.182-0.064-7.774
					c-0.005-0.984-0.001-1.967-0.001-3.139c-0.517,0.587-0.583,1.188-0.688,1.734c-0.39,2.018-0.761,4.042-1.076,6.073
					c-0.5,3.224-0.954,6.455-1.417,9.685c-0.279,1.945-0.553,3.89-0.8,5.839c-0.129,1.019-0.206,2.046-0.289,3.07
					c-0.339,4.191-0.652,8.386-0.678,12.592c-0.02,3.213,0.049,6.427,0.117,9.639c0.052,2.415,0.168,4.829,0.25,7.244
					c0.014,0.399,0.002,0.799,0.002,1.199c-0.74,0.188-1.063-0.255-1.322-0.731c-0.427-0.786-0.806-1.598-1.214-2.394
					c-0.979-1.907-1.975-3.805-2.94-5.719c-0.562-1.114-1.076-2.252-1.612-3.38c-0.572-1.206-1.145-2.412-1.715-3.619
					c-0.115-0.243-0.227-0.488-0.327-0.737c-1.356-3.401-2.707-6.801-3.741-10.321c-1.364-4.646-2.439-9.355-3.225-14.131
					c-0.743-4.511-1.292-9.047-1.498-13.613c-0.143-3.176-0.147-6.362-0.106-9.543c0.043-3.404,0.138-6.81,0.34-10.208
					c0.485-8.145,1.445-16.23,3.248-24.203c1.711-7.563,3.875-14.996,6.348-22.338c0.912-2.706,1.899-5.389,3.004-8.033
					c1.36-3.254,2.667-6.525,4.235-9.688c1.09-2.198,2.08-4.445,3.14-6.658c0.443-0.925,0.942-1.824,1.435-2.725
					c1.372-2.506,2.658-5.059,4.162-7.492c0.126-0.204,0.107-0.498,0.155-0.75c0.369-0.142,0.546-0.412,0.537-0.807
					c0.079-0.077,0.158-0.153,0.236-0.23c-0.046-0.037-0.093-0.074-0.139-0.111c-0.022,0.123-0.045,0.245-0.067,0.368
					C159.01,207.275,158.844,207.553,158.832,207.934z M156.424,113.688c0.366,1.089,0.684,2.061,1.018,3.027
					c0.556,1.607,1.13,3.207,1.68,4.816c0.21,0.614,0.499,1.121,1.141,1.393c0.943,0.4,1.852,0.879,2.799,1.268
					c1.772,0.727,3.543,1.464,5.349,2.099c1.177,0.414,2.414,0.659,3.626,0.97c0.647,0.166,1.293,0.357,1.952,0.454
					c1.371,0.201,2.748,0.371,4.127,0.506c1.375,0.135,2.763,0.354,4.131,0.279c1.779-0.097,3.54-0.477,5.316-0.683
					c3.636-0.421,7.083-1.48,10.372-3.055c1.825-0.874,3.234-2.204,4.144-4.041c0.902-1.818,1.371-3.775,1.878-5.72
					c0.063-0.243,0.047-0.507,0.073-0.831c-0.563-0.166-1.069-0.331-1.584-0.464c-0.736-0.189-1.499-0.295-2.215-0.54
					c-3.247-1.113-6.582-1.961-9.737-3.359c-2.242-0.993-4.562-1.813-6.86-2.676c-0.665-0.249-1.365-0.467-2.066-0.541
					c-1.06-0.113-2.135-0.133-3.201-0.103c-0.518,0.014-1.084,0.132-1.537,0.374c-1.538,0.823-3.043,1.668-4.76,2.125
					c-1.587,0.423-3.103,1.103-4.673,1.599c-1.403,0.444-2.837,0.785-4.254,1.185C160.957,112.388,158.774,113.017,156.424,113.688z
					 M160.277,205.834l0.06-0.109l-0.084-0.014L160.277,205.834z"/>
			</g>
		</g>
		<g>
			<g>
				
					<text transform="matrix(1 0 0 1 180.2275 279.0213)" style="fill:#363744; font-family:'Yellowtail-Regular'; font-size:158px;">Fashion</text>
			</g>
			
				<text transform="matrix(1 0 0 1 235.7875 310.3113)" style="fill:#363744; font-family:'Montserrat-SemiBold'; font-size:16px; letter-spacing:3;">CLOTHING STORE</text>
		</g>
	</g>
</g>
</svg>
