<?xml version="1.0" encoding="utf-8"?>
<!-- Generator: Adobe Illustrator 27.5.0, SVG Export Plug-In . SVG Version: 6.00 Build 0)  -->
<svg version="1.1" xmlns="http://www.w3.org/2000/svg" xmlns:xlink="http://www.w3.org/1999/xlink" x="0px" y="0px"
	 viewBox="0 0 500 500" style="enable-background:new 0 0 500 500;" xml:space="preserve">
<g id="BACKGROUND">
	<rect style="fill:transparent;" width="500" height="500"/>
</g>
<g id="OBJECTS">
	<g>
		<path style="fill:#F8931F;" d="M194.579,95.502l-1.61,3.647c-0.127,0.289-0.114,0.62,0.036,0.897l1.897,3.507
			c0.463,0.855-0.42,1.811-1.309,1.419l-3.647-1.61c-0.289-0.127-0.62-0.114-0.897,0.036l-3.507,1.897
			c-0.855,0.463-1.811-0.42-1.419-1.31l1.61-3.647c0.128-0.289,0.114-0.62-0.036-0.897l-1.897-3.507
			c-0.463-0.855,0.42-1.811,1.309-1.419l3.647,1.61c0.289,0.128,0.62,0.114,0.898-0.036l3.507-1.897
			C194.015,93.73,194.971,94.613,194.579,95.502z"/>
		<path style="fill:#F8931F;" d="M341.127,96.452l-0.119,3.281c-0.009,0.26,0.102,0.509,0.301,0.675l2.521,2.103
			c0.615,0.513,0.232,1.514-0.569,1.485l-3.281-0.119c-0.26-0.009-0.509,0.102-0.675,0.301l-2.103,2.521
			c-0.513,0.615-1.514,0.231-1.485-0.569l0.119-3.281c0.009-0.26-0.102-0.509-0.301-0.676l-2.521-2.103
			c-0.615-0.513-0.232-1.514,0.569-1.485l3.281,0.119c0.26,0.009,0.509-0.102,0.675-0.301l2.103-2.521
			C340.156,95.269,341.156,95.652,341.127,96.452z"/>
		<path style="fill:#F8931F;" d="M303.846,320.961l2.034,2.577c0.161,0.204,0.407,0.322,0.667,0.32l3.283-0.029
			c0.801-0.007,1.157,1.004,0.528,1.5l-2.577,2.034c-0.204,0.161-0.322,0.407-0.32,0.667l0.029,3.283
			c0.007,0.801-1.004,1.157-1.5,0.528l-2.034-2.577c-0.161-0.204-0.407-0.322-0.667-0.32l-3.283,0.029
			c-0.801,0.007-1.157-1.004-0.528-1.5l2.577-2.034c0.204-0.161,0.322-0.407,0.32-0.667l-0.029-3.283
			C302.339,320.689,303.35,320.333,303.846,320.961z"/>
		<path style="fill:#F8931F;" d="M380.827,193.918l1.476,2.932c0.117,0.232,0.334,0.397,0.589,0.447l3.222,0.629
			c0.786,0.154,0.932,1.215,0.217,1.575l-2.932,1.476c-0.232,0.117-0.397,0.335-0.447,0.59l-0.629,3.222
			c-0.153,0.786-1.215,0.932-1.575,0.217l-1.476-2.933c-0.117-0.232-0.334-0.397-0.589-0.447l-3.222-0.629
			c-0.786-0.153-0.932-1.215-0.217-1.575l2.932-1.476c0.232-0.117,0.397-0.334,0.447-0.589l0.629-3.222
			C379.405,193.348,380.467,193.202,380.827,193.918z"/>
		<path style="fill:#F8931F;" d="M131.461,226.49l-2.193,2.443c-0.174,0.193-0.248,0.456-0.202,0.712l0.588,3.23
			c0.143,0.788-0.792,1.311-1.388,0.776l-2.443-2.194c-0.193-0.174-0.456-0.248-0.712-0.201l-3.23,0.588
			c-0.788,0.143-1.311-0.792-0.776-1.388l2.194-2.443c0.174-0.193,0.248-0.456,0.201-0.712l-0.588-3.23
			c-0.143-0.788,0.792-1.311,1.388-0.776l2.443,2.193c0.193,0.174,0.456,0.248,0.712,0.201l3.23-0.588
			C131.473,224.958,131.996,225.894,131.461,226.49z"/>
		<path style="fill:#F8931F;" d="M350.036,111.035l-0.169,4.675c-0.013,0.37,0.145,0.725,0.43,0.963l3.592,2.997
			c0.876,0.731,0.33,2.157-0.81,2.116l-4.676-0.169c-0.37-0.013-0.725,0.145-0.963,0.43l-2.997,3.592
			c-0.731,0.876-2.157,0.33-2.116-0.81l0.169-4.675c0.014-0.37-0.145-0.726-0.429-0.963l-3.592-2.997
			c-0.876-0.731-0.33-2.157,0.81-2.116l4.675,0.169c0.37,0.013,0.725-0.145,0.963-0.429l2.997-3.592
			C348.651,109.348,350.077,109.894,350.036,111.035z"/>
		<path style="fill:#F8931F;" d="M294.745,331.428l2.898,3.672c0.229,0.291,0.58,0.459,0.951,0.456l4.678-0.042
			c1.141-0.01,1.648,1.43,0.752,2.137l-3.673,2.898c-0.291,0.229-0.459,0.58-0.455,0.951l0.042,4.678
			c0.01,1.141-1.43,1.648-2.137,0.753l-2.898-3.673c-0.229-0.291-0.58-0.459-0.951-0.455l-4.678,0.042
			c-1.141,0.01-1.648-1.43-0.752-2.137l3.673-2.898c0.291-0.229,0.459-0.58,0.455-0.951l-0.042-4.678
			C292.598,331.039,294.038,330.532,294.745,331.428z"/>
		<path style="fill:#F8931F;" d="M128.352,240.851l-3.126,3.481c-0.247,0.276-0.353,0.65-0.287,1.014l0.837,4.603
			c0.204,1.123-1.129,1.868-1.978,1.105l-3.481-3.126c-0.275-0.247-0.65-0.354-1.014-0.287l-4.603,0.837
			c-1.123,0.204-1.868-1.129-1.105-1.978l3.126-3.481c0.247-0.276,0.353-0.65,0.287-1.014l-0.837-4.603
			c-0.204-1.123,1.129-1.868,1.978-1.105l3.481,3.126c0.275,0.247,0.65,0.353,1.014,0.287l4.603-0.837
			C128.369,238.669,129.114,240.002,128.352,240.851z"/>
		<path style="fill:#F8931F;" d="M232.086,191.881"/>
		<path style="fill:#4A2559;" d="M240.633,212.896c-0.531-5.459,3.463-10.315,8.923-10.847c5.459-0.531,10.315,3.464,10.847,8.923
			c0.531,5.459-3.464,10.315-8.923,10.847C246.02,222.35,241.164,218.355,240.633,212.896z"/>
		<g>
			
				<ellipse transform="matrix(0.9613 -0.2753 0.2753 0.9613 -20.6843 86.9839)" style="fill:#4A2559;" cx="299.474" cy="117.165" rx="26.856" ry="26.856"/>
			<path style="fill:#4A2559;" d="M365.248,147.792c-1.874-0.147-4.483-0.094-4.483-0.094s5.012-1.759,7.079-2.905
				c2.06-1.141,0.725-2.925-1.104-2.617c-1.807,0.305-6.734,1.545-6.734,1.545s6.175-3.865,7.797-5.35
				c1.622-1.485,0.347-4.028-2.254-2.706c-2.56,1.301-8.489,4.295-8.489,4.295s4.484-3.46,6.61-5.804
				c2.126-2.344-0.365-4.088-2.234-2.874c-1.869,1.215-8.274,6.483-8.274,6.483c2.595-3.569,1.039-5.92-0.384-5.412
				c-1.423,0.508-3.625,6.897-6.907,8.411c-9.549,1.861-19.098,3.722-28.647,5.583c-5.384,1.049-10.606,3.073-16.091,3.52
				c-7.895,0.643-16.331-1.177-22.294-6.631c-5.276-4.825-8.081-11.612-10.327-18.246c-2.561-7.564-5.426-15.035-8.178-22.536
				c-1.095-2.986-2.19-5.972-3.286-8.958c-0.525-3.575,3.623-8.911,3.271-10.38c-0.352-1.469-3.172-1.489-4.743,2.635
				c0,0,0.913-8.243,0.909-10.472c-0.004-2.229-2.825-3.363-3.627-0.301c-0.802,3.062-1.25,8.708-1.25,8.708
				s-0.732-6.602-1.041-9.457c-0.314-2.901-3.14-2.579-3.498-0.41c-0.358,2.169-0.221,9.453-0.221,9.453s-1.653-4.804-2.385-6.484
				c-0.741-1.701-2.964-1.844-2.794,0.505c0.17,2.358,1.435,7.516,1.435,7.516s-1.38-2.215-2.528-3.704
				c-1.221-1.585-2.547-0.884-2.158,0.814c0.389,1.698,2.528,9.219,3.515,15.399l7.443,80.579
				c1.767,15.081,18.262,23.557,31.552,16.212l69.567-38.445c0.141-0.04,0.283-0.086,0.433-0.152
				c5.715-2.55,13.183-4.866,14.818-5.469C367.38,149.443,367.243,147.949,365.248,147.792z"/>
		</g>
		<g>
			
				<ellipse transform="matrix(0.822 -0.5694 0.5694 0.822 -68.4532 244.1294)" style="fill:#F8C91F;" cx="356.34" cy="231.578" rx="25.93" ry="25.931"/>
			<path style="fill:#F8C91F;" d="M346.213,300.898c-0.383-1.774-1.154-4.173-1.154-4.173s3.015,4.149,4.646,5.745
				c1.626,1.59,2.906-0.139,2.115-1.745c-0.782-1.587-3.293-5.802-3.293-5.802s5.284,4.642,7.107,5.731
				c1.822,1.089,3.822-0.794,1.879-2.834c-1.912-2.008-6.322-6.664-6.322-6.664s4.441,3.19,7.199,4.508
				c2.757,1.318,3.681-1.469,2.04-2.862c-1.641-1.393-8.287-5.86-8.287-5.86c4.02,1.413,5.764-0.677,4.9-1.853
				c-0.864-1.176-7.384-1.444-9.692-4.061c-4.365-8.318-8.729-16.636-13.094-24.954c-2.461-4.69-5.778-8.96-7.709-13.91
				c-2.779-7.125-3.432-15.433-0.037-22.458c3.003-6.216,8.505-10.689,14.02-14.603c6.288-4.463,12.406-9.181,18.583-13.802
				c2.459-1.84,4.918-3.679,7.377-5.519c3.162-1.475,9.246,0.885,10.507,0.153c1.262-0.732,0.499-3.346-3.75-3.658
				c0,0,7.878-1.437,9.939-2.057c2.061-0.621,2.329-3.544-0.726-3.439c-3.054,0.106-8.401,1.254-8.401,1.254s5.904-2.504,8.46-3.58
				c2.596-1.093,1.517-3.619-0.589-3.349c-2.106,0.27-8.806,2.412-8.806,2.412s3.987-2.859,5.338-4.001
				c1.368-1.156,0.886-3.253-1.241-2.445c-2.134,0.81-6.556,3.408-6.556,3.408s1.667-1.89,2.726-3.363
				c1.128-1.569,0.113-2.601-1.35-1.771c-1.463,0.829-7.828,4.891-13.271,7.514l-72.477,29.188
				c-13.462,5.809-16.736,23.413-6.264,33.674l54.816,53.71c0.076,0.119,0.158,0.239,0.261,0.359
				c3.94,4.581,8.15,10.848,9.16,12.193C345.277,303.327,346.62,302.787,346.213,300.898z"/>
		</g>
		<g>
			
				<ellipse transform="matrix(0.6084 -0.7936 0.7936 0.6084 -146.9742 333.3413)" style="fill:#F8931F;" cx="264.314" cy="315.611" rx="25.706" ry="25.706"/>
			<path style="fill:#F8931F;" d="M195.731,326.54c1.566-0.887,3.607-2.327,3.607-2.327s-3.034,4.08-4.061,6.096
				c-1.023,2.009,0.991,2.709,2.277,1.484c1.27-1.21,4.515-4.833,4.515-4.833s-2.829,6.374-3.32,8.42
				c-0.491,2.046,1.882,3.381,3.238,0.939c1.335-2.403,4.434-7.954,4.434-7.954s-1.704,5.146-2.135,8.145
				c-0.431,2.999,2.479,3.048,3.311,1.083c0.832-1.965,3.092-9.575,3.092-9.575c-0.147,4.221,2.346,5.253,3.203,4.088
				c0.857-1.165-0.818-7.413,0.975-10.372c6.579-6.591,13.158-13.181,19.736-19.772c3.709-3.716,6.768-8.119,10.88-11.41
				c5.919-4.738,13.586-7.813,21.238-6.68c6.77,1.003,12.63,4.884,17.965,8.944c6.083,4.629,12.357,9.021,18.557,13.499
				c2.468,1.782,4.936,3.565,7.404,5.347c2.331,2.556,1.898,9.01,2.964,9.987c1.066,0.977,3.313-0.518,2.351-4.631
				c0,0,3.69,7.029,4.887,8.795c1.197,1.766,4.043,1.155,3.039-1.704c-1.004-2.859-3.672-7.578-3.672-7.578s4.116,4.845,5.891,6.945
				c1.803,2.133,3.873,0.364,2.994-1.549c-0.878-1.913-4.887-7.618-4.887-7.618s3.885,2.926,5.365,3.867
				c1.499,0.952,3.34-0.124,1.947-1.897c-1.398-1.779-5.164-5.194-5.164-5.194s2.281,1.018,3.989,1.584
				c1.818,0.604,2.494-0.663,1.276-1.802c-1.218-1.139-6.943-5.96-11.036-10.334l-49.061-59.938
				c-9.479-11.018-27.104-8.908-33.714,4.037l-34.599,67.757c-0.09,0.107-0.179,0.22-0.262,0.353
				c-3.168,5.084-7.852,10.921-8.826,12.275C193.156,326.373,194.064,327.484,195.731,326.54z"/>
		</g>
		<g>
			<path style="fill:#F94E54;" d="M181.359,245.434c-7.06-12.317-22.769-16.578-35.086-9.518
				c-12.317,7.06-16.579,22.769-9.518,35.086c7.06,12.317,22.768,16.578,35.085,9.518
				C184.158,273.46,188.419,257.752,181.359,245.434z"/>
			<path style="fill:#F94E54;" d="M123.53,198.544c1.403,1.126,3.496,2.49,3.496,2.49s-4.913-1.309-7.165-1.517
				c-2.245-0.207-2.15,1.923-0.537,2.665c1.594,0.733,6.16,2.407,6.16,2.407s-6.968-0.27-9.051,0.031
				c-2.083,0.301-2.445,2.999,0.325,3.355c2.727,0.351,9.03,1.177,9.03,1.177s-5.412,0.321-8.357,1.029
				c-2.946,0.709-1.915,3.431,0.218,3.477c2.133,0.047,10.04-0.67,10.04-0.67c-3.976,1.425-4.012,4.123-2.613,4.488
				c1.4,0.365,6.585-3.503,9.996-2.932c8.557,3.674,17.114,7.347,25.671,11.021c4.825,2.071,10.046,3.284,14.626,5.887
				c6.592,3.746,12.285,9.732,14.063,17.26c1.573,6.66,0.135,13.541-1.663,19.999c-2.05,7.364-3.81,14.818-5.676,22.235
				c-0.743,2.952-1.485,5.905-2.228,8.857c-1.512,3.111-7.668,5.097-8.182,6.449c-0.513,1.352,1.707,2.887,5.172,0.471
				c0,0-5.165,6.029-6.363,7.794c-1.198,1.766,0.423,4.183,2.707,2.193c2.285-1.99,5.681-6.215,5.681-6.215
				s-2.979,5.617-4.273,8.042c-1.315,2.464,1.094,3.733,2.546,2.209s5.269-7.359,5.269-7.359s-1.281,4.692-1.608,6.415
				c-0.33,1.745,1.351,3.056,2.483,1.106c1.136-1.957,2.915-6.719,2.915-6.719s-0.101,2.496,0.004,4.292
				c0.112,1.912,1.538,2.072,2.146,0.519c0.608-1.553,2.968-8.655,5.517-14.076l37.535-67.755
				c6.729-12.883-1.752-28.476-16.223-29.828l-75.749-7.077c-0.133-0.044-0.271-0.085-0.425-0.113
				c-5.895-1.063-13.051-3.255-14.669-3.659C122.733,196.09,122.037,197.345,123.53,198.544z"/>
		</g>
		<g>
			
				<ellipse transform="matrix(0.9516 -0.3072 0.3072 0.9516 -34.9998 60.947)" style="fill:#92278F;" cx="176.071" cy="141.635" rx="25.126" ry="25.126"/>
			<path style="fill:#92278F;" d="M220.694,90.481c-0.62,1.646-1.249,4.005-1.249,4.005s-0.279-4.962-0.77-7.118
				c-0.49-2.148-2.44-1.412-2.639,0.312c-0.196,1.703-0.362,6.454-0.362,6.454s-1.869-6.554-2.782-8.398
				c-0.913-1.843-3.53-1.359-3.018,1.323c0.504,2.639,1.654,8.746,1.654,8.746s-1.944-4.929-3.499-7.45
				c-1.554-2.521-3.769-0.735-3.163,1.261c0.606,1.996,3.676,9.122,3.676,9.122c-2.533-3.26-5.051-2.472-4.964-1.061
				c0.087,1.411,5.257,5.051,5.764,8.394c-0.809,9.066-1.619,18.132-2.428,27.198c-0.456,5.112,0.005,10.331-1.019,15.377
				c-1.474,7.262-5.302,14.372-11.754,18.314c-5.708,3.488-12.537,4.245-19.083,4.539c-7.464,0.336-14.923,0.969-22.38,1.492
				c-2.968,0.208-5.937,0.417-8.905,0.625c-3.35-0.458-7.067-5.572-8.479-5.638c-1.412-0.066-2.162,2.464,1.135,4.947
				c0,0-7.171-2.963-9.176-3.539c-2.005-0.576-3.757,1.665-1.213,3.182c2.544,1.517,7.501,3.387,7.501,3.387
				s-6.124-1.059-8.77-1.523c-2.689-0.472-3.134,2.152-1.277,3.037c1.857,0.885,8.439,2.656,8.439,2.656s-4.748,0.237-6.448,0.458
				c-1.721,0.224-2.428,2.185-0.272,2.643c2.163,0.46,7.128,0.664,7.128,0.664s-2.349,0.665-3.986,1.309
				c-1.742,0.686-1.457,2.059,0.171,2.151c1.627,0.092,8.943,0.124,14.753,0.843l74.356,14.254
				c14.014,2.332,25.919-10.29,22.772-24.144l-16.471-72.516c0-0.137-0.003-0.277-0.024-0.429
				c-0.806-5.799-0.947-13.113-1.064-14.739C222.731,88.993,221.354,88.728,220.694,90.481z"/>
		</g>
	</g>
</g>
<g id="TEXT">
	<text transform="matrix(1 0 0 1 103.3276 398.2989)" style="fill:#4A2559; font-family:'Montserrat-Bold'; font-size:59.9331px;">CULTURE</text>
	
		<text transform="matrix(1 0 0 1 150.5415 419.9629)" style="fill:#92278F; font-family:'Quicksand-Bold'; font-size:17.191px; letter-spacing:1;">YOUR TAGLINE HERE</text>
</g>
</svg>
