<?xml version="1.0" encoding="utf-8"?>
<!-- Generator: Adobe Illustrator 27.5.0, SVG Export Plug-In . SVG Version: 6.00 Build 0)  -->
<svg version="1.1" xmlns="http://www.w3.org/2000/svg" xmlns:xlink="http://www.w3.org/1999/xlink" x="0px" y="0px"
	 viewBox="0 0 500 500" style="enable-background:new 0 0 500 500;" xml:space="preserve">
<g id="BACKGROUND">
	<rect style="fill:transparent;" width="500" height="500"/>
</g>
<g id="OBJECTS">
	<g>
		<ellipse style="fill:#E3E8E7;" cx="250" cy="291.178" rx="31.22" ry="7.524"/>
		<g>
			<g>
				<path style="fill:#FFD550;" d="M228.862,158.133l19.537,25.109l-0.371,48.497h-2.398c-0.051-0.878-0.152-1.705-0.304-2.516
					c-1.351-7.193-6.417-12.023-6.417-12.023c-9.811-10.149-12.766-20.635-13.644-26.005c0-0.034-0.017-0.068-0.017-0.084
					c-0.321-1.993-0.355-3.276-0.372-3.546c0-0.051,0-0.068,0-0.068l16.903,9.608l-13.059-12.762
					c-2.683-2.622-3.952-6.349-3.501-10.073C225.9,168.64,227.212,163.218,228.862,158.133z"/>
				<path style="fill:#00C3AD;" d="M273.874,168.653l-22.239,17.241l-0.49-64.116c0,0,5.269,6.16,10.879,16.038
					c1.642,2.891,1.834,6.387,0.483,9.424l-4.085,9.188l7.396-11.364c1.013,2.094,2.009,4.289,2.938,6.569l-10.537,17.021
					l12.85-10.655C272.202,161.409,273.164,164.972,273.874,168.653z"/>
				<path style="fill:#FF7859;" d="M248.85,121.771l-0.427,57.563l-18.671-24.115c1.214-3.397,3.408-8.063,4.419-10.155
					l7.404,11.362l-4.083-9.175c-1.352-3.038-1.16-6.536,0.482-9.428C243.59,127.933,248.85,121.771,248.85,121.771z"/>
				<path style="fill:#FF4653;" d="M258.22,197.106l16.903-9.591c0,0,0,0,0,0.051c-0.017,0.287-0.051,1.553-0.372,3.546
					c0,0.034-0.017,0.034-0.034,0.084c-0.219,1.334-0.574,3.006-1.115,4.897c-1.655,5.707-5.15,13.492-12.512,21.108
					c0,0-5.066,4.829-6.417,12.006v0.017c-0.152,0.827-0.27,1.655-0.304,2.499h-2.398l-0.304-42.654l22.712-17.595
					c0.017,0.118,0.034,0.253,0.051,0.388c0.101,0.557,0.169,1.114,0.236,1.672c0.084,0.54,0.152,1.081,0.203,1.621
					c0.085,0.777,0.169,1.57,0.219,2.347c0.001,0.01,0.002,0.02,0.003,0.029c0.156,1.831-0.555,3.631-1.869,4.915L258.22,197.106z"
					/>
			</g>
			<path style="fill:#30325E;" d="M269.407,263.099l-9.114-14.53v-6.554h2.075c1.049,0,1.899-0.85,1.899-1.899v-6.495
				c0-1.049-0.85-1.899-1.899-1.899h-24.737c-1.049,0-1.899,0.85-1.899,1.899v6.495c0,1.049,0.85,1.899,1.899,1.899h2.075v6.554
				l-9.115,14.53c-0.713,1.137-0.671,2.592,0.106,3.686l16.596,23.347c0.33,0.465,0.751,0.813,1.216,1.046V265.47
				c-0.901-0.518-1.515-1.48-1.515-2.594c0-1.659,1.345-3.003,3.003-3.003c1.659,0,3.003,1.345,3.003,3.003
				c0,1.114-0.614,2.075-1.515,2.594v25.708c0.465-0.233,0.885-0.581,1.216-1.046l16.597-23.347
				C270.079,265.691,270.121,264.236,269.407,263.099z"/>
		</g>
		<g>
			<path style="fill:#30325E;" d="M220.233,206.31c-0.864-0.039-1.69-0.122-2.478-0.24c-5.386-0.806-9.547-5.118-10.421-10.494
				c-0.368-2.26-0.501-4.57-0.391-6.887c0.023-0.486,0.079-0.943,0.118-1.414c3.711,4.687,7.946,6.804,7.946,6.804
				c-1.483-1.208-2.708-2.569-3.722-3.985c-2.983-4.168-3.41-9.631-1.408-14.349c3.086-7.274,9.184-10.954,9.184-10.954
				c-8.21,37.746,20.516,58.658,20.516,58.658c-9.929-5.512-19.2-6.107-24.142-11.307c-1.585-1.667-2.949-3.499-4.101-5.447
				C216.349,207.734,220.233,206.31,220.233,206.31z"/>
		</g>
		<g>
			<path style="fill:#30325E;" d="M279.767,206.31c0.864-0.039,1.69-0.122,2.478-0.24c5.386-0.806,9.547-5.118,10.422-10.494
				c0.368-2.26,0.5-4.57,0.391-6.887c-0.023-0.486-0.079-0.943-0.118-1.414c-3.711,4.687-7.946,6.804-7.946,6.804
				c1.483-1.208,2.708-2.569,3.722-3.985c2.983-4.168,3.41-9.631,1.408-14.349c-3.086-7.274-9.184-10.954-9.184-10.954
				c8.21,37.746-20.516,58.658-20.516,58.658c9.929-5.512,19.2-6.107,24.142-11.307c1.585-1.667,2.949-3.499,4.101-5.447
				C283.651,207.734,279.767,206.31,279.767,206.31z"/>
		</g>
	</g>
</g>
<g id="TEXTS">
	<g>
		
			<text transform="matrix(1 0 0 1 148.292 351.7894)" style="fill:#30325E; font-family:'RubikRoman-Bold'; font-size:39.0589px; letter-spacing:5;">CREATIVE</text>
		
			<text transform="matrix(1 0 0 1 160.4395 371.0052)" style="fill:#FF7859; font-family:'Rubik-Light'; font-size:16px; letter-spacing:1;">PUBLISHING COMPANY</text>
	</g>
</g>
</svg>
