<?xml version="1.0" encoding="UTF-8"?>
<!DOCTYPE svg PUBLIC "-//W3C//DTD SVG 1.1//EN" "http://www.w3.org/Graphics/SVG/1.1/DTD/svg11.dtd">
<!-- Creator: CorelDRAW -->
<svg xmlns="http://www.w3.org/2000/svg" xml:space="preserve" width="500px" height="500px" style="shape-rendering:geometricPrecision; text-rendering:geometricPrecision; image-rendering:optimizeQuality; fill-rule:evenodd; clip-rule:evenodd"
viewBox="0 0 500 500"
 xmlns:xlink="http://www.w3.org/1999/xlink">
 <defs>
  <style type="text/css">
   <![CDATA[
    .fil6 {fill:#6C4935;fill-rule:nonzero}
    .fil0 {fill:#7F543B;fill-rule:nonzero}
    .fil4 {fill:#98633D;fill-rule:nonzero}
    .fil3 {fill:#9D6C49;fill-rule:nonzero}
    .fil5 {fill:#AD764D;fill-rule:nonzero}
    .fil2 {fill:#BE8756;fill-rule:nonzero}
    .fil1 {fill:#D4A26E;fill-rule:nonzero}
   ]]>
  </style>
 </defs>
 <g id="Layer_x0020_1">
  <metadata id="CorelCorpID_0Corel-Layer"/>
  <g id="_534071656">
   <polygon id="_534079192" class="fil0" points="358.157,181.854 452.75,224.551 371.706,348.856 278.113,303.822 "/>
   <polygon id="_534079720" class="fil1" points="26.8465,193.43 153.169,77.901 387.605,180.456 284.078,317.93 "/>
   <polygon id="_534079936" class="fil2" points="25.8001,261.225 271.585,380.415 284.078,317.93 26.8465,193.43 "/>
   <polygon id="_534079528" class="fil2" points="381.496,364.136 284.078,317.93 296.348,301.637 370.983,336.962 444.356,224.901 376.505,195.197 387.605,180.456 474.2,218.292 "/>
   <polygon id="_534079408" class="fil3" points="362.426,422.099 381.496,364.136 284.078,317.93 271.585,380.415 "/>
   <polygon id="_534079696" class="fil4" points="474.2,218.292 452.463,276.485 362.426,422.099 381.496,364.136 "/>
   <polygon id="_534079792" class="fil5" points="370.983,336.962 381.496,364.136 474.2,218.292 444.356,224.901 "/>
   <polygon id="_534079384" class="fil6" points="350.948,229.135 420.592,261.193 444.356,224.901 376.505,195.197 "/>
  </g>
 </g>
</svg>
