<?xml version="1.0" encoding="UTF-8"?>
<!DOCTYPE svg PUBLIC "-//W3C//DTD SVG 1.1//EN" "http://www.w3.org/Graphics/SVG/1.1/DTD/svg11.dtd">
<!-- Creator: CorelDRAW -->
<svg xmlns="http://www.w3.org/2000/svg" xml:space="preserve" width="500px" height="500px" style="shape-rendering:geometricPrecision; text-rendering:geometricPrecision; image-rendering:optimizeQuality; fill-rule:evenodd; clip-rule:evenodd"
viewBox="0 0 500 500"
 xmlns:xlink="http://www.w3.org/1999/xlink">
 <defs>
  <style type="text/css">
   <![CDATA[
    .fil3 {fill:#7D4E26;fill-rule:nonzero}
    .fil1 {fill:#CB7A25;fill-rule:nonzero}
    .fil0 {fill:#E1A317;fill-rule:nonzero}
    .fil2 {fill:#FCC446;fill-rule:nonzero}
   ]]>
  </style>
 </defs>
 <g id="Layer_x0020_1">
  <metadata id="CorelCorpID_0Corel-Layer"/>
  <g id="_534053440">
   <polygon id="_265957184" class="fil0" points="352.749,18.7926 314.166,21.8705 353.147,73.5735 "/>
   <polygon id="_265956296" class="fil1" points="121.072,89.4735 161.65,114.996 172.447,490.001 134.489,447.458 "/>
   <polygon id="_265956656" class="fil0" points="364.529,438.952 172.447,490.001 161.65,114.996 378.93,89.4735 "/>
   <polygon id="_265956488" class="fil2" points="121.072,89.4735 339.005,67.8746 378.93,89.4735 161.65,114.996 "/>
   <polygon id="_265956200" class="fil1" points="295.919,9.99924 323.625,14.3729 378.93,89.4735 339.005,67.8746 295.68,9.99924 "/>
   <polygon id="_265956416" class="fil0" points="314.166,21.8705 169.693,33.3922 180.301,44.3151 143.66,100.134 200.916,94.0562 201.57,63.2943 300.395,55.4411 300.395,84.2377 353.179,79.6006 353.147,73.5735 "/>
   <polygon id="_265956128" class="fil1" points="161.65,114.996 203.303,30.7123 178.338,18.7926 121.072,89.4735 "/>
   <polygon id="_265955552" class="fil0" points="169.693,33.3922 139.399,35.8088 143.325,97.9798 143.66,97.9586 180.301,44.3151 "/>
   <polygon id="_265953920" class="fil3" points="206.376,304.086 210.271,439.315 326.485,408.431 331.774,280.103 "/>
  </g>
 </g>
</svg>
