<?xml version="1.0" encoding="UTF-8"?>
<!DOCTYPE svg PUBLIC "-//W3C//DTD SVG 1.1//EN" "http://www.w3.org/Graphics/SVG/1.1/DTD/svg11.dtd">
<!-- Creator: CorelDRAW -->
<svg xmlns="http://www.w3.org/2000/svg" xml:space="preserve" width="500px" height="500px" style="shape-rendering:geometricPrecision; text-rendering:geometricPrecision; image-rendering:optimizeQuality; fill-rule:evenodd; clip-rule:evenodd"
viewBox="0 0 500 500"
 xmlns:xlink="http://www.w3.org/1999/xlink">
 <defs>
  <style type="text/css">
   <![CDATA[
    .fil0 {fill:#7D4E26;fill-rule:nonzero}
    .fil1 {fill:#CB7A25;fill-rule:nonzero}
    .fil2 {fill:#E1A317;fill-rule:nonzero}
    .fil3 {fill:#FCC446;fill-rule:nonzero}
   ]]>
  </style>
 </defs>
 <g id="Layer_x0020_1">
  <metadata id="CorelCorpID_0Corel-Layer"/>
  <g id="_265954256">
   <polygon id="_265955792" class="fil0" points="13.1268,148.785 271.152,31.5532 486.874,105.276 237.31,243.655 "/>
   <polygon id="_265955696" class="fil1" points="237.31,471.468 27.0225,363.907 13.1268,148.785 237.31,243.655 "/>
   <polygon id="_265955816" class="fil2" points="237.31,471.468 472.975,313.75 486.874,105.276 237.31,243.655 "/>
   <polygon id="_265955336" class="fil3" points="13.1268,148.785 112.832,153.013 369.646,28.5332 271.152,31.5532 "/>
   <polygon id="_265955408" class="fil3" points="486.874,105.276 381.733,33.9722 125.217,155.431 237.31,243.655 "/>
   <path id="_265954544" class="fil0" d="M105.77 273.334l-54.2919 -24.1713 0 -54.2872 54.2919 24.169 0 54.2895zm1.64528 -56.8466l-57.5836 -25.6395c-0.909452,-0.402757 -1.6441,0.00354332 -1.6441,0.914176l0 57.5813c0,0.908271 0.734648,1.97127 1.6441,2.37757l57.5836 25.6359c0.910633,0.4063 1.6441,-0.00354332 1.6441,-0.911814l0 -57.5777c0,-0.911814 -0.733467,-1.97717 -1.6441,-2.37993z"/>
   <path id="_265954520" class="fil0" d="M63.4927 224.118c4.17285,1.8626 7.56026,6.75593 7.56026,10.9323 0,-3.74056 2.72009,-5.61262 6.27876,-4.6382l0 21.4194c0,1.93347 -1.56969,2.80513 -3.5008,1.94174 -1.93111,-0.857483 -3.50316,-3.12875 -3.50316,-5.0634 0,-0.865751 -0.703939,-1.88268 -1.57323,-2.2689 -0.868113,-0.383859 -1.57205,0.00354332 -1.57205,0.871656 0,3.66615 2.98229,7.97247 6.64845,9.60357 3.66379,1.63111 6.6449,-0.0212599 6.6449,-3.68623l0 -21.2906c3.27284,2.28662 5.70356,6.31537 5.70356,9.8457 0,-4.17639 3.38623,-6.05435 7.56498,-4.19529 4.13387,1.84134 7.48349,6.65553 7.55081,10.8048l0.0236221 -0.478348c0,-11.9115 -9.17838,-25.7446 -20.843,-31.884l0 -4.48466c0,-0.865751 -0.703939,-1.88268 -1.57087,-2.27009 -0.868113,-0.386222 -1.57323,0.00118111 -1.57323,0.872837l0 4.45277c-11.9304,-4.6382 -21.4028,1.00158 -21.4028,13.102l0.0188977 0.414568c0.108662,-4.03112 3.43702,-5.82876 7.54491,-4.00159z"/>
   <path id="_265954880" class="fil0" d="M179.418 306.127l-54.2895 -24.1749 0 -54.2895 54.2895 24.1749 0 54.2895zm1.64764 -56.8514l-57.5789 -25.6324c-0.910633,-0.408663 -1.64646,0.00236221 -1.64646,0.908271l0 57.5813c0,0.910633 0.735829,1.97363 1.64646,2.37993l57.5789 25.6359c0.908271,0.403938 1.64646,-0.00354332 1.64646,-0.914176l0 -57.5777c0,-0.911814 -0.738191,-1.97599 -1.64646,-2.38111z"/>
   <polygon id="_265955192" class="fil0" points="151.349,256.644 136.922,244.019 136.922,256.423 151.349,269.047 "/>
   <polygon id="_265955168" class="fil0" points="167.628,257.69 153.201,257.469 153.201,269.871 167.628,270.091 "/>
   <polygon id="_265955144" class="fil0" points="167.628,255.328 152.274,243.304 136.922,241.658 152.274,254.696 "/>
   <path id="_265954712" class="fil0" d="M133.458 281.936l8.18625 3.64253 -0.230316 -0.444096c0.659057,-0.589372 1.82835,-12.9957 1.32048,-14.4119l-6.95199 -13.3937c-0.454726,-0.874019 -1.36772,-1.46103 -2.04804,-1.30748 -0.67323,0.157087 -0.850396,0.994491 -0.396852,1.86733l3.94017 7.59569 -0.682679 0.155906 -3.94017 -7.59215c-0.644884,-1.24252 -0.43819,-2.39883 0.393308,-2.78387 -0.510238,-1.97363 -0.804333,-3.84568 -0.804333,-5.3634 0,-2.87481 -3.90001,-5.79923 -3.90001,-0.435828 0,12.3615 6.38388,18.0603 6.38388,22.4032 0,5.8949 -1.26969,10.0677 -1.26969,10.0677z"/>
   <path id="_265954568" class="fil0" d="M162.74 294.629l-0.230316 0.238583 8.18507 3.64489c0,0 -1.26733,-5.30553 -1.26733,-11.1992 0,-4.34056 6.38624,-4.35474 6.38624,-16.7162 0,-5.35986 -3.90474,-5.90789 -3.90474,-3.03544 0,1.51654 -0.290552,3.12639 -0.803152,4.64647 0.83268,1.12559 1.03937,2.46733 0.394489,3.13466l-3.94371 4.08308 -0.676774 -0.762995 3.93663 -4.08308c0.457088,-0.47008 0.276379,-1.46811 -0.395671,-2.22284 -0.676774,-0.759451 -1.59331,-0.986224 -2.04804,-0.518506l-6.95199 7.20475c-0.510238,0.959058 0.663782,14.4095 1.3193,15.5859z"/>
  </g>
 </g>
</svg>
