<?xml version="1.0" encoding="UTF-8"?>
<!DOCTYPE svg PUBLIC "-//W3C//DTD SVG 1.1//EN" "http://www.w3.org/Graphics/SVG/1.1/DTD/svg11.dtd">
<!-- Creator: CorelDRAW -->
<svg xmlns="http://www.w3.org/2000/svg" xml:space="preserve" width="500px" height="500px" style="shape-rendering:geometricPrecision; text-rendering:geometricPrecision; image-rendering:optimizeQuality; fill-rule:evenodd; clip-rule:evenodd"
viewBox="0 0 500 500"
 xmlns:xlink="http://www.w3.org/1999/xlink">
 <defs>
  <style type="text/css">
   <![CDATA[
    .fil0 {fill:none}
    .fil11 {fill:#856949}
    .fil10 {fill:#8A6D4C}
    .fil9 {fill:#8F714E}
    .fil21 {fill:#8F714F}
    .fil1 {fill:#947551}
    .fil13 {fill:#94806B}
    .fil20 {fill:#967753}
    .fil2 {fill:#997954}
    .fil3 {fill:#9E7D57}
    .fil4 {fill:#A3815A}
    .fil14 {fill:#A6835C}
    .fil5 {fill:#A8855C}
    .fil6 {fill:#AD895F}
    .fil15 {fill:#AD8960}
    .fil7 {fill:#B38D62}
    .fil16 {fill:#B58F64}
    .fil8 {fill:#B89165}
    .fil17 {fill:#BD9568}
    .fil18 {fill:#C2996B}
    .fil19 {fill:#CCA171}
    .fil12 {fill:#DCAD79}
    .fil22 {fill:#E6B47E}
   ]]>
  </style>
 </defs>
 <g id="Layer_x0020_1">
  <metadata id="CorelCorpID_0Corel-Layer"/>
  <g id="_532981328">
   <g>
    <g>
     <g>
      <g>
       <path id="_540673400" class="fil0" d="M443.568 160.158l-0.520868 183.837c-0.0791341,28.4647 -18.7855,56.8892 -56.164,78.6062 -75.2435,43.7281 -197.647,43.7281 -273.386,0 -38.0978,-21.9957 -57.1266,-50.8761 -57.0474,-79.7128l0.520868 -183.837c-0.0838585,28.8367 18.9497,57.7171 57.0474,79.7128 75.7396,43.7281 198.138,43.7281 273.386,0 37.3785,-21.7182 56.0848,-50.1368 56.164,-78.6062z"/>
      </g>
      <g>
       <path id="_540674024" class="fil1" d="M443.568 160.158l-0.520868 183.837c0,0.56575 -0.00944885,1.1315 -0.0248032,1.69607l0.520868 -183.837c0.0153544,-0.56575 0.0248032,-1.13032 0.0248032,-1.69607z"/>
       <path id="_540673736" class="fil2" d="M443.543 161.859l-0.520868 183.837c-0.103937,3.70513 -0.530317,7.40672 -1.26496,11.087l0.520868 -183.837c0.734648,-3.68505 1.1563,-7.38546 1.26496,-11.087z"/>
       <path id="_540673952" class="fil3" d="M442.273 172.946l-0.520868 183.837c-0.728742,3.6508 -1.77048,7.2827 -3.12048,10.8792l0.520868 -183.837c1.35,-3.60119 2.39174,-7.23309 3.12048,-10.8792z"/>
       <path id="_540674216" class="fil4" d="M439.153 183.825l-0.520868 183.837c-1.38898,3.70041 -3.10513,7.36656 -5.14962,10.9878l0.520868 -183.837c2.04449,-3.61655 3.76064,-7.28742 5.14962,-10.9878z"/>
       <path id="_540673568" class="fil5" d="M434.005 194.813l-0.520868 183.837c-2.20749,3.91419 -4.80238,7.76813 -7.77876,11.5489l0.520868 -183.837c2.97639,-3.78072 5.57128,-7.63467 7.77876,-11.5489z"/>
       <path id="_540673616" class="fil6" d="M426.226 206.362l-0.520868 183.837c-3.47245,4.41025 -7.4705,8.71538 -11.9847,12.8882l0.520868 -183.837c4.51891,-4.17285 8.51223,-8.47916 11.9847,-12.8882z"/>
       <path id="_540673928" class="fil7" d="M414.241 219.249l-0.520868 183.837c-6.92955,6.39923 -15.0898,12.476 -24.4761,18.1217l0.520868 -183.837c9.38507,-5.64569 17.5453,-11.7225 24.4761,-18.1217z"/>
       <path id="_540674168" class="fil8" d="M389.765 237.37l-0.520868 183.837c-0.778349,0.466537 -1.5626,0.933074 -2.35631,1.39371 -12.893,7.49057 -27.169,13.7008 -42.3592,18.6272l0.520868 -183.837c15.189,-4.92639 29.4662,-11.1319 42.3592,-18.6272 0.788979,-0.461812 1.57796,-0.922444 2.35631,-1.39371z"/>
       <path id="_540673640" class="fil7" d="M345.045 257.391l-0.520868 183.837c-11.7272,3.80434 -24.0001,6.84097 -36.6001,9.11223l0.520868 -183.837c12.6,-2.27127 24.8729,-5.30789 36.6001,-9.11223z"/>
       <path id="_540673856" class="fil6" d="M308.451 266.504l-0.520868 183.837c-8.10593,1.46339 -16.3406,2.60434 -24.6591,3.43229l0.520868 -183.837c8.31381,-0.827955 16.5532,-1.97363 24.6591,-3.43229z"/>
       <path id="_540674480" class="fil5" d="M283.79 269.937l-0.520868 183.837c-7.10317,0.709845 -14.2619,1.18583 -21.4394,1.42914l0.520868 -183.837c7.17758,-0.243308 14.3363,-0.720475 21.4394,-1.42914z"/>
       <path id="_540674720" class="fil4" d="M262.351 271.365l-0.520868 183.837c-6.59293,0.223229 -13.2,0.257481 -19.7977,0.0944885l0.520868 -183.837c6.59293,0.164174 13.2048,0.134646 19.7977,-0.0944885z"/>
       <path id="_540674816" class="fil3" d="M242.548 271.46l-0.520868 183.837c-6.36498,-0.158268 -12.7241,-0.496065 -19.0442,-1.01693l0.520868 -183.837c6.32482,0.516143 12.6792,0.858664 19.0442,1.01693z"/>
       <path id="_540674648" class="fil2" d="M223.509 270.438l-0.520868 183.837c-6.30947,-0.520868 -12.58,-1.22008 -18.7961,-2.09883l0.520868 -183.837c6.21144,0.883467 12.4867,1.58268 18.7961,2.09883z"/>
       <path id="_540674624" class="fil1" d="M204.713 268.339l-0.520868 183.837c-6.46419,-0.917719 -12.8575,-2.02914 -19.1682,-3.33308l0.520868 -183.837c6.30593,1.30512 12.7052,2.41536 19.1682,3.33308z"/>
       <path id="_540674672" class="fil9" d="M185.545 265.006l-0.520868 183.837c-6.84097,-1.41851 -13.5768,-3.06615 -20.165,-4.94057l0.520868 -183.837c6.58821,1.87442 13.3252,3.52206 20.165,4.94057z"/>
       <path id="_540674384" class="fil10" d="M165.38 260.065l-0.520868 183.837c-8.06105,-2.29725 -15.9083,-4.94057 -23.4733,-7.92758l0.520868 -183.837c7.56498,2.98702 15.4123,5.62561 23.4733,7.92758z"/>
       <path id="_540674360" class="fil11" d="M141.906 252.138l-0.520868 183.837c-9.81735,-3.87403 -19.1634,-8.33388 -27.8836,-13.3689 -38.0978,-21.9957 -57.1266,-50.8761 -57.0474,-79.7128l0.520868 -183.837c-0.0838585,28.8367 18.9497,57.7171 57.0474,79.7128 8.72011,5.03506 18.0662,9.49019 27.8836,13.3689z"/>
      </g>
     </g>
     <g>
      <path id="_540675176" class="fil12" d="M386.496 80.4251c75.7396,43.7281 76.1554,114.616 0.912995,158.344 -75.2435,43.7281 -197.647,43.7281 -273.386,0 -75.7148,-43.7127 -76.1164,-114.616 -0.868113,-158.344 75.2424,-43.7281 197.621,-43.7175 273.341,0z"/>
     </g>
    </g>
   </g>
   <path id="_540674936" class="fil0" d="M456.272 164.632l-0.148819 52.5238c-0.0838585,30.3686 -20.041,60.6888 -59.9092,83.855 -80.2727,46.6501 -210.812,46.6348 -291.612,-0.00944885 -40.6525,-23.4686 -60.9569,-54.2789 -60.8718,-85.0408l0.148819 -52.5238c-0.0838585,30.7607 20.2194,61.5711 60.8718,85.0408 80.7995,46.6501 211.339,46.6596 291.612,0.00944885 39.8635,-23.1662 59.8207,-53.4852 59.9092,-83.855z"/>
   <path id="_532984976" class="fil13" d="M456.272 164.632l-0.148819 52.5238c0,0.604726 -0.00944885,1.20591 -0.0295277,1.81064l0.148819 -52.5238c0.0153544,-0.604726 0.0248032,-1.20473 0.0295277,-1.81064z"/>
   <path id="_532985600" class="fil14" d="M456.242 166.443l-0.148819 52.5238c-0.114567,3.95316 -0.56575,7.90278 -1.35473,11.8311l0.148819 -52.5238c0.788979,-3.92836 1.24134,-7.8768 1.35473,-11.8311z"/>
   <path id="_532984424" class="fil15" d="M454.889 178.274l-0.148819 52.5238c-0.778349,3.89411 -1.88977,7.76813 -3.33308,11.6079l0.148819 -52.5238c1.44213,-3.83978 2.55355,-7.7138 3.33308,-11.6079z"/>
   <path id="_532984232" class="fil16" d="M451.559 189.882l-0.148819 52.5238c-1.48347,3.94844 -3.31418,7.86262 -5.49096,11.7225l0.148819 -52.5238c2.17796,-3.85985 4.00867,-7.77404 5.49096,-11.7225z"/>
   <path id="_532984664" class="fil16" d="M446.068 201.604l-0.148819 52.5238c-2.35631,4.17167 -5.12482,8.289 -8.29963,12.3178l0.148819 -52.5238c3.17481,-4.02875 5.94333,-8.14136 8.29963,-12.3178z"/>
   <path id="_532983896" class="fil17" d="M437.769 213.921l-0.148819 52.5238c-3.70513,4.70789 -7.96656,9.30121 -12.789,13.7504l0.148819 -52.5238c4.82246,-4.44923 9.08389,-9.04255 12.789,-13.7504z"/>
   <path id="_532983920" class="fil18" d="M424.981 227.672l-0.148819 52.5238c-7.39136,6.82561 -16.0926,13.3099 -26.1024,19.3264l0.148819 -52.5238c10.0099,-6.01774 18.7111,-12.5008 26.1024,-19.3264z"/>
   <path id="_532981952" class="fil19" d="M398.877 247.004l-0.148819 52.5238c-0.827955,0.500789 -1.66654,0.996854 -2.51457,1.48819 -13.7563,7.99136 -28.9855,14.6138 -45.1868,19.8674l0.148819 -52.5238c16.2012,-5.25356 31.4351,-11.876 45.1868,-19.8674 0.848034,-0.496065 1.68662,-0.992129 2.51457,-1.48819z"/>
   <path id="_532983392" class="fil18" d="M351.176 268.359l-0.148819 52.5238c-12.5056,4.05828 -25.5969,7.29215 -39.0308,9.71814l0.148819 -52.5238c13.4339,-2.42599 26.5206,-5.66458 39.0308,-9.71814z"/>
   <path id="_532983704" class="fil17" d="M312.146 278.077l-0.148819 52.5238c-8.64097,1.55788 -17.4272,2.77796 -26.2961,3.66143l0.148819 -52.5238c8.86893,-0.883467 17.654,-2.10355 26.2961,-3.66143z"/>
   <path id="_532982792" class="fil16" d="M285.849 281.739l-0.148819 52.5238c-7.57443,0.753546 -15.2091,1.26024 -22.8639,1.52245l0.148819 -52.5238c7.65475,-0.263387 15.2894,-0.7689 22.8639,-1.52245z"/>
   <path id="_532982720" class="fil15" d="M262.986 283.261l-0.148819 52.5238c-7.02876,0.238583 -14.0788,0.272836 -21.117,0.0992129l0.148819 -52.5238c7.03821,0.173623 14.0871,0.144095 21.117,-0.0992129z"/>
   <path id="_532983080" class="fil14" d="M241.868 283.36l-0.148819 52.5238c-6.78664,-0.168898 -13.5674,-0.530317 -20.3091,-1.08662l0.148819 -52.5238c6.74175,0.556301 13.5237,0.917719 20.3091,1.08662z"/>
   <path id="_532982744" class="fil4" d="M221.559 282.274l-0.148819 52.5238c-6.7264,-0.55512 -13.4185,-1.29922 -20.0457,-2.24174l0.148819 -52.5238c6.62719,0.937798 13.3193,1.68662 20.0457,2.24174z"/>
   <path id="_532983104" class="fil3" d="M201.513 280.032l-0.148819 52.5238c-6.8953,-0.976775 -13.7209,-2.16261 -20.4426,-3.55631l0.148819 -52.5238c6.7264,1.39371 13.552,2.57835 20.4426,3.55631z"/>
   <path id="_532982312" class="fil3" d="M181.071 276.474l-0.148819 52.5238c-7.3016,-1.513 -14.4851,-3.2693 -21.5138,-5.27364l0.148819 -52.5238c7.02876,2.00552 14.2122,3.76064 21.5138,5.27364z"/>
   <path id="_532982144" class="fil20" d="M159.557 271.202l-0.148819 52.5238c-8.602,-2.4508 -16.9749,-5.27364 -25.0465,-8.4579l0.148819 -52.5238c8.0705,3.18899 16.4445,6.00711 25.0465,8.4579z"/>
   <path id="_532982264" class="fil21" d="M134.51 262.744l-0.148819 52.5238c-10.4764,-4.13741 -20.4473,-8.89491 -29.7591,-14.2666 -40.6525,-23.4686 -60.9569,-54.2789 -60.8718,-85.0408l0.148819 -52.5238c-0.0838585,30.7607 20.2194,61.5711 60.8718,85.0408 9.31066,5.37639 19.2816,10.1339 29.7591,14.2666z"/>
   <g>
    <path id="_532959080" class="fil22" d="M395.391 79.577c80.7995,46.6501 81.2211,122.275 0.97205,168.91 -80.2727,46.6501 -210.812,46.6395 -291.612,-0.00944885 -80.7794,-46.6348 -81.2211,-122.25 -0.951972,-168.901 80.2526,-46.6348 210.817,-46.6348 291.591,0z"/>
   </g>
  </g>
 </g>
</svg>
