<?xml version="1.0" encoding="UTF-8"?>
<!DOCTYPE svg PUBLIC "-//W3C//DTD SVG 1.1//EN" "http://www.w3.org/Graphics/SVG/1.1/DTD/svg11.dtd">
<!-- Creator: CorelDRAW -->
<svg xmlns="http://www.w3.org/2000/svg" xml:space="preserve" width="500px" height="500px" style="shape-rendering:geometricPrecision; text-rendering:geometricPrecision; image-rendering:optimizeQuality; fill-rule:evenodd; clip-rule:evenodd"
viewBox="0 0 500 500"
 xmlns:xlink="http://www.w3.org/1999/xlink">
 <defs>
  <style type="text/css">
   <![CDATA[
    .fil0 {fill:#665139}
    .fil5 {fill:#806546}
    .fil1 {fill:#896C4B}
    .fil4 {fill:#AA865E}
    .fil2 {fill:#C59B6C}
    .fil6 {fill:#D2A573}
    .fil3 {fill:#DCAD79}
   ]]>
  </style>
 </defs>
 <g id="Layer_x0020_1">
  <metadata id="CorelCorpID_0Corel-Layer"/>
  <g id="_532979024">
   <g>
    <polygon id="_532981328" class="fil0" points="456.929,239.359 311.112,324.1 164.357,239.37 310.174,154.63 "/>
   </g>
   <g>
    <g>
     <g>
      <polygon id="_532982144" class="fil1" points="447.669,175.896 447.31,302.83 310.012,223.56 310.372,96.6263 "/>
     </g>
     <g>
      <polygon id="_532983104" class="fil2" points="310.372,96.6263 310.012,223.56 173.621,302.826 173.979,175.891 "/>
     </g>
     <g>
      <polygon id="_532983080" class="fil1" points="311.341,266.097 310.982,393.035 154.75,302.833 155.109,175.9 "/>
     </g>
     <g>
      <polygon id="_532982792" class="fil2" points="466.556,175.896 466.197,302.83 310.982,393.035 311.341,266.097 "/>
     </g>
     <g>
      <path id="_532983392" class="fil3" d="M310.324 85.6987l156.232 90.2011 -155.215 90.1975 -156.232 -90.2011 155.215 -90.1975zm0.953153 169.462l136.392 -79.2605 -137.296 -79.2699 -136.393 79.2617 137.298 79.2688z"/>
     </g>
    </g>
   </g>
   <g>
    <g>
     <g>
      <polygon id="_532984664" class="fil4" points="301.375,218.209 316.442,228.621 225.877,414.301 210.81,403.89 "/>
     </g>
     <g>
      <polygon id="_532984424" class="fil5" points="210.81,403.89 225.877,414.301 48.5116,331.716 33.4442,321.306 "/>
     </g>
     <g>
      <polygon id="_532984976" class="fil6" points="124.004,135.621 301.375,218.209 210.81,403.89 33.4442,321.306 "/>
     </g>
    </g>
   </g>
  </g>
 </g>
</svg>
