<?xml version="1.0" encoding="UTF-8"?>
<!DOCTYPE svg PUBLIC "-//W3C//DTD SVG 1.1//EN" "http://www.w3.org/Graphics/SVG/1.1/DTD/svg11.dtd">
<!-- Creator: CorelDRAW -->
<svg xmlns="http://www.w3.org/2000/svg" xml:space="preserve" width="500px" height="500px" style="shape-rendering:geometricPrecision; text-rendering:geometricPrecision; image-rendering:optimizeQuality; fill-rule:evenodd; clip-rule:evenodd"
viewBox="0 0 500 500"
 xmlns:xlink="http://www.w3.org/1999/xlink">
 <defs>
  <style type="text/css">
   <![CDATA[
    .fil1 {fill:none}
    .fil0 {fill:#634E37}
    .fil14 {fill:#806546}
    .fil2 {fill:#856949}
    .fil3 {fill:#8A6D4C}
    .fil4 {fill:#8F714E}
    .fil5 {fill:#947551}
    .fil31 {fill:#967753}
    .fil6 {fill:#997954}
    .fil7 {fill:#9E7D57}
    .fil8 {fill:#A3815A}
    .fil9 {fill:#A8855C}
    .fil10 {fill:#AD895F}
    .fil13 {fill:#B28C62}
    .fil11 {fill:#B38D62}
    .fil12 {fill:#B89165}
    .fil16 {fill:#BD9568}
    .fil17 {fill:#C2996A}
    .fil18 {fill:#C79D6D}
    .fil19 {fill:#CCA170}
    .fil20 {fill:#D1A573}
    .fil21 {fill:#D6A976}
    .fil22 {fill:#DBAD78}
    .fil15 {fill:#DCAD79}
    .fil23 {fill:#E0B17B}
    .fil24 {fill:#E6B57E}
    .fil25 {fill:#EBB981}
    .fil26 {fill:#F0BD84}
    .fil27 {fill:#F5C186}
    .fil30 {fill:#F9C489}
    .fil28 {fill:#FAC589}
    .fil29 {fill:#FFC98C}
   ]]>
  </style>
 </defs>
 <g id="Layer_x0020_1">
  <metadata id="CorelCorpID_0Corel-Layer"/>
  <g id="_540672944">
   <g>
    <path id="_265942328" class="fil0" d="M447.779 252.316c15.8752,9.16538 25.7375,21.8304 25.8143,35.8241 0.174804,27.9745 -38.8548,50.6529 -87.1609,50.6529l-31.0147 -0.00826774 -149.575 0c-6.99215,0 -13.3335,-1.63938 -17.9233,-4.29332 -4.5945,-2.65395 -7.44097,-6.31419 -7.45514,-10.3595l-0.50197 -86.6495 -0.0980318 -17.9552c-0.157087,-27.9828 38.869,-50.6624 87.1609,-50.6529 24.1465,-0.00472442 46.0407,5.66222 61.9159,14.8288 15.8752,9.16538 25.7375,21.8304 25.8143,35.8229l0.103937 17.9552 31.0147 0.00944885c24.1324,-0.00944885 46.0253,5.65986 61.9053,14.8252z"/>
   </g>
   <g>
    <g>
     <g>
      <g>
       <path id="_265942688" class="fil1" d="M347.064 168.197l-0.300001 106.394c-0.0720475,-12.5292 -8.55948,-24.2954 -23.8926,-33.1466 -15.3319,-8.85239 -35.6765,-13.7292 -57.3049,-13.7292 -21.6095,0.00944885 -41.8997,4.86852 -57.1514,13.7339 -15.2327,8.85121 -23.5725,20.6316 -23.5016,33.1395l0.301182 -106.395c-0.0720475,-12.5079 8.26774,-24.2871 23.5016,-33.1395 15.2504,-8.86066 35.5371,-13.7197 57.1514,-13.728 21.6284,0 41.9718,4.87679 57.3049,13.728 15.3308,8.84648 23.8182,20.6127 23.8914,33.143z"/>
      </g>
      <g>
       <path id="_265942448" class="fil2" d="M347.064 168.197l-0.300001 106.394c-0.0720475,-12.5292 -8.55948,-24.2954 -23.8926,-33.1466 -3.67324,-2.12009 -7.63467,-4.01576 -11.8335,-5.66813l0.300001 -106.394c4.20001,1.65237 8.16026,3.54332 11.8347,5.66695 15.3308,8.85121 23.8182,20.6174 23.8914,33.1477z"/>
       <path id="_265942280" class="fil3" d="M311.338 129.381l-0.300001 106.395c-3.11694,-1.22717 -6.36262,-2.32205 -9.72287,-3.27875l0.300001 -106.395c3.35434,0.956696 6.60593,2.05158 9.72287,3.27875z"/>
       <path id="_265942568" class="fil4" d="M301.616 126.102l-0.300001 106.395c-2.73544,-0.781892 -5.54647,-1.46811 -8.41656,-2.06221l0.301182 -106.394c2.87009,0.592915 5.6764,1.28386 8.41538,2.06103z"/>
       <path id="_265942352" class="fil5" d="M293.195 124.041l-0.300001 106.394c-2.59607,-0.538584 -5.24057,-0.995672 -7.93113,-1.37835l0.300001 -106.394c2.68938,0.381497 5.33506,0.84331 7.93113,1.37835z"/>
       <path id="_265942400" class="fil6" d="M285.269 122.663l-0.300001 106.394c-2.57481,-0.3626 -5.18387,-0.654333 -7.82365,-0.8752l0.301182 -106.395c2.63977,0.220867 5.24884,0.5126 7.82247,0.876381z"/>
       <path id="_265941536" class="fil7" d="M277.445 121.791l-0.301182 106.395c-2.64095,-0.216142 -5.30789,-0.360237 -8.00199,-0.42756l0.300001 -106.394c2.69528,0.0625986 5.36695,0.205512 8.00317,0.426379z"/>
       <path id="_265942208" class="fil8" d="M269.442 121.36l-0.300001 106.395c-1.19055,-0.0307088 -2.37993,-0.044882 -3.57875,-0.044882 -1.61221,0 -3.21497,0.0259843 -4.80946,0.0814963l0.300001 -106.395c1.59449,-0.0531498 3.19725,-0.0814963 4.80946,-0.0814963 1.19882,0.00472442 2.39292,0.0177166 3.57875,0.044882z"/>
       <path id="_265941968" class="fil9" d="M261.053 121.4l-0.300001 106.395c-3.04017,0.103937 -6.04963,0.305906 -9.01302,0.59764l0.300001 -106.394c2.96458,-0.294095 5.97285,-0.496065 9.01302,-0.598821z"/>
       <path id="_265942088" class="fil10" d="M252.04 121.998l-0.300001 106.394c-3.50316,0.346064 -6.94254,0.826774 -10.3063,1.43268l0.300001 -106.394c3.36379,-0.607089 6.80435,-1.08189 10.3063,-1.43268z"/>
       <path id="_265941560" class="fil11" d="M241.733 123.43l-0.300001 106.394c-5.18269,0.935436 -10.1811,2.16969 -14.9292,3.69686l0.301182 -106.395c4.74687,-1.52245 9.74531,-2.76143 14.928,-3.69568z"/>
       <path id="_265941728" class="fil12" d="M226.805 127.126l-0.301182 106.395c-6.56104,2.10709 -12.6461,4.76104 -18.0898,7.92286 -0.376773,0.219686 -0.754727,0.440553 -1.12205,0.664963l0.300001 -106.395c0.368505,-0.22441 0.745278,-0.445277 1.12323,-0.664963 5.44372,-3.16182 11.5288,-5.81695 18.0898,-7.92286z"/>
       <path id="_265942016" class="fil11" d="M207.589 135.713l-0.301182 106.395c-3.87639,2.34331 -7.28388,4.87679 -10.1941,7.57089l0.300001 -106.394c2.91497,-2.69528 6.3201,-5.22758 10.1953,-7.57207z"/>
       <path id="_265941704" class="fil10" d="M197.398 143.285l-0.301182 106.394c-1.87205,1.73386 -3.53859,3.53033 -4.99254,5.38112l0.300001 -106.395c1.45512,-1.85079 3.12166,-3.64726 4.99372,-5.37994z"/>
       <path id="_265941848" class="fil9" d="M192.405 148.665l-0.300001 106.395c-1.22126,1.55315 -2.29489,3.14765 -3.21143,4.77403l0.300001 -106.395c0.916538,-1.62638 1.99016,-3.2197 3.21143,-4.77403z"/>
       <path id="_265941824" class="fil8" d="M189.193 153.439l-0.300001 106.394c-0.844491,1.49646 -1.55315,3.013 -2.13308,4.55907l0.300001 -106.395c0.579923,-1.54371 1.28859,-3.06261 2.13308,-4.55789z"/>
       <path id="_265977608" class="fil7" d="M187.06 157.997l-0.300001 106.395c-0.561025,1.49528 -0.996854,3.00828 -1.30276,4.54017l0.301182 -106.395c0.305906,-1.53189 0.740554,-3.04489 1.30158,-4.54017z"/>
       <path id="_265977560" class="fil6" d="M185.758 162.538l-0.301182 106.395c-0.30945,1.54489 -0.488978,3.10631 -0.53386,4.68427l0.300001 -106.395c0.044882,-1.57678 0.22441,-3.14056 0.535041,-4.68427z"/>
       <path id="_265977704" class="fil5" d="M185.223 167.221l-0.300001 106.395c-0.00944885,0.322442 -0.0141733,0.642522 -0.00944885,0.964964l0.301182 -106.394c-0.00472442,-0.323623 -0.00472442,-0.642522 0.00826774,-0.966145z"/>
      </g>
     </g>
     <g>
      <polygon id="_265977776" class="fil13" points="384.711,189.932 384.411,296.328 346.866,296.328 347.167,189.932 "/>
     </g>
     <g>
      <polygon id="_265977344" class="fil14" points="347.167,189.932 346.866,296.328 346.763,274.591 347.064,168.197 "/>
     </g>
     <g>
      <g>
       <path id="_265976816" class="fil1" d="M465.896 236.804l-0.301182 106.395c-0.0531498,-12.5209 -8.54058,-24.2871 -23.8737,-33.1383 -15.3319,-8.85239 -35.6765,-13.7292 -57.3049,-13.7292l0.301182 -106.394c21.6284,0 41.9718,4.87679 57.3049,13.728 15.3319,8.85121 23.8182,20.6233 23.8737,33.1383z"/>
      </g>
      <g>
       <path id="_265977392" class="fil2" d="M465.896 236.804l-0.301182 106.395c-0.0531498,-12.5209 -8.54058,-24.2871 -23.8737,-33.1383 -3.67324,-2.12009 -7.63467,-4.01576 -11.8335,-5.66695l0.300001 -106.395c4.20001,1.65237 8.16026,3.54332 11.8347,5.66695 15.3308,8.85121 23.8182,20.6233 23.8737,33.1383z"/>
       <path id="_265977512" class="fil3" d="M430.187 197.998l-0.301182 106.395c-3.11694,-1.22717 -6.36262,-2.32205 -9.72287,-3.27875l0.300001 -106.395c3.35552,0.955515 6.60711,2.05158 9.72405,3.27875z"/>
       <path id="_265977296" class="fil4" d="M420.463 194.72l-0.300001 106.395c-2.73544,-0.781892 -5.54647,-1.46811 -8.41656,-2.06221l0.301182 -106.394c2.87009,0.591734 5.6764,1.27914 8.41538,2.06103z"/>
       <path id="_265977488" class="fil5" d="M412.043 192.658l-0.300001 106.394c-2.59607,-0.538584 -5.24057,-0.995672 -7.93113,-1.37835l0.300001 -106.394c2.69056,0.381497 5.33624,0.838585 7.93113,1.37835z"/>
       <path id="_265977272" class="fil6" d="M404.117 191.28l-0.300001 106.394c-2.57363,-0.3626 -5.18269,-0.655514 -7.82365,-0.870475l0.301182 -106.395c2.64095,0.214961 5.25002,0.506695 7.82247,0.871656z"/>
       <path id="_265977464" class="fil7" d="M396.294 190.408l-0.301182 106.395c-2.64095,-0.220867 -5.30789,-0.360237 -8.00199,-0.42756l0.300001 -106.394c2.69528,0.0625986 5.36222,0.205512 8.00317,0.426379z"/>
       <path id="_265977008" class="fil8" d="M388.291 189.977l-0.300001 106.395c-1.19055,-0.0318899 -2.38465,-0.044882 -3.57875,-0.044882l0.300001 -106.395c1.19882,0 2.39292,0.0165355 3.57875,0.044882z"/>
      </g>
     </g>
     <g>
      <polygon id="_265976432" class="fil14" points="172.743,272.804 172.443,379.199 171.867,274.591 172.169,168.197 "/>
     </g>
     <g>
      <g>
       <path id="_265976600" class="fil1" d="M478.954 236.804l-0.300001 106.395c0.0814963,14.5512 -9.61066,28.2119 -27.3095,38.5017 -17.6859,10.2756 -41.2407,15.9343 -66.3581,15.9343l0.300001 -106.395c25.1186,0 48.6781,-5.65868 66.3581,-15.9343 17.6989,-10.2898 27.391,-23.9505 27.3095,-38.5017z"/>
      </g>
      <g>
       <path id="_265976312" class="fil5" d="M478.954 236.804l-0.300001 106.395c0,0.377954 -0.00472442,0.750002 -0.0141733,1.12678l0.300001 -106.394c0.01063,-0.377954 0.0141733,-0.750002 0.0141733,-1.12796z"/>
       <path id="_265976720" class="fil6" d="M478.941 237.931l-0.300001 106.394c-0.0531498,1.83308 -0.261024,3.65198 -0.620081,5.44372l0.300001 -106.395c0.355513,-1.79528 0.56575,-3.61064 0.620081,-5.44254z"/>
       <path id="_265976072" class="fil7" d="M478.317 243.375l-0.301182 106.394c-0.354332,1.77875 -0.861026,3.53977 -1.513,5.27364l0.301182 -106.395c0.649608,-1.73504 1.15748,-3.49489 1.513,-5.27246z"/>
       <path id="_265976288" class="fil8" d="M476.803 248.651l-0.301182 106.395c-0.67323,1.79174 -1.5,3.55631 -2.47442,5.29136l0.301182 -106.395c0.974413,-1.73859 1.80591,-3.50434 2.47442,-5.29136z"/>
       <path id="_265976144" class="fil9" d="M474.329 253.937l-0.301182 106.395c-1.063,1.88623 -2.30788,3.73584 -3.72285,5.53821l0.300001 -106.395c1.41497,-1.80119 2.65985,-3.65198 3.72403,-5.53821z"/>
       <path id="_265976240" class="fil10" d="M470.601 259.48l-0.301182 106.394c-1.6878,2.14725 -3.62363,4.23545 -5.79687,6.24687l0.300001 -106.395c2.17796,-2.01142 4.10907,-4.09962 5.79805,-6.24569z"/>
       <path id="_265976744" class="fil11" d="M464.803 265.725l-0.300001 106.395c-3.38269,3.12993 -7.34766,6.08152 -11.8559,8.80633l0.300001 -106.394c4.51301,-2.72599 8.47444,-5.67758 11.8559,-8.80751z"/>
       <path id="_265975376" class="fil12" d="M452.952 274.528l-0.301182 106.395c-0.431104,0.261024 -0.866932,0.516143 -1.3063,0.771262 -6.31774,3.6697 -13.3831,6.75475 -20.9989,9.19845l0.300001 -106.395c7.61577,-2.44253 14.6859,-5.52403 20.9989,-9.19727 0.440553,-0.251576 0.876381,-0.511419 1.30748,-0.772443z"/>
       <path id="_265975280" class="fil11" d="M430.641 284.502l-0.300001 106.395c-5.50986,1.7693 -11.3091,3.20198 -17.3209,4.2886l0.300001 -106.395c6.01301,-1.08662 11.8099,-2.52284 17.3209,-4.2886z"/>
       <path id="_265975664" class="fil10" d="M413.319 288.786l-0.300001 106.395c-3.89883,0.70512 -7.89097,1.25788 -11.9504,1.66182l0.300001 -106.395c4.06419,-0.399214 8.05278,-0.956696 11.9504,-1.66182z"/>
       <path id="_265975784" class="fil9" d="M401.368 290.448l-0.300001 106.395c-3.43584,0.34134 -6.9201,0.575199 -10.441,0.692128l0.300001 -106.395c3.5256,-0.11693 7.00986,-0.350789 10.441,-0.692128z"/>
       <path id="_265975736" class="fil8" d="M390.927 291.145l-0.300001 106.394c-1.87323,0.0637797 -3.75474,0.0944885 -5.64569,0.0944885l0.301182 -106.395c1.88977,0 3.776,-0.0307088 5.64451,-0.0933074z"/>
      </g>
     </g>
     <g>
      <polygon id="_265975856" class="fil13" points="385.283,291.238 384.98,397.634 204.373,397.634 204.674,291.238 "/>
     </g>
     <g>
      <path id="_265975304" class="fil15" d="M478.954 236.804c0.0814963,14.5512 -9.61066,28.2119 -27.3095,38.5017 -17.6859,10.2756 -41.2407,15.9343 -66.3581,15.9343l-180.608 0c-8.48743,0.00826774 -16.5083,-1.91221 -22.5402,-5.39765 -6.03191,-3.48426 -9.36381,-8.11066 -9.38979,-13.037l-0.570474 -104.608c-0.17126,-30.0225 41.8371,-54.4348 93.6546,-54.4443 25.9087,0.00354332 49.4364,6.11222 66.5069,15.9697 17.0741,9.85751 27.691,23.4603 27.7725,38.4651l0.0803152 14.1827 24.4831 0c25.1009,0.00826774 48.723,5.66695 66.5388,15.9508 17.7922,10.2803 27.6544,23.9552 27.7395,38.4828zm-93.7125 46.8722c21.6107,0.00826774 41.9009,-4.86852 57.1336,-13.7197 15.2516,-8.86066 23.5914,-20.6221 23.5194,-33.1477 -0.0543309,-12.5209 -8.54176,-24.2871 -23.8737,-33.1383 -15.3331,-8.85239 -35.6765,-13.7292 -57.3049,-13.7292l-37.5438 0 -0.108662 -21.7359c-0.0720475,-12.5304 -8.55948,-24.2965 -23.8914,-33.1477 -15.3331,-8.85121 -35.6765,-13.728 -57.3049,-13.728 -21.6154,0.00826774 -41.9009,4.86852 -57.1514,13.728 -15.2327,8.85121 -23.5737,20.6316 -23.5016,33.1395l0.588191 104.616c0.0177166,2.90552 1.99371,5.63978 5.54175,7.68782 3.56576,2.05749 8.29018,3.19253 13.3075,3.19253l180.59 -0.0177166z"/>
     </g>
     <g>
      <g>
       <path id="_265975712" class="fil1" d="M204.674 291.238l-0.301182 106.395c-8.48743,0.00826774 -16.5083,-1.91339 -22.5402,-5.39765 -6.03545,-3.48426 -9.36381,-8.11066 -9.38979,-13.037l0.300001 -106.395c0.0271654,4.92639 3.36025,9.55633 9.39097,13.037 6.03545,3.48544 14.0516,5.4071 22.5402,5.39765z"/>
      </g>
      <g>
       <path id="_265975928" class="fil8" d="M204.674 291.238l-0.301182 106.395c-0.485435,0 -0.969688,-0.00472442 -1.45512,-0.0177166l0.301182 -106.395c0.485435,0.0141733 0.970869,0.0177166 1.45512,0.0177166z"/>
       <path id="_265975232" class="fil7" d="M203.219 291.221l-0.300001 106.395c-1.05118,-0.0271654 -2.0882,-0.0814963 -3.12166,-0.166536l0.301182 -106.394c1.03229,0.0850396 2.0693,0.142914 3.12048,0.165355z"/>
       <path id="_265975112" class="fil6" d="M200.102 291.055l-0.300001 106.394c-1.03347,-0.0850396 -2.05158,-0.197245 -3.05788,-0.340159l0.300001 -106.395c1.00158,0.142914 2.0256,0.255119 3.05788,0.34134z"/>
       <path id="_265974848" class="fil5" d="M197.039 290.714l-0.301182 106.395c-1.05473,-0.148819 -2.09174,-0.328347 -3.11221,-0.539765l0.300001 -106.394c1.02048,0.210237 2.06339,0.389765 3.1134,0.538584z"/>
       <path id="_265974632" class="fil4" d="M193.932 290.175l-0.301182 106.394c-1.12678,-0.232678 -2.23111,-0.50197 -3.30946,-0.812601l0.301182 -106.395c1.07244,0.305906 2.17796,0.578742 3.30946,0.813782z"/>
       <path id="_265974536" class="fil3" d="M190.622 289.362l-0.301182 106.395c-1.32048,-0.376773 -2.59961,-0.807877 -3.8256,-1.28859l0.301182 -106.394c1.22126,0.479529 2.5004,0.910633 3.8256,1.28741z"/>
       <path id="_265974704" class="fil2" d="M186.791 288.073l-0.300001 106.394c-1.65355,-0.650789 -3.21143,-1.39607 -4.6571,-2.22638 -6.03545,-3.48544 -9.36381,-8.11066 -9.38979,-13.0382l0.300001 -106.395c0.0271654,4.92639 3.36025,9.55751 9.38979,13.0382 1.44567,0.830318 3.00473,1.5756 4.6571,2.22757z"/>
      </g>
     </g>
    </g>
   </g>
   <g>
    <g>
     <g>
      <g>
       <path id="_265974488" class="fil1" d="M64.3183 396l-39.1466 -22.5225c1.63465,0.943704 3.7134,1.16339 6.16537,0.520868l39.1478 22.5225c-2.45316,0.641341 -4.5319,0.41693 -6.16655,-0.520868z"/>
      </g>
      <g>
       <path id="_265975016" class="fil2" d="M31.3371 373.998l39.1466 22.5225c-2.45198,0.642522 -4.5319,0.418112 -6.16655,-0.520868l-39.1466 -22.5225c1.63465,0.937798 3.71458,1.16221 6.16655,0.520868z"/>
      </g>
     </g>
     <g>
      <g>
       <path id="_265974320" class="fil1" d="M165.364 105.448l39.1478 22.5225c4.18466,2.40709 7.52601,6.17482 9.92483,11.0835 5.62797,11.5382 6.026,29.393 -0.129922,50.8466l-39.1478 -22.5225c6.15711,-21.4489 5.75671,-39.3096 0.131103,-50.8454 -2.3941,-4.90986 -5.73663,-8.67759 -9.92602,-11.0847z"/>
      </g>
      <g>
       <path id="_265974224" class="fil7" d="M165.364 105.448l39.1478 22.5225c0.0814963,0.044882 0.157087,0.0897641 0.238583,0.138189l-39.1478 -22.5213c-0.0767719,-0.0496065 -0.158268,-0.0944885 -0.238583,-0.139371z"/>
       <path id="_265973936" class="fil8" d="M165.602 105.587l39.1478 22.5213c0.605907,0.360237 1.1941,0.750002 1.7693,1.16339l-39.1466 -22.5213c-0.570474,-0.41693 -1.15867,-0.804333 -1.77048,-1.16339z"/>
       <path id="_265974152" class="fil9" d="M167.372 106.751l39.1466 22.5213c0.548033,0.400395 1.08189,0.831499 1.59922,1.28504l-39.1478 -22.5225c-0.516143,-0.453545 -1.05,-0.879924 -1.59804,-1.28386z"/>
       <path id="_265973768" class="fil10" d="M168.97 108.035l39.1478 22.5225c0.50197,0.440553 0.987405,0.905908 1.45512,1.39607l-39.1478 -22.5225c-0.466537,-0.487797 -0.95079,-0.955515 -1.45512,-1.39607z"/>
       <path id="_265974128" class="fil11" d="M170.425 109.432l39.1478 22.5225c0.462994,0.479529 0.907089,0.987405 1.33347,1.513l-39.1478 -22.5225c-0.425198,-0.524411 -0.870475,-1.03229 -1.33347,-1.513z"/>
       <path id="_265974104" class="fil12" d="M171.76 110.945l39.1478 22.5225c0.421655,0.520868 0.830318,1.0689 1.22599,1.63465l-39.1466 -22.5225c-0.392127,-0.564569 -0.80079,-1.11378 -1.22717,-1.63465z"/>
       <path id="_265974440" class="fil16" d="M172.986 112.579l39.1466 22.5225c0.390946,0.56575 0.767719,1.14922 1.12323,1.75985l-39.1478 -22.5213c-0.354332,-0.610632 -0.731105,-1.19882 -1.12205,-1.76103z"/>
       <path id="_265974056" class="fil17" d="M174.113 114.336l39.1466 22.5225c0.360237,0.610632 0.70512,1.23898 1.02874,1.88977l-39.1466 -22.5213c-0.327166,-0.651971 -0.669687,-1.28032 -1.02874,-1.89095z"/>
       <path id="_265974368" class="fil18" d="M175.141 116.23l39.1466 22.5225c0.0496065,0.0980318 0.0992129,0.201969 0.148819,0.305906 0.274017,0.561025 0.538584,1.14095 0.785436,1.73741l-39.1466 -22.5225c-0.251576,-0.591734 -0.5126,-1.17166 -0.785436,-1.73741 -0.0496065,-0.107481 -0.100394,-0.206694 -0.148819,-0.305906z"/>
       <path id="_265973168" class="fil19" d="M176.076 118.27l39.1466 22.5213c0.301182,0.714569 0.584648,1.45158 0.849215,2.20985l-39.1466 -22.5225c-0.265749,-0.75827 -0.549214,-1.49528 -0.849215,-2.20867z"/>
       <path id="_265973120" class="fil20" d="M176.925 120.474l39.1466 22.5225c0.269292,0.777168 0.520868,1.58032 0.754727,2.40237l-39.1466 -22.5213c-0.230316,-0.82205 -0.48071,-1.62166 -0.754727,-2.40355z"/>
       <path id="_265973000" class="fil21" d="M177.679 122.878l39.1478 22.5213c0.237402,0.85394 0.457088,1.72914 0.655514,2.62796l-39.1478 -22.5225c-0.19252,-0.897641 -0.412206,-1.77402 -0.655514,-2.62678z"/>
       <path id="_265973624" class="fil22" d="M178.334 125.504l39.1478 22.5225c0.205512,0.942523 0.389765,1.90867 0.546852,2.89607l-39.1466 -22.5213c-0.157087,-0.99331 -0.340159,-1.95827 -0.548033,-2.89725z"/>
       <path id="_265973312" class="fil23" d="M178.882 128.402l39.1478 22.5213c0.17126,1.06418 0.314174,2.15552 0.426379,3.27875l-39.1466 -22.5225c-0.112205,-1.12205 -0.257481,-2.21339 -0.42756,-3.27757z"/>
       <path id="_265973240" class="fil24" d="M179.31 131.676l39.1466 22.5213c0.126378,1.22126 0.216142,2.47442 0.269292,3.75474l-39.1466 -22.5225c-0.0543309,-1.27914 -0.144095,-2.53229 -0.269292,-3.75356z"/>
       <path id="_265973432" class="fil25" d="M179.579 135.429l39.1466 22.5225c0.0637797,1.44567 0.0814963,2.93741 0.0543309,4.45986l-39.1478 -22.5225c0.0271654,-1.52245 0.00944885,-3.00828 -0.0531498,-4.45986z"/>
       <path id="_265973024" class="fil26" d="M179.632 139.889l39.1478 22.5225c-0.0318899,1.80001 -0.126378,3.65552 -0.28819,5.56065l-39.1466 -22.5225c0.161812,-1.90394 0.2563,-3.75946 0.287009,-5.56065z"/>
       <path id="_265973216" class="fil27" d="M179.345 145.45l39.1466 22.5225c-0.197245,2.34331 -0.490159,4.75986 -0.884648,7.24372l-39.1466 -22.5225c0.395671,-2.48387 0.692128,-4.90041 0.884648,-7.24372z"/>
       <path id="_265973264" class="fil28" d="M178.46 152.693l39.1466 22.5213c-0.50197,3.16182 -1.16693,6.43585 -2.00197,9.81263l-39.1478 -22.5213c0.835042,-3.37324 1.50473,-6.64727 2.00316,-9.81263z"/>
       <path id="_265973288" class="fil29" d="M176.462 162.506l39.1466 22.5213c-0.395671,1.60276 -0.830318,3.22914 -1.30158,4.87324l-39.1478 -22.5225c0.471261,-1.64764 0.907089,-3.27403 1.30276,-4.87206z"/>
      </g>
     </g>
     <g>
      <polygon id="_265972784" class="fil30" points="175.159,167.378 214.302,189.901 206.408,217.439 167.26,194.918 "/>
     </g>
     <g>
      <polygon id="_265972688" class="fil14" points="122.668,350.232 161.817,372.754 70.4837,396.521 31.3371,373.998 "/>
     </g>
     <g>
      <g>
       <path id="_265972640" class="fil1" d="M207.49 191.813l39.1478 22.5225c4.18466,2.40709 7.52601,6.17482 9.92483,11.0847l-39.1478 -22.5225c-2.3941,-4.90868 -5.73899,-8.67168 -9.92483,-11.0847z"/>
      </g>
      <g>
       <path id="_265972904" class="fil7" d="M207.49 191.813l39.1478 22.5225c0.0814963,0.044882 0.157087,0.0897641 0.238583,0.139371l-39.1478 -22.5225c-0.0767719,-0.0437009 -0.158268,-0.088583 -0.238583,-0.139371z"/>
       <path id="_265972496" class="fil8" d="M207.727 191.953l39.1478 22.5225c0.605907,0.359056 1.1941,0.748821 1.7693,1.16339l-39.1466 -22.5225c-0.570474,-0.413387 -1.16339,-0.804333 -1.77048,-1.16339z"/>
       <path id="_265972616" class="fil9" d="M209.498 193.121l39.1466 22.5213c0.548033,0.400395 1.08189,0.831499 1.59922,1.28504l-39.1478 -22.5225c-0.516143,-0.458269 -1.05,-0.88583 -1.59804,-1.28386z"/>
       <path id="_265972520" class="fil10" d="M211.096 194.401l39.1478 22.5225c0.50197,0.440553 0.987405,0.907089 1.45512,1.39607l-39.1478 -22.5213c-0.471261,-0.490159 -0.955515,-0.953153 -1.45512,-1.39725z"/>
       <path id="_265972712" class="fil11" d="M212.551 195.798l39.1478 22.5213c0.462994,0.48071 0.905908,0.988586 1.33347,1.513l-39.1478 -22.5213c-0.425198,-0.525592 -0.870475,-1.03347 -1.33347,-1.513z"/>
       <path id="_265971872" class="fil12" d="M213.885 197.311l39.1466 22.5213c0.42756,0.520868 0.836223,1.07008 1.22717,1.63583l-39.1478 -22.5225c-0.390946,-0.56575 -0.799609,-1.10906 -1.22599,-1.63465z"/>
       <path id="_265971776" class="fil16" d="M215.11 198.946l39.1478 22.5225c0.389765,0.564569 0.767719,1.14922 1.12323,1.75985l-39.1478 -22.5225c-0.355513,-0.610632 -0.731105,-1.1941 -1.12323,-1.75985z"/>
       <path id="_265972136" class="fil17" d="M216.233 200.705l39.1478 22.5225c0.359056,0.610632 0.703939,1.23898 1.02756,1.88977l-39.1466 -22.5213c-0.322442,-0.650789 -0.669687,-1.28504 -1.02874,-1.89095z"/>
       <path id="_265971656" class="fil18" d="M217.267 202.597l39.1466 22.5213c0.0496065,0.103937 0.0980318,0.201969 0.148819,0.305906l-39.1478 -22.5225c-0.0484253,-0.102756 -0.0992129,-0.206694 -0.147638,-0.304725z"/>
      </g>
     </g>
     <g>
      <polygon id="_265971512" class="fil14" points="141.593,345.306 180.742,367.827 161.817,372.754 122.668,350.232 "/>
     </g>
     <g>
      <g>
       <path id="_265971944" class="fil1" d="M217.414 202.897l39.1478 22.5225c5.62797,11.537 6.026,29.393 -0.131103,50.8454 -12.3,42.8848 -46.1931,83.8774 -75.6865,91.557l-39.1466 -22.5225c29.4969,-7.67955 63.3852,-48.6769 75.6865,-91.5558 6.15711,-21.4489 5.75671,-39.3096 0.129922,-50.8466z"/>
      </g>
      <g>
       <path id="_265971800" class="fil18" d="M217.414 202.897l39.1478 22.5225c0.274017,0.56575 0.538584,1.14095 0.785436,1.73741l-39.1466 -22.5225c-0.246851,-0.591734 -0.5126,-1.17166 -0.786617,-1.73741z"/>
       <path id="_265971440" class="fil19" d="M218.201 204.635l39.1466 22.5225c0.301182,0.713388 0.584648,1.4504 0.849215,2.20867l-39.1466 -22.5225c-0.265749,-0.757089 -0.549214,-1.4941 -0.849215,-2.20867z"/>
       <path id="_265972160" class="fil20" d="M219.05 206.845l39.1466 22.5225c0.269292,0.777168 0.520868,1.58032 0.754727,2.40237l-39.1466 -22.5213c-0.233859,-0.826774 -0.485435,-1.62638 -0.754727,-2.40355z"/>
       <path id="_265970864" class="fil21" d="M219.804 209.244l39.1466 22.5225c0.243308,0.852759 0.458269,1.72914 0.655514,2.62678l-39.1466 -22.5225c-0.197245,-0.897641 -0.41693,-1.77402 -0.655514,-2.62678z"/>
       <path id="_265970792" class="fil22" d="M220.459 211.87l39.1466 22.5225c0.206694,0.942523 0.390946,1.90867 0.548033,2.89725l-39.1478 -22.5225c-0.155906,-0.988586 -0.340159,-1.95355 -0.546852,-2.89725z"/>
       <path id="_265970960" class="fil23" d="M221.007 214.768l39.1478 22.5225c0.17126,1.063 0.314174,2.15552 0.426379,3.27757l-39.1478 -22.5213c-0.112205,-1.11851 -0.2563,-2.21457 -0.426379,-3.27875z"/>
       <path id="_265970648" class="fil24" d="M221.434 218.046l39.1478 22.5213c0.126378,1.22126 0.216142,2.46969 0.269292,3.75474l-39.1466 -22.5225c-0.055512,-1.28386 -0.145276,-2.53347 -0.270473,-3.75356z"/>
       <path id="_265971032" class="fil25" d="M221.704 221.8l39.1466 22.5225c0.0637797,1.44567 0.0814963,2.93741 0.0531498,4.45986l-39.1466 -22.5225c0.0271654,-1.52835 0.00944885,-3.01418 -0.0531498,-4.45986z"/>
       <path id="_265970672" class="fil26" d="M221.757 226.259l39.1466 22.5225c-0.0307088,1.80001 -0.125197,3.65552 -0.287009,5.56065l-39.1478 -22.5225c0.162993,-1.90394 0.257481,-3.75828 0.28819,-5.56065z"/>
       <path id="_265971248" class="fil27" d="M221.469 231.815l39.1478 22.5225c-0.198426,2.34331 -0.490159,4.75986 -0.884648,7.24372l-39.1466 -22.5213c0.395671,-2.48387 0.687404,-4.90041 0.883467,-7.2449z"/>
       <path id="_265971392" class="fil28" d="M220.586 239.063l39.1466 22.5225c-0.50197,3.16182 -1.16693,6.43585 -1.99843,9.80909l-39.1466 -22.5225c0.830318,-3.37324 1.49528,-6.64727 1.99843,-9.80909z"/>
       <path id="_265971104" class="fil29" d="M218.587 248.871l39.1466 22.5225c-0.395671,1.60276 -0.830318,3.22914 -1.30276,4.87206 -1.24252,4.33348 -2.70828,8.64924 -4.36419,12.9119l-39.1478 -22.5225c1.65827,-4.26143 3.12166,-8.57719 4.36537,-12.9107 0.471261,-1.6441 0.907089,-3.2693 1.30276,-4.87324z"/>
       <path id="_265971344" class="fil28" d="M212.919 266.655l39.1478 22.5225c-0.754727,1.93465 -1.54489,3.86222 -2.37639,5.77443l-39.1466 -22.5213c0.830318,-1.91339 1.62048,-3.83859 2.3752,-5.77561z"/>
       <path id="_265970984" class="fil27" d="M210.544 272.432l39.1466 22.5213c-0.569293,1.31693 -1.15867,2.62324 -1.76457,3.92127l-39.1478 -22.5213c0.605907,-1.30394 1.1941,-2.61024 1.76575,-3.92127z"/>
       <path id="_265969880" class="fil26" d="M208.778 276.352l39.1478 22.5213c-0.557482,1.19882 -1.1315,2.3941 -1.71497,3.57875l-39.1478 -22.5213c0.583466,-1.18937 1.15748,-2.37993 1.71497,-3.57875z"/>
       <path id="_265970552" class="fil25" d="M207.063 279.926l39.1478 22.5225c-0.517324,1.04646 -1.04764,2.0882 -1.58623,3.12521l-39.1478 -22.5225c0.535041,-1.03111 1.06536,-2.07402 1.58623,-3.12521z"/>
       <path id="_265970624" class="fil24" d="M205.473 283.057l39.1466 22.5225c-0.53386,1.02402 -1.07363,2.04331 -1.6252,3.05316l-39.1466 -22.5225c0.551577,-1.01457 1.09489,-2.03032 1.6252,-3.05316z"/>
       <path id="_265970312" class="fil23" d="M203.848 286.11l39.1466 22.5225c-0.538584,0.988586 -1.09134,1.97245 -1.64764,2.9504l-39.1466 -22.5225c0.55512,-0.977956 1.10788,-1.96182 1.64764,-2.9504z"/>
       <path id="_265970360" class="fil22" d="M202.199 289.057l39.1466 22.5213c-0.56575,0.983861 -1.13622,1.96772 -1.71497,2.93741l-39.1466 -22.5225c0.578742,-0.969688 1.15276,-1.94883 1.71497,-2.93623z"/>
       <path id="_265970264" class="fil21" d="M200.484 291.993l39.1466 22.5225c-0.591734,0.988586 -1.18937,1.97245 -1.80001,2.94214l-39.1478 -22.5225c0.610632,-0.969688 1.20709,-1.95355 1.80119,-2.94214z"/>
       <path id="_265970576" class="fil20" d="M198.683 294.935l39.1478 22.5225c-0.620081,0.987405 -1.2437,1.97127 -1.88268,2.94095l-39.1466 -22.5213c0.636616,-0.970869 1.26142,-1.95001 1.8815,-2.94214z"/>
       <path id="_265969928" class="fil19" d="M196.802 297.877l39.1466 22.5213c-0.650789,0.996854 -1.31103,1.98426 -1.97953,2.96458l-39.1478 -22.5225c0.668506,-0.979137 1.32874,-1.96772 1.98071,-2.9634z"/>
       <path id="_265970432" class="fil18" d="M194.821 300.841l39.1478 22.5225c-0.677955,0.992129 -1.37008,1.97599 -2.06575,2.9504l-39.1478 -22.5225c0.700396,-0.974413 1.38662,-1.95827 2.06575,-2.9504z"/>
       <path id="_265970408" class="fil17" d="M192.76 303.786l39.1466 22.5225c-0.703939,0.987405 -1.42323,1.96182 -2.14725,2.92796l-39.1466 -22.5225c0.722837,-0.960239 1.43622,-1.93938 2.14725,-2.92796z"/>
       <path id="_265969208" class="fil16" d="M190.613 306.719l39.1466 22.5225c-0.735829,0.979137 -1.47756,1.95001 -2.22757,2.90552l-39.1466 -22.5225c0.750002,-0.956696 1.49056,-1.92638 2.22757,-2.90552z"/>
       <path id="_265969640" class="fil12" d="M188.385 309.625l39.1466 22.5225c-0.754727,0.964964 -1.51772,1.91339 -2.29016,2.85119l-39.1466 -22.5213c0.771262,-0.938979 1.53544,-1.89095 2.29016,-2.85237z"/>
       <path id="_265969616" class="fil11" d="M186.095 312.472l39.1466 22.5225c-0.79016,0.96142 -1.58977,1.90867 -2.39765,2.84292l-39.1478 -22.5225c0.809058,-0.934255 1.60867,-1.8815 2.39883,-2.84292z"/>
       <path id="_265969568" class="fil10" d="M183.696 315.314l39.1478 22.5225c-0.812601,0.943704 -1.63583,1.86851 -2.46615,2.78032l-39.1478 -22.5225c0.831499,-0.910633 1.65355,-1.83662 2.46615,-2.78032z"/>
       <path id="_265969712" class="fil9" d="M181.23 318.094l39.1478 22.5225c-0.857483,0.947247 -1.72914,1.87205 -2.6008,2.78387l-39.1466 -22.5213c0.876381,-0.911814 1.74213,-1.84134 2.59961,-2.78505z"/>
       <path id="_540672392" class="fil8" d="M178.635 320.875l39.1478 22.5225c-0.907089,0.942523 -1.8189,1.86733 -2.74017,2.76969l-39.1466 -22.5213c0.916538,-0.902365 1.8319,-1.82717 2.73899,-2.77087z"/>
       <path id="_529272696" class="fil7" d="M175.896 323.646l39.1466 22.5213c-0.947247,0.92953 -1.90394,1.84134 -2.85946,2.72599l-39.1478 -22.5225c0.956696,-0.883467 1.91339,-1.79056 2.86064,-2.72481z"/>
       <path id="_540668624" class="fil6" d="M173.034 326.372l39.1478 22.5225c-1.05945,0.979137 -2.12481,1.92638 -3.19253,2.84292l-39.1478 -22.5213c1.0689,-0.916538 2.13308,-1.86497 3.19253,-2.8441z"/>
       <path id="_262623248" class="fil5" d="M169.842 329.214l39.1478 22.5213c-1.16811,1.00276 -2.33977,1.96772 -3.52206,2.89725l-39.1466 -22.5225c1.17756,-0.924806 2.35276,-1.89449 3.52088,-2.89607z"/>
       <path id="_537007424" class="fil4" d="M166.321 332.11l39.1466 22.5225c-1.34646,1.06418 -2.70237,2.07402 -4.05946,3.03544l-39.1478 -22.5225c1.35709,-0.960239 2.713,-1.97008 4.06064,-3.03544z"/>
       <path id="_537007928" class="fil3" d="M162.262 335.147l39.1478 22.5225c-1.7256,1.21654 -3.45001,2.34922 -5.17915,3.39096l-39.1466 -22.5225c1.72441,-1.04292 3.45355,-2.17442 5.17797,-3.39096z"/>
       <path id="_537008000" class="fil2" d="M157.084 338.538l39.1466 22.5225c-5.20513,3.13466 -10.4103,5.44254 -15.4855,6.76301l-39.1466 -22.5225c5.07521,-1.32048 10.2803,-3.62954 15.4855,-6.76301z"/>
      </g>
     </g>
     <g>
      <path id="_532979024" class="fil31" d="M217.414 202.897c5.62797,11.537 6.02718,29.393 -0.129922,50.8466 -12.3012,42.8836 -46.1942,83.8762 -75.6865,91.5558l-18.9249 4.92639 -91.3326 23.7662c-4.26616,1.11851 -7.40554,-0.386222 -9.03546,-3.72757 -1.62993,-3.33781 -1.74213,-8.51105 0.0413387,-14.7225l38.1367 -132.833 7.89569 -27.5387c12.3189,-42.9025 46.2072,-83.8951 75.6865,-91.557 14.7485,-3.83978 25.6017,1.37481 31.2249,12.9119 5.62797,11.537 6.02718,29.393 -0.129922,50.8466l-7.89569 27.5375 18.9249 -4.92639c14.7437,-3.83269 25.5981,1.38071 31.2249,12.9142z"/>
     </g>
    </g>
   </g>
  </g>
 </g>
</svg>
