<?xml version="1.0" encoding="UTF-8"?>
<!DOCTYPE svg PUBLIC "-//W3C//DTD SVG 1.1//EN" "http://www.w3.org/Graphics/SVG/1.1/DTD/svg11.dtd">
<!-- Creator: CorelDRAW -->
<svg xmlns="http://www.w3.org/2000/svg" xml:space="preserve" width="500px" height="500px" style="shape-rendering:geometricPrecision; text-rendering:geometricPrecision; image-rendering:optimizeQuality; fill-rule:evenodd; clip-rule:evenodd"
viewBox="0 0 500 500"
 xmlns:xlink="http://www.w3.org/1999/xlink">
 <defs>
  <style type="text/css">
   <![CDATA[
    .fil3 {fill:none}
    .fil0 {fill:#634E37}
    .fil20 {fill:#806546}
    .fil17 {fill:#836748}
    .fil13 {fill:#856949}
    .fil46 {fill:#876B4A}
    .fil12 {fill:#8A6D4C}
    .fil47 {fill:#8B6E4C}
    .fil11 {fill:#8F714E}
    .fil1 {fill:#90714F}
    .fil10 {fill:#947551}
    .fil9 {fill:#997954}
    .fil8 {fill:#9E7D57}
    .fil18 {fill:#A38059}
    .fil7 {fill:#A3815A}
    .fil23 {fill:#A4815A}
    .fil6 {fill:#A8855C}
    .fil5 {fill:#AD895F}
    .fil15 {fill:#AF8A60}
    .fil19 {fill:#B18C61}
    .fil4 {fill:#B38D62}
    .fil14 {fill:#B89165}
    .fil24 {fill:#BD9568}
    .fil2 {fill:#BF9669}
    .fil21 {fill:#C1986A}
    .fil25 {fill:#C2996A}
    .fil16 {fill:#C59B6C}
    .fil26 {fill:#C79D6D}
    .fil27 {fill:#CCA170}
    .fil28 {fill:#D1A573}
    .fil45 {fill:#D3A674}
    .fil29 {fill:#D6A976}
    .fil30 {fill:#DBAD78}
    .fil22 {fill:#DCAD79}
    .fil31 {fill:#E0B17B}
    .fil44 {fill:#E4B47D}
    .fil32 {fill:#E6B57E}
    .fil33 {fill:#EBB981}
    .fil34 {fill:#F0BD84}
    .fil35 {fill:#F5C186}
    .fil43 {fill:#F6C287}
    .fil36 {fill:#FAC589}
    .fil37 {fill:#FFC98C}
    .fil38 {fill:#FFCF9A}
    .fil39 {fill:#FFD2A0}
    .fil40 {fill:#FFD4A4}
    .fil41 {fill:#FFD6A8}
    .fil42 {fill:#FFD7AB}
   ]]>
  </style>
 </defs>
 <g id="Layer_x0020_1">
  <metadata id="CorelCorpID_0Corel-Layer"/>
  <g id="_540669872">
   <g>
    <path id="_531799896" class="fil0" d="M425.78 186.579c12.9709,7.48703 19.2272,18.88 12.4666,30.5387l-7.63231 13.1682c-5.37049,9.24806 -2.51812,19.4552 7.61813,27.293l14.4237 11.1378c25.5048,19.7268 1.01339,47.7663 -41.4663,47.445l-24.0166 -0.17126c-16.8756,-0.131103 -32.7379,4.55789 -42.4407,12.5374l-13.7965 11.3528c-19.3182,15.8977 -56.9636,16.1434 -78.1467,3.90828 -5.59254,-3.22796 -10.037,-7.32522 -12.6993,-12.2339l-7.19884 -13.278c-2.52993,-4.66773 -6.96026,-8.82522 -12.7725,-12.1807 -5.81222,-3.35552 -13.0063,-5.90907 -21.0698,-7.36183l-22.9501 -4.12678c-8.48388,-1.52717 -15.5729,-4.08781 -21.1654,-7.31813 -21.1879,-12.2339 -20.8938,-34.0359 6.49254,-45.2777l19.5556 -8.02798c13.7434,-5.65041 21.7879,-14.8477 21.5079,-24.6261l-0.368505 -13.9099c-0.688585,-24.6048 47.634,-38.8832 81.7739,-24.1737l19.2934 8.32562c13.5508,5.83821 31.18,7.45278 47.1297,4.31222l22.7091 -4.46576c20.0953,-3.93899 39.7808,-0.355513 52.7529,7.1327z"/>
   </g>
   <g>
    <g>
     <g>
      <polygon id="_531799872" class="fil1" points="299.499,130.584 299.205,234.507 279.93,226.19 280.223,122.267 "/>
     </g>
     <g>
      <polygon id="_531799944" class="fil2" points="375.229,130.988 374.935,234.911 352.212,239.368 352.507,135.445 "/>
     </g>
     <g>
      <g>
       <path id="_531799824" class="fil3" d="M352.507 135.445l-0.294095 103.923c-17.928,3.53505 -37.747,1.71969 -53.008,-4.86025l0.294095 -103.923c15.2563,6.57994 35.0789,8.39648 53.008,4.86025z"/>
      </g>
      <g>
       <path id="_531800208" class="fil4" d="M352.507 135.445l-0.294095 103.923c-0.473624,0.0921263 -0.947247,0.184253 -1.42087,0.26693l0.292914 -103.922c0.474805,-0.0838585 0.947247,-0.175985 1.42205,-0.268111z"/>
       <path id="_531799032" class="fil5" d="M351.085 135.713l-0.292914 103.922c-2.43072,0.439371 -4.89568,0.781892 -7.37365,1.02756l0.292914 -103.923c2.47914,-0.24567 4.94293,-0.588191 7.37365,-1.02638z"/>
       <path id="_531799488" class="fil6" d="M343.716 136.739l-0.294095 103.923c-2.10119,0.210237 -4.21537,0.346064 -6.32955,0.420474l0.292914 -103.923c2.11536,-0.0696853 4.22482,-0.209056 6.33073,-0.420474z"/>
       <path id="_531799464" class="fil7" d="M337.385 137.159l-0.292914 103.923c-1.95237,0.0661419 -3.90828,0.0744097 -5.86065,0.0259843l0.292914 -103.923c1.95237,0.0496065 3.90474,0.0401576 5.86065,-0.0259843z"/>
       <path id="_531799416" class="fil8" d="M331.525 137.185l-0.292914 103.923c-1.88623,-0.0484253 -3.76891,-0.148819 -5.63742,-0.302363l0.294095 -103.923c1.86851,0.154725 3.75001,0.255119 5.63624,0.302363z"/>
       <path id="_531799272" class="fil9" d="M325.888 136.884l-0.294095 103.923c-1.87796,-0.153544 -3.74174,-0.364962 -5.58781,-0.622443l0.292914 -103.923c1.84725,0.262206 3.71222,0.468899 5.58899,0.622443z"/>
       <path id="_531799224" class="fil10" d="M320.304 136.261l-0.292914 103.923c-1.92638,-0.271654 -3.83033,-0.605907 -5.70238,-0.992129l0.292914 -103.922c1.87323,0.386222 3.77718,0.719294 5.70238,0.990948z"/>
       <path id="_531798888" class="fil11" d="M314.602 135.27l-0.292914 103.922c-2.06575,-0.424017 -4.09371,-0.924806 -6.07561,-1.48701l0.292914 -103.922c1.97835,0.56575 4.00867,1.06181 6.07561,1.48701z"/>
       <path id="_531799104" class="fil12" d="M308.521 133.783l-0.292914 103.922c-2.40473,-0.68386 -4.7386,-1.4693 -6.98388,-2.35513l0.294095 -103.923c2.24528,0.88583 4.57915,1.67127 6.9827,2.35631z"/>
       <path id="_531799080" class="fil13" d="M301.539 131.426l-0.294095 103.923c-0.687404,-0.271654 -1.36772,-0.552758 -2.03977,-0.842129l0.294095 -103.922c0.670868,0.289371 1.35119,0.569293 2.03977,0.840948z"/>
      </g>
     </g>
     <g>
      <g>
       <path id="_531799344" class="fil3" d="M208.306 246.887l0.292914 -103.923c0.0259843,-9.91775 9.08507,-18.4938 24.3898,-23.0257 15.5363,-4.59686 33.1926,-3.70985 47.2301,2.32914l-0.294095 103.923c-14.0363,-6.0449 -31.6973,-6.92719 -47.2301,-2.32914 -15.2989,4.5319 -24.358,13.1079 -24.3887,23.0257z"/>
      </g>
      <g>
       <path id="_531798240" class="fil13" d="M280.223 122.267l-0.292914 103.923c-0.552758,-0.237402 -1.10552,-0.464175 -1.66654,-0.688585l0.292914 -103.922c0.562206,0.223229 1.11851,0.451183 1.66654,0.687404z"/>
       <path id="_531798480" class="fil12" d="M278.557 121.583l-0.292914 103.923c-1.83898,-0.724018 -3.73702,-1.36418 -5.67758,-1.91694l0.294095 -103.923c1.93938,0.552758 3.83387,1.18937 5.6764,1.91694z"/>
       <path id="_531798744" class="fil11" d="M272.88 119.661l-0.294095 103.923c-1.5567,-0.442915 -3.14056,-0.829136 -4.74568,-1.16221l0.294095 -103.923c1.60867,0.334253 3.19371,0.719294 4.74568,1.16221z"/>
       <path id="_531798576" class="fil10" d="M268.138 118.499l-0.292914 103.923c-1.43386,-0.29882 -2.89135,-0.549214 -4.3571,-0.759451l0.294095 -103.923c1.46575,0.211418 2.91851,0.461812 4.35592,0.759451z"/>
       <path id="_531798720" class="fil9" d="M263.778 117.741l-0.292914 103.923c-1.39016,-0.198426 -2.7945,-0.355513 -4.2071,-0.468899l0.294095 -103.923c1.4126,0.118111 2.81576,0.271654 4.20592,0.468899z"/>
       <path id="_531798816" class="fil8" d="M259.576 117.271l-0.294095 103.923c-1.39843,-0.114567 -2.80631,-0.193701 -4.21891,-0.227953l0.292914 -103.923c1.40788,0.0401576 2.81576,0.114567 4.22009,0.227953z"/>
       <path id="_531798408" class="fil7" d="M255.352 117.048l-0.292914 103.922c-1.46575,-0.0354332 -2.93977,-0.0295277 -4.40907,0.022441l0.294095 -103.923c1.47284,-0.0519687 2.94214,-0.0614175 4.40789,-0.0212599z"/>
       <path id="_531798096" class="fil6" d="M250.944 117.065l-0.294095 103.922c-1.60985,0.0578742 -3.2197,0.162993 -4.82482,0.321261l0.292914 -103.923c1.60512,-0.158268 3.21615,-0.263387 4.826,-0.32008z"/>
       <path id="_531798192" class="fil5" d="M246.118 117.39l-0.292914 103.922c-1.92166,0.193701 -3.83033,0.457088 -5.72482,0.798428l0.292914 -103.923c1.89568,-0.34134 3.80434,-0.609451 5.72482,-0.797247z"/>
       <path id="_531798504" class="fil4" d="M240.393 118.187l-0.292914 103.923c-2.50513,0.452364 -4.97836,1.03465 -7.39963,1.7504 -0.504332,0.15 -1.0004,0.303544 -1.48701,0.460631l0.292914 -103.923c0.49134,-0.157087 0.987405,-0.310631 1.48701,-0.460631 2.42127,-0.714569 4.89568,-1.29804 7.39963,-1.7504z"/>
       <path id="_531798048" class="fil14" d="M231.506 120.398l-0.292914 103.923c-4.10198,1.32048 -7.72089,2.94332 -10.8048,4.8071l0.292914 -103.922c3.08032,-1.86851 6.70278,-3.48781 10.8048,-4.80828z"/>
       <path id="_531797976" class="fil4" d="M220.701 125.202l-0.292914 103.923c-2.04804,1.23662 -3.85631,2.58426 -5.40947,4.02167l0.292914 -103.922c1.55434,-1.43859 3.36143,-2.78032 5.40947,-4.02285z"/>
       <path id="_531797904" class="fil5" d="M215.29 129.225l-0.294095 103.922c-1.00866,0.935436 -1.91221,1.90394 -2.70119,2.91379l0.292914 -103.923c0.788979,-1.00866 1.69371,-1.97835 2.70237,-2.91261z"/>
       <path id="_531797616" class="fil6" d="M212.586 132.137l-0.292914 103.923c-0.662601,0.846853 -1.25079,1.71378 -1.75512,2.60906l0.294095 -103.922c0.504332,-0.895278 1.09252,-1.76339 1.75394,-2.61024z"/>
       <path id="_531797592" class="fil7" d="M210.832 134.743l-0.294095 103.923c-0.464175,0.824412 -0.859845,1.66654 -1.18465,2.52639l0.294095 -103.923c0.324804,-0.859845 0.719294,-1.70079 1.18465,-2.52639z"/>
       <path id="_531797568" class="fil8" d="M209.652 137.269l-0.292914 103.923c-0.315355,0.842129 -0.562206,1.69725 -0.73701,2.56654l0.292914 -103.923c0.175985,-0.868113 0.420474,-1.72323 0.73701,-2.56654z"/>
       <path id="_531797736" class="fil9" d="M208.915 139.836l-0.292914 103.923c-0.180709,0.884648 -0.281103,1.78938 -0.307088,2.70119l0.292914 -103.923c0.0259843,-0.911814 0.131103,-1.81064 0.307088,-2.70119z"/>
       <path id="_531797520" class="fil10" d="M208.608 142.537l-0.292914 103.923c-0.00472442,0.140552 -0.00472442,0.281103 -0.00826774,0.425198l0.292914 -103.923c0.00472442,-0.139371 0.00472442,-0.279922 0.00826774,-0.425198z"/>
      </g>
     </g>
     <g>
      <g>
       <path id="_531797328" class="fil3" d="M434.777 155.514l-0.292914 103.922c0.0177166,-6.7512 -4.5886,-13.2331 -13.3441,-18.2918 -12.4052,-7.16341 -29.667,-9.4831 -46.199,-6.2327l0.292914 -103.923c16.5343,-3.2504 33.795,-0.92953 46.2001,6.2327 8.75554,5.05868 13.3607,11.5418 13.343,18.293z"/>
      </g>
      <g>
       <path id="_531797448" class="fil13" d="M434.777 155.514l-0.292914 103.922c0.0177166,-6.7512 -4.5886,-13.2331 -13.3441,-18.2918 -2.12717,-1.22835 -4.3949,-2.31142 -6.77719,-3.2504l0.294095 -103.922c2.38229,0.938979 4.64883,2.0256 6.77719,3.24922 8.75554,5.05868 13.3607,11.5418 13.343,18.293z"/>
       <path id="_531797208" class="fil12" d="M414.651 133.972l-0.292914 103.922c-1.75512,-0.693309 -3.57521,-1.30748 -5.44372,-1.8378l0.292914 -103.923c1.87323,0.530317 3.68978,1.14449 5.44372,1.83898z"/>
       <path id="_531797040" class="fil11" d="M409.212 132.133l-0.294095 103.923c-1.49882,-0.425198 -3.03072,-0.803152 -4.59214,-1.12323l0.294095 -103.922c1.5567,0.318899 3.09214,0.696853 4.59214,1.12205z"/>
       <path id="_531796560" class="fil10" d="M404.62 131.006l-0.294095 103.923c-1.39961,-0.289371 -2.82521,-0.539765 -4.26261,-0.741735l0.292914 -103.923c1.43859,0.205512 2.85946,0.451183 4.26379,0.741735z"/>
       <path id="_531797064" class="fil9" d="M400.355 130.269l-0.292914 103.923c-1.37835,-0.193701 -2.77206,-0.35197 -4.18112,-0.47008l0.292914 -103.922c1.40906,0.113386 2.79922,0.271654 4.18112,0.468899z"/>
       <path id="_531797160" class="fil8" d="M396.175 129.8l-0.292914 103.922c-1.40434,-0.113386 -2.82521,-0.19252 -4.2508,-0.226772l0.292914 -103.923c1.4256,0.0342521 2.84292,0.108662 4.2508,0.227953z"/>
       <path id="_531797136" class="fil7" d="M391.924 129.571l-0.292914 103.923c-1.48701,-0.0401576 -2.98347,-0.0307088 -4.48348,0.0212599l0.294095 -103.922c1.5,-0.0531498 2.99529,-0.0566931 4.4823,-0.022441z"/>
       <path id="_531796536" class="fil6" d="M387.437 129.593l-0.294095 103.922c-1.65827,0.0578742 -3.32009,0.167717 -4.98309,0.333072l0.294095 -103.922c1.66182,-0.166536 3.32481,-0.276379 4.98309,-0.333072z"/>
       <path id="_531796776" class="fil5" d="M382.454 129.926l-0.294095 103.922c-2.02205,0.201969 -4.04883,0.483072 -6.06144,0.848034l0.292914 -103.923c2.01379,-0.364962 4.04056,-0.649608 6.06262,-0.846853z"/>
       <path id="_531796704" class="fil4" d="M376.391 130.773l-0.292914 103.923c-0.386222,0.0696853 -0.772443,0.145276 -1.15867,0.218505l0.294095 -103.922c0.380316,-0.0803152 0.767719,-0.153544 1.15748,-0.219686z"/>
      </g>
     </g>
     <g>
      <g>
       <path id="_531796848" class="fil3" d="M447.463 155.68l-0.294095 103.923c-0.00826774,3.55277 -1.00866,7.14569 -3.04371,10.6512l0.292914 -103.923c2.03977,-3.50552 3.03662,-7.09727 3.04489,-10.6512z"/>
      </g>
      <g>
       <path id="_531796512" class="fil10" d="M447.463 155.68l-0.294095 103.923c0,0.166536 -0.00354332,0.333072 -0.00826774,0.500789l0.294095 -103.923c0.00826774,-0.167717 0.00826774,-0.334253 0.00826774,-0.500789z"/>
       <path id="_531795936" class="fil9" d="M447.458 156.18l-0.292914 103.923c-0.0307088,1.09252 -0.158268,2.18505 -0.376773,3.27639l0.292914 -103.923c0.219686,-1.09134 0.34134,-2.18387 0.376773,-3.27639z"/>
       <path id="_531796272" class="fil8" d="M447.082 159.458l-0.292914 103.923c-0.219686,1.08307 -0.531498,2.17087 -0.935436,3.24922l0.294095 -103.922c0.407482,-1.07953 0.714569,-2.16379 0.934255,-3.2504z"/>
       <path id="_531795864" class="fil7" d="M446.147 162.708l-0.294095 103.922c-0.420474,1.11851 -0.942523,2.2382 -1.57087,3.34844l0.294095 -103.923c0.627167,-1.11024 1.14922,-2.2252 1.57087,-3.34725z"/>
       <path id="_531796368" class="fil6" d="M444.581 166.055l-0.292914 103.923c-0.0531498,0.0909452 -0.1063,0.183071 -0.158268,0.276379l0.294095 -103.923c0.0519687,-0.0933074 0.103937,-0.184253 0.157087,-0.276379z"/>
      </g>
     </g>
     <g>
      <polygon id="_531796320" class="fil15" points="444.424,166.33 444.129,270.249 436.497,283.418 436.791,179.5 "/>
     </g>
     <g>
      <g>
       <path id="_531795768" class="fil3" d="M209.003 157.94l-0.292914 103.923c-0.0307088,10.7646 -9.02247,20.8536 -24.1926,27.0958l0.294095 -103.923c15.1642,-6.23742 24.1619,-16.3323 24.1914,-27.0958z"/>
      </g>
      <g>
       <path id="_531796056" class="fil10" d="M209.003 157.94l-0.292914 103.923c0,0.17126 -0.00472442,0.336615 -0.00826774,0.507876l0.292914 -103.922c0.00472442,-0.17126 0.00826774,-0.338977 0.00826774,-0.509057z"/>
       <path id="_531796224" class="fil9" d="M208.994 158.449l-0.292914 103.922c-0.0307088,1.10552 -0.158268,2.20158 -0.376773,3.29056l0.292914 -103.923c0.218505,-1.0878 0.34134,-2.18505 0.376773,-3.28938z"/>
       <path id="_531795000" class="fil8" d="M208.616 161.735l-0.292914 103.922c-0.219686,1.08898 -0.526773,2.16733 -0.925987,3.22914l0.294095 -103.923c0.398033,-1.06181 0.70512,-2.13662 0.924806,-3.22796z"/>
       <path id="_531795120" class="fil7" d="M207.692 164.966l-0.294095 103.923c-0.41693,1.11024 -0.92953,2.20158 -1.53544,3.27284l0.294095 -103.923c0.605907,-1.07126 1.11851,-2.16261 1.53544,-3.27284z"/>
       <path id="_531795576" class="fil6" d="M206.156 168.239l-0.294095 103.923c-0.661419,1.1752 -1.43859,2.32442 -2.32087,3.44765l0.294095 -103.923c0.882286,-1.12323 1.65827,-2.27127 2.32087,-3.44765z"/>
       <path id="_531795264" class="fil5" d="M203.835 171.687l-0.294095 103.923c-1.04764,1.33347 -2.24528,2.62678 -3.59292,3.86812l0.294095 -103.923c1.34764,-1.24016 2.54528,-2.53465 3.59292,-3.86812z"/>
       <path id="_531795240" class="fil4" d="M200.244 175.561l-0.294095 103.922c-2.0693,1.91694 -4.4823,3.71576 -7.20711,5.35986l0.292914 -103.922c2.72481,-1.65001 5.13663,-3.44411 7.20829,-5.35986z"/>
       <path id="_531795528" class="fil14" d="M193.035 180.921l-0.292914 103.922c-2.48741,1.50591 -5.23821,2.8819 -8.22522,4.11615l0.294095 -103.923c2.98702,-1.23307 5.73781,-2.61024 8.22404,-4.11497z"/>
      </g>
     </g>
     <g>
      <g>
       <path id="_531795744" class="fil3" d="M434.159 291.643l0.292914 -103.923c0.00826774,-2.75906 0.775987,-5.53466 2.33859,-8.2205l-0.292914 103.923c-1.5626,2.68347 -2.33032,5.46143 -2.33859,8.2205z"/>
      </g>
      <g>
       <path id="_531795456" class="fil6" d="M436.791 179.5l-0.292914 103.923c-0.0401576,0.0696853 -0.0791341,0.139371 -0.118111,0.210237l0.292914 -103.922c0.0389765,-0.0755908 0.0791341,-0.145276 0.118111,-0.211418z"/>
       <path id="_531795168" class="fil7" d="M436.671 179.705l-0.292914 103.923c-0.478348,0.842129 -0.877562,1.69725 -1.19764,2.55237l0.292914 -103.922c0.321261,-0.856302 0.719294,-1.70552 1.19764,-2.55355z"/>
       <path id="_531794712" class="fil8" d="M435.475 182.264l-0.292914 103.923c-0.311812,0.83268 -0.552758,1.67127 -0.720475,2.51339l0.294095 -103.923c0.165355,-0.842129 0.402757,-1.67953 0.719294,-2.51339z"/>
       <path id="_531794352" class="fil9" d="M434.751 184.772l-0.292914 103.923c-0.17126,0.850396 -0.268111,1.70197 -0.294095,2.55237l0.294095 -103.923c0.0248032,-0.850396 0.121654,-1.70079 0.292914,-2.55237z"/>
       <path id="_531794688" class="fil10" d="M434.46 187.325l-0.292914 103.923c-0.00472442,0.131103 -0.00472442,0.263387 -0.00472442,0.394489l0.294095 -103.923c-0.00472442,-0.131103 0,-0.262206 0.00354332,-0.394489z"/>
      </g>
     </g>
     <g>
      <polygon id="_531794280" class="fil16" points="184.811,185.036 184.517,288.959 164.962,296.982 165.254,193.062 "/>
     </g>
     <g>
      <g>
       <path id="_531794592" class="fil3" d="M421.416 291.613l0.292914 -103.923c-0.0212599,7.15396 3.93072,14.23 11.5548,20.126l-0.292914 103.923c-7.62522,-5.89254 -11.5772,-12.9721 -11.5548,-20.126z"/>
      </g>
      <g>
       <path id="_531794448" class="fil13" d="M433.264 207.816l-0.292914 103.923c-7.62522,-5.89608 -11.5772,-12.9709 -11.5548,-20.126l0.292914 -103.923c-0.0177166,7.15396 3.93072,14.2347 11.5548,20.126z"/>
      </g>
     </g>
     <g>
      <g>
       <path id="_531794832" class="fil3" d="M146.069 317.844l0.294095 -103.923c0.0212599,-8.30436 6.77246,-15.8871 18.8918,-20.8619l-0.292914 103.923c-12.1205,4.97364 -18.8705,12.5587 -18.893,20.8619z"/>
      </g>
      <g>
       <path id="_531794760" class="fil14" d="M165.254 193.062l-0.292914 103.923c-2.46024,1.00866 -4.70198,2.12717 -6.7075,3.33781l0.294095 -103.922c2.00434,-1.21063 4.24608,-2.32914 6.70632,-3.33899z"/>
       <path id="_531823392" class="fil4" d="M158.548 196.397l-0.292914 103.923c-2.1319,1.28504 -4.00513,2.67521 -5.59726,4.14923l0.294095 -103.923c1.59095,-1.47284 3.46418,-2.863 5.59608,-4.14923z"/>
       <path id="_531823104" class="fil5" d="M152.951 200.546l-0.294095 103.923c-1.00866,0.934255 -1.90394,1.9004 -2.68938,2.89489l0.294095 -103.922c0.780711,-0.995672 1.68071,-1.96064 2.68938,-2.89607z"/>
       <path id="_531823176" class="fil6" d="M150.263 203.442l-0.294095 103.922c-0.662601,0.837404 -1.24134,1.70315 -1.73623,2.57954l0.292914 -103.922c0.494883,-0.877562 1.07481,-1.73741 1.73741,-2.57954z"/>
       <path id="_531823080" class="fil7" d="M148.525 206.022l-0.292914 103.922c-0.457088,0.807877 -0.842129,1.63229 -1.15867,2.47087l0.292914 -103.923c0.315355,-0.838585 0.702758,-1.663 1.15867,-2.46969z"/>
       <path id="_531823272" class="fil8" d="M147.371 208.49l-0.294095 103.923c-0.302363,0.81142 -0.539765,1.63111 -0.70512,2.46497l0.292914 -103.923c0.161812,-0.83268 0.399214,-1.65355 0.706301,-2.46497z"/>
       <path id="_531823224" class="fil9" d="M146.661 210.956l-0.294095 103.923c-0.17126,0.846853 -0.26693,1.70197 -0.292914,2.56536l0.292914 -103.922c0.0248032,-0.865751 0.126378,-1.72087 0.294095,-2.56654z"/>
       <path id="_531823056" class="fil10" d="M146.371 213.523l-0.294095 103.922c-0.00354332,0.132284 -0.00354332,0.268111 -0.00354332,0.399214l0.292914 -103.923c-0.00354332,-0.131103 0,-0.26693 0.00472442,-0.398033z"/>
      </g>
     </g>
     <g>
      <polygon id="_265942928" class="fil17" points="447.686,218.952 447.394,322.877 432.97,311.739 433.264,207.816 "/>
     </g>
     <g>
      <g>
       <path id="_265972400" class="fil3" d="M456.838 234.538l-0.292914 103.923c0.0177166,-5.4697 -3.06733,-10.8792 -9.15121,-15.5859l0.294095 -103.923c6.08388,4.70671 9.16656,10.1162 9.15003,15.5859z"/>
      </g>
      <g>
       <path id="_265954520" class="fil13" d="M456.838 234.538l-0.292914 103.923c0.0177166,-5.4697 -3.06733,-10.8792 -9.15121,-15.5859l0.294095 -103.923c6.08388,4.70671 9.16656,10.1162 9.15003,15.5859z"/>
      </g>
     </g>
     <g>
      <g>
       <path id="_265974896" class="fil3" d="M133.33 317.949l0.292914 -103.922c-0.00354332,1.81182 0.240946,3.64489 0.754727,5.48269 1.99134,7.14215 7.75042,13.5107 16.1906,18.3839 6.49963,3.75119 14.589,6.6201 23.7745,8.26892l-0.292914 103.923c-9.18546,-1.64882 -17.2749,-4.51891 -23.7757,-8.27365 -8.44018,-4.87324 -14.1993,-11.2429 -16.1941,-18.3839 -0.509057,-1.83308 -0.759451,-3.66615 -0.750002,-5.47915z"/>
      </g>
      <g>
       <path id="_265964216" class="fil10" d="M174.349 246.163l-0.294095 103.923c-0.793703,-0.145276 -1.58268,-0.294095 -2.35985,-0.457088l0.292914 -103.922c0.777168,0.162993 1.5626,0.316536 2.36103,0.455907z"/>
       <path id="_265963952" class="fil11" d="M171.984 245.707l-0.294095 103.922c-2.1189,-0.43819 -4.17049,-0.942523 -6.15829,-1.50827l0.292914 -103.923c1.9878,0.570474 4.04175,1.07008 6.15947,1.50945z"/>
       <path id="_265961960" class="fil12" d="M165.825 244.202l-0.292914 103.923c-2.43426,-0.693309 -4.76813,-1.48347 -6.98388,-2.3504l0.294095 -103.923c2.21576,0.868113 4.54844,1.65709 6.9827,2.3504z"/>
       <path id="_265961480" class="fil13" d="M158.842 241.846l-0.294095 103.923c-2.97757,-1.17048 -5.74608,-2.49568 -8.27247,-3.95671 -8.44018,-4.87324 -14.1993,-11.2429 -16.1953,-18.3839 -0.5126,-1.8378 -0.75827,-3.67088 -0.753546,-5.48269l0.292914 -103.923c-0.00354332,1.81182 0.242127,3.64489 0.754727,5.48388 1.99134,7.14097 7.75042,13.5107 16.1906,18.3839 2.53465,1.45985 5.29844,2.78505 8.27719,3.95552z"/>
      </g>
     </g>
     <g>
      <g>
       <path id="_265961792" class="fil3" d="M469.497 234.64l-0.292914 103.923c-0.0141733,5.10946 -2.07993,10.2508 -6.25041,15.0284l0.292914 -103.923c4.17167,-4.77757 6.23742,-9.91775 6.25041,-15.0284z"/>
      </g>
      <g>
       <path id="_265961216" class="fil10" d="M469.497 234.64l-0.292914 103.923c0,0.166536 -0.00472442,0.333072 -0.00826774,0.504332l0.292914 -103.923c0.00472442,-0.166536 0.00826774,-0.338977 0.00826774,-0.504332z"/>
       <path id="_265961144" class="fil9" d="M469.488 235.144l-0.294095 103.923c-0.0307088,1.08307 -0.153544,2.17087 -0.37323,3.25395l0.294095 -103.923c0.219686,-1.08307 0.342521,-2.17087 0.37323,-3.25395z"/>
       <path id="_265960928" class="fil8" d="M469.115 238.398l-0.294095 103.923c-0.214961,1.07953 -0.522049,2.15434 -0.924806,3.2197l0.292914 -103.922c0.405119,-1.07126 0.712207,-2.14607 0.925987,-3.22088z"/>
       <path id="_265960784" class="fil7" d="M468.189 241.614l-0.292914 103.923c-0.412206,1.10433 -0.92953,2.20158 -1.54016,3.28584l0.294095 -103.923c0.614175,-1.08426 1.12678,-2.18032 1.53898,-3.28584z"/>
       <path id="_265960952" class="fil6" d="M466.65 244.905l-0.294095 103.922c-0.666144,1.18465 -1.45158,2.35158 -2.35985,3.50552l0.292914 -103.923c0.904727,-1.15394 1.69489,-2.32087 2.36103,-3.50434z"/>
       <path id="_265961384" class="fil5" d="M464.289 248.408l-0.292914 103.923c-0.333072,0.420474 -0.680317,0.842129 -1.0441,1.25906l0.292914 -103.923c0.364962,-0.415749 0.711026,-0.836223 1.0441,-1.25906z"/>
      </g>
     </g>
     <g>
      <polygon id="_265960592" class="fil18" points="197.299,250.291 197.006,354.214 174.055,350.086 174.349,246.163 "/>
     </g>
     <g>
      <polygon id="_265959944" class="fil19" points="411.261,267.884 410.966,371.809 386.949,371.637 387.245,267.714 "/>
     </g>
     <g>
      <g>
       <path id="_265959920" class="fil3" d="M226.944 267.407l-0.292914 103.923c-2.21576,-4.08781 -6.09333,-7.73388 -11.1815,-10.6725 -5.09293,-2.93977 -11.3965,-5.17679 -18.4631,-6.44411l0.292914 -103.923c7.06656,1.26733 13.3713,3.50434 18.4631,6.44411 5.08939,2.93859 8.96696,6.58349 11.1815,10.6725z"/>
      </g>
      <g>
       <path id="_265960448" class="fil13" d="M226.944 267.407l-0.292914 103.923c-2.21576,-4.08781 -6.09333,-7.73388 -11.1815,-10.6725 -1.99134,-1.14922 -4.1634,-2.18977 -6.49608,-3.10631l0.292914 -103.923c2.33387,0.916538 4.50474,1.96064 6.49608,3.10631 5.08939,2.93859 8.96696,6.58349 11.1815,10.6725z"/>
       <path id="_265959392" class="fil12" d="M209.262 253.624l-0.294095 103.923c-1.72796,-0.679136 -3.53977,-1.28977 -5.426,-1.82835l0.294095 -103.923c1.88977,0.538584 3.70159,1.15276 5.426,1.82835z"/>
       <path id="_265959272" class="fil11" d="M203.835 251.8l-0.294095 103.922c-1.52599,-0.434647 -3.10513,-0.819688 -4.72324,-1.15748l0.292914 -103.923c1.6193,0.333072 3.19844,0.719294 4.72442,1.15867z"/>
       <path id="_265959608" class="fil10" d="M199.111 250.641l-0.292914 103.923c-0.596459,-0.124016 -1.20237,-0.242127 -1.81182,-0.350789l0.292914 -103.923c0.609451,0.109843 1.21181,0.227953 1.81182,0.350789z"/>
      </g>
     </g>
     <g>
      <g>
       <path id="_265959176" class="fil3" d="M463.243 249.668l-0.294095 103.923c-9.97917,11.4 -29.8808,18.3839 -51.9852,18.2174l0.292914 -103.923c22.1032,0.166536 42.0108,-6.81616 51.9864,-18.2174z"/>
      </g>
      <g>
       <path id="_265959560" class="fil5" d="M463.243 249.668l-0.294095 103.923c-0.81142,0.924806 -1.68426,1.82008 -2.62324,2.68938l0.292914 -103.923c0.938979,-0.86457 1.81654,-1.76457 2.62442,-2.68938z"/>
       <path id="_265959752" class="fil4" d="M460.623 252.356l-0.294095 103.923c-2.12245,1.96536 -4.56143,3.76773 -7.26735,5.39884l0.292914 -103.922c2.70591,-1.63229 5.1449,-3.4382 7.26853,-5.40002z"/>
       <path id="_265959488" class="fil14" d="M453.355 257.758l-0.292914 103.922c-3.93545,2.37284 -8.43664,4.37836 -13.3536,5.96222l0.294095 -103.923c4.91694,-1.58386 9.41696,-3.5882 13.3524,-5.96104z"/>
       <path id="_265959728" class="fil4" d="M440.002 263.717l-0.294095 103.923c-3.38623,1.09252 -6.97089,1.9819 -10.7032,2.65749l0.292914 -103.922c3.73348,-0.675593 7.31813,-1.56615 10.7044,-2.65867z"/>
       <path id="_265958744" class="fil5" d="M429.298 266.377l-0.292914 103.922c-2.39883,0.434647 -4.86143,0.775987 -7.36538,1.02638l0.292914 -103.922c2.50513,-0.250394 4.96655,-0.592915 7.36538,-1.02638z"/>
       <path id="_265958696" class="fil6" d="M421.929 267.402l-0.294095 103.923c-2.10473,0.210237 -4.2508,0.350789 -6.41695,0.425198l0.292914 -103.923c2.17087,-0.0744097 4.31222,-0.21378 6.41813,-0.425198z"/>
       <path id="_265958984" class="fil7" d="M415.511 267.829l-0.292914 103.922c-1.40788,0.0484253 -2.82521,0.0661419 -4.25198,0.0578742l0.294095 -103.923c1.42678,0.00826774 2.84765,-0.00944885 4.2508,-0.0566931z"/>
      </g>
     </g>
     <g>
      <g>
       <path id="_265957928" class="fil3" d="M387.245 267.714l-0.294095 103.923c-14.765,-0.113386 -28.6666,3.98387 -37.1623,10.9796l0.292914 -103.922c8.49688,-6.99333 22.3973,-11.0906 37.1635,-10.9807z"/>
      </g>
      <g>
       <path id="_265958000" class="fil7" d="M387.245 267.714l-0.294095 103.923c-1.08307,-0.00826774 -2.16261,0.00472442 -3.23741,0.0437009l0.294095 -103.923c1.07363,-0.0354332 2.15316,-0.0531498 3.23741,-0.0437009z"/>
       <path id="_265957736" class="fil6" d="M384.007 267.758l-0.294095 103.923c-1.66654,0.0578742 -3.31655,0.167717 -4.94293,0.329529l0.292914 -103.923c1.63111,-0.162993 3.28111,-0.272836 4.94411,-0.329529z"/>
       <path id="_265958120" class="fil5" d="M379.068 268.087l-0.294095 103.923c-1.95119,0.19252 -3.87285,0.460631 -5.74608,0.797247l0.292914 -103.922c1.87323,-0.337796 3.79489,-0.605907 5.74726,-0.798428z"/>
       <path id="_265957688" class="fil4" d="M373.317 268.886l-0.294095 103.922c-2.92088,0.526773 -5.73191,1.22481 -8.40003,2.08347l0.294095 -103.922c2.66576,-0.856302 5.48269,-1.55315 8.40003,-2.08347z"/>
       <path id="_265958192" class="fil14" d="M364.917 270.969l-0.294095 103.922c-3.89056,1.25079 -7.46105,2.8382 -10.5756,4.72442l0.292914 -103.923c3.1193,-1.88623 6.6886,-3.47363 10.5768,-4.72324z"/>
       <path id="_265957328" class="fil4" d="M354.34 275.693l-0.294095 103.923c-1.53544,0.92953 -2.96103,1.92993 -4.25907,3.00119l0.292914 -103.923c1.30394,-1.07126 2.72954,-2.07048 4.26025,-3.00119z"/>
      </g>
     </g>
     <g>
      <polygon id="_265956872" class="fil20" points="234.142,280.685 233.848,384.608 226.651,371.33 226.944,267.407 "/>
     </g>
     <g>
      <polygon id="_265957400" class="fil21" points="350.085,278.694 349.787,382.617 335.995,393.97 336.289,290.047 "/>
     </g>
     <g>
      <path id="_265957376" class="fil22" d="M463.243 249.668c-9.98035,11.4012 -29.882,18.3839 -51.9817,18.2127l-24.0166 -0.17126c-14.765,-0.114567 -28.6666,3.98741 -37.1588,10.9796l-13.7965 11.3528c-12.7122,10.4622 -34.1623,15.704 -55.9986,13.7044 -12.3402,-1.12678 -23.341,-4.4445 -31.7895,-9.32129 -6.49608,-3.75119 -11.4709,-8.42247 -14.3575,-13.7386l-7.19884 -13.2827c-2.21457,-4.08781 -6.09333,-7.73388 -11.1815,-10.6737 -5.09175,-2.93859 -11.3965,-5.17561 -18.4631,-6.44411l-22.9501 -4.12678c-9.18546,-1.65001 -17.2749,-4.51891 -23.7757,-8.26892 -8.44018,-4.87324 -14.1993,-11.2441 -16.1906,-18.3839 -3.52678,-12.6426 5.45671,-25.0879 23.4768,-32.4828l19.5556 -8.02798c12.0449,-4.94293 19.0902,-12.9981 18.8316,-21.5599l-0.368505 -13.9099c-0.346064,-12.7914 11.6292,-24.3544 31.2946,-30.1619 19.6477,-5.81695 42.893,-4.67246 60.6368,2.98702l19.3052 8.31617c11.8737,5.11537 27.28,6.5327 41.269,3.77718l22.7091 -4.46576c20.9245,-4.10552 43.6431,-1.03583 59.3211,8.01853 15.678,9.05082 21.0556,22.2013 14.0185,34.3253l-7.63231 13.1682c-4.70671,8.11184 -2.21103,17.0339 6.67207,23.9032l14.406 11.1461c13.2709,10.2603 15.3284,23.719 5.3634,35.1285zm-51.8777 10.839c17.4768,0.122835 32.6009,-5.18033 40.5025,-14.1993 7.88152,-9.0142 6.31656,-19.2308 -4.17639,-27.3509l-14.4225 -11.1378c-11.4095,-8.81696 -14.5902,-20.2831 -8.56302,-30.6875l7.63349 -13.1682c5.5571,-9.58468 1.47756,-19.5863 -10.9099,-26.7414 -12.4052,-7.16341 -29.667,-9.4831 -46.199,-6.2327l-22.7221 4.45631c-17.928,3.53505 -37.747,1.71969 -53.008,-4.86025l-19.2757 -8.31735c-14.0374,-6.0449 -31.6973,-6.92601 -47.2301,-2.32914 -15.5504,4.60631 -24.652,13.3831 -24.3851,23.5087l0.386222 13.9004c0.307088,10.989 -8.73782,21.3367 -24.1831,27.6887l-19.5568 8.0268c-14.2477,5.84766 -21.0733,15.3012 -18.2741,25.2934 1.57087,5.63624 5.94805,10.5638 12.4666,14.3268 5.0445,2.91261 11.3693,5.12718 18.6603,6.43467l22.9501 4.12678c9.06263,1.63701 17.1438,4.5012 23.6883,8.2831 6.52797,3.76773 11.5016,8.44018 14.3575,13.6855l7.21656 13.2922c2.27599,4.21537 6.11459,7.86971 11.1555,10.7776 6.5138,3.75828 15.0319,6.28112 24.7702,7.17168 17.2571,1.58741 33.5576,-2.39528 43.6029,-10.6678l13.8095 -11.3433c10.9004,-8.97523 28.7363,-14.2489 47.7084,-14.1071l23.9977 0.170079z"/>
     </g>
     <g>
      <g>
       <path id="_265957568" class="fil3" d="M336.289 290.047l-0.294095 103.923c-12.7122,10.4622 -34.167,15.704 -55.9986,13.7032 -12.3402,-1.12678 -23.341,-4.44805 -31.7895,-9.32483 -6.49726,-3.75119 -11.4709,-8.42247 -14.3587,-13.7386l0.294095 -103.923c2.88662,5.32088 7.86026,9.99334 14.3575,13.7386 8.44845,4.87679 19.4552,8.19451 31.7895,9.32129 21.8375,2.00906 43.2875,-3.23741 55.9998,-13.6996z"/>
      </g>
      <g>
       <path id="_265957352" class="fil4" d="M336.289 290.047l-0.294095 103.923c-1.72796,1.42087 -3.61418,2.74489 -5.64096,3.96497l0.294095 -103.922c2.03032,-1.22008 3.91655,-2.54528 5.64096,-3.96615z"/>
       <path id="_265957064" class="fil14" d="M330.648 294.016l-0.294095 103.923c-4.00986,2.41654 -8.56774,4.4386 -13.5107,6.02718l0.292914 -103.923c4.94883,-1.58859 9.50672,-3.61064 13.5119,-6.02718z"/>
       <path id="_265957112" class="fil4" d="M317.136 300.043l-0.292914 103.923c-3.37796,1.08307 -6.939,1.96536 -10.624,2.6315l0.294095 -103.922c3.68859,-0.667325 7.24609,-1.54961 10.6229,-2.63269z"/>
       <path id="_265956704" class="fil5" d="M306.514 302.676l-0.294095 103.922c-2.39056,0.431104 -4.83309,0.772443 -7.32168,1.01811l0.294095 -103.923c2.48623,-0.24567 4.92994,-0.588191 7.32168,-1.01693z"/>
       <path id="_265956560" class="fil6" d="M299.195 303.693l-0.292914 103.923c-2.08347,0.205512 -4.19765,0.346064 -6.33073,0.420474l0.294095 -103.923c2.1319,-0.0732286 4.24608,-0.214961 6.32955,-0.420474z"/>
       <path id="_265956200" class="fil7" d="M292.867 304.114l-0.294095 103.923c-1.95237,0.0661419 -3.92127,0.0744097 -5.90435,0.0259843l0.294095 -103.923c1.97835,0.0496065 3.95198,0.0401576 5.90435,-0.0259843z"/>
       <path id="_265956368" class="fil8" d="M286.962 304.14l-0.294095 103.923c-1.91575,-0.0472442 -3.84214,-0.148819 -5.77207,-0.310631l0.292914 -103.923c1.93111,0.162993 3.85631,0.263387 5.77325,0.310631z"/>
       <path id="_265956296" class="fil9" d="M281.188 303.829l-0.292914 103.923c-0.29882,-0.0259843 -0.601183,-0.0531498 -0.898822,-0.0803152 -1.62756,-0.148819 -3.23269,-0.336615 -4.81773,-0.561025l0.294095 -103.923c1.57914,0.223229 3.18426,0.412206 4.81655,0.562206 0.29882,0.0307088 0.601183,0.0531498 0.898822,0.0791341z"/>
       <path id="_265956464" class="fil10" d="M275.474 303.192l-0.294095 103.923c-1.95591,-0.276379 -3.86812,-0.609451 -5.73781,-0.995672l0.292914 -103.922c1.86851,0.380316 3.78663,0.719294 5.73899,0.994491z"/>
       <path id="_265955432" class="fil11" d="M269.735 302.193l-0.292914 103.923c-2.0752,-0.429923 -4.09726,-0.925987 -6.05317,-1.48347l0.292914 -103.923c1.95591,0.562206 3.97797,1.05355 6.05317,1.48347z"/>
       <path id="_265955552" class="fil12" d="M263.682 300.71l-0.292914 103.923c-2.40473,-0.68386 -4.71143,-1.46103 -6.90947,-2.32914l0.294095 -103.922c2.19686,0.866932 4.50356,1.6441 6.90829,2.32796z"/>
       <path id="_265955696" class="fil13" d="M256.774 298.385l-0.294095 103.923c-2.96458,-1.16693 -5.73781,-2.49213 -8.27247,-3.95671 -6.49726,-3.75001 -11.4709,-8.42247 -14.3587,-13.7386l0.294095 -103.922c2.88662,5.32088 7.86026,9.99216 14.3575,13.7374 2.53465,1.46457 5.30789,2.78977 8.27365,3.95671z"/>
      </g>
     </g>
    </g>
   </g>
   <g>
    <g>
     <g>
      <g>
       <path id="_265955624" class="fil3" d="M91.3326 122.829l39.1808 8.12365c0.916538,0.188977 1.82481,0.486616 2.72717,0.890554l-39.1797 -8.12365c-0.903546,-0.407482 -1.81182,-0.702758 -2.72836,-0.890554z"/>
      </g>
      <g>
       <path id="_265955936" class="fil9" d="M91.3326 122.829l39.1808 8.12365c0.372048,0.0791341 0.750002,0.17126 1.11851,0.284647l-39.1808 -8.12365c-0.37323,-0.113386 -0.746459,-0.210237 -1.11851,-0.284647z"/>
       <path id="_265955768" class="fil8" d="M92.4511 123.114l39.1808 8.12365c0.425198,0.127559 0.850396,0.281103 1.27205,0.460631l-39.1808 -8.12365c-0.420474,-0.179528 -0.846853,-0.333072 -1.27205,-0.460631z"/>
       <path id="_265955576" class="fil7" d="M93.7231 123.571l39.1808 8.12365c0.113386,0.0484253 0.223229,0.0956696 0.333072,0.145276l-39.1808 -8.12365c-0.109843,-0.0496065 -0.219686,-0.0968507 -0.333072,-0.145276z"/>
      </g>
     </g>
     <g>
      <g>
       <path id="_265955888" class="fil3" d="M85.8133 367.054l-39.1808 -8.12365c1.89095,0.390946 3.93072,0.347245 6.10632,-0.197245l39.1808 8.12365c-2.17442,0.543309 -4.21064,0.588191 -6.10632,0.197245z"/>
      </g>
      <g>
       <path id="_265954976" class="fil13" d="M52.7387 358.731l39.1808 8.12365c-2.1756,0.54449 -4.21182,0.588191 -6.10632,0.197245l-39.1808 -8.12365c1.89449,0.390946 3.93426,0.347245 6.10632,-0.197245z"/>
      </g>
     </g>
     <g>
      <polygon id="_265954784" class="fil23" points="94.0609,123.715 133.238,131.84 144.173,136.739 104.992,128.615 "/>
     </g>
     <g>
      <g>
       <path id="_265955216" class="fil3" d="M146.77 137.586l-39.1797 -8.12365c-0.882286,-0.183071 -1.75158,-0.464175 -2.60198,-0.846853l39.1808 8.12365c0.850396,0.381497 1.71851,0.662601 2.6008,0.846853z"/>
      </g>
      <g>
       <path id="_265954904" class="fil7" d="M104.992 128.615l39.1808 8.12365c0.1063,0.0484253 0.211418,0.0921263 0.315355,0.135827l-39.1808 -8.12365c-0.105118,-0.0437009 -0.209056,-0.0874019 -0.315355,-0.135827z"/>
       <path id="_265954880" class="fil8" d="M105.307 128.751l39.1808 8.12365c0.386222,0.161812 0.772443,0.302363 1.16221,0.420474l-39.1797 -8.12365c-0.390946,-0.118111 -0.775987,-0.258662 -1.16339,-0.420474z"/>
       <path id="_265955192" class="fil9" d="M106.474 129.172l39.1808 8.12365c0.368505,0.114567 0.741735,0.211418 1.11851,0.289371l-39.1808 -8.12365c-0.376773,-0.077953 -0.750002,-0.174804 -1.11851,-0.289371z"/>
      </g>
     </g>
     <g>
      <polygon id="_265954928" class="fil20" points="65.0707,355.649 104.247,363.771 91.9208,366.856 52.7387,358.731 "/>
     </g>
     <g>
      <g>
       <path id="_265953800" class="fil3" d="M71.014 355.473l39.1808 8.12365c-1.88623,-0.390946 -3.87757,-0.342521 -5.94451,0.179528l-39.1797 -8.12365c2.06103,-0.522049 4.0571,-0.570474 5.94333,-0.179528z"/>
      </g>
      <g>
       <path id="_265954088" class="fil13" d="M71.014 355.473l39.1808 8.12365c-1.88623,-0.390946 -3.87757,-0.342521 -5.94451,0.179528l-39.1797 -8.12365c2.06103,-0.522049 4.0571,-0.570474 5.94333,-0.179528z"/>
      </g>
     </g>
     <g>
      <g>
       <path id="_265953944" class="fil3" d="M163.163 85.9562l39.1808 8.12247c2.11418,0.439371 4.10552,1.42678 5.92679,2.9256l-39.1808 -8.12365c-1.81654,-1.49528 -3.80789,-2.48623 -5.92679,-2.92442z"/>
      </g>
      <g>
       <path id="_265954496" class="fil9" d="M163.163 85.9562l39.1808 8.12247c0.386222,0.0803152 0.767719,0.180709 1.14449,0.294095l-39.1808 -8.12365c-0.376773,-0.113386 -0.75827,-0.211418 -1.14449,-0.292914z"/>
       <path id="_265954352" class="fil8" d="M164.307 86.2538l39.1808 8.12247c0.399214,0.124016 0.798428,0.268111 1.18937,0.431104l-39.1808 -8.12365c-0.389765,-0.162993 -0.784254,-0.307088 -1.18937,-0.429923z"/>
       <path id="_265954304" class="fil7" d="M165.497 86.6837l39.1808 8.12365c0.368505,0.153544 0.732286,0.328347 1.09252,0.517324l-39.1808 -8.12365c-0.360237,-0.188977 -0.724018,-0.363781 -1.09252,-0.517324z"/>
       <path id="_265952984" class="fil6" d="M166.589 87.2011l39.1808 8.12365c0.346064,0.183071 0.687404,0.380316 1.02166,0.600002l-39.1808 -8.12365c-0.333072,-0.21378 -0.675593,-0.415749 -1.02166,-0.600002z"/>
       <path id="_265953368" class="fil5" d="M167.611 87.8022l39.1808 8.12365c0.324804,0.211418 0.649608,0.434647 0.964964,0.675593l-39.1808 -8.12365c-0.315355,-0.240946 -0.635435,-0.465356 -0.964964,-0.675593z"/>
       <path id="_265953344" class="fil4" d="M168.576 88.4778l39.1808 8.12365c0.17126,0.131103 0.342521,0.26693 0.513781,0.402757l-39.1808 -8.12365c-0.166536,-0.139371 -0.337796,-0.276379 -0.513781,-0.402757z"/>
      </g>
     </g>
     <g>
      <g>
       <path id="_265953680" class="fil3" d="M169.09 88.8806l39.1808 8.12365c7.56617,6.22915 12.1205,21.2493 9.98271,42.0379l-39.1808 -8.12365c2.1378,-20.7886 -2.41654,-35.8088 -9.98271,-42.0379z"/>
      </g>
      <g>
       <path id="_540672968" class="fil4" d="M169.09 88.8806l39.1808 8.12365c0.135827,0.109843 0.26693,0.227953 0.402757,0.342521l-39.1808 -8.12365c-0.131103,-0.118111 -0.26693,-0.232678 -0.402757,-0.342521z"/>
       <path id="_265942856" class="fil14" d="M169.493 89.2231l39.1808 8.12365c0.292914,0.259843 0.588191,0.531498 0.872837,0.820869l-39.1808 -8.12365c-0.285828,-0.285828 -0.575199,-0.562206 -0.872837,-0.820869z"/>
       <path id="_265942904" class="fil24" d="M170.365 90.044l39.1808 8.12365c0.281103,0.284647 0.562206,0.577561 0.833861,0.890554l-39.1808 -8.12365c-0.271654,-0.311812 -0.548033,-0.605907 -0.833861,-0.890554z"/>
       <path id="_265943720" class="fil25" d="M171.199 90.9345l39.1808 8.12365c0.271654,0.307088 0.535041,0.631892 0.797247,0.964964l-39.1808 -8.12365c-0.257481,-0.334253 -0.524411,-0.657876 -0.797247,-0.964964z"/>
       <path id="_265943576" class="fil26" d="M171.997 91.8995l39.1808 8.12365c0.263387,0.333072 0.518506,0.68386 0.767719,1.0441l-39.1808 -8.12365c-0.250394,-0.363781 -0.504332,-0.711026 -0.767719,-1.0441z"/>
       <path id="_265943360" class="fil27" d="M172.765 92.9389l39.1808 8.12365c0.250394,0.363781 0.500789,0.73701 0.738191,1.12678l-39.1808 -8.12365c-0.237402,-0.385041 -0.484253,-0.762995 -0.738191,-1.12678z"/>
       <path id="_265943384" class="fil28" d="M173.507 94.0657l39.1808 8.12365c0.240946,0.394489 0.483072,0.798428 0.709845,1.21418l-39.1808 -8.12365c-0.232678,-0.415749 -0.468899,-0.819688 -0.709845,-1.21418z"/>
       <path id="_540667856" class="fil29" d="M174.217 95.2857l39.1808 8.12365c0.237402,0.429923 0.465356,0.868113 0.688585,1.32402l-39.1808 -8.12365c-0.223229,-0.454726 -0.451183,-0.898822 -0.688585,-1.32402z"/>
       <path id="_540667688" class="fil30" d="M174.905 96.6098l39.1808 8.12365c0.232678,0.468899 0.452364,0.951972 0.672049,1.45158l-39.1808 -8.12365c-0.219686,-0.498427 -0.442915,-0.981499 -0.672049,-1.45158z"/>
       <path id="_265959536" class="fil31" d="M175.573 98.0578l39.1808 8.12365c0.223229,0.517324 0.439371,1.05237 0.649608,1.6004l-39.1808 -8.12365c-0.206694,-0.548033 -0.421655,-1.07835 -0.649608,-1.6004z"/>
       <path id="_529272216" class="fil32" d="M176.221 99.6582l39.1808 8.12365c0.219686,0.575199 0.425198,1.16693 0.628348,1.77284l-39.1808 -8.12365c-0.201969,-0.604726 -0.408663,-1.19646 -0.628348,-1.77284z"/>
       <path id="_531637064" class="fil33" d="M176.849 101.431l39.1808 8.12365c0.210237,0.643703 0.412206,1.30748 0.600002,1.9878l-39.1808 -8.12365c-0.187796,-0.680317 -0.389765,-1.34292 -0.600002,-1.9878z"/>
       <path id="_260260416" class="fil34" d="M177.449 103.419l39.1808 8.12365c0.201969,0.727561 0.390946,1.47756 0.566931,2.24528l-39.1808 -8.12365c-0.175985,-0.767719 -0.363781,-1.51772 -0.566931,-2.24528z"/>
       <path id="_540664376" class="fil35" d="M178.016 105.664l39.1808 8.12365c0.183071,0.81142 0.354332,1.64056 0.507876,2.49568l-39.1808 -8.12365c-0.153544,-0.855121 -0.323623,-1.68426 -0.507876,-2.49568z"/>
       <path id="_540666032" class="fil36" d="M178.524 108.16l39.1808 8.12365c0.153544,0.859845 0.294095,1.73741 0.41693,2.64095l-39.1808 -8.12365c-0.118111,-0.903546 -0.257481,-1.78465 -0.41693,-2.64095z"/>
       <path id="_540666200" class="fil37" d="M178.946 110.796l39.1808 8.12365c0.118111,0.855121 0.219686,1.73268 0.307088,2.62796l-39.1808 -8.12365c-0.0874019,-0.890554 -0.19252,-1.76812 -0.307088,-2.62796z"/>
       <path id="_540666056" class="fil38" d="M179.248 113.429l39.1808 8.12365c0.0791341,0.829136 0.145276,1.67008 0.201969,2.52993l-39.1808 -8.12365c-0.0531498,-0.858664 -0.118111,-1.70079 -0.201969,-2.52993z"/>
       <path id="_540666320" class="fil39" d="M179.451 115.96l39.1808 8.12365c0.0519687,0.829136 0.0874019,1.67127 0.113386,2.52639l-39.1808 -8.12365c-0.0259843,-0.855121 -0.0614175,-1.69843 -0.113386,-2.52639z"/>
       <path id="_540666560" class="fil40" d="M179.565 118.486l39.1808 8.12365c0.0259843,0.912995 0.0389765,1.83898 0.0354332,2.7815l-39.1808 -8.12365c0.00472442,-0.942523 -0.00472442,-1.87323 -0.0354332,-2.7815z"/>
       <path id="_540665888" class="fil41" d="M179.605 121.268l39.1797 8.12365c-0.00354332,1.62756 -0.0566931,3.30355 -0.152363,5.01852l-39.1808 -8.12365c0.0956696,-1.71969 0.144095,-3.39096 0.153544,-5.01852z"/>
       <path id="_540666344" class="fil42" d="M179.445 126.285l39.1808 8.12365c-0.0401576,0.719294 -0.0921263,1.44331 -0.148819,2.1756l-39.1808 -8.12365c0.0614175,-0.732286 0.109843,-1.45985 0.148819,-2.1756z"/>
       <path id="_540666080" class="fil41" d="M179.298 128.462l39.1808 8.12365c-0.0661419,0.81142 -0.140552,1.62756 -0.22441,2.4567l-39.1808 -8.12365c0.0874019,-0.829136 0.161812,-1.65001 0.22441,-2.4567z"/>
      </g>
     </g>
     <g>
      <polygon id="_540666128" class="fil43" points="179.072,130.919 218.254,139.042 215.842,162.537 176.665,154.413 "/>
     </g>
     <g>
      <g>
       <path id="_540666176" class="fil3" d="M142.919 414.043l-39.1808 -8.12365c11.993,2.48623 27.241,-13.1563 34.2025,-41.0281l39.1808 8.12247c-6.96144,27.8729 -22.2095,43.5167 -34.2025,41.0293z"/>
      </g>
      <g>
       <path id="_540666224" class="fil33" d="M137.94 364.891l39.1808 8.12247c-0.0141733,0.0625986 -0.0307088,0.118111 -0.0437009,0.180709l-39.1808 -8.12365c0.0177166,-0.0614175 0.0295277,-0.118111 0.0437009,-0.179528z"/>
       <path id="_260261136" class="fil32" d="M137.896 365.07l39.1808 8.12365c-0.145276,0.574018 -0.294095,1.14449 -0.442915,1.7067l-39.1808 -8.12365c0.148819,-0.566931 0.297639,-1.1315 0.442915,-1.7067z"/>
       <path id="_540657296" class="fil31" d="M137.454 366.777l39.1808 8.12365c-0.153544,0.56575 -0.307088,1.12205 -0.465356,1.67481l-39.1808 -8.12365c0.158268,-0.552758 0.311812,-1.11378 0.465356,-1.67481z"/>
       <path id="_265961672" class="fil30" d="M136.988 368.453l39.1808 8.12365c-0.161812,0.570474 -0.328347,1.13622 -0.499608,1.69725l-39.1808 -8.12365c0.17126,-0.562206 0.336615,-1.12678 0.499608,-1.69725z"/>
       <path id="_529268304" class="fil29" d="M136.489 370.15l39.1808 8.12365c-0.184253,0.605907 -0.37323,1.20591 -0.566931,1.79764l-39.1808 -8.12247c0.193701,-0.592915 0.381497,-1.19292 0.566931,-1.79882z"/>
       <path id="_529268736" class="fil28" d="M135.922 371.949l39.1808 8.12247c-0.19252,0.592915 -0.389765,1.18111 -0.588191,1.75985l-39.1797 -8.12365c0.200788,-0.583466 0.394489,-1.16693 0.58701,-1.75867z"/>
       <path id="_529268832" class="fil27" d="M135.335 373.703l39.1797 8.12365c-0.210237,0.609451 -0.424017,1.21063 -0.643703,1.80709l-39.1808 -8.12365c0.219686,-0.591734 0.434647,-1.19646 0.644884,-1.80709z"/>
       <path id="_529268208" class="fil26" d="M134.69 375.51l39.1808 8.12365c-0.223229,0.605907 -0.447639,1.20237 -0.680317,1.79056l-39.1808 -8.12365c0.232678,-0.588191 0.460631,-1.18465 0.680317,-1.79056z"/>
       <path id="_529268352" class="fil25" d="M134.014 377.301l39.1808 8.12365c-0.232678,0.595277 -0.474805,1.18819 -0.71575,1.77166l-39.1808 -8.12365c0.240946,-0.583466 0.478348,-1.17166 0.71575,-1.77166z"/>
       <path id="_529268232" class="fil24" d="M133.298 379.072l39.1808 8.12365c-0.249213,0.596459 -0.500789,1.18465 -0.759451,1.76339l-39.1808 -8.12365c0.259843,-0.578742 0.510238,-1.16693 0.759451,-1.76339z"/>
       <path id="_529269456" class="fil14" d="M132.54 380.836l39.1808 8.12365c-0.258662,0.583466 -0.518506,1.15394 -0.785436,1.71851l-39.1808 -8.12365c0.268111,-0.564569 0.526773,-1.13859 0.785436,-1.71851z"/>
       <path id="_529269576" class="fil4" d="M131.755 382.556l39.1808 8.12365c-0.276379,0.588191 -0.562206,1.17048 -0.846853,1.73741l-39.1808 -8.12365c0.290552,-0.570474 0.570474,-1.1504 0.846853,-1.73741z"/>
       <path id="_529269312" class="fil5" d="M130.913 384.293l39.1808 8.12365c-0.284647,0.570474 -0.574018,1.12678 -0.868113,1.68071l-39.1808 -8.12365c0.292914,-0.553939 0.583466,-1.11024 0.868113,-1.68071z"/>
       <path id="_529269624" class="fil6" d="M130.045 385.972l39.1808 8.12365c-0.315355,0.596459 -0.640159,1.17992 -0.964964,1.7504l-39.1808 -8.12365c0.324804,-0.575199 0.643703,-1.15867 0.964964,-1.7504z"/>
       <path id="_529269144" class="fil7" d="M129.08 387.718l39.1808 8.12365c-0.324804,0.570474 -0.659057,1.13268 -0.992129,1.68071l-39.1808 -8.12365c0.334253,-0.548033 0.662601,-1.10552 0.992129,-1.68071z"/>
       <path id="_529269072" class="fil8" d="M128.087 389.399l39.1808 8.12365c-0.376773,0.6189 -0.759451,1.22008 -1.14449,1.80709l-39.1808 -8.12365c0.386222,-0.583466 0.767719,-1.18819 1.14449,-1.80709z"/>
       <path id="_529269552" class="fil9" d="M126.943 391.206l39.1808 8.12365c-0.402757,0.614175 -0.81142,1.20591 -1.22363,1.78465l-39.1808 -8.12365c0.412206,-0.574018 0.819688,-1.17048 1.22363,-1.78465z"/>
       <path id="_540662288" class="fil10" d="M125.719 392.991l39.1808 8.12365c-0.468899,0.654333 -0.938979,1.28622 -1.41733,1.89449l-39.1808 -8.12365c0.473624,-0.604726 0.947247,-1.23662 1.41733,-1.89449z"/>
       <path id="_529268976" class="fil11" d="M124.297 394.891l39.1808 8.12365c-0.570474,0.727561 -1.14804,1.42087 -1.73268,2.08347l-39.1808 -8.12365c0.584648,-0.662601 1.16339,-1.35591 1.73268,-2.08347z"/>
       <path id="_529269192" class="fil12" d="M122.569 396.97l39.1808 8.12365c-0.746459,0.846853 -1.5,1.63701 -2.263,2.3693l-39.1808 -8.12365c0.759451,-0.733467 1.513,-1.52245 2.263,-2.3693z"/>
       <path id="_529269360" class="fil13" d="M120.306 399.343l39.1808 8.12365c-5.50514,5.30435 -11.3445,7.65947 -16.5638,6.5764l-39.1808 -8.12365c5.21931,1.08307 11.0587,-1.27205 16.5638,-6.5764z"/>
      </g>
     </g>
     <g>
      <polygon id="_529270176" class="fil44" points="143.752,341.637 182.929,349.761 177.121,373.015 137.94,364.891 "/>
     </g>
     <g>
      <g>
       <path id="_529269960" class="fil3" d="M176.665 154.413l39.1808 8.12365c-1.70197,16.5237 0.951972,31.1221 7.10199,39.0403l-39.1808 -8.12365c-6.15002,-7.91814 -8.80869,-22.5166 -7.10199,-39.0403z"/>
      </g>
      <g>
       <path id="_529270368" class="fil41" d="M176.665 154.413l39.1808 8.12365c-0.0696853,0.693309 -0.135827,1.37717 -0.188977,2.06103l-39.1808 -8.12365c0.0519687,-0.68386 0.118111,-1.37363 0.188977,-2.06103z"/>
       <path id="_529270032" class="fil42" d="M176.473 156.474l39.1808 8.12365c-0.0838585,1.03111 -0.153544,2.05394 -0.201969,3.06615l-39.1808 -8.12247c0.0519687,-1.01457 0.118111,-2.03623 0.201969,-3.06733z"/>
       <path id="_529269864" class="fil41" d="M176.271 159.541l39.1808 8.12247c-0.0696853,1.43504 -0.109843,2.84765 -0.114567,4.23781l-39.1797 -8.12365c0.00354332,-1.39134 0.0425198,-2.80276 0.113386,-4.23663z"/>
       <path id="_529269672" class="fil40" d="M176.161 163.778l39.1808 8.12365c-0.00472442,0.934255 0.00826774,1.86024 0.0401576,2.77206l-39.1808 -8.12365c-0.0318899,-0.911814 -0.044882,-1.8378 -0.0401576,-2.77206z"/>
       <path id="_529269840" class="fil39" d="M176.195 166.55l39.1808 8.12365c0.0259843,0.859845 0.0661419,1.7067 0.114567,2.5441l-39.1808 -8.12365c-0.0484253,-0.837404 -0.088583,-1.68426 -0.114567,-2.5441z"/>
       <path id="_529270464" class="fil38" d="M176.31 169.094l39.1808 8.12365c0.0519687,0.881105 0.122835,1.74686 0.205512,2.60198l-39.1808 -8.12365c-0.077953,-0.855121 -0.148819,-1.72087 -0.205512,-2.60198z"/>
       <path id="_529270992" class="fil37" d="M176.516 171.696l39.1808 8.12365c0.0874019,0.912995 0.19252,1.81182 0.315355,2.69292l-39.1808 -8.12365c-0.122835,-0.876381 -0.223229,-1.78111 -0.315355,-2.69292z"/>
       <path id="_529270584" class="fil36" d="M176.832 174.394l39.1808 8.12365c0.127559,0.924806 0.271654,1.83426 0.429923,2.72363l-39.1808 -8.12365c-0.162993,-0.890554 -0.302363,-1.79882 -0.429923,-2.72363z"/>
       <path id="_529270728" class="fil35" d="M177.262 177.117l39.1808 8.12365c0.158268,0.872837 0.333072,1.72914 0.526773,2.56654l-39.1808 -8.12365c-0.193701,-0.837404 -0.368505,-1.69371 -0.526773,-2.56654z"/>
       <path id="_529270944" class="fil34" d="M177.788 179.679l39.1808 8.12365c0.179528,0.781892 0.372048,1.54961 0.578742,2.29843l-39.1808 -8.12247c-0.205512,-0.746459 -0.399214,-1.51418 -0.578742,-2.29961z"/>
       <path id="_529271088" class="fil33" d="M178.367 181.979l39.1808 8.12247c0.19252,0.688585 0.394489,1.36418 0.614175,2.02678l-39.1808 -8.12365c-0.219686,-0.657876 -0.421655,-1.33347 -0.614175,-2.0256z"/>
       <path id="_529271112" class="fil32" d="M178.981 184.005l39.1808 8.12365c0.200788,0.609451 0.412206,1.20591 0.631892,1.79056l-39.1808 -8.12365c-0.22441,-0.584648 -0.434647,-1.18111 -0.631892,-1.79056z"/>
       <path id="_529269432" class="fil31" d="M179.613 185.789l39.1808 8.12365c0.205512,0.548033 0.424017,1.07953 0.649608,1.59686l-39.1808 -8.12365c-0.229135,-0.516143 -0.444096,-1.04764 -0.649608,-1.59686z"/>
       <path id="_529271184" class="fil30" d="M180.257 187.391l39.1808 8.12365c0.214961,0.496065 0.434647,0.973231 0.666144,1.44331l-39.1808 -8.12365c-0.226772,-0.468899 -0.451183,-0.951972 -0.666144,-1.44331z"/>
       <path id="_529270560" class="fil29" d="M180.924 188.834l39.1808 8.12365c0.219686,0.452364 0.447639,0.88583 0.68386,1.31575l-39.1797 -8.12365c-0.237402,-0.428742 -0.465356,-0.868113 -0.685042,-1.31575z"/>
       <path id="_529269408" class="fil28" d="M181.609 190.146l39.1797 8.12365c0.227953,0.412206 0.460631,0.814963 0.706301,1.20591l-39.1808 -8.12365c-0.240946,-0.390946 -0.478348,-0.79016 -0.70512,-1.20591z"/>
       <path id="_529270968" class="fil27" d="M182.311 191.352l39.1808 8.12365c0.236221,0.381497 0.478348,0.750002 0.727561,1.11024l-39.1808 -8.12365c-0.24567,-0.360237 -0.49134,-0.728742 -0.727561,-1.11024z"/>
       <path id="_529271568" class="fil26" d="M183.038 192.462l39.1808 8.12365c0.237402,0.342521 0.478348,0.670868 0.727561,0.990948l-39.1808 -8.12365c-0.249213,-0.32008 -0.490159,-0.649608 -0.727561,-0.990948z"/>
      </g>
     </g>
     <g>
      <g>
       <path id="_529271928" class="fil3" d="M164.194 304.763l39.1808 8.12365c-8.72483,6.78191 -16.376,20.556 -20.4414,36.8741l-39.1808 -8.12365c4.06537,-16.3182 11.7166,-30.0922 20.4414,-36.8741z"/>
      </g>
      <g>
       <path id="_529271736" class="fil13" d="M164.194 304.763l39.1808 8.12365c-0.925987,0.720475 -1.8378,1.51772 -2.7378,2.39056l-39.1808 -8.12247c0.900003,-0.874019 1.813,-1.67127 2.7378,-2.39174z"/>
       <path id="_529271520" class="fil12" d="M161.456 307.155l39.1808 8.12247c-0.753546,0.732286 -1.50473,1.52245 -2.23701,2.35513l-39.1808 -8.12247c0.733467,-0.838585 1.47874,-1.62402 2.23701,-2.35513z"/>
       <path id="_529271808" class="fil11" d="M159.219 309.51l39.1808 8.12247c-0.574018,0.654333 -1.14095,1.33819 -1.70197,2.04922l-39.1808 -8.12365c0.562206,-0.711026 1.12796,-1.39489 1.70197,-2.04804z"/>
       <path id="_529271784" class="fil10" d="M157.522 311.559l39.1808 8.12247c-0.486616,0.6189 -0.964964,1.25906 -1.43859,1.92284l-39.1808 -8.12365c0.473624,-0.659057 0.951972,-1.29922 1.43859,-1.92166z"/>
       <path id="_529272936" class="fil9" d="M156.083 313.483l39.1808 8.12365c-0.425198,0.601183 -0.851577,1.21536 -1.26851,1.85079l-39.1808 -8.12365c0.41693,-0.634254 0.84331,-1.25315 1.26851,-1.85079z"/>
       <path id="_529272456" class="fil8" d="M154.815 315.332l39.1808 8.12247c-0.386222,0.588191 -0.767719,1.18937 -1.14095,1.80355l-39.1797 -8.12365c0.377954,-0.614175 0.754727,-1.21536 1.13977,-1.80237z"/>
       <path id="_529272264" class="fil7" d="M153.675 317.134l39.1797 8.12365c-0.354332,0.578742 -0.701577,1.17048 -1.04764,1.77638l-39.1808 -8.12365c0.346064,-0.605907 0.693309,-1.19764 1.04882,-1.77638z"/>
       <path id="_529272624" class="fil6" d="M152.627 318.91l39.1808 8.12365c-0.329529,0.578742 -0.654333,1.16693 -0.974413,1.76339l-39.1808 -8.12365c0.32008,-0.596459 0.644884,-1.18465 0.974413,-1.76339z"/>
       <path id="_529272024" class="fil5" d="M151.656 320.674l39.1808 8.12365c-0.307088,0.577561 -0.614175,1.16575 -0.912995,1.76221l-39.1808 -8.12365c0.29882,-0.596459 0.602364,-1.18347 0.912995,-1.76221z"/>
       <path id="_529271232" class="fil4" d="M150.745 322.437l39.1808 8.12365c-0.289371,0.583466 -0.578742,1.17048 -0.859845,1.76812l-39.1808 -8.12365c0.279922,-0.59764 0.56575,-1.18465 0.859845,-1.76812z"/>
       <path id="_529271880" class="fil14" d="M149.885 324.204l39.1808 8.12365c-0.276379,0.584648 -0.543309,1.17638 -0.81142,1.77638l-39.1808 -8.12247c0.268111,-0.596459 0.535041,-1.18937 0.81142,-1.77756z"/>
       <path id="_540671456" class="fil24" d="M149.073 325.982l39.1808 8.12247c-0.263387,0.592915 -0.517324,1.18937 -0.767719,1.79528l-39.1808 -8.12365c0.250394,-0.605907 0.509057,-1.20237 0.767719,-1.7941z"/>
       <path id="_540672296" class="fil25" d="M148.306 327.776l39.1808 8.12365c-0.24567,0.591734 -0.486616,1.19292 -0.724018,1.79764l-39.1797 -8.12365c0.231497,-0.604726 0.472442,-1.20591 0.722837,-1.79764z"/>
       <path id="_540672032" class="fil26" d="M147.577 329.573l39.1808 8.12365c-0.232678,0.592915 -0.460631,1.19292 -0.680317,1.79882l-39.1808 -8.12365c0.225591,-0.605907 0.44882,-1.20591 0.680317,-1.79882z"/>
       <path id="_540671600" class="fil27" d="M146.897 331.372l39.1808 8.12365c-0.214961,0.592915 -0.429923,1.18465 -0.635435,1.78465l-39.1808 -8.12365c0.206694,-0.600002 0.41693,-1.19646 0.635435,-1.78465z"/>
       <path id="_540672200" class="fil28" d="M146.261 333.157l39.1808 8.12365c-0.201969,0.584648 -0.399214,1.17166 -0.588191,1.76339l-39.1808 -8.12365c0.188977,-0.590553 0.386222,-1.17874 0.588191,-1.76339z"/>
       <path id="_540672704" class="fil29" d="M145.674 334.922l39.1808 8.12365c-0.184253,0.570474 -0.364962,1.14095 -0.539765,1.71851l-39.1808 -8.12247c0.17126,-0.578742 0.350789,-1.14922 0.539765,-1.71969z"/>
       <path id="_540671984" class="fil30" d="M145.13 336.641l39.1808 8.12247c-0.166536,0.54449 -0.324804,1.09252 -0.481891,1.64174l-39.1808 -8.12365c0.157087,-0.549214 0.318899,-1.09725 0.481891,-1.64056z"/>
       <path id="_540671336" class="fil31" d="M144.648 338.282l39.1808 8.12365c-0.153544,0.530317 -0.29882,1.06063 -0.442915,1.59686l-39.1808 -8.12365c0.144095,-0.536222 0.292914,-1.06654 0.442915,-1.59686z"/>
       <path id="_540671576" class="fil32" d="M144.205 339.879l39.1808 8.12365c-0.135827,0.5126 -0.271654,1.02638 -0.403938,1.54371l-39.1808 -8.12365c0.135827,-0.5126 0.26693,-1.03111 0.403938,-1.54371z"/>
       <path id="_540672632" class="fil33" d="M143.804 341.426l39.1808 8.12365c-0.0177166,0.0696853 -0.0354332,0.145276 -0.0519687,0.214961l-39.1808 -8.12719c0.0177166,-0.0696853 0.0354332,-0.140552 0.0519687,-0.211418z"/>
      </g>
     </g>
     <g>
      <polygon id="_540671504" class="fil45" points="183.766,193.453 222.948,201.573 231.686,212.873 192.51,204.749 "/>
     </g>
     <g>
      <polygon id="_540671960" class="fil46" points="176.604,295.148 215.785,303.273 203.375,312.887 164.194,304.763 "/>
     </g>
     <g>
      <path id="_540671936" class="fil47" d="M169.09 88.8806c7.56617,6.22915 12.1205,21.2493 9.98271,42.0379l-2.41182 23.4946c-1.7067,16.5237 0.95079,31.1221 7.10199,39.0403l8.74255 11.2961c15.4678,19.9548 6.06262,73.388 -15.9048,90.403l-12.4111 9.61538c-8.72483,6.78191 -16.3749,20.5548 -20.4414,36.873l-5.8075 23.2536c-8.12955,32.5312 -27.5339,48.4017 -39.8919,38.2336 -3.25985,-2.68465 -6.02718,-7.1764 -7.9701,-13.6607l-5.26891 -17.563c-1.84134,-6.17718 -4.60986,-10.7835 -8.00081,-13.5733 -3.39096,-2.78977 -7.40554,-3.76773 -11.7426,-2.67521l-12.326 3.08387c-4.55435,1.13622 -8.50633,0.0956696 -11.765,-2.58426 -12.3567,-10.1729 -14.7473,-43.9832 -1.91575,-72.6463l9.16775 -20.4851c6.42994,-14.3705 9.51499,-31.9088 8.25121,-46.91l-1.82481 -21.3331c-3.2067,-37.7328 20.0823,-79.74 39.4052,-71.0589l10.9311 4.89568c7.66302,3.4571 16.9536,-1.31221 24.841,-12.7477l11.204 -16.2567c9.91539,-14.3906 20.4922,-16.9571 28.0548,-10.7327z"/>
     </g>
     <g>
      <g>
       <path id="_540671312" class="fil3" d="M192.51 204.749l39.1808 8.12365c15.4666,19.9548 6.06144,73.3868 -15.906,90.403l-39.1808 -8.12365c21.9674,-17.015 31.369,-70.4483 15.906,-90.403z"/>
      </g>
      <g>
       <path id="_540670808" class="fil26" d="M192.51 204.749l39.1808 8.12365c0.263387,0.336615 0.517324,0.68386 0.762995,1.0441l-39.1808 -8.12365c-0.24567,-0.360237 -0.504332,-0.707483 -0.762995,-1.0441z"/>
       <path id="_540669944" class="fil27" d="M193.273 205.789l39.1808 8.12247c0.263387,0.377954 0.518506,0.767719 0.762995,1.16693l-39.1797 -8.12365c-0.246851,-0.394489 -0.500789,-0.784254 -0.764176,-1.16575z"/>
       <path id="_540670592" class="fil28" d="M194.04 206.96l39.1808 8.12365c0.249213,0.402757 0.49134,0.814963 0.724018,1.24134l-39.1808 -8.12365c-0.232678,-0.426379 -0.478348,-0.838585 -0.724018,-1.24134z"/>
       <path id="_540670880" class="fil29" d="M194.764 208.201l39.1808 8.12365c0.24567,0.447639 0.481891,0.903546 0.709845,1.37363l-39.1808 -8.12365c-0.227953,-0.47008 -0.464175,-0.930712 -0.709845,-1.37363z"/>
       <path id="_540670520" class="fil30" d="M195.474 209.57l39.1808 8.12365c0.227953,0.468899 0.447639,0.947247 0.657876,1.43504l-39.1808 -8.12365c-0.209056,-0.486616 -0.428742,-0.964964 -0.657876,-1.43504z"/>
       <path id="_540670760" class="fil31" d="M196.132 211.005l39.1808 8.12365c0.227953,0.525592 0.442915,1.06063 0.654333,1.60867l-39.1808 -8.12365c-0.205512,-0.548033 -0.425198,-1.08307 -0.654333,-1.60867z"/>
       <path id="_540670496" class="fil32" d="M196.786 212.613l39.1808 8.12365c0.219686,0.578742 0.429923,1.17048 0.622443,1.77638l-39.1808 -8.12365c-0.19252,-0.600002 -0.402757,-1.19174 -0.622443,-1.77638z"/>
       <path id="_540671192" class="fil33" d="M197.414 214.396l39.1808 8.12365c0.205512,0.631892 0.399214,1.28032 0.584648,1.93347l-39.1808 -8.12247c-0.185434,-0.659057 -0.377954,-1.30394 -0.584648,-1.93465z"/>
       <path id="_540670472" class="fil34" d="M197.997 216.33l39.1808 8.12247c0.205512,0.746459 0.398033,1.50591 0.574018,2.27717l-39.1808 -8.12365c-0.179528,-0.772443 -0.367324,-1.53071 -0.574018,-2.27599z"/>
       <path id="_540670640" class="fil35" d="M198.568 218.606l39.1808 8.12365c0.179528,0.793703 0.346064,1.60158 0.496065,2.42599l-39.1808 -8.12365c-0.15,-0.824412 -0.316536,-1.63229 -0.496065,-2.42599z"/>
       <path id="_540670856" class="fil36" d="M199.064 221.027l39.1808 8.12365c0.157087,0.869294 0.297639,1.74686 0.415749,2.63977l-39.1808 -8.12247c-0.122835,-0.890554 -0.258662,-1.77166 -0.415749,-2.64095z"/>
       <path id="_540670232" class="fil37" d="M199.479 223.673l39.1808 8.12365c0.118111,0.855121 0.219686,1.72441 0.303544,2.60198l-39.1808 -8.12365c-0.0838585,-0.878743 -0.185434,-1.74686 -0.303544,-2.60198z"/>
       <path id="_540671072" class="fil38" d="M199.783 226.274l39.1808 8.12365c0.0838585,0.846853 0.148819,1.70197 0.200788,2.56536l-39.1797 -8.12365c-0.0484253,-0.866932 -0.119292,-1.72323 -0.201969,-2.56536z"/>
       <path id="_540670328" class="fil39" d="M199.988 228.836l39.1808 8.12365c0.0578742,0.881105 0.0956696,1.77166 0.118111,2.66694l-39.1808 -8.12365c-0.022441,-0.894097 -0.0661419,-1.78583 -0.118111,-2.66694z"/>
       <path id="_540669800" class="fil40" d="M200.107 231.503l39.1808 8.12365c0.0259843,0.908271 0.0354332,1.82481 0.0354332,2.74607l-39.1808 -8.12365c0.00472442,-0.921263 -0.00826774,-1.8378 -0.0354332,-2.74607z"/>
       <path id="_540669728" class="fil41" d="M200.142 234.253l39.1808 8.12365c-0.00826774,1.76812 -0.0661419,3.56103 -0.179528,5.36931l-39.1808 -8.12365c0.113386,-1.80827 0.17126,-3.60119 0.179528,-5.36931z"/>
       <path id="_540670208" class="fil42" d="M199.962 239.623l39.1808 8.12365c-0.022441,0.386222 -0.0484253,0.771262 -0.0791341,1.15748l-39.1808 -8.12365c0.0259843,-0.386222 0.0531498,-0.772443 0.0791341,-1.15748z"/>
       <path id="_540669968" class="fil41" d="M199.883 240.78l39.1808 8.12365c-0.114567,1.56615 -0.271654,3.14056 -0.460631,4.7197l-39.1808 -8.12247c0.188977,-1.58386 0.342521,-3.15946 0.460631,-4.72088z"/>
       <path id="_540670256" class="fil40" d="M199.418 245.496l39.1808 8.12365c-0.0791341,0.649608 -0.161812,1.29804 -0.255119,1.94764l-39.1797 -8.12365c0.0921263,-0.649608 0.174804,-1.29922 0.253938,-1.94764z"/>
       <path id="_540670376" class="fil39" d="M199.164 247.443l39.1797 8.12365c-0.0874019,0.6189 -0.179528,1.23662 -0.276379,1.85079l-39.1808 -8.12365c0.0968507,-0.612994 0.188977,-1.23071 0.27756,-1.85079z"/>
       <path id="_540668936" class="fil38" d="M198.888 249.295l39.1808 8.12365c-0.0956696,0.609451 -0.201969,1.22363 -0.307088,1.83426l-39.1808 -8.12365c0.105118,-0.610632 0.210237,-1.22008 0.307088,-1.83426z"/>
       <path id="_540669632" class="fil37" d="M198.581 251.128l39.1808 8.12365c-0.0874019,0.500789 -0.179528,0.995672 -0.276379,1.49174l-39.1808 -8.12365c0.0968507,-0.494883 0.188977,-0.990948 0.276379,-1.49174z"/>
       <path id="_540670304" class="fil36" d="M198.304 252.624l39.1808 8.12365c-0.0968507,0.496065 -0.193701,0.995672 -0.29882,1.49174l-39.1808 -8.12365c0.105118,-0.500789 0.201969,-0.996854 0.29882,-1.49174z"/>
       <path id="_540669392" class="fil35" d="M198.01 254.116l39.1808 8.12365c-0.101575,0.496065 -0.205512,0.990948 -0.315355,1.48701l-39.1808 -8.12365c0.105118,-0.499608 0.210237,-0.992129 0.315355,-1.48701z"/>
       <path id="_540669560" class="fil34" d="M197.69 255.598l39.1808 8.12365c-0.114567,0.507876 -0.227953,1.01693 -0.347245,1.52126l-39.1808 -8.12365c0.119292,-0.503151 0.237402,-1.01339 0.347245,-1.52126z"/>
       <path id="_540669752" class="fil33" d="M197.343 257.121l39.1808 8.12365c-0.122835,0.522049 -0.249213,1.0441 -0.381497,1.56615l-39.1808 -8.12365c0.132284,-0.52323 0.259843,-1.03937 0.381497,-1.56615z"/>
       <path id="_540669536" class="fil32" d="M196.961 258.687l39.1808 8.12365c-0.131103,0.522049 -0.26693,1.03819 -0.402757,1.5567l-39.1808 -8.12365c0.135827,-0.518506 0.271654,-1.03465 0.402757,-1.5567z"/>
       <path id="_540669104" class="fil31" d="M196.554 260.244l39.1808 8.12365c-0.140552,0.522049 -0.285828,1.03937 -0.431104,1.5567l-39.1808 -8.12365c0.151182,-0.517324 0.290552,-1.03465 0.431104,-1.5567z"/>
       <path id="_540669200" class="fil30" d="M196.124 261.8l39.1808 8.12365c-0.166536,0.584648 -0.336615,1.16693 -0.5126,1.7504l-39.1808 -8.12247c0.174804,-0.579923 0.346064,-1.16339 0.5126,-1.75158z"/>
       <path id="_540669272" class="fil29" d="M195.61 263.552l39.1808 8.12247c-0.174804,0.578742 -0.359056,1.15867 -0.54449,1.73386l-39.1808 -8.12365c0.185434,-0.575199 0.364962,-1.15512 0.54449,-1.73268z"/>
       <path id="_540669080" class="fil28" d="M195.062 265.285l39.1808 8.12365c-0.188977,0.577561 -0.376773,1.14804 -0.575199,1.71851l-39.1797 -8.12365c0.197245,-0.56575 0.389765,-1.14095 0.574018,-1.71851z"/>
       <path id="_540668408" class="fil27" d="M194.488 267.008l39.1797 8.12365c-0.210237,0.609451 -0.424017,1.21418 -0.649608,1.82008l-39.1797 -8.12365c0.22441,-0.604726 0.439371,-1.21063 0.649608,-1.82008z"/>
       <path id="_540669176" class="fil26" d="M193.838 268.823l39.1808 8.12365c-0.223229,0.601183 -0.446458,1.20237 -0.679136,1.79528l-39.1808 -8.12365c0.231497,-0.592915 0.460631,-1.18937 0.679136,-1.79528z"/>
       <path id="_540668720" class="fil25" d="M193.159 270.619l39.1808 8.12365c-0.233859,0.595277 -0.474805,1.18819 -0.71575,1.77638l-39.1808 -8.12365c0.240946,-0.588191 0.483072,-1.17992 0.71575,-1.77638z"/>
       <path id="_540668096" class="fil24" d="M192.444 272.395l39.1808 8.12365c-0.249213,0.596459 -0.500789,1.18819 -0.762995,1.77166l-39.1808 -8.12365c0.258662,-0.583466 0.513781,-1.1752 0.762995,-1.77166z"/>
       <path id="_540668384" class="fil14" d="M191.681 274.167l39.1808 8.12365c-0.259843,0.584648 -0.52323,1.16693 -0.794884,1.73741l-39.1797 -8.12365c0.270473,-0.570474 0.53386,-1.14922 0.793703,-1.73741z"/>
       <path id="_540668648" class="fil4" d="M190.887 275.904l39.1797 8.12365c-0.276379,0.588191 -0.556301,1.16693 -0.846853,1.73623l-39.1808 -8.12365c0.290552,-0.569293 0.570474,-1.14804 0.848034,-1.73623z"/>
       <path id="_540668576" class="fil5" d="M190.045 277.645l39.1808 8.12365c-0.294095,0.583466 -0.588191,1.15867 -0.895278,1.72441l-39.1808 -8.12365c0.302363,-0.56575 0.600002,-1.14095 0.895278,-1.72441z"/>
       <path id="_540668696" class="fil6" d="M189.149 279.369l39.1808 8.12365c-0.303544,0.56575 -0.609451,1.12678 -0.925987,1.68071l-39.1797 -8.12365c0.315355,-0.553939 0.622443,-1.11024 0.924806,-1.68071z"/>
       <path id="_540668144" class="fil7" d="M188.225 281.05l39.1797 8.12365c-0.342521,0.600002 -0.693309,1.19764 -1.04764,1.77638l-39.1808 -8.12365c0.354332,-0.579923 0.706301,-1.17166 1.04882,-1.77638z"/>
       <path id="_540668888" class="fil8" d="M187.176 282.83l39.1808 8.12365c-0.360237,0.584648 -0.724018,1.15867 -1.09252,1.72441l-39.1808 -8.12365c0.368505,-0.56575 0.732286,-1.14095 1.09252,-1.72441z"/>
       <path id="_540668816" class="fil9" d="M186.079 284.554l39.1808 8.12247c-0.412206,0.628348 -0.833861,1.23662 -1.25788,1.83426l-39.1808 -8.12365c0.428742,-0.596459 0.845672,-1.21063 1.25788,-1.83308z"/>
       <path id="_540669008" class="fil10" d="M184.819 286.388l39.1808 8.12365c-0.460631,0.640159 -0.92953,1.26851 -1.40434,1.87323l-39.1808 -8.12365c0.478348,-0.604726 0.948428,-1.23307 1.40434,-1.87323z"/>
       <path id="_540667784" class="fil11" d="M183.415 288.261l39.1808 8.12365c-0.574018,0.727561 -1.15748,1.43386 -1.75867,2.10946l-39.1808 -8.12365c0.602364,-0.674412 1.18465,-1.38071 1.75867,-2.10946z"/>
       <path id="_540668072" class="fil12" d="M181.656 290.371l39.1808 8.12365c-0.719294,0.816144 -1.46103,1.58741 -2.21457,2.31615l-39.1808 -8.12365c0.754727,-0.728742 1.49528,-1.50473 2.21457,-2.31615z"/>
       <path id="_540669128" class="fil13" d="M179.442 292.686l39.1808 8.12365c-0.921263,0.891735 -1.86851,1.71142 -2.8382,2.46497l-39.1808 -8.12365c0.969688,-0.753546 1.91694,-1.57796 2.8382,-2.46497z"/>
      </g>
     </g>
    </g>
   </g>
  </g>
 </g>
</svg>
