<?xml version="1.0" encoding="UTF-8"?>
<!DOCTYPE svg PUBLIC "-//W3C//DTD SVG 1.1//EN" "http://www.w3.org/Graphics/SVG/1.1/DTD/svg11.dtd">
<!-- Creator: CorelDRAW -->
<svg xmlns="http://www.w3.org/2000/svg" xml:space="preserve" width="500px" height="500px" style="shape-rendering:geometricPrecision; text-rendering:geometricPrecision; image-rendering:optimizeQuality; fill-rule:evenodd; clip-rule:evenodd"
viewBox="0 0 500 500"
 xmlns:xlink="http://www.w3.org/1999/xlink">
 <defs>
  <style type="text/css">
   <![CDATA[
    .fil1 {fill:none}
    .fil0 {fill:#806546}
    .fil15 {fill:#806F5C}
    .fil13 {fill:#856949}
    .fil12 {fill:#8A6D4C}
    .fil11 {fill:#8F714E}
    .fil2 {fill:#947551}
    .fil16 {fill:#94806B}
    .fil3 {fill:#997954}
    .fil4 {fill:#9E7D57}
    .fil17 {fill:#A17F58}
    .fil5 {fill:#A3815A}
    .fil6 {fill:#A8855C}
    .fil19 {fill:#AB875E}
    .fil7 {fill:#AD895F}
    .fil10 {fill:#B28C62}
    .fil8 {fill:#B38D62}
    .fil9 {fill:#B89165}
    .fil20 {fill:#BA9365}
    .fil14 {fill:#DCAD79}
    .fil21 {fill:#E6B47E}
    .fil18 {fill:black;fill-opacity:0.149020}
   ]]>
  </style>
 </defs>
 <g id="Layer_x0020_1">
  <metadata id="CorelCorpID_0Corel-Layer"/>
  <g id="_540672440">
   <g>
    <g>
     <polygon id="_529273176" class="fil0" points="65.973,169.519 65.5963,303.581 65.4864,280.945 65.8691,146.879 "/>
    </g>
    <g>
     <polygon id="_529273008" class="fil0" points="66.6073,278.703 66.2305,412.765 65.5963,303.581 65.973,169.519 "/>
    </g>
    <g>
     <g>
      <path id="_540667784" class="fil1" d="M436.002 233.343l-0.381497 134.061c0.178347,35.2454 -48.9769,63.814 -109.829,63.8282l0.381497 -134.061c60.8482,-0.0141733 110.008,-28.5828 109.829,-63.8282z"/>
     </g>
     <g>
      <path id="_540668816" class="fil2" d="M436.002 233.343l-0.381497 134.061c0,0.426379 -0.00472442,0.852759 -0.0153544,1.28032l0.381497 -134.061c0.01063,-0.42756 0.0153544,-0.85394 0.0153544,-1.28032z"/>
      <path id="_540668888" class="fil3" d="M435.988 234.617l-0.381497 134.061c-0.0590553,2.14253 -0.307088,4.26143 -0.724018,6.34963l0.381497 -134.061c0.415749,-2.08347 0.659057,-4.20119 0.724018,-6.34963z"/>
      <path id="_540668144" class="fil4" d="M435.264 240.972l-0.381497 134.061c-0.421655,2.09292 -1.01221,4.15159 -1.77638,6.176l0.381497 -134.061c0.759451,-2.02323 1.35473,-4.08663 1.77638,-6.176z"/>
      <path id="_540668696" class="fil5" d="M433.487 247.148l-0.381497 134.061c-0.793703,2.10827 -1.76575,4.17639 -2.9067,6.20553l0.381497 -134.066c1.14095,-2.02323 2.113,-4.09253 2.9067,-6.20081z"/>
      <path id="_540668576" class="fil6" d="M430.58 253.348l-0.381497 134.066c-1.27441,2.25709 -2.76261,4.45986 -4.4445,6.60238l0.381497 -134.061c1.68071,-2.14253 3.16891,-4.34411 4.4445,-6.60711z"/>
      <path id="_540668648" class="fil7" d="M426.136 259.952l-0.381497 134.061c-1.99961,2.53938 -4.28151,4.99017 -6.82089,7.33703l0.381497 -134.061c2.53938,-2.34686 4.81655,-4.79765 6.82089,-7.33703z"/>
      <path id="_540668384" class="fil8" d="M419.315 267.288l-0.381497 134.061c-4.04293,3.74056 -8.74019,7.21774 -13.9985,10.3831l0.381497 -134.061c5.2571,-3.16536 9.95554,-6.64254 13.9985,-10.3831z"/>
      <path id="_540668096" class="fil9" d="M405.315 277.671l-0.381497 134.061c-7.47522,4.49883 -16.0772,8.35869 -25.552,11.4296l0.381497 -134.061c9.47011,-3.07088 18.0768,-6.93073 25.552,-11.4296z"/>
      <path id="_540668720" class="fil8" d="M379.759 289.101l-0.381497 134.061c-6.5386,2.11772 -13.4882,3.85985 -20.765,5.17915l0.381497 -134.061c7.28152,-1.32048 14.2311,-3.06143 20.765,-5.17915z"/>
      <path id="_540669176" class="fil7" d="M358.998 294.28l-0.381497 134.061c-4.57915,0.827955 -9.28113,1.48819 -14.0977,1.96418l0.381497 -134.066c4.81065,-0.471261 9.51853,-1.1315 14.0977,-1.95945z"/>
      <path id="_540668408" class="fil6" d="M344.9 296.244l-0.381497 134.066c-3.98387,0.396852 -8.04097,0.669687 -12.1583,0.809058l0.381497 -134.066c4.11734,-0.139371 8.17562,-0.412206 12.1583,-0.809058z"/>
      <path id="_540669080" class="fil5" d="M332.741 297.052l-0.381497 134.066c-2.17324,0.0744097 -4.36537,0.114567 -6.56813,0.114567l0.381497 -134.061c2.20276,-0.00472442 4.39608,-0.044882 6.56813,-0.119292z"/>
     </g>
    </g>
    <g>
     <polygon id="_540669200" class="fil10" points="326.173,297.166 325.792,431.232 286.692,431.232 287.069,297.166 "/>
    </g>
    <g>
     <polygon id="_540669536" class="fil10" points="287.069,297.166 286.692,431.232 98.2125,431.232 98.594,297.166 "/>
    </g>
    <g>
     <g>
      <path id="_540669392" class="fil1" d="M98.594 297.166l-0.381497 134.061c-8.81459,0 -16.8012,-2.06812 -22.5863,-5.4071 -5.7886,-3.34371 -9.38034,-7.95711 -9.3957,-13.0559l0.381497 -134.061c0.0200788,5.10002 3.60592,9.71342 9.3957,13.0559 5.78506,3.33899 13.7717,5.4071 22.5863,5.4071z"/>
     </g>
     <g>
      <path id="_540669632" class="fil5" d="M98.594 297.166l-0.381497 134.061c-0.471261,0 -0.937798,-0.00472442 -1.40434,-0.0200788l0.381497 -134.061c0.466537,0.0153544 0.933074,0.0200788 1.40434,0.0200788z"/>
      <path id="_540668936" class="fil4" d="M97.1897 297.151l-0.381497 134.061c-1.06181,-0.0248032 -2.10827,-0.0838585 -3.14056,-0.168898l0.381497 -134.061c1.03229,0.0850396 2.07993,0.139371 3.14056,0.168898z"/>
      <path id="_540670376" class="fil3" d="M94.0503 296.983l-0.381497 134.061c-1.04174,-0.0838585 -2.06812,-0.20315 -3.0756,-0.342521l0.381497 -134.066c1.0063,0.142914 2.03386,0.257481 3.0756,0.347245z"/>
      <path id="_540670256" class="fil2" d="M90.9747 296.636l-0.381497 134.066c-1.06654,-0.153544 -2.113,-0.331891 -3.14056,-0.545671l0.381497 -134.061c1.02166,0.207875 2.0693,0.392127 3.14056,0.540947z"/>
      <path id="_540669968" class="fil11" d="M87.8341 296.095l-0.381497 134.061c-1.14567,-0.238583 -2.26182,-0.511419 -3.34371,-0.818507l0.381497 -134.061c1.08189,0.307088 2.19804,0.579923 3.34371,0.818507z"/>
      <path id="_540670208" class="fil12" d="M84.4904 295.272l-0.381497 134.061c-1.33937,-0.381497 -2.62914,-0.813782 -3.85395,-1.29922l0.381497 -134.061c1.23071,0.485435 2.51457,0.921263 3.85395,1.29922z"/>
      <path id="_540669728" class="fil13" d="M80.6412 293.976l-0.381497 134.061c-1.66182,-0.654333 -3.21497,-1.39843 -4.63348,-2.21694 -5.7886,-3.34371 -9.38034,-7.95711 -9.3957,-13.0559l0.381497 -134.061c0.0200788,5.10002 3.60592,9.71342 9.3957,13.0559 1.41969,0.818507 2.96694,1.5626 4.63348,2.21694z"/>
     </g>
    </g>
    <g>
     <path id="_540670328" class="fil14" d="M403.471 188.201c20.0068,11.5489 32.4332,27.5115 32.5265,45.1419 0.178347,35.2454 -48.9817,63.814 -109.829,63.8282l-39.1041 0 -188.475 0c-8.81459,0 -16.8012,-2.06812 -22.5863,-5.4071 -5.7886,-3.34371 -9.37562,-7.95711 -9.3957,-13.0559l-0.635435 -109.184 -0.103937 -22.6359c-0.198426,-35.2607 48.9568,-63.8234 109.829,-63.8282 30.4241,-0.00472442 58.0147,7.13388 78.0156,18.6863 20.0068,11.5489 32.4273,27.5115 32.5324,45.1419l0.103937 22.6359 39.0993 0c30.43,-0.0153544 58.0159,7.12798 78.0227,18.6768z"/>
    </g>
   </g>
   <g>
    <polygon id="_540670232" class="fil15" points="59.4002,157.891 59.2466,211.521 59.112,188.19 59.2655,134.566 "/>
   </g>
   <g>
    <polygon id="_540670640" class="fil15" points="60.0297,270.487 59.8809,324.112 59.2466,211.521 59.4002,157.891 "/>
   </g>
   <path id="_540670472" class="fil1" d="M440.888 223.719l-0.153544 53.6246c0.227953,36.3367 -50.4746,65.803 -113.231,65.803l0.153544 -53.6246c62.7569,0 113.455,-29.4662 113.231,-65.803z"/>
   <path id="_540671192" class="fil16" d="M440.888 223.719l-0.153544 53.6246c0.00472442,0.455907 0,0.908271 -0.0153544,1.36418l0.153544 -53.6246c0.01063,-0.457088 0.0153544,-0.908271 0.0153544,-1.36418z"/>
   <path id="_540670496" class="fil11" d="M440.874 225.079l-0.153544 53.6246c-0.0649608,2.20749 -0.317718,4.39017 -0.748821,6.5386l0.153544 -53.6246c0.431104,-2.14843 0.68386,-4.33112 0.748821,-6.5386z"/>
   <path id="_540670760" class="fil3" d="M440.125 231.621l-0.153544 53.6246c-0.431104,2.15316 -1.04174,4.2756 -1.82599,6.35908l0.153544 -53.6246c0.784254,-2.08229 1.39371,-4.20592 1.82599,-6.35908z"/>
   <path id="_540670520" class="fil17" d="M438.299 237.981l-0.153544 53.6246c-0.813782,2.17324 -1.81536,4.30631 -2.99647,6.38978l0.153544 -53.6246c1.18111,-2.08465 2.17796,-4.21773 2.99647,-6.38978z"/>
   <path id="_540670880" class="fil18" d="M436.002 233.343c0.00472442,0.773624 -0.044882,1.54252 -0.0897641,2.31615 -0.0295277,0.520868 -0.0590553,1.03701 -0.108662,1.55315 -0.0543309,0.561025 -0.133465,1.12087 -0.21378,1.67717 -0.0744097,0.511419 -0.144095,1.01693 -0.238583,1.52245 -0.0992129,0.550395 -0.227953,1.09607 -0.35197,1.64174 -0.114567,0.505513 -0.232678,1.01221 -0.367324,1.513 -0.148819,0.540947 -0.317718,1.08189 -0.49134,1.61693 -0.158268,0.496065 -0.312993,0.992129 -0.49134,1.48347 -0.183071,0.511419 -0.392127,1.01693 -0.600002,1.52835 -0.218505,0.536222 -0.431104,1.06654 -0.674412,1.59686 -0.227953,0.496065 -0.471261,0.992129 -0.719294,1.48347 -0.263387,0.525592 -0.525592,1.04646 -0.809058,1.56733 -0.243308,0.441734 -0.505513,0.883467 -0.764176,1.32402 -0.376773,0.640159 -0.7689,1.27441 -1.18111,1.90985 -0.27756,0.426379 -0.56575,0.852759 -0.858664,1.27441 -0.437009,0.624805 -0.888192,1.24489 -1.35945,1.86024 -0.297639,0.387403 -0.590553,0.773624 -0.897641,1.16103 -0.858664,1.06654 -1.75158,2.12363 -2.70828,3.15473 -0.0590553,0.0696853 -0.114567,0.139371 -0.178347,0.20315 -1.02166,1.09607 -2.10827,2.16733 -3.23387,3.22442 -0.232678,0.218505 -0.475986,0.431104 -0.714569,0.649608 -1.81536,1.65709 -3.76064,3.26458 -5.82876,4.81655 -0.248032,0.188977 -0.500789,0.372048 -0.753546,0.561025 -2.0882,1.53308 -4.30041,3.00591 -6.62246,4.4197 -0.302363,0.183071 -0.600002,0.372048 -0.908271,0.55512 -1.64174,0.976775 -3.33308,1.92993 -5.08466,2.84292 -0.292914,0.153544 -0.600002,0.302363 -0.897641,0.451183 -1.5626,0.798428 -3.16536,1.57205 -4.8071,2.31615 -0.4063,0.183071 -0.809058,0.376773 -1.22008,0.55512 -1.86969,0.827955 -3.79017,1.62166 -5.75435,2.38111 -0.387403,0.148819 -0.784254,0.292914 -1.17048,0.437009 -1.74095,0.654333 -3.51261,1.28032 -5.31734,1.8756 -0.381497,0.128741 -0.759451,0.257481 -1.14567,0.381497 -3.04135,0.976775 -6.17128,1.86969 -9.38034,2.68347 -0.198426,0.0496065 -0.392127,0.103937 -0.595277,0.153544 -3.38269,0.84331 -6.85514,1.59213 -10.4079,2.23229 -0.0295277,0.00472442 -0.0590553,0.00944885 -0.0838585,0.0153544 -2.05867,0.372048 -4.15159,0.699215 -6.25986,1.00158 -0.620081,0.0897641 -1.24961,0.168898 -1.8756,0.252757 -1.56733,0.207875 -3.14529,0.396852 -4.73269,0.56575 -0.570474,0.0590553 -1.13622,0.124016 -1.71142,0.178347 -3.65552,0.35197 -7.37601,0.604726 -11.1461,0.744097 -0.307088,0.00944885 -0.604726,0.0295277 -0.912995,0.0401576 -2.03859,0.0649608 -4.08781,0.103937 -6.15592,0.103937l-39.1052 0 -188.475 0c-2.06339,0 -4.07245,-0.133465 -6.02718,-0.35197 -0.243308,-0.0248032 -0.48071,-0.0496065 -0.719294,-0.0791341 -1.79056,-0.223229 -3.51733,-0.540947 -5.18387,-0.933074 -0.322442,-0.0744097 -0.644884,-0.153544 -0.962601,-0.238583 -1.65237,-0.421655 -3.23977,-0.912995 -4.73269,-1.48347 -0.0838585,-0.0342521 -0.178347,-0.0543309 -0.263387,-0.0897641 -1.68662,-0.660238 -3.25867,-1.40906 -4.69253,-2.23701 -5.7886,-3.34371 -9.37562,-7.95711 -9.3957,-13.0559l-0.635435 -109.184 -0.381497 134.061 0.635435 109.184c0.0200788,5.10002 3.60592,9.71342 9.3957,13.0559 1.41851,0.818507 2.97166,1.5626 4.63348,2.21694 0.0200788,0.00472442 0.0401576,0.0153544 0.0590553,0.0200788 0.0838585,0.0342521 0.178347,0.0543309 0.263387,0.0897641 1.1315,0.437009 2.30198,0.838585 3.52678,1.19055 0.387403,0.108662 0.803152,0.193701 1.2,0.292914 0.322442,0.0838585 0.644884,0.164174 0.97205,0.238583 0.392127,0.0944885 0.7689,0.20315 1.17048,0.28819 1.02166,0.21378 2.06812,0.392127 3.14056,0.545671l0 -0.0590553 0 0 0 0.0590553c0.282284,0.0401576 0.579923,0.0590553 0.868113,0.0992129 0.238583,0.0295277 0.475986,0.0543309 0.719294,0.0791341 0.496065,0.0543309 0.987405,0.124016 1.48819,0.168898 1.03229,0.0838585 2.07875,0.144095 3.14056,0.168898 0.466537,0.00944885 0.933074,0.0153544 1.40434,0.0153544l188.475 0 39.1052 0.00118111c2.06812,0 4.11734,-0.0401576 6.15592,-0.103937 0.133465,-0.00472442 0.27756,-0.00472442 0.412206,-0.00472442 0.168898,-0.00472442 0.331891,-0.0295277 0.500789,-0.0342521 3.77482,-0.139371 7.4953,-0.387403 11.1567,-0.744097 0.164174,-0.0153544 0.337796,-0.0153544 0.500789,-0.0342521 0.396852,-0.0401576 0.784254,-0.0992129 1.18111,-0.144095 1.60276,-0.168898 3.19489,-0.356694 4.77167,-0.570474 0.615356,-0.0791341 1.23544,-0.158268 1.84489,-0.248032 2.10827,-0.302363 4.20119,-0.62953 6.25986,-1.00158 0.00944885,-0.00472442 0.0248032,-0.00472442 0.0342521,-0.00472442 0.0248032,-0.00472442 0.044882,-0.00944885 0.0696853,-0.0153544 3.54686,-0.644884 7.01459,-1.39371 10.3973,-2.23229 0.193701,-0.0496065 0.381497,-0.103937 0.575199,-0.153544 3.21497,-0.809058 6.3449,-1.7067 9.39097,-2.68347 0.103937,-0.0342521 0.223229,-0.0590553 0.327166,-0.0944885 0.27756,-0.0897641 0.540947,-0.198426 0.818507,-0.28819 1.81064,-0.600002 3.58702,-1.22481 5.32797,-1.88032 0.387403,-0.144095 0.778349,-0.282284 1.16103,-0.431104 1.96418,-0.759451 3.88466,-1.55788 5.75907,-2.38583 0.4063,-0.178347 0.809058,-0.367324 1.21536,-0.55512 1.64646,-0.748821 3.25395,-1.52245 4.82128,-2.32678 0.292914,-0.148819 0.590553,-0.292914 0.877562,-0.441734 1.75158,-0.917719 3.44292,-1.86969 5.08939,-2.84765 0.158268,-0.0944885 0.327166,-0.178347 0.486616,-0.272836 0.148819,-0.0897641 0.27756,-0.193701 0.426379,-0.282284 2.32205,-1.41378 4.52954,-2.88662 6.62246,-4.4197 0.252757,-0.183071 0.505513,-0.372048 0.753546,-0.55512 2.06812,-1.54725 4.00867,-3.15473 5.82876,-4.81655 0.114567,-0.103937 0.257481,-0.20315 0.372048,-0.307088 0.124016,-0.114567 0.227953,-0.232678 0.347245,-0.347245 1.12559,-1.05709 2.21221,-2.12835 3.23387,-3.2197 0.0649608,-0.0696853 0.119292,-0.133465 0.178347,-0.20315 0.957877,-1.03701 1.85079,-2.0882 2.70828,-3.15473 0.108662,-0.139371 0.243308,-0.268111 0.35197,-0.4063 0.193701,-0.248032 0.356694,-0.500789 0.545671,-0.748821 0.466537,-0.615356 0.922444,-1.23544 1.35945,-1.86024 0.292914,-0.421655 0.579923,-0.848034 0.858664,-1.27441 0.412206,-0.635435 0.803152,-1.27441 1.18583,-1.91457 0.158268,-0.268111 0.342521,-0.530317 0.496065,-0.803152 0.0944885,-0.168898 0.168898,-0.342521 0.263387,-0.511419 0.282284,-0.520868 0.550395,-1.04646 0.813782,-1.57205 0.243308,-0.49134 0.49134,-0.98268 0.719294,-1.47874 0.238583,-0.530317 0.455907,-1.06181 0.674412,-1.59686 0.144095,-0.347245 0.307088,-0.69449 0.441734,-1.04174 0.0590553,-0.158268 0.103937,-0.322442 0.158268,-0.48071 0.178347,-0.49134 0.331891,-0.987405 0.49134,-1.48347 0.173623,-0.536222 0.342521,-1.07599 0.49134,-1.61693 0.139371,-0.500789 0.252757,-1.00748 0.367324,-1.513 0.0838585,-0.3626 0.188977,-0.719294 0.263387,-1.08189 0.0401576,-0.188977 0.0543309,-0.376773 0.0897641,-0.56575 0.0944885,-0.505513 0.168898,-1.01693 0.238583,-1.52245 0.0791341,-0.55512 0.158268,-1.11615 0.21378,-1.67717 0.0496065,-0.516143 0.0838585,-1.03229 0.108662,-1.55315 0.0200788,-0.347245 0.0649608,-0.689766 0.0744097,-1.03701 0.0153544,-0.426379 0.0200788,-0.852759 0.0153544,-1.28032l0 0 0.372048 -134.065z"/>
   <path id="_540670592" class="fil19" d="M435.303 244.37l-0.153544 53.6246c-1.31457,2.32678 -2.84292,4.59332 -4.57915,6.80081l0.153544 -53.6246c1.73741,-2.20158 3.2693,-4.47403 4.57915,-6.80081z"/>
   <path id="_540669944" class="fil8" d="M430.725 251.172l-0.153544 53.6246c-2.05867,2.61379 -4.41025,5.13899 -7.02404,7.56026l0.153544 -53.6246c2.61379,-2.42127 4.95946,-4.94647 7.02404,-7.56026z"/>
   <path id="_540670808" class="fil7" d="M423.699 258.731l-0.153544 53.6246c-4.16694,3.85395 -9.0083,7.43624 -14.426,10.6996l0.153544 -53.6246c5.41773,-3.2634 10.2591,-6.84451 14.426,-10.6996z"/>
   <path id="_540670784" class="fil6" d="M409.275 269.427l-0.153544 53.6246c-7.69845,4.63348 -16.5686,8.61144 -26.3363,11.7768l0.153544 -53.6246c9.76302,-3.16536 18.6319,-7.14451 26.3363,-11.7768z"/>
   <path id="_540671312" class="fil17" d="M382.938 281.208l-0.153544 53.6246c-6.73703,2.18268 -13.9052,3.97797 -21.4052,5.33742l0.153544 -53.6246c7.50002,-1.35945 14.6634,-3.15473 21.4052,-5.33742z"/>
   <path id="_540671024" class="fil6" d="M361.533 286.546l-0.153544 53.6246c-4.71734,0.852759 -9.56932,1.53308 -14.53,2.02442l0.153544 -53.6246c4.96065,-0.49134 9.81263,-1.17166 14.53,-2.02442z"/>
   <path id="_540671936" class="fil7" d="M347.003 288.569l-0.153544 53.6246c-4.10789,0.4063 -8.289,0.689766 -12.5351,0.833861l0.153544 -53.6246c4.24608,-0.144095 8.42837,-0.426379 12.5351,-0.833861z"/>
   <path id="_540671792" class="fil8" d="M334.468 289.403l-0.153544 53.6246c-2.25237,0.0791341 -4.52364,0.114567 -6.81144,0.114567l0.153544 -53.6246c2.28662,0.00472442 4.55907,-0.0354332 6.81144,-0.114567z"/>
   <g>
    <polygon id="_540671264" class="fil20" points="327.657,289.522 327.503,343.147 287.207,343.131 287.362,289.507 "/>
   </g>
   <g>
    <polygon id="_540671768" class="fil8" points="287.362,289.507 287.207,343.131 92.8491,343.147 93.0038,289.522 "/>
   </g>
   <path id="_540671552" class="fil1" d="M93.0038 289.522l-0.153544 53.6246c-9.06263,0 -17.2926,-2.13308 -23.2607,-5.58073 -5.96813,-3.44765 -9.67798,-8.20514 -9.70751,-13.4528l0.153544 -53.6246c0.0295277,5.24884 3.74056,10.0111 9.70751,13.4528 5.96695,3.44765 14.1969,5.58073 23.2607,5.58073z"/>
   <g>
    <path id="_540671576" class="fil7" d="M93.0038 289.522l-0.153544 53.6246c-0.48071,0 -0.962601,-0.00472442 -1.43859,-0.0200788l0.153544 -53.6246c0.475986,0.0153544 0.956696,0.0200788 1.43859,0.0200788z"/>
    <path id="_540671336" class="fil7" d="M91.5652 289.502l-0.153544 53.6246c-1.08662,-0.0295277 -2.16261,-0.0838585 -3.2197,-0.173623l0.153544 -53.6246c1.05591,0.0897641 2.13308,0.148819 3.2197,0.173623z"/>
    <path id="_540671984" class="fil7" d="M88.3456 289.333l-0.153544 53.6246c-1.07126,-0.0897641 -2.12835,-0.207875 -3.16536,-0.35197l0.153544 -53.6246c1.03701,0.144095 2.0941,0.263387 3.16536,0.35197z"/>
    <path id="_540672704" class="fil7" d="M85.1802 288.977l-0.153544 53.6246c-1.09607,-0.153544 -2.17796,-0.342521 -3.22914,-0.561025l0.153544 -53.6246c1.05118,0.218505 2.13308,0.407482 3.22914,0.561025z"/>
    <path id="_540672200" class="fil7" d="M81.951 288.415l-0.153544 53.6246c-1.18111,-0.243308 -2.32678,-0.525592 -3.44292,-0.84331l0.153544 -53.6246c1.11142,0.317718 2.26182,0.600002 3.44292,0.84331z"/>
    <path id="_540671600" class="fil7" d="M78.5081 287.572l-0.153544 53.6246c-1.38426,-0.392127 -2.70828,-0.84331 -3.97797,-1.33937l0.153544 -53.6246c1.26496,0.496065 2.59371,0.947247 3.97797,1.33937z"/>
    <path id="_540672032" class="fil7" d="M74.5302 286.233l-0.153544 53.6246c-1.72087,-0.674412 -3.32363,-1.44331 -4.79175,-2.29135 -5.96813,-3.44765 -9.67798,-8.20514 -9.70751,-13.4528l0.153544 -53.6246c0.0295277,5.24884 3.74056,10.0111 9.70751,13.4528 1.46811,0.848034 3.0756,1.61221 4.79175,2.29135z"/>
   </g>
   <g>
    <path id="_540671456" class="fil21" d="M407.349 177.178c20.6268,11.9103 33.4395,28.3654 33.5387,46.5403 0.227953,36.3367 -50.4746,65.803 -113.231,65.803l-40.2958 -0.00944885 -194.358 0.0153544c-9.06263,0 -17.2926,-2.13308 -23.2607,-5.58073 -5.96813,-3.44765 -9.67798,-8.20514 -9.70751,-13.4528l-0.635435 -112.591 -0.128741 -23.3304c-0.20315,-36.3521 50.4946,-65.8124 113.231,-65.803 31.3761,0 59.8254,7.36656 80.4522,19.2721 20.6268,11.9055 33.43,28.3595 33.5186,46.5261l0.153544 23.3398 40.2769 -0.00118111c31.3714,0 59.8148,7.36183 80.4463,19.2721z"/>
   </g>
  </g>
 </g>
</svg>
