<?xml version="1.0" encoding="UTF-8"?>
<!DOCTYPE svg PUBLIC "-//W3C//DTD SVG 1.1//EN" "http://www.w3.org/Graphics/SVG/1.1/DTD/svg11.dtd">
<!-- Creator: CorelDRAW -->
<svg xmlns="http://www.w3.org/2000/svg" xml:space="preserve" width="500px" height="500px" style="shape-rendering:geometricPrecision; text-rendering:geometricPrecision; image-rendering:optimizeQuality; fill-rule:evenodd; clip-rule:evenodd"
viewBox="0 0 500 500"
 xmlns:xlink="http://www.w3.org/1999/xlink">
 <defs>
  <style type="text/css">
   <![CDATA[
    .fil0 {fill:none}
    .fil14 {fill:#7D6346}
    .fil15 {fill:#806547}
    .fil22 {fill:#856948}
    .fil11 {fill:#856949}
    .fil10 {fill:#8A6D4C}
    .fil21 {fill:#8C6F4C}
    .fil16 {fill:#8C6F4E}
    .fil9 {fill:#8F714E}
    .fil20 {fill:#91734F}
    .fil17 {fill:#917350}
    .fil1 {fill:#947551}
    .fil13 {fill:#94806B}
    .fil23 {fill:#967752}
    .fil2 {fill:#997954}
    .fil19 {fill:#9E7D56}
    .fil3 {fill:#9E7D57}
    .fil18 {fill:#A17F58}
    .fil4 {fill:#A3815A}
    .fil24 {fill:#A6835B}
    .fil5 {fill:#A8855C}
    .fil6 {fill:#AD895F}
    .fil7 {fill:#B38D62}
    .fil8 {fill:#B89165}
    .fil12 {fill:#DCAD79}
    .fil25 {fill:#E6B47E}
   ]]>
  </style>
 </defs>
 <g id="Layer_x0020_1">
  <metadata id="CorelCorpID_0Corel-Layer"/>
  <g id="_540675608">
   <g>
    <g>
     <g>
      <g>
       <path id="_540675272" class="fil0" d="M432.045 230.135l-0.370867 130.01c-0.0531498,18.3414 -9.85397,34.6962 -30.2765,46.5639 -55.4766,32.2418 -168.318,19.1906 -252.04,-29.1473 -52.8947,-30.5399 -81.5105,-67.8581 -81.4207,-99.3298l0.370867 -130.009c-0.0897641,31.4729 28.5261,68.79 81.4219,99.3298 83.7203,48.3368 196.563,61.388 252.039,29.1473 20.4237,-11.8678 30.2233,-28.2237 30.2765,-46.5651z"/>
      </g>
      <g>
       <path id="_540675776" class="fil1" d="M432.045 230.135l-0.370867 130.01c0,0.432285 -0.00826774,0.862207 -0.0177166,1.28977l0.370867 -130.009c0.00944885,-0.429923 0.0177166,-0.857483 0.0177166,-1.29095z"/>
       <path id="_540675512" class="fil2" d="M432.027 231.431l-0.370867 130.009c-0.0814963,2.78623 -0.383859,5.52285 -0.920082,8.2016l0.370867 -130.009c0.536222,-2.68347 0.839766,-5.42128 0.920082,-8.2016z"/>
       <path id="_540675704" class="fil3" d="M431.107 239.632l-0.370867 130.009c-0.494883,2.46379 -1.18229,4.88033 -2.06694,7.24136l0.364962 -130.009c0.890554,-2.36103 1.57796,-4.77757 2.07284,-7.24136z"/>
       <path id="_540675560" class="fil4" d="M429.04 246.874l-0.366143 130.009c-0.856302,2.2819 -1.89686,4.51419 -3.12048,6.6886l0.370867 -130.009c1.21772,-2.17442 2.25827,-4.40671 3.11576,-6.6886z"/>
       <path id="_540675080" class="fil5" d="M425.915 253.562l-0.372048 130.009c-1.25433,2.22402 -2.70473,4.39371 -4.35238,6.49254l0.370867 -130.009c1.64764,-2.09883 3.09922,-4.26379 4.35356,-6.49254z"/>
       <path id="_540675896" class="fil6" d="M421.562 260.055l-0.370867 130.009c-1.88032,2.38938 -4.01458,4.69253 -6.4075,6.90238l0.370867 -130.009c2.3941,-2.20985 4.52836,-4.51419 6.4075,-6.90238z"/>
       <path id="_540675968" class="fil7" d="M415.154 266.957l-0.370867 130.009c-3.54096,3.26458 -7.64884,6.31774 -12.3367,9.12641l0.364962 -130.009c4.6949,-2.81339 8.80278,-5.86301 12.3426,-9.12641z"/>
       <path id="_540675872" class="fil8" d="M402.819 276.084l-0.366143 130.009c-0.348426,0.205512 -0.695671,0.415749 -1.04882,0.621262 -6.33191,3.67915 -13.4091,6.76892 -21.1052,9.28231l0.370867 -130.009c7.69727,-2.51457 14.7745,-5.60317 21.1005,-9.28231 0.35197,-0.206694 0.700396,-0.415749 1.04882,-0.621262z"/>
       <path id="_540676040" class="fil7" d="M380.663 285.982l-0.372048 130.009c-6.43703,2.10237 -13.3052,3.80316 -20.5335,5.11183l0.370867 -130.009c7.22837,-1.30748 14.1,-3.00946 20.5347,-5.11183z"/>
       <path id="_540644072" class="fil6" d="M360.133 291.094l-0.370867 130.009c-5.0138,0.907089 -10.1977,1.62638 -15.5292,2.15788l0.370867 -130.01c5.32679,-0.531498 10.5154,-1.24961 15.5292,-2.1567z"/>
       <path id="_540643736" class="fil5" d="M344.601 293.251l-0.372048 130.01c-4.91458,0.490159 -9.96027,0.820869 -15.1052,0.995672l0.372048 -130.009c5.14372,-0.174804 10.1894,-0.510238 15.1052,-0.996854z"/>
       <path id="_540643664" class="fil4" d="M329.496 294.247l-0.372048 130.009c-5.12009,0.174804 -10.35,0.19252 -15.6579,0.0578742l0.366143 -130.009c5.3138,0.134646 10.5378,0.115748 15.6638,-0.0578742z"/>
       <path id="_540643592" class="fil3" d="M313.833 294.304l-0.366143 130.009c-5.59844,-0.138189 -11.2914,-0.450001 -17.0516,-0.923625l0.366143 -130.009c5.7638,0.477167 11.452,0.785436 17.0516,0.923625z"/>
       <path id="_540643760" class="fil2" d="M296.781 293.381l-0.366143 130.009c-6.28703,-0.517324 -12.6532,-1.23544 -19.0831,-2.15079l0.370867 -130.01c6.42404,0.914176 12.7914,1.63347 19.0784,2.15198z"/>
       <path id="_540643904" class="fil1" d="M277.698 291.228l-0.370867 130.01c-7.2638,-1.03111 -14.6044,-2.31379 -21.9674,-3.83978l0.370867 -130.01c7.36656,1.52835 14.7036,2.80867 21.9674,3.83978z"/>
       <path id="_540644264" class="fil9" d="M255.731 287.388l-0.370867 130.01c-8.77798,-1.81772 -17.5961,-3.98269 -26.3835,-6.48782l0.366143 -130.01c8.79215,2.50631 17.6103,4.67127 26.3883,6.48782z"/>
       <path id="_540644288" class="fil10" d="M229.347 280.901l-0.366143 130.009c-11.5855,-3.29883 -23.1142,-7.18821 -34.4245,-11.6481l0.372048 -130.01c11.3044,4.46104 22.832,8.34924 34.4186,11.6492z"/>
       <path id="_540643952" class="fil11" d="M194.923 269.252l-0.370867 130.01c-15.6319,-6.16183 -30.8387,-13.4138 -45.1938,-21.7005 -52.8947,-30.5399 -81.5105,-67.8581 -81.4207,-99.3298l0.370867 -130.009c-0.0897641,31.4729 28.5261,68.79 81.4219,99.3298 14.3504,8.28664 29.5619,15.5375 45.1927,21.6993z"/>
      </g>
     </g>
     <g>
      <ellipse id="_540644144" class="fil12" transform="matrix(0.262729 -0.860912 0.860912 0.262729 250.234 189.171)" rx="104.273" ry="208.833"/>
     </g>
    </g>
   </g>
   <path id="_540644504" class="fil0" d="M437.703 226.398l-0.134646 47.275c-0.0531498,18.9225 -10.1658,35.7946 -31.232,48.0379 -57.2399,33.2635 -173.649,19.7977 -260.036,-30.0804 -54.5659,-31.5036 -84.0924,-70.0006 -83.9991,-102.469l0.134646 -47.275c-0.0944885,32.4686 29.432,70.9656 83.9979,102.47 86.3873,49.8769 202.796,63.3427 260.036,30.0792 21.0662,-12.2422 31.18,-29.1154 31.2332,-48.0379z"/>
   <path id="_540644672" class="fil13" d="M437.703 226.398l-0.134646 47.275c0,0.446458 -0.00826774,0.888192 -0.022441,1.33111l0.134646 -47.275c0.0129922,-0.442915 0.0177166,-0.884648 0.022441,-1.33111z"/>
   <path id="_540644864" class="fil14" d="M437.68 227.733l-0.134646 47.275c-0.0803152,2.87599 -0.396852,5.69766 -0.95079,8.46499l0.133465 -47.275c0.55512,-2.76733 0.871656,-5.59372 0.951972,-8.46499z"/>
   <path id="_540644888" class="fil15" d="M436.734 236.194l-0.134646 47.275c-0.509057,2.54528 -1.2189,5.03624 -2.13426,7.47404l0.133465 -47.275c0.911814,-2.4378 1.6252,-4.92876 2.13544,-7.47404z"/>
   <path id="_540644480" class="fil16" d="M434.599 243.668l-0.133465 47.275c-0.884648,2.35276 -1.95591,4.6571 -3.2197,6.89884l0.134646 -47.275c1.26378,-2.24292 2.33505,-4.54135 3.21851,-6.89884z"/>
   <path id="_540644816" class="fil17" d="M431.375 250.567l-0.133465 47.275c-1.29449,2.29489 -2.79095,4.5319 -4.49175,6.69215l0.133465 -47.2738c1.70197,-2.16142 3.19725,-4.39371 4.49175,-6.69333z"/>
   <path id="_540644576" class="fil2" d="M426.884 257.264l-0.133465 47.275c-1.9382,2.46379 -4.1386,4.8449 -6.60829,7.12207l0.134646 -47.275c2.46851,-2.27717 4.67009,-4.65828 6.60711,-7.12207z"/>
   <path id="_540644792" class="fil18" d="M420.277 264.386l-0.134646 47.275c-3.65198,3.36615 -7.88861,6.5138 -12.7252,9.41578l0.134646 -47.275c4.83427,-2.90198 9.07208,-6.04963 12.7252,-9.41578z"/>
   <path id="_540645680" class="fil19" d="M407.551 273.797l-0.134646 47.275c-0.356694,0.214961 -0.718112,0.428742 -1.07953,0.638978 -6.5327,3.79489 -13.8367,6.9827 -21.7749,9.57641l0.133465 -47.2738c7.94412,-2.59489 15.2434,-5.7827 21.7749,-9.57759 0.361418,-0.209056 0.722837,-0.424017 1.08071,-0.638978z"/>
   <path id="_540645368" class="fil20" d="M384.691 284.013l-0.134646 47.2738c-6.63782,2.17087 -13.7292,3.926 -21.1855,5.27364l0.133465 -47.275c7.46105,-1.34764 14.5465,-3.10277 21.1867,-5.27246z"/>
   <path id="_540657920" class="fil21" d="M363.509 289.291l-0.133465 47.2738c-5.17088,0.937798 -10.5189,1.67481 -16.0205,2.22402l0.133465 -47.275c5.49687,-0.549214 10.8461,-1.28977 16.0205,-2.22284z"/>
   <path id="_540665048" class="fil22" d="M347.484 291.514l-0.133465 47.275c-5.07167,0.505513 -10.2733,0.849215 -15.5823,1.02756l0.133465 -47.275c5.30907,-0.183071 10.5107,-0.522049 15.5823,-1.02756z"/>
   <path id="_540665768" class="fil21" d="M331.901 292.541l-0.133465 47.275c-5.28309,0.178347 -10.676,0.200788 -16.154,0.0625986l0.133465 -47.275c5.47915,0.133465 10.8733,0.115748 16.154,-0.0625986z"/>
   <path id="_540665456" class="fil20" d="M315.749 292.599l-0.134646 47.275c-5.77325,-0.141733 -11.6445,-0.464175 -17.5914,-0.955515l0.134646 -47.275c5.94687,0.496065 11.8181,0.812601 17.5914,0.955515z"/>
   <path id="_540666008" class="fil23" d="M298.157 291.643l-0.134646 47.275c-6.48191,-0.535041 -13.0559,-1.27678 -19.682,-2.21812l0.134646 -47.275c6.62955,0.946066 13.1977,1.68308 19.682,2.21812z"/>
   <path id="_540667304" class="fil19" d="M278.475 289.429l-0.134646 47.275c-7.49648,-1.063 -15.0638,-2.38465 -22.6595,-3.95907l0.134646 -47.275c7.59924,1.57087 15.1666,2.89253 22.6595,3.95907z"/>
   <path id="_540644384" class="fil18" d="M255.816 285.469l-0.134646 47.275c-9.05436,-1.8756 -18.1536,-4.10789 -27.2174,-6.69333l0.133465 -47.275c9.06381,2.58072 18.1583,4.81773 27.2186,6.69333z"/>
   <path id="_540676088" class="fil24" d="M228.594 278.775l-0.134646 47.275c-11.9516,-3.40749 -23.8501,-7.42089 -35.5182,-12.0189l0.134646 -47.275c11.6705,4.59923 23.5654,8.61263 35.5182,12.0189z"/>
   <path id="_540674408" class="fil6" d="M193.075 266.756l-0.134646 47.275c-16.1315,-6.35908 -31.8296,-13.8414 -46.6442,-22.3961 -54.5647,-31.5036 -84.0924,-70.0006 -83.9979,-102.469l0.133465 -47.275c-0.0933074,32.4686 29.432,70.9656 83.9991,102.469 14.8182,8.55003 30.5115,16.0335 46.6442,22.3961z"/>
   <g>
    <path id="_540645056" class="fil25" d="M353.69 123.91c86.3873,49.8769 109.998,117.271 52.7754,150.526 -57.2399,33.2635 -173.649,19.7977 -260.036,-30.0792 -86.3696,-49.8651 -109.998,-117.248 -52.7576,-150.512 57.227,-33.2517 173.654,-19.7977 260.018,30.0651z"/>
   </g>
  </g>
 </g>
</svg>
