<?xml version="1.0" encoding="UTF-8"?>
<!DOCTYPE svg PUBLIC "-//W3C//DTD SVG 1.1//EN" "http://www.w3.org/Graphics/SVG/1.1/DTD/svg11.dtd">
<!-- Creator: CorelDRAW -->
<svg xmlns="http://www.w3.org/2000/svg" xml:space="preserve" width="500px" height="500px" style="shape-rendering:geometricPrecision; text-rendering:geometricPrecision; image-rendering:optimizeQuality; fill-rule:evenodd; clip-rule:evenodd"
viewBox="0 0 500 500"
 xmlns:xlink="http://www.w3.org/1999/xlink">
 <defs>
  <style type="text/css">
   <![CDATA[
    .fil1 {fill:none}
    .fil0 {fill:#665139}
    .fil2 {fill:#856949}
    .fil3 {fill:#8A6D4C}
    .fil4 {fill:#8F714E}
    .fil5 {fill:#947551}
    .fil6 {fill:#997954}
    .fil7 {fill:#9E7D57}
    .fil8 {fill:#A3815A}
    .fil9 {fill:#A8855C}
    .fil10 {fill:#AD895F}
    .fil11 {fill:#B38D62}
    .fil12 {fill:#B89165}
    .fil14 {fill:#BD9568}
    .fil15 {fill:#C2996A}
    .fil16 {fill:#C79D6D}
    .fil17 {fill:#CCA170}
    .fil18 {fill:#D1A573}
    .fil22 {fill:#D6A876}
    .fil19 {fill:#D6A976}
    .fil20 {fill:#DBAD78}
    .fil13 {fill:#DCAD79}
    .fil21 {fill:#E0B17B}
   ]]>
  </style>
 </defs>
 <g id="Layer_x0020_1">
  <metadata id="CorelCorpID_0Corel-Layer"/>
  <g id="_260259168">
   <path id="_529272648" class="fil0" d="M386.92 195.741c45.9686,26.5395 46.212,69.5742 0.542128,96.1137 -45.671,26.5395 -119.948,26.5335 -165.918,-0.00590553 -45.9686,-26.5406 -46.212,-69.5577 -0.540947,-96.1007 45.6698,-26.543 119.947,-26.5477 165.917,-0.00708664z"/>
   <g>
    <g>
     <g>
      <path id="_529272600" class="fil1" d="M415.811 188.339l-0.315355 111.579c0.0484253,-16.6418 -10.9134,-33.3036 -32.8584,-45.9757 -43.5958,-25.1717 -114.305,-25.1682 -157.63,0.00708664 -21.5162,12.5032 -32.2891,28.9052 -32.3328,45.3309l0.314174 -111.58c0.0484253,-16.4256 10.8166,-32.8241 32.334,-45.3309 43.3253,-25.1776 114.033,-25.1776 157.63,-0.00590553 21.9461,12.6685 32.9033,29.334 32.8584,45.9757z"/>
     </g>
     <g>
      <path id="_529272096" class="fil2" d="M415.811 188.339l-0.315355 111.579c0.0484253,-16.6418 -10.9134,-33.3036 -32.8584,-45.9757 -5.00907,-2.89017 -10.3772,-5.4508 -16.017,-7.67955l0.314174 -111.579c5.64332,2.22875 11.0091,4.78584 16.0182,7.67955 21.9461,12.6685 32.9033,29.334 32.8584,45.9757z"/>
      <path id="_529272552" class="fil3" d="M366.934 134.684l-0.314174 111.579c-4.35474,-1.71733 -8.87011,-3.23977 -13.5119,-4.56261l0.315355 -111.58c4.6382,1.32402 9.15712,2.84647 13.5107,4.56379z"/>
      <path id="_529272456" class="fil4" d="M353.42 130.12l-0.315355 111.58c-3.79844,-1.08426 -7.67955,-2.03386 -11.6256,-2.84883l0.315355 -111.58c3.94608,0.816144 7.82601,1.76575 11.6256,2.84883z"/>
      <path id="_529272264" class="fil5" d="M341.798 127.271l-0.315355 111.579c-3.63781,-0.754727 -7.32994,-1.39489 -11.0634,-1.92284l0.315355 -111.58c3.72993,0.527954 7.42207,1.1693 11.0634,1.92402z"/>
      <path id="_529272624" class="fil6" d="M330.733 125.347l-0.315355 111.58c-3.58938,-0.507876 -7.21301,-0.911814 -10.8567,-1.21418l0.314174 -111.579c3.64489,0.301182 7.26853,0.702758 10.8579,1.213z"/>
      <path id="_529272024" class="fil7" d="M319.875 124.134l-0.314174 111.579c-3.65552,-0.302363 -7.3264,-0.497246 -11.0055,-0.589372l0.314174 -111.579c3.67915,0.0921263 7.3512,0.28819 11.0055,0.589372z"/>
      <path id="_529271232" class="fil8" d="M308.868 123.545l-0.315355 111.579c-3.81615,-0.0968507 -7.63467,-0.0791341 -11.4485,0.0507876l0.315355 -111.579c3.81261,-0.126378 7.63467,-0.147638 11.4485,-0.0507876z"/>
      <path id="_529271880" class="fil9" d="M297.423 123.599l-0.315355 111.579c-4.14804,0.140552 -8.28546,0.418112 -12.3933,0.826774l0.315355 -111.58c4.10316,-0.411025 8.24176,-0.685042 12.3933,-0.825593z"/>
      <path id="_529271784" class="fil10" d="M285.029 124.425l-0.315355 111.58c-4.80356,0.475986 -9.55869,1.13741 -14.2394,1.9819l0.315355 -111.58c4.67718,-0.84331 9.43586,-1.50473 14.2394,-1.9819z"/>
      <path id="_529271808" class="fil11" d="M270.786 126.407l-0.314174 111.58c-7.26853,1.30867 -14.3457,3.06143 -21.1064,5.2512l0.315355 -111.579c6.76065,-2.18977 13.8402,-3.94253 21.1052,-5.25238z"/>
      <path id="_529271520" class="fil12" d="M249.681 131.659l-0.315355 111.579c-8.739,2.83229 -16.9501,6.40514 -24.3591,10.7115 -0.455907,0.263387 -0.904727,0.531498 -1.35355,0.798428l0.314174 -111.579c0.446458,-0.268111 0.898822,-0.535041 1.35473,-0.799609 7.40908,-4.30513 15.6201,-7.87443 24.3591,-10.7103z"/>
      <path id="_529271736" class="fil11" d="M223.967 143.169l-0.314174 111.579c-5.39411,3.24332 -10.0796,6.73703 -14.0634,10.4126l0.315355 -111.579c3.98623,-3.6756 8.67404,-7.16931 14.0622,-10.4126z"/>
      <path id="_529271472" class="fil10" d="M209.907 153.582l-0.314174 111.579c-2.60316,2.40237 -4.90631,4.88505 -6.90593,7.42561l0.315355 -111.579c1.99961,-2.54056 4.30277,-5.02324 6.90475,-7.42561z"/>
      <path id="_529271928" class="fil9" d="M202.999 161.011l-0.314174 111.579c-1.71851,2.18032 -3.21261,4.40316 -4.48584,6.66262l0.315355 -111.579c1.27205,-2.26064 2.77087,-4.48584 4.48466,-6.66262z"/>
      <path id="_529271376" class="fil8" d="M198.514 167.669l-0.315355 111.579c-1.17874,2.09174 -2.16969,4.21064 -2.97166,6.34608l0.315355 -111.579c0.798428,-2.13544 1.78938,-4.25434 2.97166,-6.34608z"/>
      <path id="_529271448" class="fil7" d="M195.539 174.018l-0.315355 111.579c-0.781892,2.08111 -1.38189,4.17993 -1.80237,6.28821l0.314174 -111.58c0.421655,-2.10827 1.0252,-4.20592 1.80355,-6.28703z"/>
      <path id="_529271568" class="fil6" d="M193.736 180.305l-0.315355 111.58c-0.425198,2.12835 -0.672049,4.27088 -0.733467,6.41104l0.314174 -111.579c0.0625986,-2.14371 0.305906,-4.28269 0.734648,-6.41222z"/>
      <path id="_529270968" class="fil5" d="M193.002 186.718l-0.315355 111.579c-0.01063,0.328347 -0.0129922,0.654333 -0.0165355,0.980318l0.315355 -111.579c0.00236221,-0.325985 0.00590553,-0.651971 0.0165355,-0.980318z"/>
     </g>
    </g>
    <g>
     <g>
      <path id="_529271184" class="fil1" d="M427.523 188.37l-0.315355 111.579c-0.0519687,18.1536 -11.9587,36.2848 -35.7415,50.1037 -47.8655,27.8162 -126.028,27.8257 -174.218,0 -24.2422,-13.9985 -36.3521,-32.419 -36.3013,-50.8088l0.315355 -111.58c-0.0507876,18.391 12.0579,36.8115 36.3013,50.81 48.1903,27.8221 126.352,27.8162 174.217,0 23.7839,-13.8201 35.6907,-31.9466 35.7426,-50.1037z"/>
     </g>
     <g>
      <path id="_529271112" class="fil5" d="M427.523 188.37l-0.315355 111.579c0,0.360237 -0.00708664,0.724018 -0.0177166,1.08426l0.315355 -111.58c0.01063,-0.359056 0.0177166,-0.719294 0.0177166,-1.08307z"/>
      <path id="_529271088" class="fil6" d="M427.505 189.457l-0.315355 111.579c-0.0685042,2.36576 -0.338977,4.73151 -0.809058,7.08664l0.315355 -111.579c0.47008,-2.35513 0.740554,-4.72088 0.809058,-7.08664z"/>
      <path id="_529270944" class="fil7" d="M426.696 196.543l-0.315355 111.579c-0.465356,2.3315 -1.13032,4.65238 -1.99489,6.94963l0.315355 -111.58c0.863389,-2.29843 1.52953,-4.61694 1.99489,-6.94845z"/>
      <path id="_529270728" class="fil8" d="M424.701 203.493l-0.315355 111.579c-0.888192,2.36221 -1.9819,4.70435 -3.2882,7.01459l0.315355 -111.579c1.3063,-2.31142 2.40001,-4.65238 3.2882,-7.01459z"/>
      <path id="_529270584" class="fil9" d="M421.413 210.507l-0.315355 111.579c-1.40788,2.49686 -3.06143,4.95474 -4.9571,7.36065l0.315355 -111.579c1.89568,-2.40709 3.54804,-4.86498 4.9571,-7.36065z"/>
      <path id="_529270992" class="fil10" d="M416.456 217.872l-0.315355 111.58c-2.21103,2.81103 -4.75868,5.55356 -7.63467,8.20751l0.315355 -111.579c2.87599,-2.65867 5.42364,-5.4012 7.63467,-8.20869z"/>
      <path id="_529270464" class="fil11" d="M408.825 226.079l-0.315355 111.579c-4.40553,4.06655 -9.58586,7.9264 -15.5445,11.5134l0.314174 -111.579c5.95868,-3.58584 11.139,-7.44687 15.5457,-11.5134z"/>
      <path id="_529269840" class="fil12" d="M393.276 237.592l-0.315355 111.579c-0.493702,0.297639 -0.990948,0.592915 -1.49528,0.884648 -8.1827,4.75513 -17.256,8.69767 -26.9103,11.8288l0.315355 -111.58c9.65436,-3.12993 18.7264,-7.07246 26.9103,-11.8276 0.504332,-0.295277 1.0004,-0.590553 1.49528,-0.884648z"/>
      <path id="_529269672" class="fil11" d="M364.871 250.305l-0.315355 111.58c-7.4705,2.42363 -15.2941,4.3571 -23.3268,5.8075l0.315355 -111.579c8.03152,-1.4504 15.8563,-3.38741 23.3268,-5.80868z"/>
      <path id="_529269864" class="fil10" d="M341.546 256.109l-0.314174 111.58c-5.17088,0.931893 -10.4292,1.66182 -15.7406,2.19095l0.315355 -111.58c5.30671,-0.527954 10.5662,-1.25788 15.7394,-2.19095z"/>
      <path id="_529270032" class="fil9" d="M325.807 258.303l-0.315355 111.579c-4.53899,0.452364 -9.11341,0.75827 -13.6996,0.911814l0.315355 -111.579c4.58623,-0.157087 9.16066,-0.462994 13.6996,-0.911814z"/>
      <path id="_529270368" class="fil8" d="M312.107 259.215l-0.315355 111.579c-4.21419,0.144095 -8.43782,0.165355 -12.6544,0.0578742l0.315355 -111.579c4.21655,0.107481 8.44018,0.0874019 12.6544,-0.0578742z"/>
      <path id="_529270104" class="fil7" d="M299.452 259.274l-0.315355 111.579c-4.06537,-0.0992129 -8.12837,-0.318899 -12.1678,-0.650789l0.315355 -111.58c4.03938,0.333072 8.09884,0.549214 12.1678,0.651971z"/>
      <path id="_529269960" class="fil6" d="M287.285 258.622l-0.315355 111.58c-4.02875,-0.333072 -8.03625,-0.778349 -12.0024,-1.34056l0.314174 -111.579c3.96734,0.561025 7.97128,1.0063 12.0036,1.33937z"/>
      <path id="_529269792" class="fil5" d="M275.278 257.283l-0.315355 111.579c-4.12442,-0.585829 -8.20751,-1.29213 -12.2292,-2.12599l0.315355 -111.579c4.02521,0.83268 8.10475,1.53898 12.2292,2.12599z"/>
      <path id="_529270176" class="fil4" d="M263.052 255.152l-0.315355 111.58c-4.36064,-0.905908 -8.65042,-1.95473 -12.8504,-3.15119l0.315355 -111.579c4.19647,1.2 8.48979,2.24883 12.8504,3.15001z"/>
      <path id="_529270320" class="fil3" d="M250.202 252.006l-0.315355 111.579c-5.13191,-1.45985 -10.1244,-3.14292 -14.9339,-5.04332l0.315355 -111.579c4.81065,1.89922 9.802,3.57875 14.9339,5.04332z"/>
      <path id="_529270128" class="fil2" d="M235.265 246.962l-0.315355 111.579c-6.23624,-2.46143 -12.1678,-5.29017 -17.7048,-8.48507 -24.2422,-13.9985 -36.3521,-32.419 -36.3001,-50.81l0.314174 -111.579c-0.0507876,18.391 12.0579,36.8115 36.3013,50.81 5.53703,3.19489 11.4721,6.02364 17.7048,8.48507z"/>
     </g>
    </g>
    <g>
     <path id="_529269192" class="fil13" d="M391.212 137.56c48.1903,27.8221 48.4442,73.0916 0.568112,100.914 -47.8643,27.8162 -126.026,27.8257 -174.217,0 -48.1809,-27.815 -48.4336,-73.0975 -0.569293,-100.914 47.8785,-27.8221 126.041,-27.815 174.218,0zm-165.376 96.1066c43.6112,25.1788 114.319,25.1788 157.63,0.00708664 43.3253,-25.1788 43.0962,-66.136 -0.513781,-91.3137 -43.597,-25.1717 -114.305,-25.1717 -157.63,0.00590553 -43.3159,25.1765 -43.082,66.1325 0.513781,91.3007z"/>
    </g>
   </g>
   <path id="_529268976" class="fil1" d="M224.633 146.827l22.4422 10.8685c34.597,16.754 53.4699,60.3923 44.0151,111.062 -12,64.3006 -65.1002,115.588 -118.608,114.527 -11.3481,-0.222048 -21.802,-2.78741 -31.1162,-7.29569l-22.4434 -10.8709c9.31538,4.51064 19.7694,7.07246 31.1174,7.29569 53.5076,1.05945 106.608,-50.2301 118.608,-114.528 9.45475,-50.6659 -9.41932,-94.3031 -44.0151,-111.058z"/>
   <g>
    <path id="_529269552" class="fil7" d="M224.633 146.827l22.4422 10.8685c0.740554,0.360237 1.47756,0.729924 2.20513,1.11378l-22.4434 -10.8709c-0.72638,-0.380316 -1.46103,-0.751183 -2.20394,-1.11142z"/>
    <path id="_529269072" class="fil8" d="M226.837 147.941l22.4422 10.8721c1.59095,0.839766 3.14765,1.73741 4.66655,2.69174l-22.4457 -10.8721c-1.51536,-0.951972 -3.07206,-1.85079 -4.66301,-2.69174z"/>
    <path id="_529269144" class="fil9" d="M231.504 150.632l22.4457 10.8721c1.48819,0.931893 2.94214,1.92284 4.3571,2.96221l-22.4422 -10.8721c-1.41969,-1.03937 -2.87363,-2.0256 -4.36064,-2.96221z"/>
    <path id="_529269624" class="fil10" d="M235.861 153.595l22.4434 10.8721c1.40197,1.02874 2.76969,2.11182 4.09962,3.23977l-22.4457 -10.8685c-1.32756,-1.1315 -2.6941,-2.21103 -4.09726,-3.24332z"/>
    <path id="_529269312" class="fil11" d="M239.962 156.838l22.4457 10.8685c1.34056,1.13741 2.64332,2.32796 3.91182,3.56576l-22.4434 -10.8721c-1.26851,-1.23426 -2.57363,-2.42363 -3.91419,-3.56222z"/>
    <path id="_529269576" class="fil12" d="M243.874 160.4l22.4422 10.8721c1.28268,1.25433 2.52639,2.55709 3.73111,3.90828l-22.4434 -10.8685c-1.20355,-1.35355 -2.44843,-2.65631 -3.72993,-3.91182z"/>
    <path id="_529269456" class="fil14" d="M247.604 164.308l22.4434 10.8685c1.23071,1.38544 2.42009,2.81812 3.56458,4.29686l-22.4457 -10.8685c-1.14213,-1.47874 -2.3315,-2.91143 -3.56222,-4.29686z"/>
    <path id="_529268232" class="fil15" d="M251.169 168.609l22.4457 10.8674c1.21063,1.56378 2.3693,3.1819 3.47718,4.84844l-22.4434 -10.8721c-1.11378,-1.66654 -2.27245,-3.28111 -3.47954,-4.84372z"/>
    <path id="_529268352" class="fil16" d="M254.646 173.453l22.4422 10.8709c1.17992,1.7693 2.29725,3.59647 3.36025,5.47915l-22.4434 -10.8685c-1.063,-1.8815 -2.18387,-3.70867 -3.35907,-5.48151z"/>
    <path id="_529268208" class="fil17" d="M258.002 178.932l22.4422 10.8674c1.15512,2.0504 2.24292,4.16576 3.25749,6.34254l-22.4434 -10.8674c-1.01103,-2.17442 -2.09764,-4.2886 -3.25631,-6.34254z"/>
    <path id="_529268832" class="fil18" d="M261.258 185.274l22.4434 10.8674c1.15512,2.47914 2.21457,5.03742 3.17481,7.66656l-22.4434 -10.8721c-0.959058,-2.62206 -2.01851,-5.18033 -3.17481,-7.66184z"/>
    <path id="_529268736" class="fil19" d="M264.434 192.943l22.4422 10.8709c1.18347,3.24096 2.21812,6.58939 3.09686,10.0394l-22.4434 -10.8685c-0.877562,-3.45237 -1.90985,-6.80199 -3.09568,-10.0418z"/>
    <path id="_529268304" class="fil20" d="M267.53 202.981l22.4422 10.8685c1.76575,6.94018 2.89725,14.2796 3.33899,21.932l-22.4422 -10.8721c-0.441734,-7.64884 -1.57323,-14.9882 -3.33899,-21.9284z"/>
    <path id="_265961672" class="fil21" d="M270.869 224.913l22.4422 10.8721c0.168898,2.89017 0.233859,5.82167 0.20315,8.79688l-22.4422 -10.8721c0.0307088,-2.97521 -0.0377954,-5.90671 -0.20315,-8.79688z"/>
    <path id="_540657296" class="fil20" d="M271.072 233.708l22.4422 10.8709c-0.0862207,7.73506 -0.861026,15.7406 -2.37284,23.928l-22.4457 -10.8721c1.51536,-8.18625 2.28662,-16.1882 2.37639,-23.9268z"/>
    <path id="_260261136" class="fil19" d="M268.696 257.635l22.4457 10.8721c-0.0177166,0.0814963 -0.0318899,0.167717 -0.0484253,0.250394 -0.716931,3.84332 -1.58032,7.63821 -2.58544,11.3823l-22.4422 -10.8721c1.0004,-3.73938 1.86497,-7.539 2.5819,-11.3823 0.0165355,-0.0814963 0.0342521,-0.164174 0.0484253,-0.250394z"/>
    <path id="_540666224" class="fil18" d="M266.067 269.267l22.4422 10.8721c-0.833861,3.10631 -1.75985,6.17482 -2.77678,9.202l-22.4434 -10.8685c1.01811,-3.03072 1.9441,-6.09923 2.77796,-9.20554z"/>
    <path id="_540666416" class="fil17" d="M263.289 278.471l22.4434 10.8674c-0.898822,2.67166 -1.86615,5.30789 -2.9008,7.90632l-22.4422 -10.8721c1.03465,-2.59489 2.00079,-5.2323 2.89962,-7.9016z"/>
    <path id="_540666176" class="fil16" d="M260.389 286.376l22.4422 10.8721c-0.946066,2.37875 -1.95119,4.72797 -3.00355,7.04175l-22.4422 -10.8709c1.05591,-2.31497 2.05631,-4.66301 3.00355,-7.04294z"/>
    <path id="_540666152" class="fil15" d="M257.384 293.419l22.4434 10.8709c-1.00158,2.1945 -2.0504,4.3571 -3.1441,6.49372l-22.4422 -10.8709c1.0937,-2.13662 2.14253,-4.30041 3.14292,-6.49372z"/>
    <path id="_540666128" class="fil14" d="M254.241 299.911l22.4422 10.8709c-1.063,2.07166 -2.17087,4.11497 -3.31536,6.12404l-22.4457 -10.8721c1.14804,-2.00906 2.25591,-4.05237 3.31891,-6.12285z"/>
    <path id="_540666464" class="fil12" d="M250.922 306.035l22.4457 10.8709c-1.12559,1.97127 -2.29135,3.91182 -3.49371,5.82167l-22.4434 -10.8709c1.20118,-1.90985 2.36694,-3.85041 3.49135,-5.82167z"/>
    <path id="_540666584" class="fil11" d="M247.432 311.856l22.4422 10.8721c-1.19292,1.88859 -2.42009,3.74765 -3.68151,5.57128l-22.4434 -10.8721c1.2626,-1.82363 2.48977,-3.68151 3.68269,-5.57128z"/>
    <path id="_540666080" class="fil10" d="M243.747 317.427l22.4422 10.8721c-1.27559,1.84016 -2.58544,3.64489 -3.92954,5.41301l-22.4422 -10.8709c1.34764,-1.7693 2.65749,-3.57285 3.92954,-5.41419z"/>
    <path id="_540666344" class="fil9" d="M239.821 322.841l22.4422 10.8709c-1.36418,1.79764 -2.76261,3.55513 -4.19647,5.27364l-22.4422 -10.8709c1.43268,-1.71851 2.83111,-3.47718 4.19647,-5.27364z"/>
    <path id="_540665888" class="fil8" d="M235.625 328.117l22.4422 10.8721c-1.46339,1.75867 -2.96221,3.476 -4.49411,5.15317l-22.4434 -10.8721c1.53308,-1.67599 3.0319,-3.3945 4.49529,-5.15317z"/>
    <path id="_540666560" class="fil7" d="M231.129 333.27l22.4434 10.8709c-1.61812,1.77284 -3.27403,3.49371 -4.96537,5.16616l-22.4457 -10.8674c1.69371,-1.67599 3.34962,-3.4004 4.96773,-5.1697z"/>
    <path id="_540666320" class="fil6" d="M226.165 338.434l22.4457 10.8685c-1.79646,1.77875 -3.63426,3.49962 -5.50277,5.16261l-22.4422 -10.8721c1.86851,-1.65591 3.70277,-3.37678 5.49923,-5.15907z"/>
    <path id="_540666056" class="fil5" d="M220.663 343.597l22.4422 10.8721c-2.04331,1.813 -4.12797,3.55513 -6.25041,5.22167l-22.4422 -10.8721c2.12245,-1.663 4.2071,-3.40395 6.25041,-5.22167z"/>
    <path id="_540666200" class="fil4" d="M214.413 348.822l22.4422 10.8721c-2.42363,1.90276 -4.89568,3.70513 -7.41144,5.40238l-22.4434 -10.8709c2.51576,-1.69725 4.98781,-3.5008 7.41262,-5.40356z"/>
    <path id="_540666032" class="fil3" d="M207.001 354.226l22.4422 10.8709c-3.10985,2.09883 -6.28112,4.03584 -9.5079,5.80041l-22.4422 -10.8709c3.22678,-1.76575 6.40159,-3.70277 9.5079,-5.80041z"/>
    <path id="_540664376" class="fil2" d="M197.494 360.026l22.4422 10.8709c-15.0237,8.21459 -31.2166,12.7134 -47.4498,12.391 -11.3481,-0.223229 -21.802,-2.78741 -31.1162,-7.29569l-22.4434 -10.8721c9.31538,4.51183 19.7682,7.07364 31.1174,7.29687 16.2331,0.322442 32.4249,-4.17639 47.4498,-12.391z"/>
   </g>
   <g>
    <path id="_531637064" class="fil22" d="M193.499 139.528c53.5076,1.05945 87.1515,54.0462 75.1491,118.361 -12,64.3006 -65.1002,115.588 -118.608,114.528 -53.4947,-1.05945 -87.1349,-54.0639 -75.1349,-118.361 12.0024,-64.3183 65.099,-115.587 118.594,-114.528z"/>
   </g>
  </g>
 </g>
</svg>
